M48
;GenerationSoftware,Autodesk,EAGLE,9.6.2*%
;CreationDate,2025-07-01T03:49:59Z*%
FMAT,2
ICI,OFF
METRIC,TZ,000.000
T7C0.200
T6C0.350
T5C0.800
T4C0.813
T3C1.016
T2C1.200
T1C3.200
%
G90
M71
T1
X25273Y11049
X89408Y10922
X89408Y45974
X25273Y45974
T2
X5842Y6731
X55880Y46863
X52070Y46863
X61849Y46863
X65659Y46863
X69469Y46863
X75692Y46863
X79502Y46863
X83312Y46863
X5842Y10541
T3
X46609Y33020
X44069Y33020
X51689Y33020
X49149Y33020
T4
X3683Y29353
X3683Y31353
X38148Y47625
X44148Y47625
X42148Y47625
X40148Y47625
T5
X14097Y25908
X17597Y25908
X83312Y42672
X83312Y40132
X61849Y42672
X61849Y40132
X65659Y42672
X65659Y40132
X69469Y42672
X69469Y40132
X79502Y42672
X75692Y40132
X75692Y42672
X79502Y40132
T6
X45720Y24257
X53340Y26035
X54356Y15621
X64516Y8128
X58039Y20574
X62992Y18435
X56388Y22202
X48514Y27198
X45085Y28321
X41910Y23241
X40871Y28321
X37084Y41108
X35179Y41089
X51181Y26540
X50419Y25781
X46609Y15240
X37973Y23876
X18542Y17526
X20955Y14605
X20320Y17526
X20320Y15621
X41148Y14605
X58293Y12954
X62992Y17526
X26035Y33401
X35052Y37338
X27305Y38481
X39370Y32893
X32004Y20320
X34290Y32893
X34290Y34163
X29718Y20066
X21229Y17526
X9906Y30226
X30965Y31159
X10795Y31115
X8763Y31115
X20320Y31623
X20320Y36957
X41529Y17272
X38250Y22479
X35306Y43815
X38989Y20955
X41656Y18288
X40132Y45316
X35410Y45339
X30965Y25864
X29906Y27275
X74930Y29083
X58801Y25169
X89916Y39370
X76327Y37211
X76581Y41402
X88646Y39370
X81026Y37338
X80264Y41275
X87641Y39254
X85725Y37592
X30988Y38227
X49045Y25400
X83693Y29591
X56388Y27686
X63754Y43561
X51943Y40767
X66294Y49022
X76962Y49149
X83566Y49276
X87630Y49403
X85471Y44958
X89916Y36322
X73660Y36068
X66040Y35941
X58293Y36068
X63627Y23241
X46736Y20701
X35179Y41997
X37084Y42017
X63627Y22332
X47371Y14351
X20447Y41402
X22606Y40578
X35179Y39243
X37084Y39243
X40005Y30353
X63627Y24150
X46713Y21610
X41656Y22225
X40236Y28971
X37211Y40200
X35179Y40180
X22733Y41487
X21252Y41994
X63627Y25059
X47498Y27178
X48156Y26289
X81788Y23368
X37084Y42926
X35306Y42906
X63627Y21336
X62738Y26543
X63627Y20320
X66421Y27686
X62103Y24892
X71501Y27940
X33020Y29210
X34798Y35306
X46990Y44450
X65786Y25273
X65278Y19177
X74041Y22352
X77851Y25019
X79375Y17272
X89027Y17018
X89027Y6858
X70993Y7366
X54102Y11684
X57023Y16510
X79248Y29591
X48895Y18669
X35433Y18669
X35306Y12954
X23241Y15621
X14986Y13716
X7747Y20066
X2286Y14351
X2159Y21082
X7747Y27305
X4699Y34036
X14732Y36449
X21463Y48768
X20066Y44958
X31369Y46482
X34544Y47117
X45974Y45085
X25781Y31369
X20320Y21209
X29210Y25781
X17653Y31623
X26035Y37719
X37465Y37592
X25527Y6477
X72644Y14224
T7
X53860Y21093
X52025Y21093
X53860Y17423
X52025Y17423
X54778Y18341
X52943Y18341
X51108Y18341
X53860Y19258
X52025Y19258
X54778Y20176
X52943Y20176
X51108Y20176
M30