G04 EAGLE Gerber RS-274X export*
G75*
%MOMM*%
%FSLAX34Y34*%
%LPD*%
%INBottom Copper*%
%IPPOS*%
%AMOC8*
5,1,8,0,0,1.08239X$1,22.5*%
G01*
%ADD10C,0.708000*%
%ADD11R,1.308000X1.308000*%
%ADD12C,1.308000*%
%ADD13P,1.814519X8X112.500000*%
%ADD14P,1.814519X8X22.500000*%
%ADD15R,2.286000X5.080000*%
%ADD16R,1.800000X1.800000*%
%ADD17C,1.800000*%
%ADD18C,1.524000*%
%ADD19C,0.756400*%
%ADD20C,0.406400*%
%ADD21C,0.254000*%
%ADD22C,0.508000*%

G36*
X427921Y49539D02*
X427921Y49539D01*
X427979Y49537D01*
X428061Y49559D01*
X428145Y49571D01*
X428198Y49594D01*
X428254Y49609D01*
X428327Y49652D01*
X428404Y49687D01*
X428449Y49725D01*
X428499Y49754D01*
X428557Y49816D01*
X428621Y49870D01*
X428653Y49919D01*
X428693Y49962D01*
X428732Y50037D01*
X428779Y50107D01*
X428796Y50163D01*
X428823Y50215D01*
X428834Y50283D01*
X428864Y50378D01*
X428867Y50478D01*
X428878Y50546D01*
X428878Y110648D01*
X429102Y110872D01*
X611028Y110872D01*
X612001Y109899D01*
X612522Y109378D01*
X612522Y50546D01*
X612530Y50488D01*
X612528Y50430D01*
X612550Y50348D01*
X612562Y50264D01*
X612585Y50211D01*
X612600Y50155D01*
X612643Y50082D01*
X612678Y50005D01*
X612716Y49960D01*
X612745Y49910D01*
X612807Y49852D01*
X612861Y49788D01*
X612910Y49756D01*
X612953Y49716D01*
X613028Y49677D01*
X613098Y49630D01*
X613154Y49613D01*
X613206Y49586D01*
X613274Y49575D01*
X613369Y49545D01*
X613469Y49542D01*
X613537Y49531D01*
X737932Y49531D01*
X737934Y49531D01*
X737935Y49531D01*
X738075Y49551D01*
X738214Y49571D01*
X738215Y49571D01*
X738217Y49571D01*
X738343Y49628D01*
X738473Y49687D01*
X738474Y49688D01*
X738476Y49689D01*
X738583Y49780D01*
X738690Y49870D01*
X738691Y49872D01*
X738692Y49873D01*
X738700Y49886D01*
X738848Y50107D01*
X738857Y50136D01*
X738870Y50157D01*
X739416Y51476D01*
X742274Y54334D01*
X745117Y55511D01*
X745118Y55512D01*
X745119Y55512D01*
X745237Y55582D01*
X745361Y55656D01*
X745362Y55657D01*
X745364Y55658D01*
X745461Y55761D01*
X745557Y55862D01*
X745557Y55864D01*
X745558Y55865D01*
X745621Y55988D01*
X745687Y56115D01*
X745687Y56117D01*
X745688Y56118D01*
X745690Y56133D01*
X745742Y56394D01*
X745739Y56424D01*
X745743Y56449D01*
X745743Y69343D01*
X758698Y69343D01*
X758756Y69351D01*
X758814Y69349D01*
X758896Y69371D01*
X758979Y69383D01*
X759033Y69407D01*
X759089Y69421D01*
X759162Y69464D01*
X759239Y69499D01*
X759283Y69537D01*
X759334Y69567D01*
X759391Y69628D01*
X759456Y69683D01*
X759488Y69731D01*
X759528Y69774D01*
X759567Y69849D01*
X759613Y69919D01*
X759631Y69975D01*
X759658Y70027D01*
X759669Y70095D01*
X759699Y70190D01*
X759702Y70290D01*
X759713Y70358D01*
X759713Y71375D01*
X759715Y71375D01*
X759715Y70358D01*
X759723Y70300D01*
X759722Y70242D01*
X759743Y70160D01*
X759755Y70077D01*
X759779Y70023D01*
X759793Y69967D01*
X759836Y69894D01*
X759871Y69817D01*
X759909Y69772D01*
X759939Y69722D01*
X760000Y69664D01*
X760055Y69600D01*
X760103Y69568D01*
X760146Y69528D01*
X760221Y69489D01*
X760291Y69443D01*
X760347Y69425D01*
X760399Y69398D01*
X760467Y69387D01*
X760562Y69357D01*
X760662Y69354D01*
X760730Y69343D01*
X773685Y69343D01*
X773685Y56896D01*
X773693Y56838D01*
X773691Y56780D01*
X773713Y56698D01*
X773725Y56614D01*
X773748Y56561D01*
X773763Y56505D01*
X773806Y56432D01*
X773841Y56355D01*
X773879Y56310D01*
X773908Y56260D01*
X773970Y56202D01*
X774024Y56138D01*
X774073Y56106D01*
X774116Y56066D01*
X774191Y56027D01*
X774261Y55980D01*
X774317Y55963D01*
X774369Y55936D01*
X774437Y55925D01*
X774532Y55895D01*
X774632Y55892D01*
X774700Y55881D01*
X833120Y55881D01*
X833178Y55889D01*
X833236Y55887D01*
X833318Y55909D01*
X833402Y55921D01*
X833455Y55944D01*
X833511Y55959D01*
X833584Y56002D01*
X833661Y56037D01*
X833706Y56075D01*
X833756Y56104D01*
X833814Y56166D01*
X833878Y56220D01*
X833910Y56269D01*
X833950Y56312D01*
X833989Y56387D01*
X834036Y56457D01*
X834053Y56513D01*
X834080Y56565D01*
X834091Y56633D01*
X834121Y56728D01*
X834124Y56828D01*
X834135Y56896D01*
X834135Y69343D01*
X847090Y69343D01*
X847148Y69351D01*
X847206Y69349D01*
X847288Y69371D01*
X847371Y69383D01*
X847425Y69407D01*
X847481Y69421D01*
X847554Y69464D01*
X847631Y69499D01*
X847675Y69537D01*
X847726Y69567D01*
X847783Y69628D01*
X847848Y69683D01*
X847880Y69731D01*
X847920Y69774D01*
X847959Y69849D01*
X848005Y69919D01*
X848023Y69975D01*
X848050Y70027D01*
X848061Y70095D01*
X848091Y70190D01*
X848094Y70290D01*
X848105Y70358D01*
X848105Y71375D01*
X848107Y71375D01*
X848107Y70358D01*
X848115Y70300D01*
X848114Y70242D01*
X848135Y70160D01*
X848147Y70077D01*
X848171Y70023D01*
X848185Y69967D01*
X848228Y69894D01*
X848263Y69817D01*
X848301Y69772D01*
X848331Y69722D01*
X848392Y69664D01*
X848447Y69600D01*
X848495Y69568D01*
X848538Y69528D01*
X848613Y69489D01*
X848683Y69443D01*
X848739Y69425D01*
X848791Y69398D01*
X848859Y69387D01*
X848954Y69357D01*
X849054Y69354D01*
X849122Y69343D01*
X862077Y69343D01*
X862077Y56449D01*
X862077Y56448D01*
X862077Y56446D01*
X862097Y56306D01*
X862117Y56168D01*
X862117Y56166D01*
X862117Y56165D01*
X862175Y56037D01*
X862233Y55908D01*
X862234Y55907D01*
X862235Y55906D01*
X862326Y55798D01*
X862416Y55691D01*
X862418Y55690D01*
X862419Y55689D01*
X862432Y55681D01*
X862653Y55534D01*
X862682Y55524D01*
X862703Y55511D01*
X865546Y54334D01*
X868404Y51476D01*
X868950Y50157D01*
X868951Y50156D01*
X868951Y50155D01*
X869022Y50036D01*
X869094Y49913D01*
X869096Y49912D01*
X869096Y49910D01*
X869200Y49813D01*
X869301Y49717D01*
X869302Y49717D01*
X869304Y49716D01*
X869429Y49651D01*
X869554Y49587D01*
X869555Y49587D01*
X869557Y49586D01*
X869572Y49584D01*
X869833Y49532D01*
X869863Y49535D01*
X869888Y49531D01*
X915651Y49531D01*
X915714Y49540D01*
X915778Y49539D01*
X915841Y49558D01*
X915932Y49571D01*
X916030Y49615D01*
X916100Y49635D01*
X916143Y49657D01*
X916179Y49681D01*
X916192Y49687D01*
X916210Y49702D01*
X916378Y49817D01*
X916390Y49831D01*
X916403Y49840D01*
X916597Y50029D01*
X916771Y50254D01*
X916778Y50271D01*
X916787Y50283D01*
X916822Y50350D01*
X916848Y50423D01*
X916884Y50493D01*
X916893Y50548D01*
X916918Y50618D01*
X916926Y50747D01*
X916939Y50824D01*
X916939Y52285D01*
X916927Y52368D01*
X916929Y52430D01*
X916732Y53795D01*
X916908Y54488D01*
X916928Y54669D01*
X916939Y54738D01*
X916939Y92703D01*
X916937Y92722D01*
X916939Y92742D01*
X916917Y92863D01*
X916899Y92985D01*
X916891Y93002D01*
X916888Y93022D01*
X916833Y93132D01*
X916783Y93244D01*
X916770Y93259D01*
X916762Y93277D01*
X916679Y93367D01*
X916600Y93461D01*
X916583Y93472D01*
X916570Y93486D01*
X916465Y93550D01*
X916363Y93619D01*
X916344Y93624D01*
X916327Y93635D01*
X916209Y93667D01*
X916092Y93704D01*
X916072Y93705D01*
X916053Y93710D01*
X915930Y93708D01*
X915808Y93712D01*
X915789Y93707D01*
X915769Y93706D01*
X915651Y93671D01*
X915533Y93640D01*
X915516Y93630D01*
X915497Y93624D01*
X915394Y93557D01*
X915288Y93495D01*
X915275Y93480D01*
X915258Y93470D01*
X915212Y93413D01*
X915094Y93287D01*
X915070Y93242D01*
X915045Y93211D01*
X915014Y93157D01*
X910143Y88286D01*
X904178Y84842D01*
X897524Y83059D01*
X890636Y83059D01*
X883982Y84842D01*
X878017Y88286D01*
X873146Y93157D01*
X869702Y99122D01*
X867919Y105776D01*
X867919Y112664D01*
X869702Y119318D01*
X873146Y125283D01*
X878017Y130154D01*
X883982Y133598D01*
X890636Y135381D01*
X897524Y135381D01*
X904178Y133598D01*
X910143Y130154D01*
X915014Y125283D01*
X915045Y125229D01*
X915057Y125214D01*
X915065Y125196D01*
X915144Y125103D01*
X915220Y125006D01*
X915236Y124994D01*
X915249Y124979D01*
X915351Y124911D01*
X915450Y124839D01*
X915469Y124832D01*
X915485Y124821D01*
X915602Y124784D01*
X915718Y124743D01*
X915737Y124742D01*
X915756Y124736D01*
X915879Y124733D01*
X916002Y124725D01*
X916021Y124729D01*
X916040Y124728D01*
X916159Y124759D01*
X916279Y124786D01*
X916296Y124795D01*
X916315Y124800D01*
X916421Y124863D01*
X916529Y124922D01*
X916543Y124935D01*
X916560Y124945D01*
X916644Y125035D01*
X916731Y125121D01*
X916741Y125138D01*
X916754Y125153D01*
X916810Y125262D01*
X916870Y125369D01*
X916875Y125388D01*
X916884Y125406D01*
X916896Y125479D01*
X916935Y125646D01*
X916933Y125697D01*
X916939Y125737D01*
X916939Y328930D01*
X916931Y328988D01*
X916933Y329046D01*
X916911Y329128D01*
X916899Y329212D01*
X916876Y329265D01*
X916861Y329321D01*
X916818Y329394D01*
X916783Y329471D01*
X916745Y329516D01*
X916716Y329566D01*
X916654Y329624D01*
X916600Y329688D01*
X916551Y329720D01*
X916508Y329760D01*
X916433Y329799D01*
X916363Y329846D01*
X916307Y329863D01*
X916255Y329890D01*
X916187Y329901D01*
X916092Y329931D01*
X915992Y329934D01*
X915924Y329945D01*
X528066Y329945D01*
X528008Y329937D01*
X527950Y329939D01*
X527868Y329917D01*
X527784Y329905D01*
X527731Y329882D01*
X527675Y329867D01*
X527602Y329824D01*
X527525Y329789D01*
X527480Y329751D01*
X527430Y329722D01*
X527372Y329660D01*
X527308Y329606D01*
X527276Y329557D01*
X527236Y329514D01*
X527197Y329439D01*
X527150Y329369D01*
X527133Y329313D01*
X527106Y329261D01*
X527095Y329193D01*
X527065Y329098D01*
X527062Y328998D01*
X527051Y328930D01*
X527051Y321780D01*
X526801Y320201D01*
X526306Y318680D01*
X525580Y317255D01*
X524640Y315961D01*
X523509Y314830D01*
X522215Y313890D01*
X520790Y313164D01*
X519269Y312669D01*
X518921Y312614D01*
X518921Y328930D01*
X518913Y328988D01*
X518915Y329046D01*
X518893Y329128D01*
X518881Y329212D01*
X518857Y329265D01*
X518843Y329321D01*
X518800Y329394D01*
X518765Y329471D01*
X518727Y329516D01*
X518697Y329566D01*
X518636Y329624D01*
X518581Y329688D01*
X518533Y329720D01*
X518490Y329760D01*
X518415Y329799D01*
X518345Y329846D01*
X518289Y329863D01*
X518237Y329890D01*
X518169Y329901D01*
X518074Y329931D01*
X517974Y329934D01*
X517906Y329945D01*
X515874Y329945D01*
X515816Y329937D01*
X515758Y329939D01*
X515676Y329917D01*
X515593Y329905D01*
X515539Y329882D01*
X515483Y329867D01*
X515410Y329824D01*
X515333Y329789D01*
X515288Y329751D01*
X515238Y329722D01*
X515180Y329660D01*
X515116Y329606D01*
X515084Y329557D01*
X515044Y329514D01*
X515005Y329439D01*
X514959Y329369D01*
X514941Y329313D01*
X514914Y329261D01*
X514903Y329193D01*
X514873Y329098D01*
X514870Y328998D01*
X514859Y328930D01*
X514859Y312614D01*
X514511Y312669D01*
X512990Y313164D01*
X511565Y313890D01*
X510271Y314830D01*
X509140Y315961D01*
X508200Y317255D01*
X507474Y318680D01*
X506979Y320201D01*
X506729Y321780D01*
X506729Y328930D01*
X506721Y328988D01*
X506723Y329046D01*
X506701Y329128D01*
X506689Y329212D01*
X506666Y329265D01*
X506651Y329321D01*
X506608Y329394D01*
X506573Y329471D01*
X506535Y329516D01*
X506506Y329566D01*
X506444Y329624D01*
X506390Y329688D01*
X506341Y329720D01*
X506298Y329760D01*
X506223Y329799D01*
X506153Y329846D01*
X506097Y329863D01*
X506045Y329890D01*
X505977Y329901D01*
X505882Y329931D01*
X505782Y329934D01*
X505714Y329945D01*
X504190Y329945D01*
X504132Y329937D01*
X504074Y329939D01*
X503992Y329917D01*
X503908Y329905D01*
X503855Y329882D01*
X503799Y329867D01*
X503726Y329824D01*
X503649Y329789D01*
X503604Y329751D01*
X503554Y329722D01*
X503496Y329660D01*
X503432Y329606D01*
X503400Y329557D01*
X503360Y329514D01*
X503321Y329439D01*
X503274Y329369D01*
X503257Y329313D01*
X503230Y329261D01*
X503219Y329193D01*
X503189Y329098D01*
X503186Y328998D01*
X503175Y328930D01*
X503175Y320256D01*
X501396Y315961D01*
X498109Y312674D01*
X497451Y312402D01*
X497450Y312401D01*
X497449Y312401D01*
X497375Y312357D01*
X497302Y312324D01*
X497261Y312289D01*
X497207Y312257D01*
X497206Y312256D01*
X497204Y312255D01*
X497140Y312187D01*
X497085Y312141D01*
X497058Y312100D01*
X497011Y312051D01*
X497011Y312049D01*
X497010Y312048D01*
X496964Y311958D01*
X496928Y311904D01*
X496915Y311863D01*
X496881Y311798D01*
X496881Y311796D01*
X496880Y311795D01*
X496878Y311780D01*
X496860Y311690D01*
X496842Y311633D01*
X496841Y311593D01*
X496826Y311519D01*
X496829Y311489D01*
X496825Y311464D01*
X496825Y303620D01*
X496837Y303534D01*
X496840Y303446D01*
X496857Y303394D01*
X496865Y303339D01*
X496900Y303259D01*
X496927Y303176D01*
X496955Y303136D01*
X496981Y303079D01*
X497077Y302966D01*
X497122Y302902D01*
X497212Y302812D01*
X497282Y302760D01*
X497346Y302700D01*
X497395Y302674D01*
X497440Y302641D01*
X497521Y302610D01*
X497599Y302570D01*
X497647Y302562D01*
X497705Y302540D01*
X497853Y302528D01*
X497930Y302515D01*
X498901Y302515D01*
X500862Y301703D01*
X514689Y287875D01*
X516333Y286232D01*
X517145Y284271D01*
X517145Y271585D01*
X517157Y271498D01*
X517160Y271411D01*
X517177Y271358D01*
X517185Y271303D01*
X517220Y271223D01*
X517247Y271140D01*
X517275Y271101D01*
X517301Y271044D01*
X517397Y270931D01*
X517442Y270867D01*
X518462Y269847D01*
X519657Y266963D01*
X519657Y263841D01*
X518462Y260957D01*
X516255Y258750D01*
X513371Y257555D01*
X513052Y257555D01*
X512994Y257547D01*
X512936Y257549D01*
X512854Y257527D01*
X512770Y257515D01*
X512717Y257492D01*
X512661Y257477D01*
X512588Y257434D01*
X512511Y257399D01*
X512466Y257361D01*
X512416Y257332D01*
X512358Y257270D01*
X512294Y257216D01*
X512262Y257167D01*
X512222Y257124D01*
X512183Y257049D01*
X512136Y256979D01*
X512119Y256923D01*
X512092Y256871D01*
X512081Y256803D01*
X512051Y256708D01*
X512048Y256608D01*
X512037Y256540D01*
X512045Y256482D01*
X512043Y256424D01*
X512057Y256372D01*
X512065Y256342D01*
X512077Y256258D01*
X512100Y256205D01*
X512115Y256149D01*
X512158Y256076D01*
X512193Y255999D01*
X512231Y255954D01*
X512260Y255904D01*
X512322Y255846D01*
X512376Y255782D01*
X512425Y255750D01*
X512468Y255710D01*
X512543Y255671D01*
X512613Y255624D01*
X512669Y255607D01*
X512721Y255580D01*
X512789Y255569D01*
X512884Y255539D01*
X512984Y255536D01*
X513052Y255525D01*
X566330Y255525D01*
X566416Y255537D01*
X566504Y255540D01*
X566556Y255557D01*
X566611Y255565D01*
X566691Y255600D01*
X566774Y255627D01*
X566814Y255655D01*
X566871Y255681D01*
X566984Y255777D01*
X567048Y255822D01*
X573398Y262172D01*
X573415Y262196D01*
X573438Y262215D01*
X573500Y262309D01*
X573569Y262399D01*
X573579Y262427D01*
X573595Y262451D01*
X573630Y262559D01*
X573670Y262665D01*
X573672Y262694D01*
X573681Y262722D01*
X573684Y262836D01*
X573693Y262948D01*
X573688Y262977D01*
X573688Y263006D01*
X573660Y263116D01*
X573637Y263227D01*
X573624Y263253D01*
X573617Y263281D01*
X573559Y263379D01*
X573506Y263479D01*
X573486Y263501D01*
X573471Y263526D01*
X573389Y263603D01*
X573311Y263685D01*
X573285Y263700D01*
X573264Y263720D01*
X573163Y263772D01*
X573065Y263829D01*
X573037Y263836D01*
X573011Y263850D01*
X572933Y263863D01*
X572790Y263899D01*
X572727Y263897D01*
X572680Y263905D01*
X567899Y263905D01*
X565938Y264717D01*
X564295Y266361D01*
X561306Y269349D01*
X561282Y269368D01*
X561262Y269391D01*
X561195Y269433D01*
X561079Y269520D01*
X561019Y269543D01*
X560977Y269569D01*
X559435Y270208D01*
X557228Y272415D01*
X556033Y275299D01*
X556033Y278421D01*
X557228Y281305D01*
X559435Y283512D01*
X562319Y284707D01*
X565441Y284707D01*
X568325Y283512D01*
X570532Y281305D01*
X571727Y278421D01*
X571727Y275590D01*
X571735Y275532D01*
X571733Y275474D01*
X571755Y275392D01*
X571767Y275308D01*
X571790Y275255D01*
X571805Y275199D01*
X571848Y275126D01*
X571883Y275049D01*
X571921Y275004D01*
X571950Y274954D01*
X572012Y274896D01*
X572066Y274832D01*
X572115Y274800D01*
X572158Y274760D01*
X572233Y274721D01*
X572303Y274674D01*
X572359Y274657D01*
X572411Y274630D01*
X572479Y274619D01*
X572574Y274589D01*
X572674Y274586D01*
X572742Y274575D01*
X595540Y274575D01*
X595626Y274587D01*
X595714Y274590D01*
X595766Y274607D01*
X595821Y274615D01*
X595901Y274650D01*
X595984Y274677D01*
X596024Y274705D01*
X596081Y274731D01*
X596194Y274827D01*
X596258Y274872D01*
X596348Y274962D01*
X596400Y275032D01*
X596460Y275096D01*
X596486Y275145D01*
X596519Y275190D01*
X596550Y275271D01*
X596590Y275349D01*
X596598Y275397D01*
X596620Y275455D01*
X596632Y275603D01*
X596645Y275680D01*
X596645Y289351D01*
X597457Y291312D01*
X599101Y292955D01*
X610388Y304243D01*
X612349Y305055D01*
X727620Y305055D01*
X727706Y305067D01*
X727794Y305070D01*
X727846Y305087D01*
X727901Y305095D01*
X727981Y305130D01*
X728064Y305157D01*
X728104Y305185D01*
X728161Y305211D01*
X728274Y305307D01*
X728338Y305352D01*
X728724Y305739D01*
X730685Y306551D01*
X758063Y306551D01*
X760024Y305739D01*
X760411Y305352D01*
X760480Y305300D01*
X760544Y305240D01*
X760594Y305214D01*
X760638Y305181D01*
X760719Y305150D01*
X760797Y305110D01*
X760845Y305102D01*
X760903Y305080D01*
X761051Y305068D01*
X761128Y305055D01*
X780960Y305055D01*
X781046Y305067D01*
X781133Y305070D01*
X781186Y305087D01*
X781241Y305095D01*
X781320Y305130D01*
X781403Y305157D01*
X781443Y305185D01*
X781501Y305211D01*
X781566Y305266D01*
X781609Y305291D01*
X781640Y305325D01*
X781677Y305351D01*
X781690Y305364D01*
X781690Y305365D01*
X781691Y305365D01*
X783334Y307009D01*
X785295Y307821D01*
X799665Y307821D01*
X801626Y307009D01*
X807092Y301542D01*
X807162Y301490D01*
X807226Y301430D01*
X807275Y301404D01*
X807320Y301371D01*
X807401Y301340D01*
X807479Y301300D01*
X807527Y301292D01*
X807585Y301270D01*
X807733Y301258D01*
X807810Y301245D01*
X830747Y301245D01*
X830834Y301257D01*
X830921Y301260D01*
X830974Y301277D01*
X831029Y301285D01*
X831109Y301320D01*
X831192Y301347D01*
X831231Y301375D01*
X831288Y301401D01*
X831401Y301497D01*
X831465Y301542D01*
X832485Y302562D01*
X835369Y303757D01*
X838491Y303757D01*
X841375Y302562D01*
X843582Y300355D01*
X844777Y297471D01*
X844777Y294349D01*
X843582Y291465D01*
X841375Y289258D01*
X838491Y288063D01*
X835369Y288063D01*
X832485Y289258D01*
X831465Y290278D01*
X831395Y290330D01*
X831331Y290390D01*
X831282Y290416D01*
X831238Y290449D01*
X831156Y290480D01*
X831078Y290520D01*
X831031Y290528D01*
X830972Y290550D01*
X830825Y290562D01*
X830747Y290575D01*
X804119Y290575D01*
X802158Y291387D01*
X801070Y292475D01*
X800978Y292544D01*
X800890Y292618D01*
X800865Y292630D01*
X800843Y292646D01*
X800736Y292687D01*
X800631Y292734D01*
X800603Y292738D01*
X800577Y292748D01*
X800463Y292757D01*
X800349Y292773D01*
X800321Y292769D01*
X800294Y292771D01*
X800181Y292749D01*
X800068Y292732D01*
X800042Y292721D01*
X800015Y292715D01*
X799913Y292662D01*
X799809Y292615D01*
X799787Y292597D01*
X799763Y292584D01*
X799680Y292505D01*
X799592Y292431D01*
X799579Y292410D01*
X799557Y292389D01*
X799422Y292159D01*
X799414Y292146D01*
X799132Y291465D01*
X796925Y289258D01*
X794041Y288063D01*
X790919Y288063D01*
X788035Y289258D01*
X787015Y290278D01*
X786945Y290330D01*
X786881Y290390D01*
X786832Y290416D01*
X786788Y290449D01*
X786706Y290480D01*
X786628Y290520D01*
X786581Y290528D01*
X786522Y290550D01*
X786375Y290562D01*
X786297Y290575D01*
X758162Y290575D01*
X758104Y290567D01*
X758046Y290569D01*
X757964Y290547D01*
X757880Y290535D01*
X757827Y290512D01*
X757771Y290497D01*
X757698Y290454D01*
X757621Y290419D01*
X757576Y290381D01*
X757526Y290352D01*
X757468Y290290D01*
X757404Y290236D01*
X757372Y290187D01*
X757332Y290144D01*
X757293Y290069D01*
X757246Y289999D01*
X757229Y289943D01*
X757202Y289891D01*
X757191Y289823D01*
X757161Y289728D01*
X757158Y289628D01*
X757147Y289560D01*
X757147Y289269D01*
X755952Y286385D01*
X753745Y284178D01*
X750861Y282983D01*
X750570Y282983D01*
X750512Y282975D01*
X750454Y282977D01*
X750372Y282955D01*
X750288Y282943D01*
X750235Y282920D01*
X750179Y282905D01*
X750106Y282862D01*
X750029Y282827D01*
X749984Y282789D01*
X749934Y282760D01*
X749876Y282698D01*
X749812Y282644D01*
X749780Y282595D01*
X749740Y282552D01*
X749701Y282477D01*
X749654Y282407D01*
X749637Y282351D01*
X749610Y282299D01*
X749599Y282231D01*
X749569Y282136D01*
X749566Y282036D01*
X749555Y281968D01*
X749555Y240120D01*
X749567Y240034D01*
X749570Y239946D01*
X749587Y239894D01*
X749595Y239839D01*
X749630Y239759D01*
X749657Y239676D01*
X749685Y239636D01*
X749711Y239579D01*
X749806Y239466D01*
X749852Y239402D01*
X749942Y239312D01*
X750012Y239260D01*
X750076Y239200D01*
X750125Y239174D01*
X750169Y239141D01*
X750251Y239110D01*
X750329Y239070D01*
X750377Y239062D01*
X750435Y239040D01*
X750583Y239028D01*
X750660Y239015D01*
X811697Y239015D01*
X811784Y239027D01*
X811871Y239030D01*
X811924Y239047D01*
X811979Y239055D01*
X812059Y239090D01*
X812142Y239117D01*
X812181Y239145D01*
X812238Y239171D01*
X812351Y239267D01*
X812415Y239312D01*
X813435Y240332D01*
X816319Y241527D01*
X819441Y241527D01*
X822325Y240332D01*
X824532Y238125D01*
X825727Y235241D01*
X825727Y232119D01*
X824532Y229235D01*
X822325Y227028D01*
X819441Y225833D01*
X816319Y225833D01*
X813435Y227028D01*
X812415Y228048D01*
X812345Y228100D01*
X812281Y228160D01*
X812232Y228186D01*
X812188Y228219D01*
X812106Y228250D01*
X812028Y228290D01*
X811981Y228298D01*
X811922Y228320D01*
X811775Y228332D01*
X811697Y228345D01*
X746969Y228345D01*
X745008Y229157D01*
X743365Y230801D01*
X739697Y234468D01*
X738885Y236429D01*
X738885Y281850D01*
X738873Y281936D01*
X738870Y282024D01*
X738853Y282076D01*
X738845Y282131D01*
X738810Y282211D01*
X738783Y282294D01*
X738755Y282334D01*
X738729Y282391D01*
X738633Y282504D01*
X738588Y282568D01*
X738498Y282658D01*
X738428Y282710D01*
X738364Y282770D01*
X738315Y282796D01*
X738270Y282829D01*
X738189Y282860D01*
X738111Y282900D01*
X738063Y282908D01*
X738005Y282930D01*
X737857Y282942D01*
X737780Y282955D01*
X723550Y282955D01*
X723436Y282939D01*
X723322Y282929D01*
X723296Y282919D01*
X723269Y282915D01*
X723164Y282868D01*
X723057Y282827D01*
X723034Y282811D01*
X723009Y282799D01*
X722922Y282725D01*
X722830Y282656D01*
X722813Y282633D01*
X722792Y282616D01*
X722728Y282520D01*
X722660Y282428D01*
X722650Y282402D01*
X722635Y282379D01*
X722600Y282269D01*
X722559Y282162D01*
X722557Y282134D01*
X722549Y282108D01*
X722546Y281993D01*
X722537Y281879D01*
X722542Y281854D01*
X722541Y281824D01*
X722609Y281567D01*
X722612Y281551D01*
X722857Y280961D01*
X722857Y277839D01*
X721662Y274955D01*
X719455Y272748D01*
X716571Y271553D01*
X713449Y271553D01*
X710565Y272748D01*
X709545Y273768D01*
X709475Y273820D01*
X709411Y273880D01*
X709362Y273906D01*
X709318Y273939D01*
X709236Y273970D01*
X709158Y274010D01*
X709111Y274018D01*
X709052Y274040D01*
X708905Y274052D01*
X708827Y274065D01*
X692359Y274065D01*
X690398Y274877D01*
X686428Y278848D01*
X686358Y278900D01*
X686294Y278960D01*
X686245Y278986D01*
X686200Y279019D01*
X686119Y279050D01*
X686041Y279090D01*
X685993Y279098D01*
X685935Y279120D01*
X685787Y279132D01*
X685710Y279145D01*
X673072Y279145D01*
X673014Y279137D01*
X672956Y279139D01*
X672874Y279117D01*
X672790Y279105D01*
X672737Y279082D01*
X672681Y279067D01*
X672608Y279024D01*
X672531Y278989D01*
X672486Y278951D01*
X672436Y278922D01*
X672378Y278860D01*
X672314Y278806D01*
X672282Y278757D01*
X672242Y278714D01*
X672203Y278639D01*
X672156Y278569D01*
X672139Y278513D01*
X672112Y278461D01*
X672101Y278393D01*
X672071Y278298D01*
X672068Y278198D01*
X672057Y278130D01*
X672057Y275299D01*
X670862Y272415D01*
X668655Y270208D01*
X665771Y269013D01*
X662649Y269013D01*
X659765Y270208D01*
X658745Y271228D01*
X658675Y271280D01*
X658611Y271340D01*
X658562Y271366D01*
X658518Y271399D01*
X658436Y271430D01*
X658358Y271470D01*
X658311Y271478D01*
X658252Y271500D01*
X658105Y271512D01*
X658027Y271525D01*
X656680Y271525D01*
X656594Y271513D01*
X656506Y271510D01*
X656454Y271493D01*
X656399Y271485D01*
X656319Y271450D01*
X656236Y271423D01*
X656196Y271395D01*
X656139Y271369D01*
X656026Y271273D01*
X655962Y271228D01*
X653332Y268598D01*
X653280Y268528D01*
X653220Y268464D01*
X653194Y268415D01*
X653161Y268370D01*
X653130Y268289D01*
X653090Y268211D01*
X653082Y268163D01*
X653060Y268105D01*
X653050Y267980D01*
X653049Y267977D01*
X653048Y267965D01*
X653048Y267957D01*
X653035Y267880D01*
X653035Y205949D01*
X652223Y203988D01*
X646912Y198677D01*
X644951Y197865D01*
X642453Y197865D01*
X642366Y197853D01*
X642279Y197850D01*
X642226Y197833D01*
X642171Y197825D01*
X642091Y197790D01*
X642008Y197763D01*
X641969Y197735D01*
X641912Y197709D01*
X641799Y197613D01*
X641735Y197568D01*
X640715Y196548D01*
X637831Y195353D01*
X634709Y195353D01*
X631825Y196548D01*
X629618Y198755D01*
X628423Y201639D01*
X628423Y204761D01*
X629636Y207689D01*
X629656Y207722D01*
X629706Y207789D01*
X629727Y207844D01*
X629757Y207895D01*
X629777Y207976D01*
X629807Y208055D01*
X629812Y208113D01*
X629827Y208170D01*
X629824Y208254D01*
X629831Y208338D01*
X629819Y208396D01*
X629817Y208454D01*
X629791Y208535D01*
X629775Y208617D01*
X629748Y208669D01*
X629730Y208725D01*
X629690Y208781D01*
X629644Y208869D01*
X629631Y208883D01*
X628423Y211799D01*
X628423Y214921D01*
X629212Y216824D01*
X629226Y216881D01*
X629250Y216934D01*
X629262Y217018D01*
X629283Y217100D01*
X629281Y217158D01*
X629289Y217216D01*
X629277Y217299D01*
X629274Y217384D01*
X629257Y217439D01*
X629248Y217497D01*
X629214Y217574D01*
X629188Y217654D01*
X629155Y217703D01*
X629131Y217756D01*
X629077Y217821D01*
X629030Y217891D01*
X628985Y217928D01*
X628947Y217973D01*
X628888Y218009D01*
X628812Y218074D01*
X628721Y218114D01*
X628662Y218151D01*
X627096Y218799D01*
X622928Y222968D01*
X622858Y223020D01*
X622794Y223080D01*
X622745Y223106D01*
X622700Y223139D01*
X622619Y223170D01*
X622541Y223210D01*
X622493Y223218D01*
X622435Y223240D01*
X622287Y223252D01*
X622210Y223265D01*
X572742Y223265D01*
X572684Y223257D01*
X572626Y223259D01*
X572544Y223237D01*
X572460Y223225D01*
X572407Y223202D01*
X572351Y223187D01*
X572278Y223144D01*
X572201Y223109D01*
X572156Y223071D01*
X572106Y223042D01*
X572048Y222980D01*
X571984Y222926D01*
X571952Y222877D01*
X571912Y222834D01*
X571873Y222759D01*
X571826Y222689D01*
X571809Y222633D01*
X571782Y222581D01*
X571771Y222513D01*
X571741Y222418D01*
X571738Y222318D01*
X571727Y222250D01*
X571727Y220463D01*
X570532Y217579D01*
X569512Y216559D01*
X569460Y216489D01*
X569400Y216425D01*
X569374Y216376D01*
X569341Y216332D01*
X569310Y216250D01*
X569270Y216172D01*
X569262Y216125D01*
X569240Y216066D01*
X569228Y215919D01*
X569215Y215841D01*
X569215Y190698D01*
X569223Y190640D01*
X569221Y190582D01*
X569243Y190500D01*
X569255Y190416D01*
X569279Y190363D01*
X569293Y190307D01*
X569336Y190234D01*
X569371Y190157D01*
X569409Y190112D01*
X569438Y190062D01*
X569500Y190004D01*
X569554Y189940D01*
X569603Y189908D01*
X569646Y189868D01*
X569721Y189829D01*
X569791Y189782D01*
X569847Y189765D01*
X569899Y189738D01*
X569967Y189727D01*
X570062Y189697D01*
X570162Y189694D01*
X570230Y189683D01*
X623737Y189683D01*
X623824Y189695D01*
X623911Y189698D01*
X623964Y189715D01*
X624019Y189723D01*
X624099Y189758D01*
X624182Y189785D01*
X624221Y189813D01*
X624278Y189839D01*
X624391Y189935D01*
X624455Y189980D01*
X625475Y191000D01*
X628359Y192195D01*
X631481Y192195D01*
X634365Y191000D01*
X636572Y188793D01*
X637767Y185909D01*
X637767Y182787D01*
X636692Y180193D01*
X636670Y180108D01*
X636639Y180026D01*
X636635Y179971D01*
X636621Y179917D01*
X636624Y179830D01*
X636617Y179743D01*
X636627Y179695D01*
X636629Y179633D01*
X636674Y179492D01*
X636692Y179415D01*
X637767Y176821D01*
X637767Y173699D01*
X636572Y170815D01*
X634365Y168608D01*
X631481Y167413D01*
X628359Y167413D01*
X625475Y168608D01*
X624455Y169628D01*
X624385Y169680D01*
X624321Y169740D01*
X624272Y169766D01*
X624228Y169799D01*
X624146Y169830D01*
X624068Y169870D01*
X624021Y169878D01*
X623962Y169900D01*
X623815Y169912D01*
X623737Y169925D01*
X595720Y169925D01*
X595634Y169913D01*
X595546Y169910D01*
X595494Y169893D01*
X595439Y169885D01*
X595359Y169850D01*
X595276Y169823D01*
X595236Y169795D01*
X595179Y169769D01*
X595066Y169673D01*
X595002Y169628D01*
X592372Y166998D01*
X592356Y166976D01*
X592337Y166960D01*
X592305Y166912D01*
X592260Y166864D01*
X592234Y166815D01*
X592201Y166770D01*
X592189Y166738D01*
X592179Y166723D01*
X592165Y166679D01*
X592130Y166611D01*
X592122Y166563D01*
X592100Y166505D01*
X592096Y166462D01*
X592093Y166452D01*
X592092Y166415D01*
X592088Y166357D01*
X592075Y166280D01*
X592075Y132289D01*
X591263Y130328D01*
X591074Y130140D01*
X591022Y130070D01*
X590962Y130006D01*
X590936Y129957D01*
X590903Y129912D01*
X590872Y129831D01*
X590832Y129753D01*
X590824Y129705D01*
X590802Y129647D01*
X590790Y129499D01*
X590777Y129422D01*
X590777Y127979D01*
X589582Y125095D01*
X587375Y122888D01*
X584491Y121693D01*
X581369Y121693D01*
X578557Y122858D01*
X578527Y122866D01*
X578500Y122880D01*
X578422Y122893D01*
X578282Y122929D01*
X578218Y122927D01*
X578169Y122935D01*
X426676Y122935D01*
X424249Y123941D01*
X422248Y125941D01*
X410176Y138013D01*
X410152Y138032D01*
X410132Y138055D01*
X410065Y138097D01*
X409949Y138184D01*
X409889Y138207D01*
X409847Y138233D01*
X407035Y139398D01*
X404828Y141605D01*
X403633Y144489D01*
X403633Y147611D01*
X404828Y150495D01*
X407035Y152702D01*
X409919Y153897D01*
X412688Y153897D01*
X412717Y153901D01*
X412746Y153898D01*
X412857Y153921D01*
X412969Y153937D01*
X412996Y153949D01*
X413025Y153954D01*
X413125Y154006D01*
X413229Y154053D01*
X413251Y154072D01*
X413277Y154085D01*
X413359Y154163D01*
X413446Y154236D01*
X413462Y154261D01*
X413483Y154281D01*
X413540Y154379D01*
X413603Y154473D01*
X413612Y154501D01*
X413627Y154526D01*
X413655Y154636D01*
X413689Y154744D01*
X413690Y154774D01*
X413697Y154802D01*
X413693Y154915D01*
X413696Y155028D01*
X413689Y155057D01*
X413688Y155086D01*
X413653Y155194D01*
X413625Y155303D01*
X413610Y155329D01*
X413601Y155357D01*
X413555Y155420D01*
X413479Y155548D01*
X413434Y155591D01*
X413406Y155630D01*
X408298Y160738D01*
X408228Y160790D01*
X408164Y160850D01*
X408115Y160876D01*
X408070Y160909D01*
X407989Y160940D01*
X407911Y160980D01*
X407863Y160988D01*
X407805Y161010D01*
X407657Y161022D01*
X407580Y161035D01*
X379939Y161035D01*
X377978Y161847D01*
X371397Y168428D01*
X370585Y170389D01*
X370585Y236011D01*
X371397Y237972D01*
X371586Y238160D01*
X371638Y238230D01*
X371698Y238294D01*
X371724Y238343D01*
X371757Y238388D01*
X371788Y238469D01*
X371828Y238547D01*
X371836Y238595D01*
X371858Y238653D01*
X371870Y238801D01*
X371883Y238878D01*
X371883Y240321D01*
X373078Y243205D01*
X375285Y245412D01*
X378169Y246607D01*
X381000Y246607D01*
X381058Y246615D01*
X381116Y246613D01*
X381198Y246635D01*
X381282Y246647D01*
X381335Y246670D01*
X381391Y246685D01*
X381464Y246728D01*
X381541Y246763D01*
X381586Y246801D01*
X381636Y246830D01*
X381694Y246892D01*
X381758Y246946D01*
X381790Y246995D01*
X381830Y247038D01*
X381869Y247113D01*
X381916Y247183D01*
X381933Y247239D01*
X381960Y247291D01*
X381971Y247359D01*
X382001Y247454D01*
X382004Y247554D01*
X382015Y247622D01*
X382015Y298360D01*
X382003Y298446D01*
X382000Y298534D01*
X381983Y298586D01*
X381975Y298641D01*
X381940Y298721D01*
X381913Y298804D01*
X381885Y298844D01*
X381859Y298901D01*
X381763Y299014D01*
X381718Y299078D01*
X378121Y302675D01*
X376477Y304318D01*
X375665Y306279D01*
X375665Y365551D01*
X376477Y367512D01*
X378121Y369155D01*
X381718Y372752D01*
X381770Y372822D01*
X381830Y372886D01*
X381856Y372935D01*
X381889Y372980D01*
X381920Y373061D01*
X381960Y373139D01*
X381968Y373187D01*
X381990Y373245D01*
X382002Y373393D01*
X382015Y373470D01*
X382015Y431710D01*
X382003Y431796D01*
X382000Y431884D01*
X381983Y431937D01*
X381975Y431991D01*
X381940Y432071D01*
X381913Y432154D01*
X381885Y432194D01*
X381859Y432251D01*
X381763Y432364D01*
X381718Y432428D01*
X381628Y432518D01*
X381558Y432571D01*
X381494Y432630D01*
X381445Y432656D01*
X381400Y432689D01*
X381319Y432720D01*
X381241Y432760D01*
X381193Y432768D01*
X381135Y432790D01*
X380987Y432802D01*
X380910Y432815D01*
X379380Y432815D01*
X379266Y432799D01*
X379152Y432789D01*
X379126Y432779D01*
X379099Y432775D01*
X378994Y432728D01*
X378887Y432687D01*
X378864Y432671D01*
X378839Y432659D01*
X378752Y432585D01*
X378660Y432516D01*
X378643Y432493D01*
X378622Y432476D01*
X378558Y432380D01*
X378490Y432288D01*
X378480Y432262D01*
X378465Y432239D01*
X378430Y432129D01*
X378389Y432022D01*
X378387Y431994D01*
X378379Y431968D01*
X378376Y431853D01*
X378367Y431739D01*
X378372Y431714D01*
X378371Y431684D01*
X378439Y431427D01*
X378442Y431411D01*
X378687Y430821D01*
X378687Y427699D01*
X377612Y425105D01*
X377590Y425020D01*
X377559Y424938D01*
X377555Y424883D01*
X377541Y424829D01*
X377544Y424742D01*
X377537Y424655D01*
X377547Y424607D01*
X377549Y424545D01*
X377594Y424404D01*
X377612Y424327D01*
X378687Y421733D01*
X378687Y418611D01*
X377612Y416017D01*
X377590Y415932D01*
X377559Y415850D01*
X377555Y415795D01*
X377541Y415741D01*
X377544Y415654D01*
X377537Y415567D01*
X377547Y415519D01*
X377549Y415457D01*
X377594Y415316D01*
X377612Y415239D01*
X378687Y412645D01*
X378687Y409523D01*
X378066Y408024D01*
X378065Y408022D01*
X378064Y408021D01*
X378029Y407883D01*
X377995Y407748D01*
X377995Y407747D01*
X377994Y407745D01*
X377999Y407604D01*
X378003Y407464D01*
X378003Y407463D01*
X378003Y407461D01*
X378050Y407318D01*
X378089Y407193D01*
X378090Y407192D01*
X378091Y407191D01*
X378100Y407178D01*
X378248Y406957D01*
X378271Y406938D01*
X378286Y406917D01*
X378762Y406441D01*
X379957Y403557D01*
X379957Y400435D01*
X378762Y397551D01*
X378146Y396935D01*
X378145Y396933D01*
X378143Y396933D01*
X378061Y396822D01*
X377975Y396708D01*
X377974Y396706D01*
X377973Y396705D01*
X377924Y396575D01*
X377874Y396442D01*
X377873Y396440D01*
X377873Y396439D01*
X377861Y396295D01*
X377850Y396159D01*
X377850Y396157D01*
X377850Y396155D01*
X377854Y396140D01*
X377906Y395880D01*
X377920Y395853D01*
X377926Y395828D01*
X378687Y393991D01*
X378687Y390869D01*
X377492Y387985D01*
X375285Y385778D01*
X372401Y384583D01*
X369279Y384583D01*
X366395Y385778D01*
X365375Y386798D01*
X365305Y386850D01*
X365241Y386910D01*
X365192Y386936D01*
X365148Y386969D01*
X365066Y387000D01*
X364988Y387040D01*
X364941Y387048D01*
X364882Y387070D01*
X364735Y387082D01*
X364657Y387095D01*
X357973Y387095D01*
X357886Y387083D01*
X357799Y387080D01*
X357746Y387063D01*
X357691Y387055D01*
X357611Y387020D01*
X357528Y386993D01*
X357489Y386965D01*
X357432Y386939D01*
X357319Y386843D01*
X357255Y386798D01*
X356235Y385778D01*
X353351Y384583D01*
X350229Y384583D01*
X347345Y385778D01*
X345138Y387985D01*
X343943Y390869D01*
X343943Y393991D01*
X345076Y396725D01*
X345098Y396810D01*
X345129Y396892D01*
X345133Y396947D01*
X345147Y397001D01*
X345144Y397088D01*
X345151Y397175D01*
X345141Y397223D01*
X345139Y397285D01*
X345094Y397426D01*
X345076Y397503D01*
X343943Y400237D01*
X343943Y403359D01*
X345018Y405953D01*
X345040Y406038D01*
X345071Y406120D01*
X345075Y406175D01*
X345089Y406229D01*
X345086Y406316D01*
X345093Y406403D01*
X345083Y406451D01*
X345081Y406513D01*
X345036Y406654D01*
X345018Y406731D01*
X343943Y409325D01*
X343943Y412447D01*
X345018Y415041D01*
X345040Y415126D01*
X345071Y415208D01*
X345075Y415263D01*
X345089Y415317D01*
X345086Y415404D01*
X345093Y415491D01*
X345083Y415539D01*
X345081Y415601D01*
X345036Y415742D01*
X345018Y415819D01*
X343943Y418413D01*
X343943Y421535D01*
X345138Y424419D01*
X345614Y424895D01*
X345615Y424896D01*
X345617Y424898D01*
X345705Y425016D01*
X345785Y425122D01*
X345786Y425124D01*
X345787Y425125D01*
X345837Y425259D01*
X345886Y425388D01*
X345887Y425390D01*
X345887Y425391D01*
X345899Y425536D01*
X345910Y425671D01*
X345910Y425673D01*
X345910Y425675D01*
X345906Y425690D01*
X345854Y425950D01*
X345840Y425977D01*
X345834Y426002D01*
X345213Y427501D01*
X345213Y430623D01*
X346288Y433217D01*
X346310Y433302D01*
X346341Y433384D01*
X346345Y433439D01*
X346359Y433493D01*
X346356Y433580D01*
X346363Y433667D01*
X346353Y433715D01*
X346351Y433777D01*
X346306Y433918D01*
X346288Y433995D01*
X345213Y436589D01*
X345213Y439711D01*
X346408Y442595D01*
X348615Y444802D01*
X349318Y445093D01*
X349417Y445152D01*
X349519Y445205D01*
X349539Y445224D01*
X349563Y445238D01*
X349642Y445321D01*
X349725Y445401D01*
X349739Y445424D01*
X349758Y445445D01*
X349811Y445547D01*
X349869Y445646D01*
X349876Y445673D01*
X349889Y445697D01*
X349911Y445810D01*
X349939Y445921D01*
X349938Y445949D01*
X349944Y445976D01*
X349934Y446091D01*
X349930Y446205D01*
X349922Y446232D01*
X349919Y446259D01*
X349878Y446367D01*
X349843Y446476D01*
X349828Y446496D01*
X349817Y446525D01*
X349656Y446737D01*
X349648Y446749D01*
X347452Y448945D01*
X346257Y451829D01*
X346257Y454951D01*
X347452Y457835D01*
X349659Y460042D01*
X352543Y461237D01*
X355665Y461237D01*
X358549Y460042D01*
X359569Y459022D01*
X359639Y458970D01*
X359703Y458910D01*
X359752Y458884D01*
X359796Y458851D01*
X359878Y458820D01*
X359956Y458780D01*
X360003Y458772D01*
X360062Y458750D01*
X360209Y458738D01*
X360287Y458725D01*
X377100Y458725D01*
X377186Y458737D01*
X377274Y458740D01*
X377326Y458757D01*
X377381Y458765D01*
X377461Y458800D01*
X377544Y458827D01*
X377584Y458855D01*
X377641Y458881D01*
X377754Y458977D01*
X377818Y459022D01*
X380866Y462070D01*
X380883Y462094D01*
X380906Y462113D01*
X380968Y462207D01*
X381037Y462297D01*
X381047Y462325D01*
X381063Y462349D01*
X381098Y462457D01*
X381138Y462563D01*
X381140Y462592D01*
X381149Y462620D01*
X381152Y462734D01*
X381161Y462846D01*
X381156Y462875D01*
X381156Y462904D01*
X381128Y463014D01*
X381105Y463125D01*
X381092Y463151D01*
X381085Y463179D01*
X381027Y463277D01*
X380974Y463377D01*
X380954Y463399D01*
X380939Y463424D01*
X380857Y463501D01*
X380779Y463583D01*
X380753Y463598D01*
X380732Y463618D01*
X380631Y463670D01*
X380533Y463727D01*
X380505Y463734D01*
X380479Y463748D01*
X380401Y463761D01*
X380258Y463797D01*
X380195Y463795D01*
X380148Y463803D01*
X376324Y463803D01*
X369033Y471094D01*
X369033Y481406D01*
X376324Y488697D01*
X386636Y488697D01*
X390762Y484570D01*
X390809Y484535D01*
X390849Y484493D01*
X390922Y484450D01*
X390989Y484399D01*
X391044Y484379D01*
X391094Y484349D01*
X391176Y484328D01*
X391255Y484298D01*
X391313Y484293D01*
X391370Y484279D01*
X391454Y484282D01*
X391538Y484275D01*
X391596Y484286D01*
X391654Y484288D01*
X391734Y484314D01*
X391817Y484330D01*
X391869Y484357D01*
X391925Y484375D01*
X391981Y484415D01*
X392069Y484461D01*
X392142Y484530D01*
X392198Y484570D01*
X396324Y488697D01*
X406636Y488697D01*
X410762Y484570D01*
X410809Y484535D01*
X410849Y484493D01*
X410922Y484450D01*
X410989Y484399D01*
X411044Y484379D01*
X411094Y484349D01*
X411176Y484328D01*
X411255Y484298D01*
X411313Y484293D01*
X411370Y484279D01*
X411454Y484282D01*
X411538Y484275D01*
X411596Y484286D01*
X411654Y484288D01*
X411734Y484314D01*
X411817Y484330D01*
X411869Y484357D01*
X411925Y484375D01*
X411981Y484415D01*
X412069Y484461D01*
X412142Y484530D01*
X412198Y484570D01*
X416324Y488697D01*
X426636Y488697D01*
X431840Y483493D01*
X431887Y483457D01*
X431927Y483415D01*
X431999Y483372D01*
X432067Y483322D01*
X432122Y483301D01*
X432172Y483271D01*
X432254Y483251D01*
X432333Y483220D01*
X432391Y483216D01*
X432448Y483201D01*
X432532Y483204D01*
X432616Y483197D01*
X432673Y483208D01*
X432732Y483210D01*
X432812Y483236D01*
X432895Y483253D01*
X432947Y483280D01*
X433002Y483298D01*
X433058Y483338D01*
X433147Y483384D01*
X433219Y483452D01*
X433276Y483493D01*
X436956Y487173D01*
X439449Y487173D01*
X439449Y477266D01*
X439457Y477208D01*
X439455Y477150D01*
X439477Y477068D01*
X439489Y476985D01*
X439513Y476931D01*
X439527Y476875D01*
X439570Y476802D01*
X439605Y476725D01*
X439643Y476681D01*
X439673Y476630D01*
X439734Y476573D01*
X439789Y476508D01*
X439837Y476476D01*
X439880Y476436D01*
X439955Y476397D01*
X440025Y476351D01*
X440081Y476333D01*
X440133Y476306D01*
X440201Y476295D01*
X440296Y476265D01*
X440396Y476262D01*
X440464Y476251D01*
X441481Y476251D01*
X441481Y476249D01*
X440464Y476249D01*
X440406Y476241D01*
X440348Y476242D01*
X440266Y476221D01*
X440183Y476209D01*
X440129Y476185D01*
X440073Y476171D01*
X440000Y476128D01*
X439923Y476093D01*
X439878Y476055D01*
X439828Y476025D01*
X439770Y475964D01*
X439706Y475909D01*
X439674Y475861D01*
X439634Y475818D01*
X439595Y475743D01*
X439549Y475673D01*
X439531Y475617D01*
X439504Y475565D01*
X439493Y475497D01*
X439463Y475402D01*
X439460Y475302D01*
X439449Y475234D01*
X439449Y465327D01*
X436956Y465327D01*
X433276Y469007D01*
X433229Y469043D01*
X433189Y469085D01*
X433116Y469128D01*
X433048Y469178D01*
X432994Y469199D01*
X432943Y469229D01*
X432862Y469249D01*
X432783Y469280D01*
X432724Y469284D01*
X432668Y469299D01*
X432583Y469296D01*
X432499Y469303D01*
X432442Y469292D01*
X432384Y469290D01*
X432303Y469264D01*
X432221Y469247D01*
X432169Y469220D01*
X432113Y469202D01*
X432057Y469162D01*
X431968Y469116D01*
X431896Y469048D01*
X431840Y469007D01*
X427112Y464280D01*
X427060Y464210D01*
X427000Y464146D01*
X426974Y464097D01*
X426941Y464053D01*
X426910Y463971D01*
X426870Y463893D01*
X426862Y463845D01*
X426840Y463787D01*
X426828Y463639D01*
X426815Y463562D01*
X426815Y461059D01*
X426003Y459098D01*
X422122Y455217D01*
X420161Y454405D01*
X410182Y454405D01*
X410124Y454397D01*
X410066Y454399D01*
X409984Y454377D01*
X409900Y454365D01*
X409847Y454342D01*
X409791Y454327D01*
X409718Y454284D01*
X409641Y454249D01*
X409596Y454211D01*
X409546Y454182D01*
X409488Y454120D01*
X409424Y454066D01*
X409392Y454017D01*
X409352Y453974D01*
X409313Y453899D01*
X409266Y453829D01*
X409249Y453773D01*
X409222Y453721D01*
X409211Y453653D01*
X409181Y453558D01*
X409178Y453458D01*
X409167Y453390D01*
X409167Y451603D01*
X407972Y448719D01*
X405765Y446512D01*
X402881Y445317D01*
X399759Y445317D01*
X397899Y446088D01*
X397787Y446117D01*
X397678Y446151D01*
X397650Y446152D01*
X397623Y446159D01*
X397509Y446156D01*
X397394Y446159D01*
X397367Y446152D01*
X397339Y446151D01*
X397230Y446116D01*
X397119Y446087D01*
X397095Y446073D01*
X397068Y446064D01*
X396973Y446000D01*
X396874Y445942D01*
X396855Y445921D01*
X396832Y445906D01*
X396758Y445818D01*
X396680Y445734D01*
X396667Y445709D01*
X396649Y445688D01*
X396603Y445583D01*
X396550Y445481D01*
X396546Y445456D01*
X396534Y445429D01*
X396497Y445165D01*
X396495Y445150D01*
X396495Y368201D01*
X395683Y366240D01*
X390442Y360999D01*
X390390Y360930D01*
X390330Y360866D01*
X390304Y360816D01*
X390271Y360772D01*
X390240Y360691D01*
X390200Y360613D01*
X390192Y360565D01*
X390170Y360507D01*
X390158Y360359D01*
X390145Y360282D01*
X390145Y337470D01*
X390161Y337356D01*
X390171Y337242D01*
X390181Y337216D01*
X390185Y337189D01*
X390232Y337084D01*
X390273Y336977D01*
X390289Y336954D01*
X390301Y336929D01*
X390375Y336842D01*
X390444Y336750D01*
X390467Y336733D01*
X390484Y336712D01*
X390580Y336648D01*
X390672Y336580D01*
X390698Y336570D01*
X390721Y336555D01*
X390831Y336520D01*
X390938Y336479D01*
X390966Y336477D01*
X390992Y336469D01*
X391107Y336466D01*
X391221Y336457D01*
X391246Y336462D01*
X391276Y336461D01*
X391533Y336529D01*
X391549Y336532D01*
X392139Y336777D01*
X395261Y336777D01*
X398073Y335612D01*
X398103Y335604D01*
X398130Y335590D01*
X398208Y335577D01*
X398348Y335541D01*
X398412Y335543D01*
X398461Y335535D01*
X427990Y335535D01*
X428048Y335543D01*
X428106Y335541D01*
X428188Y335563D01*
X428272Y335575D01*
X428325Y335598D01*
X428381Y335613D01*
X428454Y335656D01*
X428531Y335691D01*
X428576Y335729D01*
X428626Y335758D01*
X428684Y335820D01*
X428748Y335874D01*
X428780Y335923D01*
X428820Y335966D01*
X428859Y336041D01*
X428906Y336111D01*
X428923Y336167D01*
X428950Y336219D01*
X428961Y336287D01*
X428991Y336382D01*
X428994Y336482D01*
X429005Y336550D01*
X429005Y340144D01*
X430784Y344439D01*
X434071Y347726D01*
X438366Y349505D01*
X443014Y349505D01*
X447309Y347726D01*
X450596Y344439D01*
X452375Y340144D01*
X452375Y320256D01*
X450596Y315961D01*
X447309Y312674D01*
X443014Y310895D01*
X438366Y310895D01*
X434071Y312674D01*
X430784Y315961D01*
X429005Y320256D01*
X429005Y323850D01*
X428997Y323908D01*
X428999Y323966D01*
X428977Y324048D01*
X428965Y324132D01*
X428942Y324185D01*
X428927Y324241D01*
X428884Y324314D01*
X428849Y324391D01*
X428811Y324436D01*
X428782Y324486D01*
X428720Y324544D01*
X428666Y324608D01*
X428617Y324640D01*
X428574Y324680D01*
X428499Y324719D01*
X428429Y324766D01*
X428373Y324783D01*
X428321Y324810D01*
X428253Y324821D01*
X428158Y324851D01*
X428058Y324854D01*
X427990Y324865D01*
X401153Y324865D01*
X401066Y324853D01*
X400979Y324850D01*
X400926Y324833D01*
X400871Y324825D01*
X400791Y324790D01*
X400708Y324763D01*
X400669Y324735D01*
X400612Y324709D01*
X400499Y324613D01*
X400435Y324568D01*
X398145Y322278D01*
X395261Y321083D01*
X392139Y321083D01*
X391549Y321328D01*
X391437Y321357D01*
X391328Y321391D01*
X391300Y321392D01*
X391273Y321399D01*
X391159Y321396D01*
X391044Y321399D01*
X391017Y321392D01*
X390989Y321391D01*
X390880Y321356D01*
X390769Y321327D01*
X390745Y321313D01*
X390718Y321304D01*
X390623Y321240D01*
X390524Y321181D01*
X390505Y321161D01*
X390482Y321146D01*
X390408Y321058D01*
X390330Y320974D01*
X390317Y320949D01*
X390299Y320928D01*
X390253Y320823D01*
X390200Y320721D01*
X390196Y320696D01*
X390184Y320668D01*
X390147Y320405D01*
X390145Y320390D01*
X390145Y311548D01*
X390157Y311462D01*
X390160Y311374D01*
X390177Y311322D01*
X390185Y311267D01*
X390220Y311187D01*
X390247Y311104D01*
X390275Y311065D01*
X390301Y311008D01*
X390397Y310894D01*
X390442Y310831D01*
X392630Y308643D01*
X392677Y308608D01*
X392717Y308565D01*
X392790Y308522D01*
X392857Y308472D01*
X392912Y308451D01*
X392962Y308421D01*
X393044Y308401D01*
X393123Y308371D01*
X393181Y308366D01*
X393238Y308351D01*
X393322Y308354D01*
X393406Y308347D01*
X393463Y308359D01*
X393522Y308360D01*
X393602Y308386D01*
X393685Y308403D01*
X393737Y308430D01*
X393792Y308448D01*
X393849Y308488D01*
X393937Y308534D01*
X394010Y308603D01*
X394066Y308643D01*
X395605Y310182D01*
X398489Y311377D01*
X401611Y311377D01*
X404495Y310182D01*
X406702Y307975D01*
X407897Y305091D01*
X407897Y301969D01*
X406702Y299085D01*
X405884Y298267D01*
X405815Y298175D01*
X405741Y298087D01*
X405730Y298062D01*
X405713Y298040D01*
X405672Y297933D01*
X405626Y297828D01*
X405622Y297800D01*
X405612Y297774D01*
X405602Y297660D01*
X405587Y297546D01*
X405591Y297518D01*
X405588Y297491D01*
X405611Y297378D01*
X405627Y297265D01*
X405639Y297239D01*
X405644Y297212D01*
X405697Y297110D01*
X405744Y297006D01*
X405762Y296985D01*
X405775Y296960D01*
X405854Y296877D01*
X405929Y296789D01*
X405950Y296776D01*
X405971Y296754D01*
X406200Y296619D01*
X406213Y296611D01*
X406809Y296364D01*
X409016Y294157D01*
X410145Y291432D01*
X410189Y291357D01*
X410225Y291277D01*
X410261Y291235D01*
X410289Y291188D01*
X410353Y291128D01*
X410410Y291061D01*
X410450Y291035D01*
X410496Y290992D01*
X410628Y290925D01*
X410694Y290883D01*
X413159Y289862D01*
X415366Y287655D01*
X416561Y284771D01*
X416561Y281649D01*
X415366Y278765D01*
X414346Y277745D01*
X414294Y277675D01*
X414234Y277611D01*
X414208Y277562D01*
X414175Y277518D01*
X414144Y277436D01*
X414104Y277358D01*
X414096Y277311D01*
X414074Y277252D01*
X414062Y277105D01*
X414049Y277027D01*
X414049Y275906D01*
X414056Y275852D01*
X414055Y275815D01*
X414062Y275790D01*
X414064Y275732D01*
X414081Y275680D01*
X414089Y275625D01*
X414124Y275545D01*
X414151Y275462D01*
X414179Y275422D01*
X414205Y275365D01*
X414301Y275252D01*
X414346Y275188D01*
X416003Y273532D01*
X416815Y271571D01*
X416815Y242660D01*
X416827Y242574D01*
X416830Y242486D01*
X416847Y242434D01*
X416855Y242379D01*
X416890Y242299D01*
X416917Y242216D01*
X416945Y242176D01*
X416971Y242119D01*
X417067Y242006D01*
X417112Y241942D01*
X418500Y240554D01*
X418570Y240502D01*
X418634Y240442D01*
X418683Y240416D01*
X418728Y240383D01*
X418809Y240352D01*
X418887Y240312D01*
X418935Y240304D01*
X418993Y240282D01*
X419141Y240270D01*
X419218Y240257D01*
X420661Y240257D01*
X423545Y239062D01*
X425752Y236855D01*
X426947Y233971D01*
X426947Y230849D01*
X425752Y227965D01*
X424064Y226277D01*
X424063Y226276D01*
X424061Y226274D01*
X423973Y226156D01*
X423893Y226050D01*
X423892Y226048D01*
X423891Y226047D01*
X423841Y225913D01*
X423792Y225784D01*
X423791Y225782D01*
X423791Y225781D01*
X423779Y225636D01*
X423768Y225501D01*
X423768Y225499D01*
X423768Y225497D01*
X423772Y225482D01*
X423824Y225222D01*
X423838Y225195D01*
X423844Y225170D01*
X424407Y223811D01*
X424407Y220689D01*
X423212Y217805D01*
X420884Y215477D01*
X420848Y215430D01*
X420806Y215390D01*
X420763Y215317D01*
X420713Y215249D01*
X420692Y215195D01*
X420662Y215144D01*
X420642Y215063D01*
X420611Y214984D01*
X420607Y214925D01*
X420592Y214869D01*
X420595Y214785D01*
X420588Y214701D01*
X420599Y214643D01*
X420601Y214585D01*
X420627Y214504D01*
X420644Y214422D01*
X420671Y214370D01*
X420689Y214314D01*
X420729Y214258D01*
X420775Y214169D01*
X420844Y214097D01*
X420884Y214041D01*
X431172Y203752D01*
X431242Y203700D01*
X431306Y203640D01*
X431355Y203614D01*
X431400Y203581D01*
X431481Y203550D01*
X431559Y203510D01*
X431607Y203502D01*
X431665Y203480D01*
X431813Y203468D01*
X431890Y203455D01*
X458820Y203455D01*
X458934Y203471D01*
X459048Y203481D01*
X459074Y203491D01*
X459101Y203495D01*
X459206Y203542D01*
X459313Y203583D01*
X459336Y203599D01*
X459361Y203611D01*
X459448Y203685D01*
X459540Y203754D01*
X459557Y203777D01*
X459578Y203794D01*
X459642Y203890D01*
X459710Y203982D01*
X459720Y204008D01*
X459735Y204031D01*
X459770Y204141D01*
X459811Y204248D01*
X459813Y204276D01*
X459821Y204302D01*
X459824Y204417D01*
X459833Y204531D01*
X459828Y204556D01*
X459829Y204586D01*
X459761Y204843D01*
X459758Y204859D01*
X459513Y205449D01*
X459513Y208571D01*
X460475Y210893D01*
X460497Y210977D01*
X460528Y211059D01*
X460532Y211114D01*
X460546Y211168D01*
X460543Y211255D01*
X460550Y211343D01*
X460540Y211390D01*
X460538Y211452D01*
X460493Y211593D01*
X460475Y211670D01*
X459287Y214537D01*
X459287Y217659D01*
X460482Y220543D01*
X462689Y222750D01*
X463939Y223268D01*
X463940Y223268D01*
X463941Y223269D01*
X464060Y223339D01*
X464183Y223412D01*
X464184Y223413D01*
X464186Y223414D01*
X464281Y223515D01*
X464379Y223619D01*
X464379Y223620D01*
X464380Y223621D01*
X464443Y223743D01*
X464509Y223872D01*
X464509Y223873D01*
X464510Y223875D01*
X464512Y223889D01*
X464564Y224150D01*
X464561Y224181D01*
X464565Y224206D01*
X464565Y230931D01*
X465377Y232892D01*
X467021Y234535D01*
X471798Y239312D01*
X471833Y239359D01*
X471875Y239399D01*
X471918Y239472D01*
X471969Y239539D01*
X471989Y239594D01*
X472019Y239644D01*
X472040Y239726D01*
X472070Y239805D01*
X472075Y239863D01*
X472089Y239920D01*
X472086Y240004D01*
X472093Y240088D01*
X472082Y240146D01*
X472080Y240204D01*
X472054Y240284D01*
X472037Y240367D01*
X472011Y240419D01*
X471993Y240475D01*
X471952Y240531D01*
X471906Y240619D01*
X471838Y240692D01*
X471798Y240748D01*
X470457Y242088D01*
X469645Y244049D01*
X469645Y265597D01*
X469633Y265684D01*
X469630Y265771D01*
X469613Y265824D01*
X469605Y265879D01*
X469570Y265959D01*
X469543Y266042D01*
X469515Y266081D01*
X469489Y266138D01*
X469393Y266251D01*
X469348Y266315D01*
X468328Y267335D01*
X467133Y270219D01*
X467133Y273341D01*
X468353Y276285D01*
X468416Y276369D01*
X468426Y276397D01*
X468443Y276421D01*
X468477Y276529D01*
X468517Y276635D01*
X468520Y276664D01*
X468529Y276692D01*
X468531Y276805D01*
X468541Y276918D01*
X468535Y276947D01*
X468536Y276976D01*
X468507Y277086D01*
X468485Y277197D01*
X468471Y277223D01*
X468464Y277251D01*
X468406Y277348D01*
X468354Y277449D01*
X468334Y277471D01*
X468319Y277496D01*
X468236Y277573D01*
X468158Y277655D01*
X468133Y277670D01*
X468111Y277690D01*
X468011Y277742D01*
X467913Y277799D01*
X467885Y277806D01*
X467858Y277820D01*
X467781Y277833D01*
X467638Y277869D01*
X467575Y277867D01*
X467527Y277875D01*
X457033Y277875D01*
X456946Y277863D01*
X456859Y277860D01*
X456806Y277843D01*
X456751Y277835D01*
X456671Y277800D01*
X456588Y277773D01*
X456549Y277745D01*
X456492Y277719D01*
X456379Y277623D01*
X456315Y277578D01*
X455295Y276558D01*
X452411Y275363D01*
X449289Y275363D01*
X446405Y276558D01*
X444198Y278765D01*
X443003Y281649D01*
X443003Y284771D01*
X444198Y287655D01*
X446405Y289862D01*
X449289Y291057D01*
X452411Y291057D01*
X455295Y289862D01*
X456315Y288842D01*
X456385Y288790D01*
X456449Y288730D01*
X456498Y288704D01*
X456542Y288671D01*
X456624Y288640D01*
X456702Y288600D01*
X456749Y288592D01*
X456808Y288570D01*
X456955Y288558D01*
X457033Y288545D01*
X472350Y288545D01*
X472379Y288549D01*
X472408Y288546D01*
X472519Y288569D01*
X472631Y288585D01*
X472658Y288597D01*
X472687Y288602D01*
X472787Y288654D01*
X472891Y288701D01*
X472913Y288720D01*
X472939Y288733D01*
X473021Y288811D01*
X473108Y288884D01*
X473124Y288909D01*
X473145Y288929D01*
X473202Y289027D01*
X473265Y289121D01*
X473274Y289149D01*
X473289Y289174D01*
X473317Y289284D01*
X473351Y289392D01*
X473352Y289422D01*
X473359Y289450D01*
X473355Y289563D01*
X473358Y289676D01*
X473351Y289705D01*
X473350Y289734D01*
X473315Y289842D01*
X473287Y289951D01*
X473272Y289977D01*
X473263Y290005D01*
X473217Y290068D01*
X473141Y290196D01*
X473096Y290239D01*
X473068Y290278D01*
X461567Y301778D01*
X460755Y303739D01*
X460755Y311464D01*
X460755Y311465D01*
X460755Y311467D01*
X460744Y311543D01*
X460745Y311582D01*
X460731Y311638D01*
X460715Y311745D01*
X460715Y311747D01*
X460715Y311748D01*
X460684Y311815D01*
X460674Y311857D01*
X460641Y311911D01*
X460599Y312005D01*
X460598Y312006D01*
X460597Y312007D01*
X460552Y312060D01*
X460528Y312101D01*
X460477Y312149D01*
X460416Y312222D01*
X460414Y312223D01*
X460413Y312224D01*
X460400Y312232D01*
X460361Y312258D01*
X460321Y312296D01*
X460251Y312331D01*
X460179Y312379D01*
X460150Y312389D01*
X460129Y312402D01*
X459471Y312674D01*
X456184Y315961D01*
X454405Y320256D01*
X454405Y340144D01*
X456184Y344439D01*
X459471Y347726D01*
X463766Y349505D01*
X468414Y349505D01*
X472709Y347726D01*
X475996Y344439D01*
X476582Y343024D01*
X476626Y342950D01*
X476661Y342871D01*
X476698Y342828D01*
X476727Y342779D01*
X476789Y342720D01*
X476845Y342654D01*
X476892Y342623D01*
X476933Y342584D01*
X477010Y342544D01*
X477081Y342497D01*
X477135Y342479D01*
X477186Y342453D01*
X477270Y342437D01*
X477352Y342411D01*
X477409Y342409D01*
X477465Y342398D01*
X477550Y342406D01*
X477636Y342404D01*
X477691Y342418D01*
X477748Y342423D01*
X477828Y342454D01*
X477911Y342475D01*
X477960Y342504D01*
X478013Y342525D01*
X478082Y342577D01*
X478156Y342621D01*
X478195Y342662D01*
X478240Y342696D01*
X478292Y342765D01*
X478350Y342828D01*
X478376Y342879D01*
X478410Y342924D01*
X478441Y343005D01*
X478480Y343081D01*
X478488Y343130D01*
X478511Y343190D01*
X478522Y343335D01*
X478535Y343412D01*
X478535Y508254D01*
X478527Y508312D01*
X478529Y508370D01*
X478507Y508452D01*
X478495Y508536D01*
X478472Y508589D01*
X478457Y508645D01*
X478414Y508718D01*
X478379Y508795D01*
X478341Y508840D01*
X478312Y508890D01*
X478250Y508948D01*
X478196Y509012D01*
X478147Y509044D01*
X478104Y509084D01*
X478029Y509123D01*
X477959Y509170D01*
X477903Y509187D01*
X477851Y509214D01*
X477783Y509225D01*
X477688Y509255D01*
X477588Y509258D01*
X477520Y509269D01*
X12446Y509269D01*
X12388Y509261D01*
X12330Y509263D01*
X12248Y509241D01*
X12164Y509229D01*
X12111Y509206D01*
X12055Y509191D01*
X11982Y509148D01*
X11905Y509113D01*
X11860Y509075D01*
X11810Y509046D01*
X11752Y508984D01*
X11688Y508930D01*
X11656Y508881D01*
X11616Y508838D01*
X11577Y508763D01*
X11530Y508693D01*
X11513Y508637D01*
X11486Y508585D01*
X11475Y508517D01*
X11445Y508422D01*
X11442Y508322D01*
X11431Y508254D01*
X11431Y50546D01*
X11439Y50488D01*
X11437Y50430D01*
X11459Y50348D01*
X11471Y50264D01*
X11494Y50211D01*
X11509Y50155D01*
X11552Y50082D01*
X11587Y50005D01*
X11625Y49960D01*
X11654Y49910D01*
X11716Y49852D01*
X11770Y49788D01*
X11819Y49756D01*
X11862Y49716D01*
X11937Y49677D01*
X12007Y49630D01*
X12063Y49613D01*
X12115Y49586D01*
X12183Y49575D01*
X12278Y49545D01*
X12378Y49542D01*
X12446Y49531D01*
X427863Y49531D01*
X427921Y49539D01*
G37*
G36*
X915788Y353076D02*
X915788Y353076D01*
X915907Y353083D01*
X915945Y353096D01*
X915986Y353101D01*
X916096Y353144D01*
X916209Y353181D01*
X916244Y353203D01*
X916281Y353218D01*
X916377Y353288D01*
X916478Y353351D01*
X916506Y353381D01*
X916539Y353404D01*
X916615Y353496D01*
X916696Y353583D01*
X916716Y353618D01*
X916741Y353649D01*
X916792Y353757D01*
X916850Y353861D01*
X916860Y353901D01*
X916877Y353937D01*
X916899Y354054D01*
X916929Y354169D01*
X916933Y354230D01*
X916937Y354250D01*
X916935Y354270D01*
X916939Y354330D01*
X916939Y442538D01*
X916922Y442676D01*
X916909Y442815D01*
X916902Y442834D01*
X916899Y442854D01*
X916848Y442983D01*
X916801Y443114D01*
X916790Y443131D01*
X916782Y443149D01*
X916701Y443262D01*
X916623Y443377D01*
X916607Y443390D01*
X916596Y443407D01*
X916488Y443496D01*
X916384Y443587D01*
X916366Y443597D01*
X916351Y443610D01*
X916225Y443669D01*
X916101Y443732D01*
X916081Y443736D01*
X916063Y443745D01*
X915927Y443771D01*
X915791Y443802D01*
X915770Y443801D01*
X915751Y443805D01*
X915612Y443796D01*
X915473Y443792D01*
X915453Y443786D01*
X915433Y443785D01*
X915301Y443742D01*
X915167Y443704D01*
X915150Y443693D01*
X915131Y443687D01*
X915013Y443612D01*
X914893Y443542D01*
X914872Y443524D01*
X914862Y443517D01*
X914848Y443502D01*
X914773Y443436D01*
X910143Y438806D01*
X904178Y435362D01*
X897524Y433579D01*
X890636Y433579D01*
X883982Y435362D01*
X878017Y438806D01*
X873146Y443677D01*
X869702Y449642D01*
X867919Y456296D01*
X867919Y463184D01*
X869702Y469838D01*
X873146Y475803D01*
X878017Y480674D01*
X883982Y484118D01*
X890636Y485901D01*
X897524Y485901D01*
X904178Y484118D01*
X910143Y480674D01*
X914773Y476044D01*
X914882Y475959D01*
X914989Y475870D01*
X915008Y475862D01*
X915024Y475849D01*
X915152Y475794D01*
X915277Y475735D01*
X915297Y475731D01*
X915316Y475723D01*
X915454Y475701D01*
X915590Y475675D01*
X915610Y475676D01*
X915630Y475673D01*
X915769Y475686D01*
X915907Y475695D01*
X915926Y475701D01*
X915946Y475703D01*
X916078Y475750D01*
X916209Y475793D01*
X916227Y475804D01*
X916246Y475811D01*
X916361Y475889D01*
X916478Y475963D01*
X916492Y475978D01*
X916509Y475989D01*
X916601Y476093D01*
X916696Y476195D01*
X916706Y476212D01*
X916719Y476228D01*
X916783Y476352D01*
X916850Y476473D01*
X916855Y476493D01*
X916864Y476511D01*
X916894Y476647D01*
X916929Y476781D01*
X916931Y476809D01*
X916934Y476821D01*
X916933Y476842D01*
X916939Y476942D01*
X916939Y508000D01*
X916924Y508118D01*
X916917Y508237D01*
X916904Y508275D01*
X916899Y508316D01*
X916856Y508426D01*
X916819Y508539D01*
X916797Y508574D01*
X916782Y508611D01*
X916713Y508707D01*
X916649Y508808D01*
X916619Y508836D01*
X916596Y508869D01*
X916504Y508945D01*
X916417Y509026D01*
X916382Y509046D01*
X916351Y509071D01*
X916243Y509122D01*
X916139Y509180D01*
X916099Y509190D01*
X916063Y509207D01*
X915946Y509229D01*
X915831Y509259D01*
X915771Y509263D01*
X915751Y509267D01*
X915730Y509265D01*
X915670Y509269D01*
X495300Y509269D01*
X495182Y509254D01*
X495063Y509247D01*
X495025Y509234D01*
X494984Y509229D01*
X494874Y509186D01*
X494761Y509149D01*
X494726Y509127D01*
X494689Y509112D01*
X494593Y509043D01*
X494492Y508979D01*
X494464Y508949D01*
X494431Y508926D01*
X494355Y508834D01*
X494274Y508747D01*
X494254Y508712D01*
X494229Y508681D01*
X494178Y508573D01*
X494120Y508469D01*
X494110Y508429D01*
X494093Y508393D01*
X494071Y508276D01*
X494041Y508161D01*
X494037Y508101D01*
X494033Y508081D01*
X494035Y508060D01*
X494031Y508000D01*
X494031Y367030D01*
X494043Y366932D01*
X494046Y366833D01*
X494063Y366775D01*
X494071Y366714D01*
X494107Y366622D01*
X494135Y366527D01*
X494156Y366491D01*
X494159Y366483D01*
X494168Y366468D01*
X494188Y366419D01*
X494246Y366339D01*
X494296Y366253D01*
X494325Y366221D01*
X494329Y366214D01*
X494338Y366205D01*
X494362Y366178D01*
X494374Y366161D01*
X494384Y366154D01*
X494403Y366133D01*
X507103Y353433D01*
X507181Y353372D01*
X507253Y353304D01*
X507306Y353275D01*
X507354Y353238D01*
X507445Y353198D01*
X507531Y353150D01*
X507590Y353135D01*
X507646Y353111D01*
X507744Y353096D01*
X507839Y353071D01*
X507939Y353065D01*
X507960Y353061D01*
X507972Y353063D01*
X508000Y353061D01*
X915670Y353061D01*
X915788Y353076D01*
G37*
%LPC*%
G36*
X207989Y138203D02*
X207989Y138203D01*
X205177Y139368D01*
X205147Y139376D01*
X205120Y139390D01*
X205042Y139403D01*
X204902Y139439D01*
X204838Y139437D01*
X204789Y139445D01*
X194266Y139445D01*
X191839Y140451D01*
X179821Y152469D01*
X178815Y154896D01*
X178815Y170499D01*
X178811Y170529D01*
X178813Y170560D01*
X178796Y170637D01*
X178775Y170780D01*
X178749Y170839D01*
X178738Y170887D01*
X177573Y173699D01*
X177573Y176821D01*
X178793Y179765D01*
X178856Y179849D01*
X178866Y179877D01*
X178883Y179901D01*
X178917Y180009D01*
X178957Y180115D01*
X178960Y180144D01*
X178969Y180172D01*
X178971Y180285D01*
X178981Y180398D01*
X178975Y180427D01*
X178976Y180456D01*
X178947Y180566D01*
X178925Y180677D01*
X178911Y180703D01*
X178904Y180731D01*
X178846Y180828D01*
X178794Y180929D01*
X178774Y180951D01*
X178759Y180976D01*
X178676Y181053D01*
X178598Y181135D01*
X178573Y181150D01*
X178551Y181170D01*
X178451Y181222D01*
X178353Y181279D01*
X178325Y181286D01*
X178298Y181300D01*
X178221Y181313D01*
X178078Y181349D01*
X178015Y181347D01*
X177967Y181355D01*
X102826Y181355D01*
X100399Y182361D01*
X93461Y189299D01*
X92455Y191726D01*
X92455Y297499D01*
X92451Y297529D01*
X92453Y297560D01*
X92436Y297637D01*
X92415Y297780D01*
X92389Y297839D01*
X92378Y297887D01*
X91213Y300699D01*
X91213Y302622D01*
X91197Y302735D01*
X91187Y302850D01*
X91177Y302876D01*
X91173Y302903D01*
X91126Y303008D01*
X91085Y303115D01*
X91069Y303137D01*
X91057Y303162D01*
X90983Y303250D01*
X90914Y303342D01*
X90891Y303358D01*
X90874Y303379D01*
X90778Y303443D01*
X90686Y303512D01*
X90660Y303522D01*
X90637Y303537D01*
X90527Y303572D01*
X90420Y303612D01*
X90392Y303614D01*
X90366Y303623D01*
X90251Y303626D01*
X90137Y303635D01*
X90112Y303629D01*
X90082Y303630D01*
X89825Y303563D01*
X89809Y303560D01*
X89191Y303303D01*
X86069Y303303D01*
X83185Y304498D01*
X80978Y306705D01*
X79783Y309589D01*
X79783Y312711D01*
X80978Y315595D01*
X83185Y317802D01*
X86069Y318997D01*
X89191Y318997D01*
X92003Y317832D01*
X92033Y317824D01*
X92060Y317810D01*
X92138Y317797D01*
X92278Y317761D01*
X92342Y317763D01*
X92391Y317755D01*
X103189Y317755D01*
X103219Y317759D01*
X103250Y317757D01*
X103327Y317774D01*
X103470Y317795D01*
X103529Y317821D01*
X103577Y317832D01*
X106389Y318997D01*
X109511Y318997D01*
X112395Y317802D01*
X114602Y315595D01*
X115797Y312711D01*
X115797Y309589D01*
X114602Y306705D01*
X112395Y304498D01*
X109511Y303303D01*
X107922Y303303D01*
X107864Y303295D01*
X107806Y303297D01*
X107724Y303275D01*
X107640Y303263D01*
X107587Y303240D01*
X107531Y303225D01*
X107458Y303182D01*
X107381Y303147D01*
X107336Y303109D01*
X107286Y303080D01*
X107228Y303018D01*
X107164Y302964D01*
X107132Y302915D01*
X107092Y302872D01*
X107053Y302797D01*
X107006Y302727D01*
X106989Y302671D01*
X106962Y302619D01*
X106951Y302551D01*
X106921Y302456D01*
X106918Y302356D01*
X106907Y302288D01*
X106907Y300699D01*
X105742Y297887D01*
X105734Y297857D01*
X105720Y297830D01*
X105707Y297752D01*
X105671Y297612D01*
X105673Y297548D01*
X105665Y297499D01*
X105665Y196196D01*
X105677Y196110D01*
X105680Y196022D01*
X105697Y195970D01*
X105705Y195915D01*
X105740Y195835D01*
X105767Y195752D01*
X105795Y195713D01*
X105821Y195655D01*
X105917Y195542D01*
X105962Y195478D01*
X106578Y194862D01*
X106648Y194810D01*
X106712Y194750D01*
X106762Y194724D01*
X106806Y194691D01*
X106887Y194660D01*
X106965Y194620D01*
X107013Y194612D01*
X107071Y194590D01*
X107219Y194578D01*
X107296Y194565D01*
X208324Y194565D01*
X210751Y193559D01*
X214401Y189909D01*
X214471Y189857D01*
X214535Y189797D01*
X214585Y189771D01*
X214629Y189738D01*
X214710Y189707D01*
X214788Y189667D01*
X214836Y189659D01*
X214894Y189637D01*
X215042Y189625D01*
X215119Y189612D01*
X216129Y189612D01*
X216216Y189624D01*
X216303Y189627D01*
X216356Y189644D01*
X216411Y189652D01*
X216490Y189687D01*
X216574Y189714D01*
X216613Y189742D01*
X216670Y189768D01*
X216783Y189864D01*
X216847Y189909D01*
X218396Y191458D01*
X218448Y191528D01*
X218508Y191592D01*
X218534Y191641D01*
X218567Y191685D01*
X218598Y191767D01*
X218638Y191845D01*
X218646Y191892D01*
X218668Y191951D01*
X218680Y192099D01*
X218693Y192176D01*
X218693Y248863D01*
X219621Y251104D01*
X285280Y316762D01*
X287521Y317690D01*
X304233Y317690D01*
X304320Y317702D01*
X304407Y317705D01*
X304460Y317722D01*
X304515Y317730D01*
X304595Y317766D01*
X304678Y317793D01*
X304717Y317821D01*
X304774Y317846D01*
X304887Y317942D01*
X304951Y317988D01*
X305209Y318246D01*
X308093Y319440D01*
X309880Y319440D01*
X309938Y319448D01*
X309996Y319447D01*
X310078Y319468D01*
X310162Y319480D01*
X310215Y319504D01*
X310271Y319519D01*
X310344Y319562D01*
X310421Y319596D01*
X310466Y319634D01*
X310516Y319664D01*
X310574Y319726D01*
X310638Y319780D01*
X310670Y319829D01*
X310710Y319871D01*
X310749Y319946D01*
X310796Y320017D01*
X310813Y320072D01*
X310840Y320124D01*
X310851Y320192D01*
X310881Y320288D01*
X310884Y320387D01*
X310895Y320455D01*
X310895Y323641D01*
X311707Y325602D01*
X324638Y338533D01*
X326599Y339345D01*
X334038Y339345D01*
X334096Y339353D01*
X334154Y339351D01*
X334236Y339373D01*
X334320Y339385D01*
X334373Y339408D01*
X334429Y339423D01*
X334502Y339466D01*
X334579Y339501D01*
X334624Y339539D01*
X334674Y339568D01*
X334732Y339630D01*
X334796Y339684D01*
X334828Y339733D01*
X334868Y339776D01*
X334907Y339851D01*
X334954Y339921D01*
X334971Y339977D01*
X334998Y340029D01*
X335009Y340097D01*
X335039Y340192D01*
X335042Y340292D01*
X335053Y340360D01*
X335053Y343191D01*
X336248Y346075D01*
X338455Y348282D01*
X340087Y348958D01*
X340137Y348988D01*
X340192Y349009D01*
X340259Y349060D01*
X340332Y349103D01*
X340372Y349145D01*
X340419Y349180D01*
X340469Y349248D01*
X340527Y349309D01*
X340554Y349361D01*
X340589Y349408D01*
X340619Y349487D01*
X340657Y349562D01*
X340668Y349619D01*
X340689Y349674D01*
X340696Y349758D01*
X340712Y349841D01*
X340707Y349899D01*
X340712Y349957D01*
X340696Y350025D01*
X340688Y350124D01*
X340652Y350217D01*
X340636Y350285D01*
X340133Y351499D01*
X340133Y354621D01*
X341328Y357505D01*
X343535Y359712D01*
X346419Y360907D01*
X349541Y360907D01*
X352425Y359712D01*
X354632Y357505D01*
X355827Y354621D01*
X355827Y353842D01*
X355831Y353811D01*
X355829Y353780D01*
X355846Y353704D01*
X355867Y353560D01*
X355893Y353502D01*
X355904Y353453D01*
X356617Y351733D01*
X356617Y293427D01*
X355689Y291186D01*
X351434Y286931D01*
X349193Y286003D01*
X335621Y286003D01*
X335534Y285991D01*
X335447Y285988D01*
X335394Y285971D01*
X335339Y285963D01*
X335259Y285928D01*
X335176Y285901D01*
X335137Y285873D01*
X335080Y285847D01*
X334967Y285751D01*
X334903Y285706D01*
X334645Y285448D01*
X331761Y284253D01*
X328639Y284253D01*
X326779Y285024D01*
X326667Y285053D01*
X326558Y285087D01*
X326530Y285088D01*
X326503Y285095D01*
X326389Y285092D01*
X326274Y285095D01*
X326247Y285088D01*
X326219Y285087D01*
X326110Y285052D01*
X325999Y285023D01*
X325975Y285009D01*
X325948Y285000D01*
X325853Y284936D01*
X325754Y284878D01*
X325735Y284857D01*
X325712Y284842D01*
X325638Y284754D01*
X325560Y284670D01*
X325547Y284645D01*
X325529Y284624D01*
X325483Y284519D01*
X325430Y284417D01*
X325426Y284392D01*
X325414Y284365D01*
X325398Y284250D01*
X325389Y284221D01*
X325388Y284175D01*
X325377Y284101D01*
X325375Y284086D01*
X325375Y209383D01*
X325387Y209296D01*
X325390Y209209D01*
X325407Y209156D01*
X325415Y209101D01*
X325450Y209021D01*
X325477Y208938D01*
X325505Y208899D01*
X325531Y208842D01*
X325627Y208729D01*
X325672Y208665D01*
X326692Y207645D01*
X327887Y204761D01*
X327887Y201639D01*
X326692Y198755D01*
X324485Y196548D01*
X321601Y195353D01*
X318479Y195353D01*
X315595Y196548D01*
X313902Y198241D01*
X313855Y198277D01*
X313815Y198319D01*
X313742Y198362D01*
X313674Y198412D01*
X313620Y198433D01*
X313569Y198463D01*
X313488Y198483D01*
X313409Y198514D01*
X313350Y198518D01*
X313294Y198533D01*
X313210Y198530D01*
X313126Y198537D01*
X313068Y198526D01*
X313010Y198524D01*
X312929Y198498D01*
X312847Y198481D01*
X312795Y198454D01*
X312739Y198436D01*
X312683Y198396D01*
X312594Y198350D01*
X312522Y198281D01*
X312466Y198241D01*
X310362Y196137D01*
X308401Y195325D01*
X303363Y195325D01*
X303276Y195313D01*
X303189Y195310D01*
X303136Y195293D01*
X303081Y195285D01*
X303001Y195250D01*
X302918Y195223D01*
X302879Y195195D01*
X302822Y195169D01*
X302709Y195073D01*
X302645Y195028D01*
X301625Y194008D01*
X298741Y192813D01*
X295619Y192813D01*
X292735Y194008D01*
X290528Y196215D01*
X289333Y199099D01*
X289333Y202221D01*
X290528Y205105D01*
X292735Y207312D01*
X295619Y208507D01*
X298741Y208507D01*
X301625Y207312D01*
X302645Y206292D01*
X302715Y206240D01*
X302779Y206180D01*
X302828Y206154D01*
X302872Y206121D01*
X302954Y206090D01*
X303032Y206050D01*
X303079Y206042D01*
X303138Y206020D01*
X303285Y206008D01*
X303363Y205995D01*
X304710Y205995D01*
X304796Y206007D01*
X304884Y206010D01*
X304936Y206027D01*
X304991Y206035D01*
X305071Y206070D01*
X305154Y206097D01*
X305194Y206125D01*
X305251Y206151D01*
X305364Y206247D01*
X305428Y206292D01*
X310598Y211462D01*
X310650Y211532D01*
X310710Y211596D01*
X310736Y211645D01*
X310769Y211690D01*
X310800Y211771D01*
X310840Y211849D01*
X310848Y211897D01*
X310870Y211955D01*
X310882Y212103D01*
X310895Y212180D01*
X310895Y249775D01*
X310887Y249832D01*
X310889Y249891D01*
X310867Y249972D01*
X310855Y250056D01*
X310832Y250109D01*
X310817Y250166D01*
X310774Y250238D01*
X310739Y250315D01*
X310701Y250360D01*
X310672Y250410D01*
X310610Y250468D01*
X310556Y250532D01*
X310507Y250565D01*
X310464Y250605D01*
X310389Y250643D01*
X310319Y250690D01*
X310263Y250708D01*
X310211Y250734D01*
X310143Y250746D01*
X310048Y250776D01*
X309948Y250778D01*
X309880Y250790D01*
X308093Y250790D01*
X305209Y251984D01*
X304189Y253004D01*
X304119Y253057D01*
X304055Y253117D01*
X304006Y253142D01*
X303962Y253175D01*
X303880Y253206D01*
X303802Y253246D01*
X303755Y253254D01*
X303696Y253277D01*
X303549Y253289D01*
X303471Y253302D01*
X300372Y253302D01*
X298412Y254114D01*
X294537Y257988D01*
X293725Y259949D01*
X293725Y266567D01*
X293713Y266654D01*
X293710Y266741D01*
X293693Y266794D01*
X293685Y266849D01*
X293650Y266929D01*
X293623Y267012D01*
X293595Y267051D01*
X293569Y267108D01*
X293473Y267221D01*
X293428Y267285D01*
X292408Y268305D01*
X291213Y271189D01*
X291213Y274311D01*
X292408Y277195D01*
X294615Y279402D01*
X297499Y280597D01*
X300621Y280597D01*
X303505Y279402D01*
X305712Y277195D01*
X306907Y274311D01*
X306907Y271189D01*
X305712Y268305D01*
X304692Y267285D01*
X304640Y267215D01*
X304580Y267151D01*
X304554Y267102D01*
X304521Y267058D01*
X304490Y266976D01*
X304450Y266898D01*
X304442Y266851D01*
X304420Y266792D01*
X304408Y266644D01*
X304395Y266567D01*
X304395Y266471D01*
X304411Y266357D01*
X304421Y266243D01*
X304431Y266217D01*
X304435Y266189D01*
X304482Y266084D01*
X304523Y265977D01*
X304539Y265955D01*
X304551Y265930D01*
X304625Y265842D01*
X304694Y265751D01*
X304717Y265734D01*
X304734Y265713D01*
X304830Y265649D01*
X304922Y265580D01*
X304948Y265571D01*
X304971Y265555D01*
X305081Y265521D01*
X305188Y265480D01*
X305216Y265478D01*
X305242Y265469D01*
X305357Y265466D01*
X305471Y265457D01*
X305496Y265463D01*
X305526Y265462D01*
X305783Y265529D01*
X305799Y265533D01*
X308093Y266483D01*
X309880Y266483D01*
X309938Y266491D01*
X309996Y266490D01*
X310078Y266511D01*
X310162Y266523D01*
X310215Y266547D01*
X310271Y266562D01*
X310344Y266605D01*
X310421Y266639D01*
X310466Y266677D01*
X310516Y266707D01*
X310574Y266769D01*
X310638Y266823D01*
X310670Y266872D01*
X310710Y266914D01*
X310749Y266989D01*
X310796Y267060D01*
X310813Y267115D01*
X310840Y267167D01*
X310851Y267235D01*
X310881Y267331D01*
X310884Y267430D01*
X310895Y267498D01*
X310895Y302732D01*
X310887Y302789D01*
X310889Y302848D01*
X310867Y302929D01*
X310855Y303013D01*
X310832Y303066D01*
X310817Y303123D01*
X310774Y303195D01*
X310739Y303272D01*
X310701Y303317D01*
X310672Y303367D01*
X310610Y303425D01*
X310556Y303489D01*
X310507Y303522D01*
X310464Y303562D01*
X310389Y303600D01*
X310319Y303647D01*
X310263Y303665D01*
X310211Y303691D01*
X310143Y303703D01*
X310048Y303733D01*
X309948Y303735D01*
X309880Y303747D01*
X308093Y303747D01*
X305209Y304941D01*
X304951Y305199D01*
X304881Y305252D01*
X304817Y305312D01*
X304768Y305337D01*
X304724Y305370D01*
X304642Y305401D01*
X304564Y305441D01*
X304517Y305449D01*
X304458Y305472D01*
X304311Y305484D01*
X304233Y305497D01*
X291679Y305497D01*
X291593Y305485D01*
X291505Y305482D01*
X291453Y305465D01*
X291398Y305457D01*
X291318Y305421D01*
X291235Y305394D01*
X291196Y305366D01*
X291138Y305341D01*
X291025Y305245D01*
X290962Y305199D01*
X231184Y245422D01*
X231132Y245352D01*
X231072Y245288D01*
X231046Y245239D01*
X231013Y245195D01*
X230982Y245113D01*
X230942Y245035D01*
X230934Y244988D01*
X230912Y244929D01*
X230900Y244781D01*
X230887Y244704D01*
X230887Y188017D01*
X229959Y185776D01*
X222529Y178346D01*
X220761Y177615D01*
X220760Y177614D01*
X220759Y177613D01*
X220638Y177542D01*
X220517Y177470D01*
X220516Y177469D01*
X220514Y177468D01*
X220417Y177364D01*
X220321Y177263D01*
X220321Y177262D01*
X220320Y177261D01*
X220255Y177135D01*
X220191Y177011D01*
X220191Y177009D01*
X220190Y177008D01*
X220188Y176993D01*
X220136Y176732D01*
X220139Y176701D01*
X220135Y176677D01*
X220135Y173699D01*
X218940Y170815D01*
X216733Y168608D01*
X213849Y167413D01*
X210820Y167413D01*
X210762Y167405D01*
X210704Y167407D01*
X210622Y167385D01*
X210538Y167373D01*
X210485Y167350D01*
X210429Y167335D01*
X210356Y167292D01*
X210279Y167257D01*
X210234Y167219D01*
X210184Y167190D01*
X210126Y167128D01*
X210062Y167074D01*
X210030Y167025D01*
X209990Y166982D01*
X209951Y166907D01*
X209904Y166837D01*
X209887Y166781D01*
X209860Y166729D01*
X209849Y166661D01*
X209819Y166566D01*
X209816Y166466D01*
X209805Y166398D01*
X209805Y160971D01*
X209809Y160941D01*
X209807Y160910D01*
X209824Y160833D01*
X209845Y160690D01*
X209871Y160631D01*
X209882Y160583D01*
X211047Y157771D01*
X211047Y154602D01*
X211047Y154600D01*
X211047Y154598D01*
X211067Y154458D01*
X211087Y154320D01*
X211087Y154319D01*
X211087Y154317D01*
X211144Y154191D01*
X211203Y154061D01*
X211204Y154059D01*
X211205Y154058D01*
X211298Y153948D01*
X211386Y153844D01*
X211388Y153843D01*
X211389Y153842D01*
X211402Y153833D01*
X211623Y153686D01*
X211652Y153677D01*
X211673Y153664D01*
X213995Y152702D01*
X216202Y150495D01*
X217397Y147611D01*
X217397Y144489D01*
X216202Y141605D01*
X213995Y139398D01*
X211111Y138203D01*
X207989Y138203D01*
G37*
%LPD*%
G36*
X578199Y136149D02*
X578199Y136149D01*
X578230Y136147D01*
X578307Y136164D01*
X578450Y136185D01*
X578509Y136211D01*
X578557Y136222D01*
X580779Y137142D01*
X580780Y137143D01*
X580781Y137143D01*
X580900Y137213D01*
X581023Y137287D01*
X581024Y137288D01*
X581026Y137289D01*
X581123Y137392D01*
X581219Y137493D01*
X581219Y137495D01*
X581220Y137496D01*
X581285Y137622D01*
X581349Y137746D01*
X581349Y137748D01*
X581350Y137749D01*
X581352Y137764D01*
X581404Y138025D01*
X581401Y138055D01*
X581405Y138080D01*
X581405Y169971D01*
X582217Y171932D01*
X583861Y173575D01*
X587566Y177280D01*
X587583Y177304D01*
X587606Y177323D01*
X587668Y177417D01*
X587737Y177507D01*
X587747Y177535D01*
X587763Y177559D01*
X587798Y177667D01*
X587838Y177773D01*
X587840Y177802D01*
X587849Y177830D01*
X587852Y177944D01*
X587861Y178056D01*
X587856Y178085D01*
X587856Y178114D01*
X587828Y178224D01*
X587805Y178335D01*
X587792Y178361D01*
X587785Y178389D01*
X587727Y178487D01*
X587674Y178587D01*
X587654Y178609D01*
X587639Y178634D01*
X587557Y178711D01*
X587479Y178793D01*
X587453Y178808D01*
X587432Y178828D01*
X587331Y178880D01*
X587233Y178937D01*
X587205Y178944D01*
X587179Y178958D01*
X587101Y178971D01*
X586958Y179007D01*
X586895Y179005D01*
X586848Y179013D01*
X565161Y179013D01*
X563200Y179825D01*
X559357Y183668D01*
X558545Y185629D01*
X558545Y215841D01*
X558533Y215928D01*
X558530Y216015D01*
X558513Y216068D01*
X558505Y216123D01*
X558470Y216203D01*
X558443Y216286D01*
X558415Y216325D01*
X558389Y216382D01*
X558293Y216495D01*
X558248Y216559D01*
X557228Y217579D01*
X556033Y220463D01*
X556033Y222250D01*
X556025Y222308D01*
X556027Y222366D01*
X556005Y222448D01*
X555993Y222532D01*
X555970Y222585D01*
X555955Y222641D01*
X555912Y222714D01*
X555877Y222791D01*
X555839Y222836D01*
X555810Y222886D01*
X555748Y222944D01*
X555694Y223008D01*
X555645Y223040D01*
X555602Y223080D01*
X555527Y223119D01*
X555457Y223166D01*
X555401Y223183D01*
X555349Y223210D01*
X555281Y223221D01*
X555186Y223251D01*
X555086Y223254D01*
X555018Y223265D01*
X483870Y223265D01*
X483812Y223257D01*
X483754Y223259D01*
X483672Y223237D01*
X483588Y223225D01*
X483535Y223202D01*
X483479Y223187D01*
X483406Y223144D01*
X483329Y223109D01*
X483284Y223071D01*
X483234Y223042D01*
X483176Y222980D01*
X483112Y222926D01*
X483080Y222877D01*
X483040Y222834D01*
X483001Y222759D01*
X482954Y222689D01*
X482937Y222633D01*
X482910Y222581D01*
X482899Y222513D01*
X482869Y222418D01*
X482866Y222318D01*
X482855Y222250D01*
X482855Y205641D01*
X482043Y203680D01*
X479342Y200979D01*
X479290Y200910D01*
X479230Y200846D01*
X479204Y200796D01*
X479171Y200752D01*
X479140Y200671D01*
X479100Y200593D01*
X479092Y200545D01*
X479070Y200487D01*
X479058Y200339D01*
X479045Y200262D01*
X479045Y149693D01*
X479057Y149606D01*
X479060Y149519D01*
X479077Y149466D01*
X479085Y149411D01*
X479120Y149331D01*
X479147Y149248D01*
X479175Y149209D01*
X479201Y149152D01*
X479297Y149039D01*
X479342Y148975D01*
X480362Y147955D01*
X481557Y145071D01*
X481557Y141949D01*
X480362Y139065D01*
X479175Y137878D01*
X479157Y137854D01*
X479135Y137835D01*
X479072Y137741D01*
X479004Y137651D01*
X478993Y137623D01*
X478977Y137599D01*
X478943Y137491D01*
X478903Y137385D01*
X478900Y137356D01*
X478891Y137328D01*
X478889Y137214D01*
X478879Y137102D01*
X478885Y137073D01*
X478884Y137044D01*
X478913Y136934D01*
X478935Y136823D01*
X478949Y136797D01*
X478956Y136769D01*
X479014Y136671D01*
X479066Y136571D01*
X479086Y136549D01*
X479101Y136524D01*
X479184Y136447D01*
X479262Y136365D01*
X479287Y136350D01*
X479309Y136330D01*
X479409Y136278D01*
X479507Y136221D01*
X479536Y136214D01*
X479562Y136200D01*
X479639Y136187D01*
X479783Y136151D01*
X479845Y136153D01*
X479893Y136145D01*
X578169Y136145D01*
X578199Y136149D01*
G37*
%LPC*%
G36*
X766954Y359945D02*
X766954Y359945D01*
X759967Y366932D01*
X759967Y367382D01*
X759955Y367480D01*
X759952Y367579D01*
X759935Y367638D01*
X759927Y367698D01*
X759891Y367790D01*
X759863Y367885D01*
X759833Y367937D01*
X759810Y367993D01*
X759752Y368073D01*
X759702Y368159D01*
X759636Y368234D01*
X759624Y368251D01*
X759614Y368259D01*
X759595Y368280D01*
X758771Y369104D01*
X757963Y371054D01*
X757963Y373166D01*
X758771Y375116D01*
X759595Y375940D01*
X759656Y376018D01*
X759724Y376091D01*
X759753Y376144D01*
X759790Y376192D01*
X759830Y376282D01*
X759878Y376369D01*
X759893Y376428D01*
X759917Y376483D01*
X759932Y376581D01*
X759957Y376677D01*
X759963Y376777D01*
X759967Y376798D01*
X759965Y376810D01*
X759967Y376838D01*
X759967Y384908D01*
X765946Y390886D01*
X766006Y390965D01*
X766074Y391037D01*
X766103Y391090D01*
X766140Y391138D01*
X766180Y391229D01*
X766228Y391315D01*
X766243Y391374D01*
X766267Y391429D01*
X766282Y391527D01*
X766307Y391623D01*
X766313Y391723D01*
X766317Y391744D01*
X766315Y391756D01*
X766317Y391784D01*
X766317Y397216D01*
X766309Y397285D01*
X766310Y397355D01*
X766289Y397442D01*
X766277Y397531D01*
X766252Y397596D01*
X766235Y397664D01*
X766193Y397743D01*
X766160Y397827D01*
X766119Y397883D01*
X766087Y397945D01*
X766026Y398011D01*
X765974Y398084D01*
X765920Y398129D01*
X765873Y398180D01*
X765798Y398230D01*
X765729Y398287D01*
X765665Y398317D01*
X765607Y398355D01*
X765522Y398384D01*
X765441Y398423D01*
X765372Y398436D01*
X765306Y398458D01*
X765217Y398465D01*
X765129Y398482D01*
X765059Y398478D01*
X764989Y398484D01*
X764901Y398468D01*
X764811Y398463D01*
X764745Y398441D01*
X764676Y398429D01*
X764594Y398392D01*
X764509Y398365D01*
X764450Y398327D01*
X764386Y398299D01*
X764316Y398242D01*
X764240Y398194D01*
X764192Y398144D01*
X764138Y398100D01*
X764083Y398028D01*
X764022Y397963D01*
X763988Y397902D01*
X763946Y397846D01*
X763875Y397701D01*
X763542Y396896D01*
X761344Y394698D01*
X758474Y393509D01*
X755366Y393509D01*
X752496Y394698D01*
X750298Y396896D01*
X749109Y399766D01*
X749109Y402874D01*
X750298Y405744D01*
X752496Y407942D01*
X755366Y409131D01*
X758474Y409131D01*
X760637Y408235D01*
X760705Y408216D01*
X760769Y408188D01*
X760857Y408174D01*
X760944Y408151D01*
X761014Y408149D01*
X761083Y408139D01*
X761172Y408147D01*
X761262Y408146D01*
X761330Y408162D01*
X761399Y408168D01*
X761484Y408199D01*
X761571Y408220D01*
X761633Y408252D01*
X761699Y408276D01*
X761773Y408326D01*
X761852Y408368D01*
X761904Y408415D01*
X761962Y408455D01*
X762021Y408522D01*
X762088Y408582D01*
X762126Y408641D01*
X762172Y408693D01*
X762213Y408773D01*
X762262Y408848D01*
X762285Y408914D01*
X762317Y408976D01*
X762337Y409064D01*
X762366Y409149D01*
X762371Y409218D01*
X762386Y409286D01*
X762384Y409376D01*
X762391Y409466D01*
X762379Y409535D01*
X762377Y409604D01*
X762352Y409691D01*
X762336Y409779D01*
X762308Y409843D01*
X762288Y409910D01*
X762243Y409987D01*
X762206Y410069D01*
X762162Y410124D01*
X762127Y410184D01*
X762020Y410305D01*
X761311Y411014D01*
X760503Y412964D01*
X760503Y415076D01*
X761364Y417154D01*
X761377Y417202D01*
X761399Y417247D01*
X761419Y417355D01*
X761448Y417461D01*
X761449Y417511D01*
X761458Y417560D01*
X761452Y417669D01*
X761453Y417779D01*
X761442Y417827D01*
X761439Y417877D01*
X761405Y417981D01*
X761379Y418088D01*
X761356Y418132D01*
X761341Y418179D01*
X761282Y418272D01*
X761230Y418369D01*
X761197Y418406D01*
X761170Y418448D01*
X761090Y418523D01*
X761016Y418605D01*
X760975Y418632D01*
X760939Y418666D01*
X760843Y418719D01*
X760751Y418779D01*
X760704Y418796D01*
X760660Y418820D01*
X760554Y418847D01*
X760450Y418883D01*
X760400Y418887D01*
X760352Y418899D01*
X760192Y418909D01*
X749854Y418909D01*
X749109Y419654D01*
X749109Y433786D01*
X749854Y434531D01*
X763986Y434531D01*
X764731Y433786D01*
X764731Y420596D01*
X764746Y420478D01*
X764753Y420359D01*
X764766Y420321D01*
X764771Y420280D01*
X764814Y420170D01*
X764851Y420057D01*
X764873Y420022D01*
X764888Y419985D01*
X764957Y419889D01*
X765021Y419788D01*
X765051Y419760D01*
X765074Y419727D01*
X765166Y419651D01*
X765253Y419570D01*
X765288Y419550D01*
X765319Y419525D01*
X765427Y419474D01*
X765531Y419416D01*
X765571Y419406D01*
X765607Y419389D01*
X765724Y419367D01*
X765839Y419337D01*
X765899Y419333D01*
X765919Y419329D01*
X765940Y419331D01*
X766000Y419327D01*
X766866Y419327D01*
X768816Y418519D01*
X770309Y417026D01*
X771117Y415076D01*
X771117Y412964D01*
X770309Y411014D01*
X770255Y410961D01*
X770182Y410866D01*
X770104Y410777D01*
X770085Y410741D01*
X770060Y410709D01*
X770013Y410600D01*
X769959Y410494D01*
X769950Y410454D01*
X769934Y410417D01*
X769915Y410300D01*
X769889Y410184D01*
X769891Y410143D01*
X769884Y410103D01*
X769895Y409985D01*
X769899Y409866D01*
X769910Y409827D01*
X769914Y409787D01*
X769954Y409675D01*
X769987Y409560D01*
X770008Y409525D01*
X770022Y409487D01*
X770088Y409389D01*
X770149Y409286D01*
X770189Y409241D01*
X770200Y409224D01*
X770215Y409211D01*
X770255Y409165D01*
X770616Y408804D01*
X772923Y406498D01*
X772923Y388522D01*
X766944Y382544D01*
X766884Y382465D01*
X766816Y382393D01*
X766787Y382340D01*
X766750Y382292D01*
X766710Y382201D01*
X766662Y382115D01*
X766647Y382056D01*
X766623Y382001D01*
X766608Y381903D01*
X766583Y381807D01*
X766577Y381707D01*
X766573Y381686D01*
X766575Y381674D01*
X766573Y381646D01*
X766573Y376838D01*
X766585Y376740D01*
X766588Y376641D01*
X766605Y376582D01*
X766613Y376522D01*
X766649Y376430D01*
X766677Y376335D01*
X766707Y376283D01*
X766730Y376227D01*
X766788Y376147D01*
X766838Y376061D01*
X766904Y375986D01*
X766916Y375969D01*
X766926Y375961D01*
X766945Y375940D01*
X767769Y375116D01*
X768577Y373166D01*
X768577Y371054D01*
X767908Y369441D01*
X767900Y369412D01*
X767887Y369386D01*
X767859Y369259D01*
X767824Y369134D01*
X767824Y369104D01*
X767817Y369075D01*
X767821Y368946D01*
X767819Y368816D01*
X767826Y368787D01*
X767827Y368758D01*
X767863Y368633D01*
X767893Y368507D01*
X767907Y368480D01*
X767915Y368452D01*
X767981Y368340D01*
X768042Y368225D01*
X768062Y368204D01*
X768077Y368178D01*
X768183Y368057D01*
X769318Y366922D01*
X769396Y366862D01*
X769469Y366794D01*
X769522Y366765D01*
X769570Y366728D01*
X769660Y366688D01*
X769747Y366640D01*
X769806Y366625D01*
X769861Y366601D01*
X769959Y366586D01*
X770055Y366561D01*
X770155Y366555D01*
X770176Y366551D01*
X770188Y366553D01*
X770216Y366551D01*
X806520Y366551D01*
X806658Y366568D01*
X806797Y366581D01*
X806816Y366588D01*
X806836Y366591D01*
X806965Y366642D01*
X807096Y366689D01*
X807113Y366700D01*
X807131Y366708D01*
X807244Y366789D01*
X807359Y366867D01*
X807372Y366883D01*
X807389Y366894D01*
X807478Y367002D01*
X807569Y367106D01*
X807579Y367124D01*
X807592Y367139D01*
X807651Y367265D01*
X807714Y367389D01*
X807718Y367409D01*
X807727Y367427D01*
X807753Y367564D01*
X807784Y367699D01*
X807783Y367720D01*
X807787Y367739D01*
X807778Y367878D01*
X807774Y368017D01*
X807768Y368037D01*
X807767Y368057D01*
X807724Y368189D01*
X807686Y368323D01*
X807675Y368340D01*
X807669Y368359D01*
X807594Y368477D01*
X807524Y368597D01*
X807506Y368618D01*
X807499Y368628D01*
X807484Y368642D01*
X807418Y368717D01*
X805761Y370374D01*
X804953Y372324D01*
X804953Y374436D01*
X805761Y376386D01*
X806586Y377210D01*
X806646Y377289D01*
X806714Y377361D01*
X806743Y377414D01*
X806780Y377462D01*
X806820Y377553D01*
X806868Y377639D01*
X806883Y377698D01*
X806907Y377754D01*
X806922Y377851D01*
X806947Y377947D01*
X806953Y378047D01*
X806957Y378068D01*
X806955Y378080D01*
X806957Y378108D01*
X806957Y401966D01*
X806945Y402064D01*
X806942Y402163D01*
X806925Y402222D01*
X806917Y402282D01*
X806881Y402374D01*
X806853Y402469D01*
X806823Y402521D01*
X806800Y402577D01*
X806742Y402657D01*
X806692Y402743D01*
X806626Y402818D01*
X806614Y402835D01*
X806604Y402843D01*
X806586Y402864D01*
X805454Y403996D01*
X805375Y404056D01*
X805303Y404124D01*
X805250Y404153D01*
X805202Y404190D01*
X805111Y404230D01*
X805025Y404278D01*
X804966Y404293D01*
X804911Y404317D01*
X804813Y404332D01*
X804717Y404357D01*
X804617Y404363D01*
X804596Y404367D01*
X804584Y404365D01*
X804556Y404367D01*
X804100Y404367D01*
X803982Y404352D01*
X803863Y404345D01*
X803825Y404332D01*
X803784Y404327D01*
X803674Y404284D01*
X803561Y404247D01*
X803526Y404225D01*
X803489Y404210D01*
X803393Y404141D01*
X803292Y404077D01*
X803264Y404047D01*
X803231Y404024D01*
X803155Y403932D01*
X803074Y403845D01*
X803054Y403810D01*
X803029Y403779D01*
X802978Y403671D01*
X802920Y403567D01*
X802910Y403527D01*
X802893Y403491D01*
X802871Y403374D01*
X802841Y403259D01*
X802837Y403199D01*
X802833Y403179D01*
X802835Y403158D01*
X802831Y403098D01*
X802831Y399766D01*
X801642Y396896D01*
X799444Y394698D01*
X796574Y393509D01*
X793466Y393509D01*
X790596Y394698D01*
X788398Y396896D01*
X787209Y399766D01*
X787209Y402874D01*
X788398Y405744D01*
X790596Y407942D01*
X793466Y409131D01*
X796496Y409131D01*
X796545Y409137D01*
X796595Y409135D01*
X796702Y409157D01*
X796811Y409171D01*
X796857Y409189D01*
X796906Y409199D01*
X797005Y409247D01*
X797107Y409288D01*
X797147Y409317D01*
X797192Y409339D01*
X797275Y409410D01*
X797364Y409474D01*
X797396Y409513D01*
X797434Y409545D01*
X797497Y409635D01*
X797567Y409719D01*
X797588Y409764D01*
X797617Y409805D01*
X797656Y409908D01*
X797703Y410007D01*
X797712Y410056D01*
X797729Y410102D01*
X797742Y410211D01*
X797762Y410319D01*
X797759Y410369D01*
X797765Y410418D01*
X797749Y410527D01*
X797743Y410637D01*
X797727Y410684D01*
X797720Y410733D01*
X797668Y410886D01*
X797333Y411694D01*
X797333Y413806D01*
X798141Y415756D01*
X799128Y416743D01*
X799212Y416852D01*
X799302Y416959D01*
X799310Y416978D01*
X799323Y416994D01*
X799378Y417121D01*
X799437Y417247D01*
X799441Y417267D01*
X799449Y417286D01*
X799471Y417424D01*
X799497Y417560D01*
X799496Y417580D01*
X799499Y417600D01*
X799486Y417739D01*
X799477Y417877D01*
X799471Y417896D01*
X799469Y417916D01*
X799422Y418048D01*
X799379Y418179D01*
X799368Y418197D01*
X799361Y418216D01*
X799283Y418331D01*
X799209Y418448D01*
X799194Y418462D01*
X799183Y418479D01*
X799079Y418571D01*
X798977Y418666D01*
X798960Y418676D01*
X798944Y418689D01*
X798821Y418752D01*
X798699Y418820D01*
X798679Y418825D01*
X798661Y418834D01*
X798525Y418864D01*
X798391Y418899D01*
X798363Y418901D01*
X798351Y418904D01*
X798330Y418903D01*
X798230Y418909D01*
X787954Y418909D01*
X787209Y419654D01*
X787209Y433786D01*
X787954Y434531D01*
X802086Y434531D01*
X802831Y433786D01*
X802831Y419263D01*
X802834Y419234D01*
X802832Y419204D01*
X802854Y419076D01*
X802871Y418948D01*
X802881Y418920D01*
X802886Y418891D01*
X802940Y418772D01*
X802988Y418652D01*
X803005Y418628D01*
X803017Y418601D01*
X803098Y418500D01*
X803174Y418394D01*
X803197Y418376D01*
X803216Y418353D01*
X803319Y418274D01*
X803419Y418192D01*
X803446Y418179D01*
X803470Y418161D01*
X803614Y418090D01*
X805646Y417249D01*
X807139Y415756D01*
X807947Y413806D01*
X807947Y411601D01*
X807938Y411570D01*
X807938Y411541D01*
X807931Y411512D01*
X807935Y411382D01*
X807933Y411252D01*
X807940Y411223D01*
X807941Y411194D01*
X807977Y411069D01*
X808007Y410943D01*
X808021Y410917D01*
X808029Y410888D01*
X808095Y410777D01*
X808156Y410662D01*
X808176Y410640D01*
X808191Y410614D01*
X808297Y410493D01*
X813563Y405228D01*
X813563Y378108D01*
X813575Y378010D01*
X813578Y377911D01*
X813595Y377852D01*
X813603Y377792D01*
X813639Y377700D01*
X813667Y377605D01*
X813697Y377553D01*
X813720Y377497D01*
X813778Y377417D01*
X813828Y377331D01*
X813894Y377256D01*
X813906Y377239D01*
X813916Y377232D01*
X813934Y377210D01*
X814759Y376386D01*
X815567Y374436D01*
X815567Y373270D01*
X815579Y373172D01*
X815582Y373073D01*
X815599Y373014D01*
X815607Y372954D01*
X815643Y372862D01*
X815671Y372767D01*
X815701Y372715D01*
X815724Y372659D01*
X815782Y372579D01*
X815832Y372493D01*
X815898Y372418D01*
X815910Y372401D01*
X815920Y372393D01*
X815938Y372372D01*
X816054Y372256D01*
X816133Y372196D01*
X816205Y372128D01*
X816258Y372099D01*
X816306Y372062D01*
X816397Y372022D01*
X816483Y371974D01*
X816542Y371959D01*
X816597Y371935D01*
X816695Y371920D01*
X816791Y371895D01*
X816891Y371889D01*
X816912Y371885D01*
X816924Y371887D01*
X816952Y371885D01*
X851278Y371885D01*
X851327Y371891D01*
X851377Y371889D01*
X851484Y371911D01*
X851593Y371925D01*
X851640Y371943D01*
X851688Y371953D01*
X851787Y372001D01*
X851889Y372042D01*
X851929Y372071D01*
X851974Y372093D01*
X852058Y372164D01*
X852146Y372228D01*
X852178Y372267D01*
X852216Y372299D01*
X852279Y372389D01*
X852349Y372473D01*
X852370Y372518D01*
X852399Y372559D01*
X852438Y372662D01*
X852485Y372761D01*
X852494Y372810D01*
X852512Y372856D01*
X852524Y372966D01*
X852545Y373073D01*
X852542Y373123D01*
X852547Y373172D01*
X852532Y373281D01*
X852525Y373391D01*
X852510Y373438D01*
X852503Y373487D01*
X852451Y373640D01*
X851943Y374864D01*
X851943Y376976D01*
X852751Y378926D01*
X854244Y380419D01*
X856194Y381227D01*
X858306Y381227D01*
X860256Y380419D01*
X861080Y379594D01*
X861159Y379534D01*
X861231Y379466D01*
X861284Y379437D01*
X861332Y379400D01*
X861423Y379360D01*
X861509Y379312D01*
X861568Y379297D01*
X861624Y379273D01*
X861721Y379258D01*
X861817Y379233D01*
X861917Y379227D01*
X861938Y379223D01*
X861950Y379225D01*
X861978Y379223D01*
X866786Y379223D01*
X866884Y379235D01*
X866983Y379238D01*
X867042Y379255D01*
X867102Y379263D01*
X867194Y379299D01*
X867289Y379327D01*
X867341Y379357D01*
X867397Y379380D01*
X867477Y379438D01*
X867563Y379488D01*
X867638Y379554D01*
X867655Y379566D01*
X867663Y379576D01*
X867684Y379594D01*
X872734Y384645D01*
X872795Y384723D01*
X872863Y384795D01*
X872892Y384848D01*
X872929Y384896D01*
X872969Y384987D01*
X873016Y385074D01*
X873031Y385132D01*
X873056Y385188D01*
X873071Y385286D01*
X873096Y385382D01*
X873102Y385482D01*
X873105Y385502D01*
X873104Y385515D01*
X873106Y385543D01*
X873106Y387811D01*
X873094Y387909D01*
X873091Y388008D01*
X873074Y388066D01*
X873066Y388126D01*
X873030Y388218D01*
X873002Y388314D01*
X872971Y388366D01*
X872949Y388422D01*
X872891Y388502D01*
X872841Y388588D01*
X872774Y388663D01*
X872762Y388679D01*
X872753Y388687D01*
X872734Y388708D01*
X871910Y389533D01*
X871102Y391483D01*
X871102Y393594D01*
X871910Y395545D01*
X873403Y397038D01*
X875353Y397845D01*
X877464Y397845D01*
X879415Y397038D01*
X879969Y396483D01*
X880009Y396452D01*
X880042Y396416D01*
X880134Y396355D01*
X880221Y396288D01*
X880266Y396268D01*
X880308Y396241D01*
X880412Y396205D01*
X880512Y396162D01*
X880562Y396154D01*
X880609Y396138D01*
X880718Y396129D01*
X880826Y396112D01*
X880876Y396117D01*
X880926Y396113D01*
X881034Y396132D01*
X881143Y396142D01*
X881190Y396159D01*
X881239Y396167D01*
X881339Y396212D01*
X881442Y396249D01*
X881484Y396277D01*
X881529Y396298D01*
X881615Y396367D01*
X881706Y396428D01*
X881738Y396465D01*
X881778Y396497D01*
X881844Y396584D01*
X881874Y396619D01*
X883454Y398199D01*
X885404Y399007D01*
X887516Y399007D01*
X889466Y398199D01*
X890959Y396706D01*
X891637Y395068D01*
X891706Y394947D01*
X891771Y394824D01*
X891785Y394809D01*
X891795Y394792D01*
X891892Y394692D01*
X891985Y394589D01*
X892002Y394578D01*
X892016Y394563D01*
X892134Y394491D01*
X892251Y394414D01*
X892270Y394408D01*
X892287Y394397D01*
X892420Y394356D01*
X892552Y394311D01*
X892572Y394309D01*
X892591Y394303D01*
X892730Y394297D01*
X892869Y394286D01*
X892889Y394289D01*
X892909Y394288D01*
X893045Y394316D01*
X893182Y394340D01*
X893201Y394348D01*
X893220Y394353D01*
X893345Y394414D01*
X893472Y394471D01*
X893488Y394483D01*
X893506Y394492D01*
X893612Y394582D01*
X893720Y394669D01*
X893733Y394685D01*
X893748Y394699D01*
X893828Y394812D01*
X893912Y394923D01*
X893924Y394949D01*
X893931Y394959D01*
X893938Y394978D01*
X893983Y395068D01*
X894661Y396706D01*
X896154Y398199D01*
X898104Y399007D01*
X900216Y399007D01*
X902166Y398199D01*
X903659Y396706D01*
X904467Y394756D01*
X904467Y392644D01*
X903659Y390694D01*
X902834Y389870D01*
X902774Y389791D01*
X902706Y389719D01*
X902677Y389666D01*
X902640Y389618D01*
X902600Y389527D01*
X902552Y389441D01*
X902537Y389382D01*
X902513Y389326D01*
X902498Y389229D01*
X902473Y389133D01*
X902467Y389033D01*
X902463Y389012D01*
X902465Y389000D01*
X902463Y388972D01*
X902463Y388522D01*
X900157Y386216D01*
X900156Y386216D01*
X876192Y362252D01*
X873886Y359945D01*
X766954Y359945D01*
G37*
%LPD*%
%LPC*%
G36*
X249286Y433579D02*
X249286Y433579D01*
X242632Y435362D01*
X236667Y438806D01*
X231796Y443677D01*
X228352Y449642D01*
X226569Y456296D01*
X226569Y463184D01*
X228352Y469838D01*
X231796Y475803D01*
X236667Y480674D01*
X242632Y484118D01*
X249286Y485901D01*
X256174Y485901D01*
X262828Y484118D01*
X268793Y480674D01*
X273664Y475803D01*
X277108Y469838D01*
X278891Y463184D01*
X278891Y456296D01*
X277108Y449642D01*
X273664Y443677D01*
X268793Y438806D01*
X262828Y435362D01*
X256174Y433579D01*
X249286Y433579D01*
G37*
%LPD*%
%LPC*%
G36*
X249286Y84329D02*
X249286Y84329D01*
X242632Y86112D01*
X236667Y89556D01*
X231796Y94427D01*
X228352Y100392D01*
X226569Y107046D01*
X226569Y113934D01*
X228352Y120588D01*
X231796Y126553D01*
X236667Y131424D01*
X242632Y134868D01*
X249286Y136651D01*
X256174Y136651D01*
X262828Y134868D01*
X268793Y131424D01*
X273664Y126553D01*
X277108Y120588D01*
X278891Y113934D01*
X278891Y107046D01*
X277108Y100392D01*
X273664Y94427D01*
X268793Y89556D01*
X262828Y86112D01*
X256174Y84329D01*
X249286Y84329D01*
G37*
%LPD*%
%LPC*%
G36*
X258789Y326163D02*
X258789Y326163D01*
X255905Y327358D01*
X253698Y329565D01*
X252503Y332449D01*
X252503Y335571D01*
X253698Y338455D01*
X255905Y340662D01*
X258789Y341857D01*
X260232Y341857D01*
X260318Y341869D01*
X260406Y341872D01*
X260458Y341889D01*
X260513Y341897D01*
X260593Y341932D01*
X260676Y341959D01*
X260716Y341987D01*
X260773Y342013D01*
X260886Y342109D01*
X260950Y342154D01*
X263608Y344812D01*
X263660Y344882D01*
X263720Y344946D01*
X263746Y344995D01*
X263779Y345040D01*
X263810Y345121D01*
X263850Y345199D01*
X263858Y345247D01*
X263880Y345305D01*
X263892Y345453D01*
X263905Y345530D01*
X263905Y369361D01*
X264717Y371322D01*
X268688Y375292D01*
X268740Y375362D01*
X268800Y375426D01*
X268826Y375475D01*
X268859Y375520D01*
X268890Y375601D01*
X268930Y375679D01*
X268938Y375727D01*
X268960Y375785D01*
X268972Y375933D01*
X268985Y376010D01*
X268985Y377357D01*
X268973Y377444D01*
X268970Y377531D01*
X268953Y377584D01*
X268945Y377639D01*
X268910Y377719D01*
X268883Y377802D01*
X268855Y377841D01*
X268829Y377898D01*
X268733Y378011D01*
X268688Y378075D01*
X266398Y380365D01*
X265203Y383249D01*
X265203Y386371D01*
X266398Y389255D01*
X268605Y391462D01*
X271489Y392657D01*
X274611Y392657D01*
X277495Y391462D01*
X279702Y389255D01*
X280897Y386371D01*
X280897Y383249D01*
X279732Y380437D01*
X279724Y380407D01*
X279710Y380380D01*
X279697Y380302D01*
X279661Y380162D01*
X279663Y380098D01*
X279655Y380049D01*
X279655Y379730D01*
X279663Y379672D01*
X279661Y379614D01*
X279683Y379532D01*
X279695Y379448D01*
X279718Y379395D01*
X279733Y379339D01*
X279776Y379266D01*
X279811Y379189D01*
X279849Y379144D01*
X279878Y379094D01*
X279940Y379036D01*
X279994Y378972D01*
X280043Y378940D01*
X280086Y378900D01*
X280161Y378861D01*
X280231Y378814D01*
X280287Y378797D01*
X280339Y378770D01*
X280407Y378759D01*
X280502Y378729D01*
X280602Y378726D01*
X280670Y378715D01*
X344337Y378715D01*
X344424Y378727D01*
X344511Y378730D01*
X344564Y378747D01*
X344619Y378755D01*
X344699Y378790D01*
X344782Y378817D01*
X344821Y378845D01*
X344878Y378871D01*
X344991Y378967D01*
X345055Y379012D01*
X346075Y380032D01*
X348959Y381227D01*
X352081Y381227D01*
X354965Y380032D01*
X357172Y377825D01*
X358367Y374941D01*
X358367Y371819D01*
X357172Y368935D01*
X354965Y366728D01*
X352081Y365533D01*
X348959Y365533D01*
X346075Y366728D01*
X345055Y367748D01*
X344985Y367800D01*
X344921Y367860D01*
X344872Y367886D01*
X344828Y367919D01*
X344746Y367950D01*
X344668Y367990D01*
X344621Y367998D01*
X344562Y368020D01*
X344415Y368032D01*
X344337Y368045D01*
X276950Y368045D01*
X276864Y368033D01*
X276776Y368030D01*
X276723Y368013D01*
X276669Y368005D01*
X276589Y367970D01*
X276506Y367943D01*
X276466Y367915D01*
X276409Y367889D01*
X276296Y367793D01*
X276232Y367748D01*
X274872Y366388D01*
X274820Y366318D01*
X274760Y366254D01*
X274734Y366205D01*
X274701Y366160D01*
X274670Y366079D01*
X274630Y366001D01*
X274622Y365953D01*
X274600Y365895D01*
X274588Y365747D01*
X274575Y365670D01*
X274575Y341839D01*
X273763Y339878D01*
X268494Y334610D01*
X268442Y334540D01*
X268382Y334476D01*
X268356Y334427D01*
X268323Y334382D01*
X268292Y334301D01*
X268252Y334223D01*
X268244Y334175D01*
X268222Y334117D01*
X268210Y333969D01*
X268197Y333892D01*
X268197Y332449D01*
X267002Y329565D01*
X264795Y327358D01*
X261911Y326163D01*
X258789Y326163D01*
G37*
%LPD*%
%LPC*%
G36*
X31674Y281083D02*
X31674Y281083D01*
X24383Y288374D01*
X24383Y298686D01*
X28510Y302812D01*
X28545Y302859D01*
X28587Y302899D01*
X28630Y302972D01*
X28681Y303039D01*
X28701Y303094D01*
X28731Y303144D01*
X28752Y303226D01*
X28782Y303305D01*
X28787Y303363D01*
X28801Y303420D01*
X28798Y303504D01*
X28805Y303588D01*
X28794Y303646D01*
X28792Y303704D01*
X28766Y303784D01*
X28750Y303867D01*
X28723Y303919D01*
X28705Y303975D01*
X28665Y304031D01*
X28619Y304119D01*
X28550Y304192D01*
X28510Y304248D01*
X24383Y308374D01*
X24383Y318686D01*
X31674Y325977D01*
X41986Y325977D01*
X49277Y318686D01*
X49277Y308374D01*
X45150Y304248D01*
X45115Y304201D01*
X45073Y304161D01*
X45030Y304088D01*
X44979Y304021D01*
X44959Y303966D01*
X44929Y303916D01*
X44908Y303834D01*
X44878Y303755D01*
X44873Y303697D01*
X44859Y303640D01*
X44862Y303556D01*
X44855Y303472D01*
X44866Y303414D01*
X44868Y303356D01*
X44894Y303276D01*
X44910Y303193D01*
X44937Y303141D01*
X44955Y303085D01*
X44995Y303029D01*
X45041Y302941D01*
X45110Y302868D01*
X45150Y302812D01*
X49277Y298686D01*
X49277Y288374D01*
X41986Y281083D01*
X31674Y281083D01*
G37*
%LPD*%
%LPC*%
G36*
X201639Y308383D02*
X201639Y308383D01*
X198755Y309578D01*
X196548Y311785D01*
X195353Y314669D01*
X195353Y317791D01*
X196518Y320603D01*
X196526Y320633D01*
X196540Y320660D01*
X196553Y320738D01*
X196589Y320878D01*
X196587Y320942D01*
X196595Y320991D01*
X196595Y364809D01*
X196591Y364839D01*
X196593Y364870D01*
X196576Y364947D01*
X196555Y365090D01*
X196529Y365149D01*
X196518Y365197D01*
X195353Y368009D01*
X195353Y371131D01*
X196548Y374015D01*
X198755Y376222D01*
X201639Y377417D01*
X204761Y377417D01*
X207645Y376222D01*
X209852Y374015D01*
X211047Y371131D01*
X211047Y368009D01*
X209882Y365197D01*
X209874Y365167D01*
X209860Y365140D01*
X209847Y365062D01*
X209811Y364922D01*
X209813Y364858D01*
X209805Y364809D01*
X209805Y320991D01*
X209809Y320961D01*
X209807Y320930D01*
X209824Y320853D01*
X209845Y320710D01*
X209871Y320651D01*
X209882Y320603D01*
X211047Y317791D01*
X211047Y314669D01*
X209852Y311785D01*
X207645Y309578D01*
X204761Y308383D01*
X201639Y308383D01*
G37*
%LPD*%
%LPC*%
G36*
X224499Y397931D02*
X224499Y397931D01*
X221615Y399126D01*
X220595Y400146D01*
X220525Y400198D01*
X220461Y400258D01*
X220412Y400284D01*
X220368Y400317D01*
X220286Y400348D01*
X220208Y400388D01*
X220161Y400396D01*
X220102Y400418D01*
X219955Y400430D01*
X219877Y400443D01*
X211651Y400443D01*
X209690Y401255D01*
X205070Y405876D01*
X205000Y405928D01*
X204936Y405988D01*
X204887Y406014D01*
X204842Y406047D01*
X204761Y406078D01*
X204683Y406118D01*
X204635Y406126D01*
X204577Y406148D01*
X204429Y406160D01*
X204352Y406173D01*
X202909Y406173D01*
X200025Y407368D01*
X197818Y409575D01*
X196623Y412459D01*
X196623Y415581D01*
X197818Y418465D01*
X200025Y420672D01*
X202909Y421867D01*
X204147Y421867D01*
X204148Y421867D01*
X204150Y421867D01*
X204289Y421887D01*
X204428Y421907D01*
X204429Y421907D01*
X204431Y421907D01*
X204557Y421964D01*
X204687Y422023D01*
X204689Y422024D01*
X204690Y422025D01*
X204797Y422116D01*
X204904Y422206D01*
X204905Y422208D01*
X204907Y422209D01*
X204915Y422222D01*
X205062Y422443D01*
X205071Y422472D01*
X205085Y422493D01*
X205868Y424385D01*
X208075Y426592D01*
X210959Y427787D01*
X214081Y427787D01*
X216965Y426592D01*
X219172Y424385D01*
X220367Y421501D01*
X220367Y421451D01*
X220371Y421422D01*
X220368Y421392D01*
X220391Y421281D01*
X220407Y421169D01*
X220419Y421143D01*
X220424Y421114D01*
X220477Y421013D01*
X220523Y420910D01*
X220542Y420887D01*
X220555Y420861D01*
X220633Y420779D01*
X220707Y420693D01*
X220731Y420677D01*
X220751Y420655D01*
X220849Y420598D01*
X220943Y420535D01*
X220971Y420526D01*
X220996Y420512D01*
X221106Y420484D01*
X221214Y420449D01*
X221244Y420449D01*
X221272Y420442D01*
X221385Y420445D01*
X221498Y420442D01*
X221527Y420450D01*
X221556Y420451D01*
X221664Y420485D01*
X221773Y420514D01*
X221799Y420529D01*
X221827Y420538D01*
X221891Y420584D01*
X222018Y420659D01*
X222061Y420705D01*
X222100Y420733D01*
X222885Y421518D01*
X225769Y422713D01*
X228891Y422713D01*
X231775Y421518D01*
X233982Y419311D01*
X235177Y416427D01*
X235177Y413305D01*
X233982Y410421D01*
X233506Y409945D01*
X233505Y409943D01*
X233503Y409943D01*
X233418Y409828D01*
X233335Y409718D01*
X233334Y409716D01*
X233333Y409715D01*
X233284Y409585D01*
X233234Y409452D01*
X233233Y409450D01*
X233233Y409449D01*
X233221Y409305D01*
X233210Y409169D01*
X233210Y409167D01*
X233210Y409165D01*
X233214Y409150D01*
X233266Y408890D01*
X233280Y408863D01*
X233286Y408838D01*
X233907Y407339D01*
X233907Y404217D01*
X232712Y401333D01*
X230505Y399126D01*
X227621Y397931D01*
X224499Y397931D01*
G37*
%LPD*%
%LPC*%
G36*
X636484Y430303D02*
X636484Y430303D01*
X634534Y431111D01*
X633041Y432604D01*
X632233Y434554D01*
X632233Y436666D01*
X633041Y438616D01*
X633866Y439440D01*
X633926Y439519D01*
X633994Y439591D01*
X634023Y439644D01*
X634060Y439692D01*
X634100Y439783D01*
X634148Y439869D01*
X634163Y439928D01*
X634187Y439984D01*
X634202Y440081D01*
X634227Y440177D01*
X634233Y440277D01*
X634237Y440298D01*
X634235Y440310D01*
X634237Y440338D01*
X634237Y464058D01*
X634222Y464176D01*
X634215Y464295D01*
X634202Y464333D01*
X634197Y464374D01*
X634154Y464484D01*
X634117Y464597D01*
X634095Y464632D01*
X634080Y464669D01*
X634011Y464765D01*
X633947Y464866D01*
X633917Y464894D01*
X633894Y464927D01*
X633802Y465003D01*
X633715Y465084D01*
X633680Y465104D01*
X633649Y465129D01*
X633541Y465180D01*
X633437Y465238D01*
X633397Y465248D01*
X633361Y465265D01*
X633244Y465287D01*
X633129Y465317D01*
X633069Y465321D01*
X633049Y465325D01*
X633028Y465323D01*
X632968Y465327D01*
X629087Y465327D01*
X629058Y465324D01*
X629028Y465326D01*
X628900Y465304D01*
X628771Y465287D01*
X628744Y465277D01*
X628715Y465272D01*
X628596Y465218D01*
X628476Y465170D01*
X628452Y465153D01*
X628425Y465141D01*
X628324Y465060D01*
X628218Y464984D01*
X628200Y464961D01*
X628177Y464942D01*
X628098Y464839D01*
X628016Y464739D01*
X628003Y464712D01*
X627985Y464688D01*
X627914Y464544D01*
X627197Y462812D01*
X624308Y459923D01*
X620533Y458359D01*
X616447Y458359D01*
X612672Y459923D01*
X609783Y462812D01*
X608219Y466587D01*
X608219Y470673D01*
X609783Y474448D01*
X612672Y477337D01*
X616447Y478901D01*
X620533Y478901D01*
X624308Y477337D01*
X627197Y474448D01*
X627914Y472716D01*
X627929Y472691D01*
X627938Y472663D01*
X628008Y472553D01*
X628072Y472440D01*
X628092Y472419D01*
X628108Y472394D01*
X628203Y472305D01*
X628293Y472212D01*
X628318Y472196D01*
X628340Y472176D01*
X628454Y472113D01*
X628564Y472045D01*
X628593Y472037D01*
X628618Y472022D01*
X628744Y471990D01*
X628868Y471952D01*
X628898Y471950D01*
X628926Y471943D01*
X629087Y471933D01*
X636368Y471933D01*
X640843Y467458D01*
X640843Y440338D01*
X640855Y440240D01*
X640858Y440141D01*
X640875Y440082D01*
X640883Y440022D01*
X640919Y439930D01*
X640947Y439835D01*
X640977Y439783D01*
X641000Y439727D01*
X641058Y439647D01*
X641108Y439561D01*
X641174Y439486D01*
X641186Y439469D01*
X641196Y439462D01*
X641214Y439440D01*
X642039Y438616D01*
X642847Y436666D01*
X642847Y434554D01*
X642039Y432604D01*
X640546Y431111D01*
X638596Y430303D01*
X636484Y430303D01*
G37*
%LPD*%
%LPC*%
G36*
X55821Y54245D02*
X55821Y54245D01*
X51019Y56234D01*
X47344Y59909D01*
X45355Y64711D01*
X45355Y69909D01*
X47344Y74711D01*
X51019Y78386D01*
X55821Y80375D01*
X61019Y80375D01*
X65821Y78386D01*
X69496Y74711D01*
X71485Y69909D01*
X71485Y64711D01*
X69496Y59909D01*
X65821Y56234D01*
X61019Y54245D01*
X55821Y54245D01*
G37*
%LPD*%
%LPC*%
G36*
X132746Y248475D02*
X132746Y248475D01*
X130365Y250856D01*
X130365Y267304D01*
X132746Y269685D01*
X149194Y269685D01*
X151575Y267304D01*
X151575Y250856D01*
X149194Y248475D01*
X132746Y248475D01*
G37*
%LPD*%
%LPC*%
G36*
X685164Y458359D02*
X685164Y458359D01*
X684419Y459104D01*
X684419Y478156D01*
X685164Y478901D01*
X704216Y478901D01*
X704961Y478156D01*
X704961Y459104D01*
X704216Y458359D01*
X685164Y458359D01*
G37*
%LPD*%
%LPC*%
G36*
X823594Y458359D02*
X823594Y458359D01*
X822849Y459104D01*
X822849Y478156D01*
X823594Y478901D01*
X842646Y478901D01*
X843391Y478156D01*
X843391Y459104D01*
X842646Y458359D01*
X823594Y458359D01*
G37*
%LPD*%
%LPC*%
G36*
X549274Y458359D02*
X549274Y458359D01*
X548529Y459104D01*
X548529Y478156D01*
X549274Y478901D01*
X568326Y478901D01*
X569071Y478156D01*
X569071Y459104D01*
X568326Y458359D01*
X549274Y458359D01*
G37*
%LPD*%
%LPC*%
G36*
X754877Y458359D02*
X754877Y458359D01*
X751102Y459923D01*
X748213Y462812D01*
X746649Y466587D01*
X746649Y470673D01*
X748213Y474448D01*
X751102Y477337D01*
X754877Y478901D01*
X758963Y478901D01*
X762738Y477337D01*
X765627Y474448D01*
X767191Y470673D01*
X767191Y466587D01*
X765627Y462812D01*
X762738Y459923D01*
X758963Y458359D01*
X754877Y458359D01*
G37*
%LPD*%
%LPC*%
G36*
X792977Y458359D02*
X792977Y458359D01*
X789202Y459923D01*
X786313Y462812D01*
X784749Y466587D01*
X784749Y470673D01*
X786313Y474448D01*
X789202Y477337D01*
X792977Y478901D01*
X797063Y478901D01*
X800838Y477337D01*
X803727Y474448D01*
X805291Y470673D01*
X805291Y466587D01*
X803727Y462812D01*
X800838Y459923D01*
X797063Y458359D01*
X792977Y458359D01*
G37*
%LPD*%
%LPC*%
G36*
X654547Y458359D02*
X654547Y458359D01*
X650772Y459923D01*
X647883Y462812D01*
X646319Y466587D01*
X646319Y470673D01*
X647883Y474448D01*
X650772Y477337D01*
X654547Y478901D01*
X658633Y478901D01*
X662408Y477337D01*
X665297Y474448D01*
X666861Y470673D01*
X666861Y466587D01*
X665297Y462812D01*
X662408Y459923D01*
X658633Y458359D01*
X654547Y458359D01*
G37*
%LPD*%
%LPC*%
G36*
X761745Y73405D02*
X761745Y73405D01*
X761745Y99315D01*
X771478Y99315D01*
X772125Y99142D01*
X772704Y98807D01*
X773177Y98334D01*
X773512Y97755D01*
X773685Y97108D01*
X773685Y73405D01*
X761745Y73405D01*
G37*
%LPD*%
%LPC*%
G36*
X850137Y73405D02*
X850137Y73405D01*
X850137Y99315D01*
X859870Y99315D01*
X860517Y99142D01*
X861096Y98807D01*
X861569Y98334D01*
X861904Y97755D01*
X862077Y97108D01*
X862077Y73405D01*
X850137Y73405D01*
G37*
%LPD*%
%LPC*%
G36*
X834135Y73405D02*
X834135Y73405D01*
X834135Y97108D01*
X834308Y97755D01*
X834643Y98334D01*
X835116Y98807D01*
X835695Y99142D01*
X836342Y99315D01*
X846075Y99315D01*
X846075Y73405D01*
X834135Y73405D01*
G37*
%LPD*%
%LPC*%
G36*
X745743Y73405D02*
X745743Y73405D01*
X745743Y97108D01*
X745916Y97755D01*
X746251Y98334D01*
X746724Y98807D01*
X747303Y99142D01*
X747950Y99315D01*
X757683Y99315D01*
X757683Y73405D01*
X745743Y73405D01*
G37*
%LPD*%
%LPC*%
G36*
X826054Y418909D02*
X826054Y418909D01*
X825309Y419654D01*
X825309Y433786D01*
X826054Y434531D01*
X840186Y434531D01*
X840931Y433786D01*
X840931Y419654D01*
X840186Y418909D01*
X826054Y418909D01*
G37*
%LPD*%
%LPC*%
G36*
X655036Y393509D02*
X655036Y393509D01*
X652166Y394698D01*
X649968Y396896D01*
X648779Y399766D01*
X648779Y402874D01*
X649968Y405744D01*
X652166Y407942D01*
X655036Y409131D01*
X658144Y409131D01*
X661014Y407942D01*
X663212Y405744D01*
X664401Y402874D01*
X664401Y399766D01*
X663212Y396896D01*
X661014Y394698D01*
X658144Y393509D01*
X655036Y393509D01*
G37*
%LPD*%
%LPC*%
G36*
X693136Y393509D02*
X693136Y393509D01*
X690266Y394698D01*
X688068Y396896D01*
X686879Y399766D01*
X686879Y402874D01*
X688068Y405744D01*
X690266Y407942D01*
X693136Y409131D01*
X696244Y409131D01*
X699114Y407942D01*
X701312Y405744D01*
X702501Y402874D01*
X702501Y399766D01*
X701312Y396896D01*
X699114Y394698D01*
X696244Y393509D01*
X693136Y393509D01*
G37*
%LPD*%
%LPC*%
G36*
X616936Y393509D02*
X616936Y393509D01*
X614066Y394698D01*
X611868Y396896D01*
X610679Y399766D01*
X610679Y402874D01*
X611868Y405744D01*
X614066Y407942D01*
X616936Y409131D01*
X620044Y409131D01*
X622914Y407942D01*
X625112Y405744D01*
X626301Y402874D01*
X626301Y399766D01*
X625112Y396896D01*
X622914Y394698D01*
X620044Y393509D01*
X616936Y393509D01*
G37*
%LPD*%
%LPC*%
G36*
X831566Y393509D02*
X831566Y393509D01*
X828696Y394698D01*
X826498Y396896D01*
X825309Y399766D01*
X825309Y402874D01*
X826498Y405744D01*
X828696Y407942D01*
X831566Y409131D01*
X834674Y409131D01*
X837544Y407942D01*
X839742Y405744D01*
X840931Y402874D01*
X840931Y399766D01*
X839742Y396896D01*
X837544Y394698D01*
X834674Y393509D01*
X831566Y393509D01*
G37*
%LPD*%
%LPC*%
G36*
X60451Y107441D02*
X60451Y107441D01*
X60451Y116951D01*
X67754Y116951D01*
X68401Y116778D01*
X68980Y116443D01*
X69453Y115970D01*
X69788Y115391D01*
X69961Y114744D01*
X69961Y107441D01*
X60451Y107441D01*
G37*
%LPD*%
%LPC*%
G36*
X60451Y103379D02*
X60451Y103379D01*
X69961Y103379D01*
X69961Y96076D01*
X69788Y95429D01*
X69453Y94850D01*
X68980Y94377D01*
X68401Y94042D01*
X67754Y93869D01*
X60451Y93869D01*
X60451Y103379D01*
G37*
%LPD*%
%LPC*%
G36*
X46879Y107441D02*
X46879Y107441D01*
X46879Y114744D01*
X47052Y115391D01*
X47387Y115970D01*
X47860Y116443D01*
X48439Y116778D01*
X49086Y116951D01*
X56389Y116951D01*
X56389Y107441D01*
X46879Y107441D01*
G37*
%LPD*%
%LPC*%
G36*
X49086Y93869D02*
X49086Y93869D01*
X48439Y94042D01*
X47860Y94377D01*
X47387Y94850D01*
X47052Y95429D01*
X46879Y96076D01*
X46879Y103379D01*
X56389Y103379D01*
X56389Y93869D01*
X49086Y93869D01*
G37*
%LPD*%
%LPC*%
G36*
X443511Y478281D02*
X443511Y478281D01*
X443511Y487173D01*
X446004Y487173D01*
X452403Y480774D01*
X452403Y478281D01*
X443511Y478281D01*
G37*
%LPD*%
%LPC*%
G36*
X443511Y465327D02*
X443511Y465327D01*
X443511Y474219D01*
X452403Y474219D01*
X452403Y471726D01*
X446004Y465327D01*
X443511Y465327D01*
G37*
%LPD*%
%LPC*%
G36*
X523239Y471169D02*
X523239Y471169D01*
X523239Y479912D01*
X523403Y479887D01*
X525130Y479325D01*
X526749Y478501D01*
X528218Y477433D01*
X529503Y476148D01*
X530571Y474679D01*
X531395Y473060D01*
X531957Y471333D01*
X531982Y471169D01*
X523239Y471169D01*
G37*
%LPD*%
%LPC*%
G36*
X509418Y471169D02*
X509418Y471169D01*
X509443Y471333D01*
X510005Y473060D01*
X510829Y474679D01*
X511897Y476148D01*
X513182Y477433D01*
X514651Y478501D01*
X516270Y479325D01*
X517997Y479887D01*
X518161Y479912D01*
X518161Y471169D01*
X509418Y471169D01*
G37*
%LPD*%
%LPC*%
G36*
X523239Y466091D02*
X523239Y466091D01*
X531982Y466091D01*
X531957Y465927D01*
X531395Y464200D01*
X530571Y462581D01*
X529503Y461112D01*
X528218Y459827D01*
X526749Y458759D01*
X525130Y457935D01*
X523403Y457373D01*
X523239Y457348D01*
X523239Y466091D01*
G37*
%LPD*%
%LPC*%
G36*
X517997Y457373D02*
X517997Y457373D01*
X516270Y457935D01*
X514651Y458759D01*
X513182Y459827D01*
X511897Y461112D01*
X510829Y462581D01*
X510005Y464200D01*
X509443Y465927D01*
X509418Y466091D01*
X518161Y466091D01*
X518161Y457348D01*
X517997Y457373D01*
G37*
%LPD*%
%LPC*%
G36*
X696689Y428719D02*
X696689Y428719D01*
X696689Y435801D01*
X701564Y435801D01*
X702211Y435628D01*
X702790Y435293D01*
X703263Y434820D01*
X703598Y434241D01*
X703771Y433594D01*
X703771Y428719D01*
X696689Y428719D01*
G37*
%LPD*%
%LPC*%
G36*
X658589Y428719D02*
X658589Y428719D01*
X658589Y435801D01*
X663464Y435801D01*
X664111Y435628D01*
X664690Y435293D01*
X665163Y434820D01*
X665498Y434241D01*
X665671Y433594D01*
X665671Y428719D01*
X658589Y428719D01*
G37*
%LPD*%
%LPC*%
G36*
X620489Y428719D02*
X620489Y428719D01*
X620489Y435801D01*
X625364Y435801D01*
X626011Y435628D01*
X626590Y435293D01*
X627063Y434820D01*
X627398Y434241D01*
X627571Y433594D01*
X627571Y428719D01*
X620489Y428719D01*
G37*
%LPD*%
%LPC*%
G36*
X685609Y428719D02*
X685609Y428719D01*
X685609Y433594D01*
X685782Y434241D01*
X686117Y434820D01*
X686590Y435293D01*
X687169Y435628D01*
X687816Y435801D01*
X692691Y435801D01*
X692691Y428719D01*
X685609Y428719D01*
G37*
%LPD*%
%LPC*%
G36*
X647509Y428719D02*
X647509Y428719D01*
X647509Y433594D01*
X647682Y434241D01*
X648017Y434820D01*
X648490Y435293D01*
X649069Y435628D01*
X649716Y435801D01*
X654591Y435801D01*
X654591Y428719D01*
X647509Y428719D01*
G37*
%LPD*%
%LPC*%
G36*
X609409Y428719D02*
X609409Y428719D01*
X609409Y433594D01*
X609582Y434241D01*
X609917Y434820D01*
X610390Y435293D01*
X610969Y435628D01*
X611616Y435801D01*
X616491Y435801D01*
X616491Y428719D01*
X609409Y428719D01*
G37*
%LPD*%
%LPC*%
G36*
X696689Y417639D02*
X696689Y417639D01*
X696689Y424721D01*
X703771Y424721D01*
X703771Y419846D01*
X703598Y419199D01*
X703263Y418620D01*
X702790Y418147D01*
X702211Y417812D01*
X701564Y417639D01*
X696689Y417639D01*
G37*
%LPD*%
%LPC*%
G36*
X620489Y417639D02*
X620489Y417639D01*
X620489Y424721D01*
X627571Y424721D01*
X627571Y419846D01*
X627398Y419199D01*
X627063Y418620D01*
X626590Y418147D01*
X626011Y417812D01*
X625364Y417639D01*
X620489Y417639D01*
G37*
%LPD*%
%LPC*%
G36*
X658589Y417639D02*
X658589Y417639D01*
X658589Y424721D01*
X665671Y424721D01*
X665671Y419846D01*
X665498Y419199D01*
X665163Y418620D01*
X664690Y418147D01*
X664111Y417812D01*
X663464Y417639D01*
X658589Y417639D01*
G37*
%LPD*%
%LPC*%
G36*
X611616Y417639D02*
X611616Y417639D01*
X610969Y417812D01*
X610390Y418147D01*
X609917Y418620D01*
X609582Y419199D01*
X609409Y419846D01*
X609409Y424721D01*
X616491Y424721D01*
X616491Y417639D01*
X611616Y417639D01*
G37*
%LPD*%
%LPC*%
G36*
X687816Y417639D02*
X687816Y417639D01*
X687169Y417812D01*
X686590Y418147D01*
X686117Y418620D01*
X685782Y419199D01*
X685609Y419846D01*
X685609Y424721D01*
X692691Y424721D01*
X692691Y417639D01*
X687816Y417639D01*
G37*
%LPD*%
%LPC*%
G36*
X649716Y417639D02*
X649716Y417639D01*
X649069Y417812D01*
X648490Y418147D01*
X648017Y418620D01*
X647682Y419199D01*
X647509Y419846D01*
X647509Y424721D01*
X654591Y424721D01*
X654591Y417639D01*
X649716Y417639D01*
G37*
%LPD*%
%LPC*%
G36*
X512095Y202770D02*
X512095Y202770D01*
X512095Y207753D01*
X512854Y207602D01*
X513243Y207441D01*
X513271Y207434D01*
X513297Y207420D01*
X513408Y207398D01*
X513518Y207370D01*
X513547Y207371D01*
X513576Y207365D01*
X513689Y207375D01*
X513802Y207378D01*
X513830Y207387D01*
X513859Y207390D01*
X513965Y207430D01*
X514073Y207465D01*
X514097Y207481D01*
X514125Y207492D01*
X514215Y207560D01*
X514309Y207623D01*
X514328Y207646D01*
X514351Y207663D01*
X514419Y207754D01*
X514492Y207841D01*
X514504Y207868D01*
X514521Y207891D01*
X514561Y207997D01*
X514607Y208100D01*
X514611Y208130D01*
X514622Y208157D01*
X514631Y208270D01*
X514646Y208382D01*
X514642Y208411D01*
X514644Y208440D01*
X514627Y208517D01*
X514606Y208663D01*
X514580Y208720D01*
X514569Y208767D01*
X514408Y209156D01*
X514257Y209915D01*
X519240Y209915D01*
X519240Y204932D01*
X518481Y205083D01*
X518092Y205244D01*
X518064Y205251D01*
X518038Y205265D01*
X517927Y205287D01*
X517817Y205315D01*
X517788Y205314D01*
X517759Y205320D01*
X517646Y205310D01*
X517533Y205307D01*
X517505Y205298D01*
X517476Y205295D01*
X517370Y205255D01*
X517262Y205220D01*
X517238Y205204D01*
X517210Y205193D01*
X517120Y205125D01*
X517026Y205062D01*
X517007Y205039D01*
X516984Y205022D01*
X516916Y204931D01*
X516843Y204844D01*
X516831Y204817D01*
X516814Y204794D01*
X516774Y204688D01*
X516728Y204585D01*
X516724Y204555D01*
X516713Y204528D01*
X516704Y204415D01*
X516689Y204303D01*
X516693Y204274D01*
X516691Y204245D01*
X516708Y204168D01*
X516729Y204022D01*
X516755Y203965D01*
X516766Y203918D01*
X516927Y203529D01*
X517078Y202770D01*
X512095Y202770D01*
G37*
%LPD*%
%LPC*%
G36*
X512095Y184420D02*
X512095Y184420D01*
X512095Y189403D01*
X512854Y189252D01*
X513243Y189091D01*
X513271Y189084D01*
X513297Y189070D01*
X513408Y189048D01*
X513518Y189020D01*
X513547Y189021D01*
X513576Y189015D01*
X513689Y189025D01*
X513802Y189028D01*
X513830Y189037D01*
X513859Y189040D01*
X513965Y189080D01*
X514073Y189115D01*
X514097Y189131D01*
X514125Y189142D01*
X514215Y189210D01*
X514309Y189273D01*
X514328Y189296D01*
X514351Y189313D01*
X514419Y189404D01*
X514492Y189491D01*
X514504Y189518D01*
X514521Y189541D01*
X514561Y189647D01*
X514607Y189750D01*
X514611Y189780D01*
X514622Y189807D01*
X514631Y189920D01*
X514646Y190032D01*
X514642Y190061D01*
X514644Y190090D01*
X514627Y190167D01*
X514606Y190313D01*
X514580Y190370D01*
X514569Y190417D01*
X514408Y190806D01*
X514257Y191565D01*
X519240Y191565D01*
X519240Y186582D01*
X518481Y186733D01*
X518092Y186894D01*
X518064Y186901D01*
X518038Y186915D01*
X517927Y186937D01*
X517817Y186965D01*
X517788Y186964D01*
X517759Y186970D01*
X517646Y186960D01*
X517533Y186957D01*
X517505Y186948D01*
X517476Y186945D01*
X517370Y186905D01*
X517262Y186870D01*
X517238Y186854D01*
X517210Y186843D01*
X517120Y186775D01*
X517026Y186712D01*
X517007Y186689D01*
X516984Y186672D01*
X516916Y186581D01*
X516843Y186494D01*
X516831Y186467D01*
X516814Y186444D01*
X516774Y186338D01*
X516728Y186235D01*
X516724Y186205D01*
X516713Y186178D01*
X516704Y186065D01*
X516689Y185953D01*
X516693Y185924D01*
X516691Y185895D01*
X516708Y185818D01*
X516729Y185672D01*
X516755Y185615D01*
X516766Y185568D01*
X516927Y185179D01*
X517078Y184420D01*
X512095Y184420D01*
G37*
%LPD*%
%LPC*%
G36*
X539620Y193595D02*
X539620Y193595D01*
X539620Y198578D01*
X540379Y198427D01*
X540768Y198266D01*
X540796Y198259D01*
X540822Y198245D01*
X540933Y198223D01*
X541043Y198195D01*
X541072Y198196D01*
X541101Y198190D01*
X541214Y198200D01*
X541327Y198203D01*
X541355Y198212D01*
X541384Y198215D01*
X541490Y198255D01*
X541598Y198290D01*
X541622Y198306D01*
X541650Y198317D01*
X541740Y198385D01*
X541834Y198448D01*
X541853Y198471D01*
X541876Y198488D01*
X541944Y198579D01*
X542017Y198666D01*
X542029Y198693D01*
X542046Y198716D01*
X542086Y198822D01*
X542132Y198925D01*
X542136Y198955D01*
X542147Y198982D01*
X542156Y199095D01*
X542171Y199207D01*
X542167Y199236D01*
X542169Y199265D01*
X542152Y199342D01*
X542131Y199488D01*
X542105Y199545D01*
X542094Y199592D01*
X541933Y199981D01*
X541782Y200740D01*
X546765Y200740D01*
X546765Y195757D01*
X546006Y195908D01*
X545617Y196069D01*
X545589Y196076D01*
X545563Y196090D01*
X545452Y196112D01*
X545342Y196140D01*
X545313Y196139D01*
X545284Y196145D01*
X545171Y196135D01*
X545058Y196132D01*
X545030Y196123D01*
X545001Y196120D01*
X544895Y196080D01*
X544787Y196045D01*
X544763Y196029D01*
X544735Y196018D01*
X544645Y195950D01*
X544551Y195887D01*
X544532Y195864D01*
X544509Y195847D01*
X544441Y195756D01*
X544368Y195669D01*
X544356Y195642D01*
X544339Y195619D01*
X544299Y195513D01*
X544253Y195410D01*
X544249Y195380D01*
X544238Y195353D01*
X544229Y195240D01*
X544214Y195128D01*
X544218Y195099D01*
X544216Y195070D01*
X544233Y194993D01*
X544254Y194847D01*
X544280Y194790D01*
X544291Y194743D01*
X544452Y194354D01*
X544603Y193595D01*
X539620Y193595D01*
G37*
%LPD*%
%LPC*%
G36*
X521270Y175245D02*
X521270Y175245D01*
X521270Y180228D01*
X522029Y180077D01*
X522418Y179916D01*
X522446Y179909D01*
X522472Y179895D01*
X522583Y179873D01*
X522693Y179845D01*
X522722Y179846D01*
X522751Y179840D01*
X522864Y179850D01*
X522977Y179853D01*
X523005Y179862D01*
X523034Y179865D01*
X523140Y179905D01*
X523248Y179940D01*
X523272Y179956D01*
X523300Y179967D01*
X523390Y180035D01*
X523484Y180098D01*
X523503Y180121D01*
X523526Y180138D01*
X523594Y180229D01*
X523667Y180316D01*
X523679Y180343D01*
X523696Y180366D01*
X523736Y180472D01*
X523782Y180575D01*
X523786Y180605D01*
X523797Y180632D01*
X523806Y180745D01*
X523821Y180857D01*
X523817Y180886D01*
X523819Y180915D01*
X523802Y180992D01*
X523781Y181138D01*
X523755Y181195D01*
X523744Y181242D01*
X523583Y181631D01*
X523432Y182390D01*
X528415Y182390D01*
X528415Y177407D01*
X527656Y177558D01*
X527267Y177719D01*
X527239Y177726D01*
X527213Y177740D01*
X527102Y177762D01*
X526992Y177790D01*
X526963Y177789D01*
X526934Y177795D01*
X526821Y177785D01*
X526708Y177782D01*
X526680Y177773D01*
X526651Y177770D01*
X526545Y177730D01*
X526437Y177695D01*
X526413Y177679D01*
X526385Y177668D01*
X526295Y177600D01*
X526201Y177537D01*
X526182Y177514D01*
X526159Y177497D01*
X526091Y177406D01*
X526018Y177319D01*
X526006Y177292D01*
X525989Y177269D01*
X525949Y177163D01*
X525903Y177060D01*
X525899Y177030D01*
X525888Y177003D01*
X525879Y176890D01*
X525864Y176778D01*
X525868Y176749D01*
X525866Y176720D01*
X525883Y176643D01*
X525904Y176497D01*
X525930Y176440D01*
X525941Y176393D01*
X526102Y176004D01*
X526253Y175245D01*
X521270Y175245D01*
G37*
%LPD*%
%LPC*%
G36*
X521270Y193595D02*
X521270Y193595D01*
X521270Y198578D01*
X522029Y198427D01*
X522418Y198266D01*
X522446Y198259D01*
X522472Y198245D01*
X522583Y198223D01*
X522693Y198195D01*
X522722Y198196D01*
X522751Y198190D01*
X522864Y198200D01*
X522977Y198203D01*
X523005Y198212D01*
X523034Y198215D01*
X523140Y198255D01*
X523248Y198290D01*
X523272Y198306D01*
X523300Y198317D01*
X523390Y198385D01*
X523484Y198448D01*
X523503Y198471D01*
X523526Y198488D01*
X523594Y198579D01*
X523667Y198666D01*
X523679Y198693D01*
X523696Y198716D01*
X523736Y198822D01*
X523782Y198925D01*
X523786Y198955D01*
X523797Y198982D01*
X523806Y199095D01*
X523821Y199207D01*
X523817Y199236D01*
X523819Y199265D01*
X523802Y199342D01*
X523781Y199488D01*
X523755Y199545D01*
X523744Y199592D01*
X523583Y199981D01*
X523432Y200740D01*
X528415Y200740D01*
X528415Y195757D01*
X527656Y195908D01*
X527267Y196069D01*
X527239Y196076D01*
X527213Y196090D01*
X527102Y196112D01*
X526992Y196140D01*
X526963Y196139D01*
X526934Y196145D01*
X526821Y196135D01*
X526708Y196132D01*
X526680Y196123D01*
X526651Y196120D01*
X526545Y196080D01*
X526437Y196045D01*
X526413Y196029D01*
X526385Y196018D01*
X526295Y195950D01*
X526201Y195887D01*
X526182Y195864D01*
X526159Y195847D01*
X526091Y195756D01*
X526018Y195669D01*
X526006Y195642D01*
X525989Y195619D01*
X525949Y195513D01*
X525903Y195410D01*
X525899Y195380D01*
X525888Y195353D01*
X525879Y195240D01*
X525864Y195128D01*
X525868Y195099D01*
X525866Y195070D01*
X525883Y194993D01*
X525904Y194847D01*
X525930Y194790D01*
X525941Y194743D01*
X526102Y194354D01*
X526253Y193595D01*
X521270Y193595D01*
G37*
%LPD*%
%LPC*%
G36*
X530445Y184420D02*
X530445Y184420D01*
X530445Y189403D01*
X531204Y189252D01*
X531593Y189091D01*
X531621Y189084D01*
X531647Y189070D01*
X531758Y189048D01*
X531868Y189020D01*
X531897Y189021D01*
X531926Y189015D01*
X532039Y189025D01*
X532152Y189028D01*
X532180Y189037D01*
X532209Y189040D01*
X532315Y189080D01*
X532423Y189115D01*
X532447Y189131D01*
X532475Y189142D01*
X532565Y189210D01*
X532659Y189273D01*
X532678Y189296D01*
X532701Y189313D01*
X532769Y189404D01*
X532842Y189491D01*
X532854Y189518D01*
X532871Y189541D01*
X532911Y189647D01*
X532957Y189750D01*
X532961Y189780D01*
X532972Y189807D01*
X532981Y189920D01*
X532996Y190032D01*
X532992Y190061D01*
X532994Y190090D01*
X532977Y190167D01*
X532956Y190313D01*
X532930Y190370D01*
X532919Y190417D01*
X532758Y190806D01*
X532607Y191565D01*
X537590Y191565D01*
X537590Y186582D01*
X536831Y186733D01*
X536442Y186894D01*
X536414Y186901D01*
X536388Y186915D01*
X536277Y186937D01*
X536167Y186965D01*
X536138Y186964D01*
X536109Y186970D01*
X535996Y186960D01*
X535883Y186957D01*
X535855Y186948D01*
X535826Y186945D01*
X535720Y186905D01*
X535612Y186870D01*
X535588Y186854D01*
X535560Y186843D01*
X535470Y186775D01*
X535376Y186712D01*
X535357Y186689D01*
X535334Y186672D01*
X535266Y186581D01*
X535193Y186494D01*
X535181Y186467D01*
X535164Y186444D01*
X535124Y186338D01*
X535078Y186235D01*
X535074Y186205D01*
X535063Y186178D01*
X535054Y186065D01*
X535039Y185953D01*
X535043Y185924D01*
X535041Y185895D01*
X535058Y185818D01*
X535079Y185672D01*
X535105Y185615D01*
X535116Y185568D01*
X535277Y185179D01*
X535428Y184420D01*
X530445Y184420D01*
G37*
%LPD*%
%LPC*%
G36*
X539620Y175245D02*
X539620Y175245D01*
X539620Y180228D01*
X540379Y180077D01*
X540768Y179916D01*
X540796Y179909D01*
X540822Y179895D01*
X540933Y179873D01*
X541043Y179845D01*
X541072Y179846D01*
X541101Y179840D01*
X541214Y179850D01*
X541327Y179853D01*
X541355Y179862D01*
X541384Y179865D01*
X541490Y179905D01*
X541598Y179940D01*
X541622Y179956D01*
X541650Y179967D01*
X541740Y180035D01*
X541834Y180098D01*
X541853Y180121D01*
X541876Y180138D01*
X541944Y180229D01*
X542017Y180316D01*
X542029Y180343D01*
X542046Y180366D01*
X542086Y180472D01*
X542132Y180575D01*
X542136Y180605D01*
X542147Y180632D01*
X542156Y180745D01*
X542171Y180857D01*
X542167Y180886D01*
X542169Y180915D01*
X542152Y180992D01*
X542131Y181138D01*
X542105Y181195D01*
X542094Y181242D01*
X541933Y181631D01*
X541782Y182390D01*
X546765Y182390D01*
X546765Y177407D01*
X546006Y177558D01*
X545617Y177719D01*
X545589Y177726D01*
X545563Y177740D01*
X545452Y177762D01*
X545342Y177790D01*
X545313Y177789D01*
X545284Y177795D01*
X545171Y177785D01*
X545058Y177782D01*
X545030Y177773D01*
X545001Y177770D01*
X544895Y177730D01*
X544787Y177695D01*
X544763Y177679D01*
X544735Y177668D01*
X544645Y177600D01*
X544551Y177537D01*
X544532Y177514D01*
X544509Y177497D01*
X544441Y177406D01*
X544368Y177319D01*
X544356Y177292D01*
X544339Y177269D01*
X544299Y177163D01*
X544253Y177060D01*
X544249Y177030D01*
X544238Y177003D01*
X544229Y176890D01*
X544214Y176778D01*
X544218Y176749D01*
X544216Y176720D01*
X544233Y176643D01*
X544254Y176497D01*
X544280Y176440D01*
X544291Y176393D01*
X544452Y176004D01*
X544603Y175245D01*
X539620Y175245D01*
G37*
%LPD*%
%LPC*%
G36*
X530445Y202770D02*
X530445Y202770D01*
X530445Y207753D01*
X531204Y207602D01*
X531593Y207441D01*
X531621Y207434D01*
X531647Y207420D01*
X531758Y207398D01*
X531868Y207370D01*
X531897Y207371D01*
X531926Y207365D01*
X532039Y207375D01*
X532152Y207378D01*
X532180Y207387D01*
X532209Y207390D01*
X532315Y207430D01*
X532423Y207465D01*
X532447Y207481D01*
X532475Y207492D01*
X532565Y207560D01*
X532659Y207623D01*
X532678Y207646D01*
X532701Y207663D01*
X532769Y207754D01*
X532842Y207841D01*
X532854Y207868D01*
X532871Y207891D01*
X532911Y207997D01*
X532957Y208100D01*
X532961Y208130D01*
X532972Y208157D01*
X532981Y208270D01*
X532996Y208382D01*
X532992Y208411D01*
X532994Y208440D01*
X532977Y208517D01*
X532956Y208663D01*
X532930Y208720D01*
X532919Y208767D01*
X532758Y209156D01*
X532607Y209915D01*
X537590Y209915D01*
X537590Y204932D01*
X536831Y205083D01*
X536442Y205244D01*
X536414Y205251D01*
X536388Y205265D01*
X536277Y205287D01*
X536167Y205315D01*
X536138Y205314D01*
X536109Y205320D01*
X535996Y205310D01*
X535883Y205307D01*
X535855Y205298D01*
X535826Y205295D01*
X535720Y205255D01*
X535612Y205220D01*
X535588Y205204D01*
X535560Y205193D01*
X535470Y205125D01*
X535376Y205062D01*
X535357Y205039D01*
X535334Y205022D01*
X535266Y204931D01*
X535193Y204844D01*
X535181Y204817D01*
X535164Y204794D01*
X535124Y204688D01*
X535078Y204585D01*
X535074Y204555D01*
X535063Y204528D01*
X535054Y204415D01*
X535039Y204303D01*
X535043Y204274D01*
X535041Y204245D01*
X535058Y204168D01*
X535079Y204022D01*
X535105Y203965D01*
X535116Y203918D01*
X535277Y203529D01*
X535428Y202770D01*
X530445Y202770D01*
G37*
%LPD*%
%LPC*%
G36*
X514257Y193595D02*
X514257Y193595D01*
X514408Y194354D01*
X514569Y194743D01*
X514576Y194771D01*
X514590Y194797D01*
X514612Y194908D01*
X514640Y195018D01*
X514639Y195047D01*
X514645Y195076D01*
X514635Y195189D01*
X514632Y195302D01*
X514623Y195330D01*
X514620Y195359D01*
X514580Y195465D01*
X514545Y195573D01*
X514529Y195597D01*
X514518Y195625D01*
X514450Y195715D01*
X514387Y195809D01*
X514364Y195828D01*
X514347Y195851D01*
X514256Y195919D01*
X514169Y195992D01*
X514142Y196004D01*
X514119Y196021D01*
X514013Y196061D01*
X513910Y196107D01*
X513880Y196111D01*
X513853Y196122D01*
X513740Y196131D01*
X513628Y196146D01*
X513599Y196142D01*
X513570Y196144D01*
X513493Y196127D01*
X513347Y196106D01*
X513290Y196080D01*
X513243Y196069D01*
X512854Y195908D01*
X512095Y195757D01*
X512095Y200740D01*
X517078Y200740D01*
X516927Y199981D01*
X516766Y199592D01*
X516759Y199564D01*
X516745Y199538D01*
X516723Y199427D01*
X516695Y199317D01*
X516696Y199288D01*
X516690Y199259D01*
X516700Y199146D01*
X516703Y199033D01*
X516712Y199005D01*
X516715Y198976D01*
X516755Y198870D01*
X516790Y198762D01*
X516806Y198738D01*
X516817Y198710D01*
X516885Y198620D01*
X516948Y198526D01*
X516971Y198507D01*
X516988Y198484D01*
X517079Y198416D01*
X517166Y198343D01*
X517193Y198331D01*
X517216Y198314D01*
X517322Y198274D01*
X517425Y198228D01*
X517455Y198224D01*
X517482Y198213D01*
X517595Y198204D01*
X517707Y198189D01*
X517736Y198193D01*
X517765Y198191D01*
X517842Y198208D01*
X517988Y198229D01*
X518045Y198255D01*
X518092Y198266D01*
X518481Y198427D01*
X519240Y198578D01*
X519240Y193595D01*
X514257Y193595D01*
G37*
%LPD*%
%LPC*%
G36*
X541782Y184420D02*
X541782Y184420D01*
X541933Y185179D01*
X542094Y185568D01*
X542101Y185596D01*
X542115Y185622D01*
X542137Y185733D01*
X542165Y185843D01*
X542164Y185872D01*
X542170Y185901D01*
X542160Y186014D01*
X542157Y186127D01*
X542148Y186155D01*
X542145Y186184D01*
X542105Y186290D01*
X542070Y186398D01*
X542054Y186422D01*
X542043Y186450D01*
X541975Y186540D01*
X541912Y186634D01*
X541889Y186653D01*
X541872Y186676D01*
X541781Y186744D01*
X541694Y186817D01*
X541667Y186829D01*
X541644Y186846D01*
X541538Y186886D01*
X541435Y186932D01*
X541405Y186936D01*
X541378Y186947D01*
X541265Y186956D01*
X541153Y186971D01*
X541124Y186967D01*
X541095Y186969D01*
X541018Y186952D01*
X540872Y186931D01*
X540815Y186905D01*
X540768Y186894D01*
X540379Y186733D01*
X539620Y186582D01*
X539620Y191565D01*
X544603Y191565D01*
X544452Y190806D01*
X544291Y190417D01*
X544284Y190389D01*
X544270Y190363D01*
X544248Y190252D01*
X544220Y190142D01*
X544221Y190113D01*
X544215Y190084D01*
X544225Y189971D01*
X544228Y189858D01*
X544237Y189830D01*
X544240Y189801D01*
X544280Y189695D01*
X544315Y189587D01*
X544331Y189563D01*
X544342Y189535D01*
X544410Y189445D01*
X544473Y189351D01*
X544496Y189332D01*
X544513Y189309D01*
X544604Y189241D01*
X544691Y189168D01*
X544718Y189156D01*
X544741Y189139D01*
X544847Y189099D01*
X544950Y189053D01*
X544980Y189049D01*
X545007Y189038D01*
X545120Y189029D01*
X545232Y189014D01*
X545261Y189018D01*
X545290Y189016D01*
X545367Y189033D01*
X545513Y189054D01*
X545570Y189080D01*
X545617Y189091D01*
X546006Y189252D01*
X546765Y189403D01*
X546765Y184420D01*
X541782Y184420D01*
G37*
%LPD*%
%LPC*%
G36*
X532607Y175245D02*
X532607Y175245D01*
X532758Y176004D01*
X532919Y176393D01*
X532926Y176421D01*
X532940Y176447D01*
X532962Y176558D01*
X532990Y176668D01*
X532989Y176697D01*
X532995Y176726D01*
X532985Y176839D01*
X532982Y176952D01*
X532973Y176980D01*
X532970Y177009D01*
X532930Y177115D01*
X532895Y177223D01*
X532879Y177247D01*
X532868Y177275D01*
X532800Y177365D01*
X532737Y177459D01*
X532714Y177478D01*
X532697Y177501D01*
X532606Y177569D01*
X532519Y177642D01*
X532492Y177654D01*
X532469Y177671D01*
X532363Y177711D01*
X532260Y177757D01*
X532230Y177761D01*
X532203Y177772D01*
X532090Y177781D01*
X531978Y177796D01*
X531949Y177792D01*
X531920Y177794D01*
X531843Y177777D01*
X531697Y177756D01*
X531640Y177730D01*
X531593Y177719D01*
X531204Y177558D01*
X530445Y177407D01*
X530445Y182390D01*
X535428Y182390D01*
X535277Y181631D01*
X535116Y181242D01*
X535109Y181214D01*
X535095Y181188D01*
X535073Y181077D01*
X535045Y180967D01*
X535046Y180938D01*
X535040Y180909D01*
X535050Y180796D01*
X535053Y180683D01*
X535062Y180655D01*
X535065Y180626D01*
X535105Y180520D01*
X535140Y180412D01*
X535156Y180388D01*
X535167Y180360D01*
X535235Y180270D01*
X535298Y180176D01*
X535321Y180157D01*
X535338Y180134D01*
X535429Y180066D01*
X535516Y179993D01*
X535543Y179981D01*
X535566Y179964D01*
X535672Y179924D01*
X535775Y179878D01*
X535805Y179874D01*
X535832Y179863D01*
X535945Y179854D01*
X536057Y179839D01*
X536086Y179843D01*
X536115Y179841D01*
X536192Y179858D01*
X536338Y179879D01*
X536395Y179905D01*
X536442Y179916D01*
X536831Y180077D01*
X537590Y180228D01*
X537590Y175245D01*
X532607Y175245D01*
G37*
%LPD*%
%LPC*%
G36*
X532607Y193595D02*
X532607Y193595D01*
X532758Y194354D01*
X532919Y194743D01*
X532926Y194771D01*
X532940Y194797D01*
X532962Y194908D01*
X532990Y195018D01*
X532989Y195047D01*
X532995Y195076D01*
X532985Y195189D01*
X532982Y195302D01*
X532973Y195330D01*
X532970Y195359D01*
X532930Y195465D01*
X532895Y195573D01*
X532879Y195597D01*
X532868Y195625D01*
X532800Y195715D01*
X532737Y195809D01*
X532714Y195828D01*
X532697Y195851D01*
X532606Y195919D01*
X532519Y195992D01*
X532492Y196004D01*
X532469Y196021D01*
X532363Y196061D01*
X532260Y196107D01*
X532230Y196111D01*
X532203Y196122D01*
X532090Y196131D01*
X531978Y196146D01*
X531949Y196142D01*
X531920Y196144D01*
X531843Y196127D01*
X531697Y196106D01*
X531640Y196080D01*
X531593Y196069D01*
X531204Y195908D01*
X530445Y195757D01*
X530445Y200740D01*
X535428Y200740D01*
X535277Y199981D01*
X535116Y199592D01*
X535109Y199564D01*
X535095Y199538D01*
X535073Y199427D01*
X535045Y199317D01*
X535046Y199288D01*
X535040Y199259D01*
X535050Y199146D01*
X535053Y199033D01*
X535062Y199005D01*
X535065Y198976D01*
X535105Y198870D01*
X535140Y198762D01*
X535156Y198738D01*
X535167Y198710D01*
X535235Y198620D01*
X535298Y198526D01*
X535321Y198507D01*
X535338Y198484D01*
X535429Y198416D01*
X535516Y198343D01*
X535543Y198331D01*
X535566Y198314D01*
X535672Y198274D01*
X535775Y198228D01*
X535805Y198224D01*
X535832Y198213D01*
X535945Y198204D01*
X536057Y198189D01*
X536086Y198193D01*
X536115Y198191D01*
X536192Y198208D01*
X536338Y198229D01*
X536395Y198255D01*
X536442Y198266D01*
X536831Y198427D01*
X537590Y198578D01*
X537590Y193595D01*
X532607Y193595D01*
G37*
%LPD*%
%LPC*%
G36*
X514257Y175245D02*
X514257Y175245D01*
X514408Y176004D01*
X514569Y176393D01*
X514576Y176421D01*
X514590Y176447D01*
X514612Y176558D01*
X514640Y176668D01*
X514639Y176697D01*
X514645Y176726D01*
X514635Y176839D01*
X514632Y176952D01*
X514623Y176980D01*
X514620Y177009D01*
X514580Y177115D01*
X514545Y177223D01*
X514529Y177247D01*
X514518Y177275D01*
X514450Y177365D01*
X514387Y177459D01*
X514364Y177478D01*
X514347Y177501D01*
X514256Y177569D01*
X514169Y177642D01*
X514142Y177654D01*
X514119Y177671D01*
X514013Y177711D01*
X513910Y177757D01*
X513880Y177761D01*
X513853Y177772D01*
X513740Y177781D01*
X513628Y177796D01*
X513599Y177792D01*
X513570Y177794D01*
X513493Y177777D01*
X513347Y177756D01*
X513290Y177730D01*
X513243Y177719D01*
X512854Y177558D01*
X512095Y177407D01*
X512095Y182390D01*
X517078Y182390D01*
X516927Y181631D01*
X516766Y181242D01*
X516759Y181214D01*
X516745Y181188D01*
X516723Y181077D01*
X516695Y180967D01*
X516696Y180938D01*
X516690Y180909D01*
X516700Y180796D01*
X516703Y180683D01*
X516712Y180655D01*
X516715Y180626D01*
X516755Y180520D01*
X516790Y180412D01*
X516806Y180388D01*
X516817Y180360D01*
X516885Y180270D01*
X516948Y180176D01*
X516971Y180157D01*
X516988Y180134D01*
X517079Y180066D01*
X517166Y179993D01*
X517193Y179981D01*
X517216Y179964D01*
X517322Y179924D01*
X517425Y179878D01*
X517455Y179874D01*
X517482Y179863D01*
X517595Y179854D01*
X517707Y179839D01*
X517736Y179843D01*
X517765Y179841D01*
X517842Y179858D01*
X517988Y179879D01*
X518045Y179905D01*
X518092Y179916D01*
X518481Y180077D01*
X519240Y180228D01*
X519240Y175245D01*
X514257Y175245D01*
G37*
%LPD*%
%LPC*%
G36*
X523432Y184420D02*
X523432Y184420D01*
X523583Y185179D01*
X523744Y185568D01*
X523751Y185596D01*
X523765Y185622D01*
X523787Y185733D01*
X523815Y185843D01*
X523814Y185872D01*
X523820Y185901D01*
X523810Y186014D01*
X523807Y186127D01*
X523798Y186155D01*
X523795Y186184D01*
X523755Y186290D01*
X523720Y186398D01*
X523704Y186422D01*
X523693Y186450D01*
X523625Y186540D01*
X523562Y186634D01*
X523539Y186653D01*
X523522Y186676D01*
X523431Y186744D01*
X523344Y186817D01*
X523317Y186829D01*
X523294Y186846D01*
X523188Y186886D01*
X523085Y186932D01*
X523055Y186936D01*
X523028Y186947D01*
X522915Y186956D01*
X522803Y186971D01*
X522774Y186967D01*
X522745Y186969D01*
X522668Y186952D01*
X522522Y186931D01*
X522465Y186905D01*
X522418Y186894D01*
X522029Y186733D01*
X521270Y186582D01*
X521270Y191565D01*
X526253Y191565D01*
X526102Y190806D01*
X525941Y190417D01*
X525934Y190389D01*
X525920Y190363D01*
X525898Y190252D01*
X525870Y190142D01*
X525871Y190113D01*
X525865Y190084D01*
X525875Y189971D01*
X525878Y189858D01*
X525887Y189830D01*
X525890Y189801D01*
X525930Y189695D01*
X525965Y189587D01*
X525981Y189563D01*
X525992Y189535D01*
X526060Y189445D01*
X526123Y189351D01*
X526146Y189332D01*
X526163Y189309D01*
X526254Y189241D01*
X526341Y189168D01*
X526368Y189156D01*
X526391Y189139D01*
X526497Y189099D01*
X526600Y189053D01*
X526630Y189049D01*
X526657Y189038D01*
X526770Y189029D01*
X526882Y189014D01*
X526911Y189018D01*
X526940Y189016D01*
X527017Y189033D01*
X527163Y189054D01*
X527220Y189080D01*
X527267Y189091D01*
X527656Y189252D01*
X528415Y189403D01*
X528415Y184420D01*
X523432Y184420D01*
G37*
%LPD*%
%LPC*%
G36*
X541782Y202770D02*
X541782Y202770D01*
X541933Y203529D01*
X542094Y203918D01*
X542101Y203946D01*
X542115Y203972D01*
X542137Y204083D01*
X542165Y204193D01*
X542164Y204222D01*
X542170Y204251D01*
X542160Y204364D01*
X542157Y204477D01*
X542148Y204505D01*
X542145Y204534D01*
X542105Y204640D01*
X542070Y204748D01*
X542054Y204772D01*
X542043Y204800D01*
X541975Y204890D01*
X541912Y204984D01*
X541889Y205003D01*
X541872Y205026D01*
X541781Y205094D01*
X541694Y205167D01*
X541667Y205179D01*
X541644Y205196D01*
X541538Y205236D01*
X541435Y205282D01*
X541405Y205286D01*
X541378Y205297D01*
X541265Y205306D01*
X541153Y205321D01*
X541124Y205317D01*
X541095Y205319D01*
X541018Y205302D01*
X540872Y205281D01*
X540815Y205255D01*
X540768Y205244D01*
X540379Y205083D01*
X539620Y204932D01*
X539620Y209915D01*
X544603Y209915D01*
X544452Y209156D01*
X544291Y208767D01*
X544284Y208739D01*
X544270Y208713D01*
X544248Y208602D01*
X544220Y208492D01*
X544221Y208463D01*
X544215Y208434D01*
X544225Y208321D01*
X544228Y208208D01*
X544237Y208180D01*
X544240Y208151D01*
X544280Y208045D01*
X544315Y207937D01*
X544331Y207913D01*
X544342Y207885D01*
X544410Y207795D01*
X544473Y207701D01*
X544496Y207682D01*
X544513Y207659D01*
X544604Y207591D01*
X544691Y207518D01*
X544718Y207506D01*
X544741Y207489D01*
X544847Y207449D01*
X544950Y207403D01*
X544980Y207399D01*
X545007Y207388D01*
X545120Y207379D01*
X545232Y207364D01*
X545261Y207368D01*
X545290Y207366D01*
X545367Y207383D01*
X545513Y207404D01*
X545570Y207430D01*
X545617Y207441D01*
X546006Y207602D01*
X546765Y207753D01*
X546765Y202770D01*
X541782Y202770D01*
G37*
%LPD*%
%LPC*%
G36*
X523432Y202770D02*
X523432Y202770D01*
X523583Y203529D01*
X523744Y203918D01*
X523751Y203946D01*
X523765Y203972D01*
X523787Y204083D01*
X523815Y204193D01*
X523814Y204222D01*
X523820Y204251D01*
X523810Y204364D01*
X523807Y204477D01*
X523798Y204505D01*
X523795Y204534D01*
X523755Y204640D01*
X523720Y204748D01*
X523704Y204772D01*
X523693Y204800D01*
X523625Y204890D01*
X523562Y204984D01*
X523539Y205003D01*
X523522Y205026D01*
X523431Y205094D01*
X523344Y205167D01*
X523317Y205179D01*
X523294Y205196D01*
X523188Y205236D01*
X523085Y205282D01*
X523055Y205286D01*
X523028Y205297D01*
X522915Y205306D01*
X522803Y205321D01*
X522774Y205317D01*
X522745Y205319D01*
X522668Y205302D01*
X522522Y205281D01*
X522465Y205255D01*
X522418Y205244D01*
X522029Y205083D01*
X521270Y204932D01*
X521270Y209915D01*
X526253Y209915D01*
X526102Y209156D01*
X525941Y208767D01*
X525934Y208739D01*
X525920Y208713D01*
X525898Y208602D01*
X525870Y208492D01*
X525871Y208463D01*
X525865Y208434D01*
X525875Y208321D01*
X525878Y208208D01*
X525887Y208180D01*
X525890Y208151D01*
X525930Y208045D01*
X525965Y207937D01*
X525981Y207913D01*
X525992Y207885D01*
X526060Y207795D01*
X526123Y207701D01*
X526146Y207682D01*
X526163Y207659D01*
X526254Y207591D01*
X526341Y207518D01*
X526368Y207506D01*
X526391Y207489D01*
X526497Y207449D01*
X526600Y207403D01*
X526630Y207399D01*
X526657Y207388D01*
X526770Y207379D01*
X526882Y207364D01*
X526911Y207368D01*
X526940Y207366D01*
X527017Y207383D01*
X527163Y207404D01*
X527220Y207430D01*
X527267Y207441D01*
X527656Y207602D01*
X528415Y207753D01*
X528415Y202770D01*
X523432Y202770D01*
G37*
%LPD*%
%LPC*%
G36*
X177969Y261079D02*
X177969Y261079D01*
X177969Y267941D01*
X178619Y267812D01*
X180271Y267127D01*
X181759Y266133D01*
X183023Y264869D01*
X184017Y263381D01*
X184702Y261729D01*
X184831Y261079D01*
X177969Y261079D01*
G37*
%LPD*%
%LPC*%
G36*
X177969Y257081D02*
X177969Y257081D01*
X184831Y257081D01*
X184702Y256431D01*
X184017Y254779D01*
X183023Y253291D01*
X181759Y252027D01*
X180271Y251033D01*
X178619Y250348D01*
X177969Y250219D01*
X177969Y257081D01*
G37*
%LPD*%
%LPC*%
G36*
X167109Y261079D02*
X167109Y261079D01*
X167238Y261729D01*
X167923Y263381D01*
X168917Y264869D01*
X170181Y266133D01*
X171669Y267127D01*
X173321Y267812D01*
X173971Y267941D01*
X173971Y261079D01*
X167109Y261079D01*
G37*
%LPD*%
%LPC*%
G36*
X173321Y250348D02*
X173321Y250348D01*
X171669Y251033D01*
X170181Y252027D01*
X168917Y253291D01*
X167923Y254779D01*
X167238Y256431D01*
X167109Y257081D01*
X173971Y257081D01*
X173971Y250219D01*
X173321Y250348D01*
G37*
%LPD*%
%LPC*%
G36*
X548795Y202770D02*
X548795Y202770D01*
X548795Y207753D01*
X549554Y207602D01*
X550660Y207144D01*
X551656Y206478D01*
X552503Y205631D01*
X553169Y204635D01*
X553627Y203529D01*
X553778Y202770D01*
X548795Y202770D01*
G37*
%LPD*%
%LPC*%
G36*
X539620Y211945D02*
X539620Y211945D01*
X539620Y216928D01*
X540379Y216777D01*
X541485Y216319D01*
X542481Y215653D01*
X543328Y214806D01*
X543994Y213810D01*
X544452Y212704D01*
X544603Y211945D01*
X539620Y211945D01*
G37*
%LPD*%
%LPC*%
G36*
X548795Y184420D02*
X548795Y184420D01*
X548795Y189403D01*
X549554Y189252D01*
X550660Y188794D01*
X551656Y188128D01*
X552503Y187281D01*
X553169Y186285D01*
X553627Y185179D01*
X553778Y184420D01*
X548795Y184420D01*
G37*
%LPD*%
%LPC*%
G36*
X521270Y211945D02*
X521270Y211945D01*
X521270Y216928D01*
X522029Y216777D01*
X523135Y216319D01*
X524131Y215653D01*
X524978Y214806D01*
X525644Y213810D01*
X526102Y212704D01*
X526253Y211945D01*
X521270Y211945D01*
G37*
%LPD*%
%LPC*%
G36*
X548795Y182390D02*
X548795Y182390D01*
X553778Y182390D01*
X553627Y181631D01*
X553169Y180525D01*
X552503Y179529D01*
X551656Y178682D01*
X550660Y178016D01*
X549554Y177558D01*
X548795Y177407D01*
X548795Y182390D01*
G37*
%LPD*%
%LPC*%
G36*
X521270Y173215D02*
X521270Y173215D01*
X526253Y173215D01*
X526102Y172456D01*
X525644Y171350D01*
X524978Y170354D01*
X524131Y169507D01*
X523135Y168841D01*
X522029Y168383D01*
X521270Y168232D01*
X521270Y173215D01*
G37*
%LPD*%
%LPC*%
G36*
X505082Y184420D02*
X505082Y184420D01*
X505233Y185179D01*
X505691Y186285D01*
X506357Y187281D01*
X507204Y188128D01*
X508200Y188794D01*
X509306Y189252D01*
X510065Y189403D01*
X510065Y184420D01*
X505082Y184420D01*
G37*
%LPD*%
%LPC*%
G36*
X532607Y211945D02*
X532607Y211945D01*
X532758Y212704D01*
X533216Y213810D01*
X533882Y214806D01*
X534729Y215653D01*
X535725Y216319D01*
X536831Y216777D01*
X537590Y216928D01*
X537590Y211945D01*
X532607Y211945D01*
G37*
%LPD*%
%LPC*%
G36*
X514257Y211945D02*
X514257Y211945D01*
X514408Y212704D01*
X514866Y213810D01*
X515532Y214806D01*
X516379Y215653D01*
X517375Y216319D01*
X518481Y216777D01*
X519240Y216928D01*
X519240Y211945D01*
X514257Y211945D01*
G37*
%LPD*%
%LPC*%
G36*
X505082Y202770D02*
X505082Y202770D01*
X505233Y203529D01*
X505691Y204635D01*
X506357Y205631D01*
X507204Y206478D01*
X508200Y207144D01*
X509306Y207602D01*
X510065Y207753D01*
X510065Y202770D01*
X505082Y202770D01*
G37*
%LPD*%
%LPC*%
G36*
X548795Y200740D02*
X548795Y200740D01*
X553778Y200740D01*
X553627Y199981D01*
X553169Y198875D01*
X552503Y197879D01*
X551656Y197032D01*
X550660Y196366D01*
X549554Y195908D01*
X548795Y195757D01*
X548795Y200740D01*
G37*
%LPD*%
%LPC*%
G36*
X539620Y173215D02*
X539620Y173215D01*
X544603Y173215D01*
X544452Y172456D01*
X543994Y171350D01*
X543328Y170354D01*
X542481Y169507D01*
X541485Y168841D01*
X540379Y168383D01*
X539620Y168232D01*
X539620Y173215D01*
G37*
%LPD*%
%LPC*%
G36*
X509306Y195908D02*
X509306Y195908D01*
X508200Y196366D01*
X507204Y197032D01*
X506357Y197879D01*
X505691Y198875D01*
X505233Y199981D01*
X505082Y200740D01*
X510065Y200740D01*
X510065Y195757D01*
X509306Y195908D01*
G37*
%LPD*%
%LPC*%
G36*
X509306Y177558D02*
X509306Y177558D01*
X508200Y178016D01*
X507204Y178682D01*
X506357Y179529D01*
X505691Y180525D01*
X505233Y181631D01*
X505082Y182390D01*
X510065Y182390D01*
X510065Y177407D01*
X509306Y177558D01*
G37*
%LPD*%
%LPC*%
G36*
X518481Y168383D02*
X518481Y168383D01*
X517375Y168841D01*
X516379Y169507D01*
X515532Y170354D01*
X514866Y171350D01*
X514408Y172456D01*
X514257Y173215D01*
X519240Y173215D01*
X519240Y168232D01*
X518481Y168383D01*
G37*
%LPD*%
%LPC*%
G36*
X536831Y168383D02*
X536831Y168383D01*
X535725Y168841D01*
X534729Y169507D01*
X533882Y170354D01*
X533216Y171350D01*
X532758Y172456D01*
X532607Y173215D01*
X537590Y173215D01*
X537590Y168232D01*
X536831Y168383D01*
G37*
%LPD*%
%LPC*%
G36*
X520699Y468629D02*
X520699Y468629D01*
X520699Y468631D01*
X520701Y468631D01*
X520701Y468629D01*
X520699Y468629D01*
G37*
%LPD*%
%LPC*%
G36*
X58419Y105409D02*
X58419Y105409D01*
X58419Y105411D01*
X58421Y105411D01*
X58421Y105409D01*
X58419Y105409D01*
G37*
%LPD*%
D10*
X538605Y174230D03*
X520255Y174230D03*
X547780Y183405D03*
X529430Y183405D03*
X511080Y183405D03*
X538605Y192580D03*
X520255Y192580D03*
X547780Y201755D03*
X529430Y201755D03*
X511080Y201755D03*
X538605Y210930D03*
X520255Y210930D03*
D11*
X140970Y259080D03*
D12*
X175970Y259080D03*
D13*
X36830Y293530D03*
X36830Y313530D03*
D14*
X381480Y476250D03*
X401480Y476250D03*
X421480Y476250D03*
X441480Y476250D03*
D15*
X848106Y71374D03*
X759714Y71374D03*
D16*
X58420Y105410D03*
D17*
X58420Y67310D03*
D16*
X558800Y468630D03*
D17*
X520700Y468630D03*
D11*
X756920Y426720D03*
D12*
X756920Y401320D03*
D11*
X795020Y426720D03*
D12*
X795020Y401320D03*
D16*
X694690Y468630D03*
D17*
X656590Y468630D03*
X618490Y468630D03*
D16*
X833120Y468630D03*
D17*
X795020Y468630D03*
X756920Y468630D03*
D11*
X833120Y426720D03*
D12*
X833120Y401320D03*
D11*
X618490Y426720D03*
D12*
X618490Y401320D03*
D11*
X656590Y426720D03*
D12*
X656590Y401320D03*
D11*
X694690Y426720D03*
D12*
X694690Y401320D03*
D18*
X516890Y337820D02*
X516890Y322580D01*
X491490Y322580D02*
X491490Y337820D01*
X466090Y337820D02*
X466090Y322580D01*
X440690Y322580D02*
X440690Y337820D01*
D19*
X330200Y292100D03*
D20*
X347980Y292100D01*
X350520Y294640D01*
X350520Y350520D01*
X347980Y353060D01*
D19*
X347980Y353060D03*
X469900Y444500D03*
X657860Y252730D03*
X652780Y191770D03*
X740410Y223520D03*
X778510Y250190D03*
X793750Y172720D03*
X890270Y170180D03*
X890270Y68580D03*
X709930Y73660D03*
X541020Y116840D03*
X570230Y165100D03*
X488950Y186690D03*
X354330Y186690D03*
X353060Y129540D03*
X232410Y156210D03*
X149860Y137160D03*
X77470Y200660D03*
X22860Y143510D03*
X21590Y210820D03*
X77470Y273050D03*
X46990Y340360D03*
X147320Y364490D03*
X309880Y382270D03*
X214630Y487680D03*
X200660Y449580D03*
X313690Y464820D03*
X345440Y471170D03*
X459740Y450850D03*
X257810Y313690D03*
X203200Y212090D03*
X292100Y257810D03*
X176530Y316230D03*
X260350Y377190D03*
X374650Y375920D03*
X255270Y64770D03*
X726440Y142240D03*
X457200Y242570D03*
X533400Y260350D03*
X543560Y156210D03*
X645160Y81280D03*
X580390Y205740D03*
X629920Y184348D03*
D21*
X566222Y184348D01*
X563880Y186690D01*
X563880Y222024D01*
D19*
X563880Y222024D03*
X485140Y271978D03*
D21*
X482600Y274518D01*
X482600Y276860D01*
X476250Y283210D02*
X450850Y283210D01*
D19*
X450850Y283210D03*
D21*
X476250Y283210D02*
X482600Y276860D01*
D19*
X419100Y232410D03*
D21*
X411480Y240030D01*
X408714Y273276D02*
X408714Y283210D01*
D19*
X408714Y283210D03*
X370840Y411084D03*
D21*
X351988Y411084D01*
X351790Y410886D01*
D19*
X351790Y410886D03*
D21*
X411480Y270510D02*
X411480Y240030D01*
X411480Y270510D02*
X408714Y273276D01*
D19*
X511810Y265402D03*
D21*
X511810Y283210D01*
X497840Y297180D02*
X495300Y297180D01*
X491490Y300990D01*
X491490Y330200D01*
X497840Y297180D02*
X511810Y283210D01*
X466090Y304800D02*
X466090Y330200D01*
X482600Y288290D02*
X496570Y288290D01*
X504190Y280670D01*
X504190Y257810D01*
D19*
X504190Y257810D03*
D21*
X482600Y288290D02*
X466090Y304800D01*
D19*
X466090Y152400D03*
D21*
X424180Y152400D01*
X410210Y166370D02*
X381000Y166370D01*
X375920Y171450D01*
X375920Y234950D01*
X379730Y238760D01*
D19*
X379730Y238760D03*
D21*
X410210Y166370D02*
X424180Y152400D01*
D19*
X185420Y175260D03*
D22*
X185420Y156210D01*
X195580Y146050D01*
X209550Y146050D01*
D19*
X209550Y146050D03*
X203200Y175260D03*
D22*
X203200Y156210D01*
D19*
X203200Y156210D03*
X411480Y146050D03*
D22*
X427990Y129540D01*
X582930Y129540D01*
D19*
X582930Y129540D03*
X629920Y175260D03*
D21*
X593090Y175260D01*
X586740Y168910D01*
X586740Y133350D02*
X582930Y129540D01*
X586740Y133350D02*
X586740Y168910D01*
D19*
X260350Y334010D03*
D21*
X269240Y342900D02*
X269240Y368300D01*
X274320Y373380D01*
X350520Y373380D01*
D19*
X350520Y373380D03*
D21*
X269240Y342900D02*
X260350Y334010D01*
D19*
X273050Y384810D03*
D21*
X274320Y383540D01*
X274320Y373380D01*
X394970Y330200D02*
X440690Y330200D01*
X394970Y330200D02*
X393700Y328930D01*
D19*
X393700Y328930D03*
X320040Y203200D03*
D21*
X320040Y294640D01*
X328930Y303530D02*
X339090Y303530D01*
X345948Y310388D02*
X345948Y327660D01*
X344678Y328930D01*
X342900Y328930D01*
D19*
X342900Y328930D03*
D21*
X328930Y303530D02*
X320040Y294640D01*
X339090Y303530D02*
X345948Y310388D01*
D19*
X342900Y341630D03*
D21*
X342900Y337820D01*
X340586Y335506D02*
X340176Y335506D01*
X338680Y334010D01*
X327660Y334010D01*
X316230Y322580D01*
X307340Y200660D02*
X297180Y200660D01*
D19*
X297180Y200660D03*
D21*
X340586Y335506D02*
X342900Y337820D01*
X316230Y322580D02*
X316230Y209550D01*
X307340Y200660D01*
D19*
X212288Y175260D03*
D22*
X212090Y175458D01*
X212090Y182880D02*
X211455Y183515D01*
X207010Y187960D01*
X104140Y187960D02*
X99060Y193040D01*
X99060Y302260D01*
D19*
X99060Y302260D03*
D22*
X212090Y182880D02*
X212090Y175458D01*
X207010Y187960D02*
X104140Y187960D01*
D19*
X309654Y311594D03*
D20*
X288734Y311594D01*
X219075Y183515D02*
X211455Y183515D01*
X224790Y247650D02*
X288734Y311594D01*
X224790Y247650D02*
X224790Y189230D01*
X219075Y183515D01*
D19*
X107950Y311150D03*
D22*
X87630Y311150D01*
D19*
X87630Y311150D03*
X203200Y316230D03*
D22*
X203200Y369570D01*
D19*
X203200Y369570D03*
X415290Y172720D03*
D21*
X388620Y172720D01*
X382270Y213360D02*
X384810Y215900D01*
X384810Y222476D01*
X382496Y224790D01*
D19*
X382496Y224790D03*
D21*
X382270Y179070D02*
X388620Y172720D01*
X382270Y179070D02*
X382270Y213360D01*
X382496Y224790D02*
X382496Y225016D01*
X421480Y462120D02*
X421480Y476250D01*
X387350Y229870D02*
X382496Y225016D01*
X387350Y229870D02*
X387350Y300990D01*
X387350Y370840D02*
X387350Y434340D01*
X387350Y438150D01*
X387350Y441960D01*
X387350Y452120D01*
X394970Y459740D01*
X419100Y459740D01*
X421480Y462120D01*
D19*
X353060Y438150D03*
D21*
X383540Y438150D01*
X387350Y438150D01*
X383540Y438150D02*
X387350Y441960D01*
X383540Y438150D02*
X387350Y434340D01*
X381000Y307340D02*
X387350Y300990D01*
X381000Y364490D02*
X387350Y370840D01*
X381000Y364490D02*
X381000Y307340D01*
D19*
X389890Y209550D03*
D21*
X408940Y209550D01*
X414020Y204470D01*
X414020Y185420D02*
X416560Y182880D01*
D19*
X416560Y182880D03*
D21*
X414020Y185420D02*
X414020Y204470D01*
X391160Y227330D02*
X389890Y226060D01*
X401320Y453164D02*
X401094Y453390D01*
D19*
X401320Y453164D03*
D21*
X389890Y226060D02*
X389890Y209550D01*
X391160Y450542D02*
X394008Y453390D01*
X401094Y453390D01*
D19*
X354104Y453390D03*
D21*
X379730Y453390D01*
X391160Y464820D02*
X394970Y464820D01*
X401480Y471330D01*
X401480Y476250D01*
X391160Y464820D02*
X379730Y453390D01*
X384810Y308918D02*
X391160Y302568D01*
X384810Y362912D02*
X391160Y369262D01*
X391160Y302568D02*
X391160Y227330D01*
X384810Y308918D02*
X384810Y362912D01*
X391160Y369262D02*
X391160Y450542D01*
D19*
X309654Y258637D03*
D21*
X301434Y258637D01*
X299060Y261010D02*
X299060Y272750D01*
D19*
X299060Y272750D03*
D21*
X299060Y261010D02*
X301434Y258637D01*
D19*
X749300Y290830D03*
D21*
X745490Y290830D01*
X744220Y292100D01*
X602206Y251686D02*
X588010Y251686D01*
D19*
X588010Y251686D03*
D21*
X618182Y292100D02*
X744220Y292100D01*
X618182Y292100D02*
X609600Y283518D01*
X609600Y259080D01*
X602206Y251686D01*
D19*
X899160Y393700D03*
D20*
X899160Y389890D01*
X763270Y372110D02*
X763270Y368300D01*
D19*
X763270Y372110D03*
D20*
X872518Y363248D02*
X899160Y389890D01*
X872518Y363248D02*
X768322Y363248D01*
X763270Y368300D01*
D19*
X765810Y414020D03*
D20*
X765810Y408940D01*
X763270Y383540D02*
X763270Y372110D01*
X769620Y405130D02*
X765810Y408940D01*
X769620Y405130D02*
X769620Y389890D01*
X763270Y383540D01*
D19*
X886460Y393700D03*
D20*
X883747Y390987D01*
X883747Y383443D01*
X868885Y368582D01*
D19*
X810260Y373380D03*
D20*
X815058Y368582D02*
X868885Y368582D01*
X815058Y368582D02*
X810260Y373380D01*
D19*
X802640Y412750D03*
D20*
X802640Y410210D01*
X805180Y407670D01*
X806450Y407670D01*
X810260Y403860D02*
X810260Y373380D01*
X810260Y403860D02*
X806450Y407670D01*
D19*
X876409Y392539D03*
D20*
X876409Y383649D01*
X868680Y375920D02*
X857250Y375920D01*
D19*
X857250Y375920D03*
D20*
X868680Y375920D02*
X876409Y383649D01*
D19*
X792480Y295910D03*
D21*
X756920Y295910D01*
X755424Y297406D02*
X738096Y297406D01*
X736600Y295910D01*
X616604Y295910D01*
X605790Y285096D02*
X605790Y262890D01*
X601980Y259080D01*
X494030Y254000D02*
X490446Y254000D01*
D19*
X490446Y254000D03*
D21*
X755424Y297406D02*
X756920Y295910D01*
X616604Y295910D02*
X605790Y285096D01*
X601980Y259080D02*
X577850Y259080D01*
X568960Y250190D01*
X497840Y250190D01*
X494030Y254000D01*
D19*
X836930Y295910D03*
D21*
X805180Y295910D01*
X786356Y302486D02*
X783590Y299720D01*
X758498Y299720D02*
X757002Y301216D01*
X731746Y301216D02*
X730250Y299720D01*
X601980Y273050D02*
X598170Y269240D01*
X568960Y269240D01*
X563880Y274320D02*
X563880Y276860D01*
D19*
X563880Y276860D03*
D21*
X798604Y302486D02*
X805180Y295910D01*
X798604Y302486D02*
X786356Y302486D01*
X783590Y299720D02*
X758498Y299720D01*
X757002Y301216D02*
X731746Y301216D01*
X730250Y299720D02*
X613410Y299720D01*
X601980Y288290D01*
X601980Y273050D01*
X568960Y269240D02*
X563880Y274320D01*
D19*
X637540Y435610D03*
D20*
X637540Y466090D01*
X635000Y468630D02*
X618490Y468630D01*
X635000Y468630D02*
X637540Y466090D01*
D19*
X519430Y407670D03*
X662940Y490220D03*
X769620Y491490D03*
X835660Y492760D03*
X876300Y494030D03*
X854710Y449580D03*
X899160Y363220D03*
X736600Y360680D03*
X660400Y359410D03*
X582930Y360680D03*
X636270Y232410D03*
D21*
X478790Y232410D01*
X473710Y227330D01*
X473710Y208280D02*
X472440Y207010D01*
X467360Y207010D01*
D19*
X467360Y207010D03*
D21*
X473710Y208280D02*
X473710Y227330D01*
D19*
X351790Y419974D03*
D21*
X351988Y420172D01*
X370840Y420172D01*
D19*
X370840Y420172D03*
X636270Y223322D03*
D21*
X630118Y223322D01*
X477520Y225752D02*
X477520Y206702D01*
X473710Y202892D01*
D19*
X473710Y143510D03*
D21*
X624840Y228600D02*
X630118Y223322D01*
X624840Y228600D02*
X480368Y228600D01*
X477520Y225752D01*
X473710Y202892D02*
X473710Y199390D01*
X473710Y194310D01*
X473710Y143510D01*
D19*
X204470Y414020D03*
D21*
X212712Y405778D01*
X226060Y405778D01*
D19*
X226060Y405778D03*
X351790Y392430D03*
D21*
X370840Y392430D01*
D19*
X370840Y392430D03*
X400050Y303530D03*
D21*
X394970Y298450D01*
X473710Y199390D02*
X472440Y198120D01*
X394970Y223520D02*
X394970Y298450D01*
X394970Y223520D02*
X402590Y215900D01*
X411480Y215900D01*
X429260Y198120D01*
X468938Y198120D01*
X469900Y198120D01*
X472440Y198120D01*
X471170Y196850D02*
X473710Y194310D01*
X471170Y196850D02*
X471170Y200352D01*
X473710Y202892D01*
X471170Y200352D02*
X468938Y198120D01*
X469900Y198120D02*
X471170Y196850D01*
D19*
X636270Y241498D03*
D21*
X633758Y238986D01*
X633546Y238986D01*
X632050Y237490D01*
X469900Y218864D02*
X467134Y216098D01*
D19*
X467134Y216098D03*
D21*
X477520Y237490D02*
X632050Y237490D01*
X477520Y237490D02*
X469900Y229870D01*
X469900Y218864D01*
D19*
X416560Y222250D03*
D21*
X407670Y231140D01*
D19*
X402364Y289712D03*
D21*
X402364Y286160D02*
X402138Y285934D01*
X402364Y286160D02*
X402364Y289712D01*
X402138Y285934D02*
X402138Y272232D01*
D19*
X372110Y401996D03*
D21*
X351988Y401996D01*
X351790Y401798D01*
D19*
X351790Y401798D03*
X227330Y414866D03*
D21*
X217594Y414866D01*
X212520Y419940D01*
D19*
X212520Y419940D03*
D21*
X407670Y266700D02*
X407670Y231140D01*
X407670Y266700D02*
X402138Y272232D01*
D19*
X636270Y250586D03*
D21*
X632856Y250586D01*
X474980Y245110D02*
X474980Y271780D01*
D19*
X474980Y271780D03*
D21*
X623570Y241300D02*
X632856Y250586D01*
X623570Y241300D02*
X478790Y241300D01*
X474980Y245110D01*
D19*
X481556Y262890D03*
D21*
X483870Y260576D01*
X483870Y248920D02*
X487680Y245110D01*
X609600Y245110D01*
X613410Y248920D02*
X613410Y281940D01*
X619760Y288290D01*
X744220Y284480D02*
X744220Y237490D01*
X748030Y233680D01*
X817880Y233680D01*
D19*
X817880Y233680D03*
D21*
X483870Y248920D02*
X483870Y260576D01*
X609600Y245110D02*
X613410Y248920D01*
X619760Y288290D02*
X740410Y288290D01*
X744220Y284480D01*
D19*
X370840Y429260D03*
D21*
X353258Y429260D01*
X353060Y429062D01*
D19*
X353060Y429062D03*
X636270Y213360D03*
D21*
X641350Y213360D01*
X643890Y215900D01*
X643890Y255270D02*
X640080Y259080D01*
X629920Y259080D01*
X627380Y261620D01*
X627380Y265430D01*
D19*
X627380Y265430D03*
D21*
X643890Y255270D02*
X643890Y215900D01*
D19*
X636270Y203200D03*
D21*
X643890Y203200D01*
X647700Y207010D01*
X654050Y276860D02*
X664210Y276860D01*
D19*
X664210Y276860D03*
D21*
X647700Y270510D02*
X647700Y207010D01*
X647700Y270510D02*
X654050Y276860D01*
D19*
X621030Y248920D03*
D21*
X621030Y262480D02*
X620804Y262706D01*
X620804Y263116D01*
X618490Y265430D01*
X618490Y279400D01*
X688340Y284480D02*
X693420Y279400D01*
X715010Y279400D01*
D19*
X715010Y279400D03*
D21*
X621030Y262480D02*
X621030Y248920D01*
X618490Y279400D02*
X623570Y284480D01*
X688340Y284480D01*
M02*
