G04 EAGLE Gerber RS-274X export*
G75*
%MOMM*%
%FSLAX34Y34*%
%LPD*%
%INSilkscreen Top*%
%IPPOS*%
%AMOC8*
5,1,8,0,0,1.08239X$1,22.5*%
G01*
%ADD10C,0.279400*%
%ADD11C,0.101600*%
%ADD12R,0.127000X0.025400*%
%ADD13R,0.203200X0.025400*%
%ADD14R,0.279400X0.025400*%
%ADD15R,0.177800X0.025400*%
%ADD16R,0.355600X0.025400*%
%ADD17R,0.381000X0.025400*%
%ADD18R,0.457200X0.025400*%
%ADD19R,0.736600X0.025400*%
%ADD20R,0.508000X0.025400*%
%ADD21R,0.914400X0.025400*%
%ADD22R,0.558800X0.025400*%
%ADD23R,1.092200X0.025400*%
%ADD24R,0.152400X0.025400*%
%ADD25R,0.584200X0.025400*%
%ADD26R,1.219200X0.025400*%
%ADD27R,1.371600X0.025400*%
%ADD28R,0.228600X0.025400*%
%ADD29R,1.473200X0.025400*%
%ADD30R,1.574800X0.025400*%
%ADD31R,1.651000X0.025400*%
%ADD32R,1.752600X0.025400*%
%ADD33R,1.828800X0.025400*%
%ADD34R,1.905000X0.025400*%
%ADD35R,0.889000X0.025400*%
%ADD36R,0.863600X0.025400*%
%ADD37R,0.711200X0.025400*%
%ADD38R,0.431800X0.025400*%
%ADD39R,0.685800X0.025400*%
%ADD40R,0.635000X0.025400*%
%ADD41R,0.406400X0.025400*%
%ADD42R,0.609600X0.025400*%
%ADD43R,0.330200X0.025400*%
%ADD44R,0.533400X0.025400*%
%ADD45R,0.304800X0.025400*%
%ADD46R,0.254000X0.025400*%
%ADD47R,0.482600X0.025400*%
%ADD48R,0.050800X0.025400*%
%ADD49R,0.838200X0.025400*%
%ADD50R,0.965200X0.025400*%
%ADD51R,1.041400X0.025400*%
%ADD52R,1.117600X0.025400*%
%ADD53R,1.270000X0.025400*%
%ADD54R,1.320800X0.025400*%
%ADD55R,1.422400X0.025400*%
%ADD56R,1.524000X0.025400*%
%ADD57R,1.549400X0.025400*%
%ADD58R,0.660400X0.025400*%
%ADD59R,0.101600X0.025400*%
%ADD60R,0.812800X0.025400*%
%ADD61R,1.295400X0.025400*%
%ADD62R,1.244600X0.025400*%
%ADD63R,1.193800X0.025400*%
%ADD64R,0.076200X0.025400*%
%ADD65R,1.066800X0.025400*%
%ADD66R,0.990600X0.025400*%
%ADD67R,0.025400X0.025400*%
%ADD68R,0.787400X0.025400*%
%ADD69R,0.762000X0.025400*%
%ADD70C,0.203200*%
%ADD71C,0.127000*%
%ADD72C,0.200000*%
%ADD73C,0.100000*%
%ADD74C,0.100000*%
%ADD75C,0.050000*%
%ADD76C,0.050000*%
%ADD77C,0.152400*%
%ADD78C,0.076200*%
%ADD79C,0.050800*%


D10*
X447695Y387795D02*
X447695Y397709D01*
X452652Y397709D01*
X454305Y396057D01*
X454305Y392752D01*
X452652Y391099D01*
X447695Y391099D01*
X461041Y397709D02*
X464346Y397709D01*
X461041Y397709D02*
X459389Y396057D01*
X459389Y389447D01*
X461041Y387795D01*
X464346Y387795D01*
X465999Y389447D01*
X465999Y396057D01*
X464346Y397709D01*
X476040Y397709D02*
X477693Y396057D01*
X476040Y397709D02*
X472735Y397709D01*
X471083Y396057D01*
X471083Y394404D01*
X472735Y392752D01*
X476040Y392752D01*
X477693Y391099D01*
X477693Y389447D01*
X476040Y387795D01*
X472735Y387795D01*
X471083Y389447D01*
X482777Y387795D02*
X486082Y387795D01*
X484429Y387795D02*
X484429Y397709D01*
X482777Y397709D02*
X486082Y397709D01*
X493878Y397709D02*
X493878Y387795D01*
X490573Y397709D02*
X497183Y397709D01*
X502267Y397709D02*
X502267Y387795D01*
X502267Y397709D02*
X507224Y397709D01*
X508876Y396057D01*
X508876Y392752D01*
X507224Y391099D01*
X502267Y391099D01*
X505572Y391099D02*
X508876Y387795D01*
X515613Y397709D02*
X518918Y397709D01*
X515613Y397709D02*
X513961Y396057D01*
X513961Y389447D01*
X515613Y387795D01*
X518918Y387795D01*
X520570Y389447D01*
X520570Y396057D01*
X518918Y397709D01*
X525655Y397709D02*
X525655Y387795D01*
X532264Y387795D02*
X525655Y397709D01*
X532264Y397709D02*
X532264Y387795D01*
X430917Y381834D02*
X424307Y381834D01*
X424307Y371920D01*
X430917Y371920D01*
X427612Y376877D02*
X424307Y376877D01*
X436001Y381834D02*
X436001Y371920D01*
X442611Y371920D01*
X447695Y381834D02*
X454305Y381834D01*
X447695Y381834D02*
X447695Y371920D01*
X454305Y371920D01*
X451000Y376877D02*
X447695Y376877D01*
X464346Y381834D02*
X465999Y380182D01*
X464346Y381834D02*
X461041Y381834D01*
X459389Y380182D01*
X459389Y373572D01*
X461041Y371920D01*
X464346Y371920D01*
X465999Y373572D01*
X474388Y371920D02*
X474388Y381834D01*
X471083Y381834D02*
X477693Y381834D01*
X482777Y381834D02*
X482777Y371920D01*
X482777Y381834D02*
X487734Y381834D01*
X489386Y380182D01*
X489386Y376877D01*
X487734Y375224D01*
X482777Y375224D01*
X486082Y375224D02*
X489386Y371920D01*
X496123Y381834D02*
X499428Y381834D01*
X496123Y381834D02*
X494471Y380182D01*
X494471Y373572D01*
X496123Y371920D01*
X499428Y371920D01*
X501080Y373572D01*
X501080Y380182D01*
X499428Y381834D01*
X506165Y381834D02*
X506165Y371920D01*
X512774Y371920D02*
X506165Y381834D01*
X512774Y381834D02*
X512774Y371920D01*
X517859Y371920D02*
X521164Y371920D01*
X519511Y371920D02*
X519511Y381834D01*
X517859Y381834D02*
X521164Y381834D01*
X530612Y381834D02*
X532264Y380182D01*
X530612Y381834D02*
X527307Y381834D01*
X525655Y380182D01*
X525655Y373572D01*
X527307Y371920D01*
X530612Y371920D01*
X532264Y373572D01*
D11*
X57198Y310524D02*
X57198Y307199D01*
X58861Y305536D01*
X60524Y307199D01*
X60524Y310524D01*
X62723Y310524D02*
X62723Y305536D01*
X62723Y310524D02*
X65217Y310524D01*
X66049Y309693D01*
X66049Y308862D01*
X65217Y308030D01*
X66049Y307199D01*
X66049Y306367D01*
X65217Y305536D01*
X62723Y305536D01*
X62723Y308030D02*
X65217Y308030D01*
X68248Y308862D02*
X68248Y305536D01*
X68248Y308862D02*
X69911Y310524D01*
X71573Y308862D01*
X71573Y305536D01*
X71573Y308030D02*
X68248Y308030D01*
X75435Y305536D02*
X75435Y310524D01*
X73773Y310524D02*
X77098Y310524D01*
X79297Y308030D02*
X82623Y308030D01*
X57198Y286394D02*
X57198Y283069D01*
X58861Y281406D01*
X60524Y283069D01*
X60524Y286394D01*
X62723Y286394D02*
X62723Y281406D01*
X62723Y286394D02*
X65217Y286394D01*
X66049Y285563D01*
X66049Y284732D01*
X65217Y283900D01*
X66049Y283069D01*
X66049Y282237D01*
X65217Y281406D01*
X62723Y281406D01*
X62723Y283900D02*
X65217Y283900D01*
X68248Y284732D02*
X68248Y281406D01*
X68248Y284732D02*
X69911Y286394D01*
X71573Y284732D01*
X71573Y281406D01*
X71573Y283900D02*
X68248Y283900D01*
X75435Y281406D02*
X75435Y286394D01*
X73773Y286394D02*
X77098Y286394D01*
X79297Y283900D02*
X82623Y283900D01*
X80960Y285563D02*
X80960Y282237D01*
X79366Y53387D02*
X82691Y53387D01*
X84354Y55050D01*
X82691Y56712D01*
X79366Y56712D01*
X84354Y58912D02*
X84354Y60574D01*
X84354Y59743D02*
X79366Y59743D01*
X79366Y58912D02*
X79366Y60574D01*
X79366Y62595D02*
X84354Y62595D01*
X84354Y65920D02*
X79366Y62595D01*
X79366Y65920D02*
X84354Y65920D01*
X79366Y73644D02*
X79366Y76970D01*
X79366Y73644D02*
X81860Y73644D01*
X81029Y75307D01*
X81029Y76138D01*
X81860Y76970D01*
X83523Y76970D01*
X84354Y76138D01*
X84354Y74476D01*
X83523Y73644D01*
X81860Y79169D02*
X81860Y82494D01*
X80197Y84694D02*
X79366Y85525D01*
X79366Y87188D01*
X80197Y88019D01*
X81029Y88019D01*
X81860Y87188D01*
X81860Y86356D01*
X81860Y87188D02*
X82691Y88019D01*
X83523Y88019D01*
X84354Y87188D01*
X84354Y85525D01*
X83523Y84694D01*
X83523Y90218D02*
X80197Y90218D01*
X79366Y91050D01*
X79366Y92713D01*
X80197Y93544D01*
X83523Y93544D01*
X84354Y92713D01*
X84354Y91050D01*
X83523Y90218D01*
X80197Y93544D01*
X79366Y101268D02*
X82691Y101268D01*
X84354Y102931D01*
X82691Y104593D01*
X79366Y104593D01*
X79366Y106793D02*
X84354Y106793D01*
X84354Y109287D01*
X83523Y110118D01*
X80197Y110118D01*
X79366Y109287D01*
X79366Y106793D01*
X79366Y114811D02*
X80197Y115643D01*
X79366Y114811D02*
X79366Y113149D01*
X80197Y112317D01*
X83523Y112317D01*
X84354Y113149D01*
X84354Y114811D01*
X83523Y115643D01*
X819164Y267330D02*
X819164Y272318D01*
X819164Y267330D02*
X822490Y267330D01*
X825520Y272318D02*
X827183Y272318D01*
X825520Y272318D02*
X824689Y271487D01*
X824689Y268161D01*
X825520Y267330D01*
X827183Y267330D01*
X828014Y268161D01*
X828014Y271487D01*
X827183Y272318D01*
X830213Y272318D02*
X830213Y267330D01*
X830213Y272318D02*
X832708Y272318D01*
X833539Y271487D01*
X833539Y269824D01*
X832708Y268993D01*
X830213Y268993D01*
X831876Y268993D02*
X833539Y267330D01*
X835738Y267330D02*
X835738Y270656D01*
X837401Y272318D01*
X839064Y270656D01*
X839064Y267330D01*
X839064Y269824D02*
X835738Y269824D01*
D12*
X411734Y380492D03*
D13*
X411861Y380746D03*
D14*
X385064Y381000D03*
D15*
X412496Y381000D03*
D16*
X385191Y381254D03*
D17*
X402590Y381254D03*
D15*
X413004Y381254D03*
D18*
X385445Y381508D03*
D19*
X402590Y381508D03*
D15*
X413258Y381508D03*
D20*
X385445Y381762D03*
D21*
X402463Y381762D03*
D15*
X413766Y381762D03*
D22*
X385699Y382016D03*
D23*
X402590Y382016D03*
D24*
X414147Y382016D03*
D25*
X385572Y382270D03*
D26*
X402463Y382270D03*
D15*
X414528Y382270D03*
D24*
X383413Y382524D03*
D14*
X387350Y382524D03*
D27*
X402463Y382524D03*
D15*
X414782Y382524D03*
D24*
X383413Y382778D03*
D28*
X387604Y382778D03*
D29*
X402463Y382778D03*
D24*
X415163Y382778D03*
X383667Y383032D03*
D15*
X387858Y383032D03*
D30*
X402463Y383032D03*
D24*
X415417Y383032D03*
D15*
X383794Y383286D03*
D24*
X387985Y383286D03*
D31*
X402336Y383286D03*
D15*
X415798Y383286D03*
X383794Y383540D03*
D12*
X387858Y383540D03*
D32*
X402336Y383540D03*
D15*
X416052Y383540D03*
X384048Y383794D03*
D24*
X387731Y383794D03*
D33*
X402463Y383794D03*
D24*
X416433Y383794D03*
D13*
X384175Y384048D03*
D24*
X387731Y384048D03*
D34*
X402336Y384048D03*
D24*
X416687Y384048D03*
D13*
X384429Y384302D03*
D24*
X387477Y384302D03*
D35*
X397002Y384302D03*
D36*
X408051Y384302D03*
D24*
X416941Y384302D03*
D13*
X384683Y384556D03*
D24*
X387477Y384556D03*
D19*
X395986Y384556D03*
D37*
X409067Y384556D03*
D24*
X417195Y384556D03*
D38*
X385826Y384810D03*
D39*
X395224Y384810D03*
D40*
X409702Y384810D03*
D24*
X417449Y384810D03*
D41*
X385953Y385064D03*
D42*
X394589Y385064D03*
X410337Y385064D03*
D24*
X417703Y385064D03*
D16*
X385953Y385318D03*
D25*
X394208Y385318D03*
X410718Y385318D03*
D24*
X417957Y385318D03*
D43*
X386080Y385572D03*
D44*
X393700Y385572D03*
X411226Y385572D03*
D24*
X417957Y385572D03*
D45*
X386207Y385826D03*
D20*
X393319Y385826D03*
X411607Y385826D03*
D24*
X418211Y385826D03*
D46*
X386461Y386080D03*
D20*
X393065Y386080D03*
X411861Y386080D03*
D24*
X418465Y386080D03*
D28*
X386588Y386334D03*
D47*
X392684Y386334D03*
X412242Y386334D03*
D24*
X418719Y386334D03*
D15*
X386588Y386588D03*
D18*
X392303Y386588D03*
D47*
X412496Y386588D03*
D24*
X418973Y386588D03*
D12*
X386588Y386842D03*
D18*
X392049Y386842D03*
D12*
X401066Y386842D03*
D18*
X412877Y386842D03*
D24*
X418973Y386842D03*
D48*
X386715Y387096D03*
D18*
X391795Y387096D03*
D24*
X400177Y387096D03*
D18*
X413131Y387096D03*
D24*
X419227Y387096D03*
D38*
X391414Y387350D03*
D24*
X399161Y387350D03*
D38*
X413512Y387350D03*
D24*
X419481Y387350D03*
D38*
X391160Y387604D03*
D12*
X398526Y387604D03*
D38*
X413766Y387604D03*
D24*
X419481Y387604D03*
D41*
X391033Y387858D03*
D12*
X398018Y387858D03*
D38*
X414020Y387858D03*
D24*
X419735Y387858D03*
D41*
X390779Y388112D03*
D12*
X397510Y388112D03*
D41*
X414147Y388112D03*
D24*
X419989Y388112D03*
D41*
X390525Y388366D03*
D12*
X397002Y388366D03*
D41*
X414401Y388366D03*
D24*
X419989Y388366D03*
D17*
X390398Y388620D03*
D12*
X396748Y388620D03*
D14*
X403860Y388620D03*
D41*
X414655Y388620D03*
D24*
X420243Y388620D03*
D17*
X390144Y388874D03*
D12*
X396240Y388874D03*
D22*
X403733Y388874D03*
D17*
X414782Y388874D03*
D24*
X420243Y388874D03*
D17*
X389890Y389128D03*
D12*
X395986Y389128D03*
D37*
X403733Y389128D03*
D17*
X415036Y389128D03*
D24*
X420497Y389128D03*
D17*
X389890Y389382D03*
D12*
X395732Y389382D03*
D49*
X403860Y389382D03*
D17*
X415290Y389382D03*
D24*
X420497Y389382D03*
D17*
X389636Y389636D03*
D12*
X395478Y389636D03*
D50*
X403733Y389636D03*
D16*
X415417Y389636D03*
D24*
X420751Y389636D03*
D17*
X389382Y389890D03*
D12*
X395224Y389890D03*
D51*
X403860Y389890D03*
D17*
X415544Y389890D03*
D24*
X420751Y389890D03*
D16*
X389255Y390144D03*
D12*
X394970Y390144D03*
D52*
X403733Y390144D03*
D16*
X415671Y390144D03*
D24*
X421005Y390144D03*
D17*
X389128Y390398D03*
D12*
X394716Y390398D03*
D26*
X403733Y390398D03*
D16*
X415925Y390398D03*
D24*
X421005Y390398D03*
D16*
X389001Y390652D03*
D24*
X394589Y390652D03*
D53*
X403733Y390652D03*
D17*
X416052Y390652D03*
D12*
X421132Y390652D03*
D16*
X388747Y390906D03*
D24*
X394335Y390906D03*
D54*
X403733Y390906D03*
D16*
X416179Y390906D03*
D24*
X421259Y390906D03*
D16*
X388747Y391160D03*
D24*
X394081Y391160D03*
D27*
X403733Y391160D03*
D16*
X416433Y391160D03*
D12*
X421386Y391160D03*
D16*
X388493Y391414D03*
D15*
X393954Y391414D03*
D55*
X403733Y391414D03*
D16*
X416433Y391414D03*
D24*
X421513Y391414D03*
D43*
X388366Y391668D03*
D24*
X393827Y391668D03*
D29*
X403733Y391668D03*
D43*
X416560Y391668D03*
D24*
X421513Y391668D03*
D43*
X388366Y391922D03*
D24*
X393573Y391922D03*
D56*
X403733Y391922D03*
D16*
X416687Y391922D03*
D12*
X421640Y391922D03*
D43*
X388112Y392176D03*
D15*
X393446Y392176D03*
D30*
X403733Y392176D03*
D43*
X416814Y392176D03*
D24*
X421767Y392176D03*
D43*
X388112Y392430D03*
D24*
X393319Y392430D03*
D57*
X404114Y392430D03*
D43*
X416814Y392430D03*
D24*
X421767Y392430D03*
D16*
X387985Y392684D03*
D15*
X393192Y392684D03*
D44*
X399288Y392684D03*
D58*
X408813Y392684D03*
D43*
X417068Y392684D03*
D12*
X421894Y392684D03*
D43*
X387858Y392938D03*
D24*
X393065Y392938D03*
D38*
X399034Y392938D03*
D42*
X409321Y392938D03*
D43*
X417068Y392938D03*
D12*
X421894Y392938D03*
D43*
X387858Y393192D03*
D15*
X392938Y393192D03*
D16*
X398907Y393192D03*
D22*
X409575Y393192D03*
D43*
X417068Y393192D03*
D24*
X422021Y393192D03*
D43*
X387604Y393446D03*
D15*
X392938Y393446D03*
D14*
X398780Y393446D03*
D44*
X409956Y393446D03*
D43*
X417322Y393446D03*
D24*
X422021Y393446D03*
D43*
X387604Y393700D03*
D15*
X392684Y393700D03*
D28*
X398780Y393700D03*
D44*
X410210Y393700D03*
D43*
X417322Y393700D03*
D12*
X422148Y393700D03*
D43*
X387604Y393954D03*
D15*
X392684Y393954D03*
X398780Y393954D03*
D20*
X410337Y393954D03*
D43*
X417322Y393954D03*
D12*
X422148Y393954D03*
D45*
X387477Y394208D03*
D13*
X392557Y394208D03*
D59*
X398907Y394208D03*
D47*
X410718Y394208D03*
D45*
X417449Y394208D03*
D24*
X422275Y394208D03*
D43*
X387350Y394462D03*
D15*
X392430Y394462D03*
D48*
X398907Y394462D03*
D18*
X410845Y394462D03*
D43*
X417576Y394462D03*
D24*
X422275Y394462D03*
D43*
X387350Y394716D03*
D15*
X392430Y394716D03*
D18*
X411099Y394716D03*
D43*
X417576Y394716D03*
D24*
X422275Y394716D03*
D43*
X387350Y394970D03*
D13*
X392303Y394970D03*
D18*
X411099Y394970D03*
D43*
X417576Y394970D03*
D12*
X422402Y394970D03*
D45*
X387223Y395224D03*
D13*
X392303Y395224D03*
D18*
X411353Y395224D03*
D45*
X417703Y395224D03*
D12*
X422402Y395224D03*
D45*
X387223Y395478D03*
D13*
X392303Y395478D03*
D38*
X411480Y395478D03*
D45*
X417703Y395478D03*
D12*
X422402Y395478D03*
D45*
X387223Y395732D03*
D15*
X392176Y395732D03*
D38*
X411480Y395732D03*
D43*
X417830Y395732D03*
D24*
X422529Y395732D03*
D43*
X387096Y395986D03*
D13*
X392049Y395986D03*
D38*
X411734Y395986D03*
D43*
X417830Y395986D03*
D24*
X422529Y395986D03*
D43*
X387096Y396240D03*
D13*
X392049Y396240D03*
D41*
X411861Y396240D03*
D43*
X417830Y396240D03*
D24*
X422529Y396240D03*
D43*
X387096Y396494D03*
D13*
X392049Y396494D03*
D41*
X411861Y396494D03*
D43*
X417830Y396494D03*
D24*
X422529Y396494D03*
D45*
X386969Y396748D03*
D13*
X392049Y396748D03*
D38*
X411988Y396748D03*
D45*
X417957Y396748D03*
D24*
X422529Y396748D03*
D45*
X386969Y397002D03*
D13*
X392049Y397002D03*
D41*
X412115Y397002D03*
D45*
X417957Y397002D03*
D24*
X422529Y397002D03*
D45*
X386969Y397256D03*
D13*
X392049Y397256D03*
D41*
X412115Y397256D03*
D45*
X417957Y397256D03*
D12*
X422656Y397256D03*
D45*
X386969Y397510D03*
D13*
X392049Y397510D03*
D41*
X412115Y397510D03*
D45*
X417957Y397510D03*
D12*
X422656Y397510D03*
D45*
X386969Y397764D03*
D13*
X392049Y397764D03*
D41*
X412115Y397764D03*
D45*
X417957Y397764D03*
D12*
X422656Y397764D03*
D45*
X386969Y398018D03*
D13*
X392049Y398018D03*
D17*
X412242Y398018D03*
D45*
X417957Y398018D03*
D12*
X422656Y398018D03*
D45*
X386969Y398272D03*
D13*
X392049Y398272D03*
D17*
X412242Y398272D03*
D45*
X417957Y398272D03*
D12*
X422656Y398272D03*
D45*
X386969Y398526D03*
D13*
X392049Y398526D03*
D17*
X412242Y398526D03*
D45*
X417957Y398526D03*
D12*
X422656Y398526D03*
D45*
X386969Y398780D03*
D28*
X392176Y398780D03*
D17*
X412242Y398780D03*
D45*
X417957Y398780D03*
D12*
X422656Y398780D03*
D45*
X386969Y399034D03*
D28*
X392176Y399034D03*
D17*
X412242Y399034D03*
D45*
X417957Y399034D03*
D12*
X422656Y399034D03*
D45*
X386969Y399288D03*
D28*
X392176Y399288D03*
D17*
X412242Y399288D03*
D45*
X417957Y399288D03*
D24*
X422529Y399288D03*
D43*
X387096Y399542D03*
D28*
X392176Y399542D03*
D17*
X412242Y399542D03*
D45*
X417957Y399542D03*
D24*
X422529Y399542D03*
D43*
X387096Y399796D03*
D28*
X392176Y399796D03*
D17*
X412242Y399796D03*
D45*
X417957Y399796D03*
D24*
X422529Y399796D03*
D45*
X387223Y400050D03*
D28*
X392176Y400050D03*
D41*
X412115Y400050D03*
D43*
X417830Y400050D03*
D24*
X422529Y400050D03*
D45*
X387223Y400304D03*
D28*
X392430Y400304D03*
D41*
X412115Y400304D03*
D43*
X417830Y400304D03*
D24*
X422529Y400304D03*
D45*
X387223Y400558D03*
D28*
X392430Y400558D03*
D41*
X412115Y400558D03*
D43*
X417830Y400558D03*
D12*
X422402Y400558D03*
D45*
X387223Y400812D03*
D28*
X392430Y400812D03*
D41*
X412115Y400812D03*
D43*
X417830Y400812D03*
D12*
X422402Y400812D03*
D45*
X387223Y401066D03*
D46*
X392557Y401066D03*
D41*
X412115Y401066D03*
D45*
X417703Y401066D03*
D12*
X422402Y401066D03*
D43*
X387350Y401320D03*
D46*
X392557Y401320D03*
D38*
X411988Y401320D03*
D45*
X417703Y401320D03*
D12*
X422402Y401320D03*
D43*
X387350Y401574D03*
D28*
X392684Y401574D03*
D41*
X411861Y401574D03*
D43*
X417576Y401574D03*
D24*
X422275Y401574D03*
D45*
X387477Y401828D03*
D46*
X392811Y401828D03*
D38*
X411734Y401828D03*
D43*
X417576Y401828D03*
D24*
X422275Y401828D03*
D45*
X387477Y402082D03*
D46*
X392811Y402082D03*
D38*
X411734Y402082D03*
D43*
X417576Y402082D03*
D12*
X422148Y402082D03*
D43*
X387604Y402336D03*
D46*
X393065Y402336D03*
D38*
X411480Y402336D03*
D45*
X417449Y402336D03*
D12*
X422148Y402336D03*
D43*
X387604Y402590D03*
D46*
X393065Y402590D03*
D38*
X411480Y402590D03*
D43*
X417322Y402590D03*
D12*
X422148Y402590D03*
D45*
X387731Y402844D03*
D46*
X393319Y402844D03*
D18*
X411353Y402844D03*
D43*
X417322Y402844D03*
D24*
X422021Y402844D03*
D43*
X387858Y403098D03*
D46*
X393319Y403098D03*
D18*
X411099Y403098D03*
D16*
X417195Y403098D03*
D12*
X421894Y403098D03*
D43*
X387858Y403352D03*
D46*
X393573Y403352D03*
D47*
X410972Y403352D03*
D43*
X417068Y403352D03*
D12*
X421894Y403352D03*
D45*
X387985Y403606D03*
D46*
X393573Y403606D03*
D18*
X410845Y403606D03*
D43*
X417068Y403606D03*
D12*
X421894Y403606D03*
D43*
X388112Y403860D03*
D46*
X393827Y403860D03*
D47*
X410718Y403860D03*
D16*
X416941Y403860D03*
D24*
X421767Y403860D03*
D43*
X388112Y404114D03*
D14*
X393954Y404114D03*
D47*
X410464Y404114D03*
D43*
X416814Y404114D03*
D12*
X421640Y404114D03*
D43*
X388366Y404368D03*
D14*
X394208Y404368D03*
D20*
X410337Y404368D03*
D16*
X416687Y404368D03*
D12*
X421640Y404368D03*
D43*
X388366Y404622D03*
D14*
X394208Y404622D03*
D20*
X410083Y404622D03*
D43*
X416560Y404622D03*
D24*
X421513Y404622D03*
D16*
X388493Y404876D03*
D14*
X394462Y404876D03*
D20*
X409829Y404876D03*
D16*
X416433Y404876D03*
D12*
X421386Y404876D03*
D43*
X388620Y405130D03*
D14*
X394716Y405130D03*
D44*
X409702Y405130D03*
D43*
X416306Y405130D03*
D12*
X421386Y405130D03*
D16*
X388747Y405384D03*
D14*
X394970Y405384D03*
D44*
X409448Y405384D03*
D16*
X416179Y405384D03*
D12*
X421132Y405384D03*
D16*
X389001Y405638D03*
D14*
X395224Y405638D03*
D44*
X409194Y405638D03*
D16*
X415925Y405638D03*
D12*
X421132Y405638D03*
D16*
X389001Y405892D03*
D43*
X395478Y405892D03*
D44*
X408940Y405892D03*
D16*
X415925Y405892D03*
D24*
X421005Y405892D03*
D16*
X389255Y406146D03*
D43*
X395732Y406146D03*
D20*
X408813Y406146D03*
D16*
X415671Y406146D03*
D12*
X420878Y406146D03*
D17*
X389382Y406400D03*
D43*
X395986Y406400D03*
D20*
X408559Y406400D03*
D17*
X415544Y406400D03*
D24*
X420751Y406400D03*
D16*
X389509Y406654D03*
D45*
X396367Y406654D03*
D44*
X408432Y406654D03*
D17*
X415290Y406654D03*
D12*
X420624Y406654D03*
D17*
X389636Y406908D03*
D43*
X396748Y406908D03*
D44*
X408178Y406908D03*
D17*
X415290Y406908D03*
D24*
X420497Y406908D03*
D17*
X389890Y407162D03*
D43*
X397002Y407162D03*
D44*
X407924Y407162D03*
D17*
X415036Y407162D03*
D12*
X420370Y407162D03*
D17*
X390144Y407416D03*
D16*
X397383Y407416D03*
D44*
X407670Y407416D03*
D17*
X414782Y407416D03*
D24*
X420243Y407416D03*
D41*
X390271Y407670D03*
D16*
X397891Y407670D03*
D44*
X407416Y407670D03*
D41*
X414655Y407670D03*
D12*
X420116Y407670D03*
D41*
X390525Y407924D03*
D17*
X398272Y407924D03*
D44*
X407162Y407924D03*
D17*
X414528Y407924D03*
D12*
X419862Y407924D03*
D41*
X390779Y408178D03*
X398907Y408178D03*
D44*
X406908Y408178D03*
D17*
X414274Y408178D03*
D12*
X419862Y408178D03*
D41*
X391033Y408432D03*
D47*
X399542Y408432D03*
D44*
X406654Y408432D03*
D17*
X414020Y408432D03*
D12*
X419608Y408432D03*
D38*
X391160Y408686D03*
D25*
X400558Y408686D03*
D44*
X406400Y408686D03*
D41*
X413893Y408686D03*
D24*
X419481Y408686D03*
D38*
X391414Y408940D03*
D51*
X403606Y408940D03*
D17*
X413766Y408940D03*
D12*
X419354Y408940D03*
D18*
X391795Y409194D03*
D50*
X403733Y409194D03*
D17*
X413512Y409194D03*
D12*
X419100Y409194D03*
D18*
X392049Y409448D03*
D49*
X404114Y409448D03*
D17*
X413258Y409448D03*
D12*
X418846Y409448D03*
D18*
X392303Y409702D03*
D59*
X402209Y409702D03*
D44*
X405638Y409702D03*
D17*
X413004Y409702D03*
D12*
X418846Y409702D03*
D47*
X392684Y409956D03*
D44*
X405384Y409956D03*
D16*
X412877Y409956D03*
D12*
X418592Y409956D03*
D20*
X393065Y410210D03*
D44*
X405130Y410210D03*
D16*
X412623Y410210D03*
D12*
X418338Y410210D03*
D20*
X393319Y410464D03*
D44*
X404876Y410464D03*
D17*
X412496Y410464D03*
D12*
X418084Y410464D03*
D44*
X393700Y410718D03*
X404622Y410718D03*
D17*
X412242Y410718D03*
D12*
X418084Y410718D03*
D22*
X394081Y410972D03*
D44*
X404368Y410972D03*
D16*
X412115Y410972D03*
D12*
X417830Y410972D03*
D42*
X394589Y411226D03*
D20*
X404241Y411226D03*
D16*
X411861Y411226D03*
D12*
X417576Y411226D03*
D58*
X395097Y411480D03*
D20*
X403987Y411480D03*
D16*
X411607Y411480D03*
D12*
X417322Y411480D03*
D39*
X395732Y411734D03*
D20*
X403733Y411734D03*
D16*
X411353Y411734D03*
D12*
X417068Y411734D03*
D60*
X396621Y411988D03*
D20*
X403479Y411988D03*
D17*
X411226Y411988D03*
D12*
X416814Y411988D03*
D61*
X399288Y412242D03*
D16*
X411099Y412242D03*
D12*
X416560Y412242D03*
D62*
X399542Y412496D03*
D16*
X410845Y412496D03*
D12*
X416306Y412496D03*
D63*
X399542Y412750D03*
D16*
X410591Y412750D03*
D12*
X416052Y412750D03*
D52*
X399669Y413004D03*
D43*
X410464Y413004D03*
D12*
X415798Y413004D03*
D64*
X423164Y413004D03*
D65*
X399923Y413258D03*
D43*
X410210Y413258D03*
D12*
X415290Y413258D03*
D64*
X419100Y413258D03*
D12*
X423164Y413258D03*
D66*
X400050Y413512D03*
D45*
X410083Y413512D03*
D12*
X419100Y413512D03*
D24*
X423291Y413512D03*
D21*
X400177Y413766D03*
D43*
X409956Y413766D03*
D24*
X419227Y413766D03*
D15*
X423164Y413766D03*
D49*
X400304Y414020D03*
D43*
X409702Y414020D03*
D24*
X419227Y414020D03*
D15*
X423164Y414020D03*
D19*
X400558Y414274D03*
D45*
X409575Y414274D03*
D24*
X419227Y414274D03*
D15*
X423418Y414274D03*
D40*
X400812Y414528D03*
D45*
X409321Y414528D03*
D15*
X419354Y414528D03*
X423418Y414528D03*
D22*
X401193Y414782D03*
D45*
X409067Y414782D03*
D14*
X418846Y414782D03*
D15*
X423418Y414782D03*
D38*
X401574Y415036D03*
D45*
X408813Y415036D03*
D18*
X419481Y415036D03*
D13*
X423545Y415036D03*
D38*
X401574Y415290D03*
D45*
X408813Y415290D03*
D47*
X419608Y415290D03*
D15*
X423672Y415290D03*
D41*
X401447Y415544D03*
D45*
X408559Y415544D03*
D47*
X419608Y415544D03*
D15*
X423672Y415544D03*
D38*
X401320Y415798D03*
D14*
X408432Y415798D03*
D38*
X419354Y415798D03*
D15*
X423672Y415798D03*
D41*
X401193Y416052D03*
D14*
X408178Y416052D03*
D43*
X419608Y416052D03*
D15*
X423926Y416052D03*
D41*
X401193Y416306D03*
D14*
X408178Y416306D03*
D15*
X419608Y416306D03*
X423926Y416306D03*
D41*
X401193Y416560D03*
D14*
X407924Y416560D03*
D24*
X419735Y416560D03*
D15*
X423926Y416560D03*
D17*
X401066Y416814D03*
D14*
X407924Y416814D03*
D24*
X419735Y416814D03*
X424053Y416814D03*
D41*
X400939Y417068D03*
D46*
X407797Y417068D03*
D12*
X419862Y417068D03*
D24*
X424053Y417068D03*
D41*
X400939Y417322D03*
D14*
X407670Y417322D03*
D12*
X419862Y417322D03*
D24*
X424053Y417322D03*
D41*
X400939Y417576D03*
D14*
X407670Y417576D03*
D64*
X419862Y417576D03*
D24*
X424053Y417576D03*
D41*
X400939Y417830D03*
D14*
X407670Y417830D03*
D48*
X419989Y417830D03*
D15*
X423926Y417830D03*
D17*
X400812Y418084D03*
D14*
X407416Y418084D03*
D15*
X423926Y418084D03*
D17*
X400812Y418338D03*
D14*
X407416Y418338D03*
D24*
X423799Y418338D03*
D17*
X400812Y418592D03*
D14*
X407416Y418592D03*
D24*
X423799Y418592D03*
D17*
X400812Y418846D03*
D14*
X407416Y418846D03*
D24*
X423799Y418846D03*
D17*
X400812Y419100D03*
D14*
X407416Y419100D03*
D12*
X423672Y419100D03*
D17*
X400812Y419354D03*
D14*
X407416Y419354D03*
D59*
X423545Y419354D03*
D17*
X400812Y419608D03*
D45*
X407543Y419608D03*
D67*
X423418Y419608D03*
D17*
X400812Y419862D03*
D45*
X407543Y419862D03*
D17*
X400812Y420116D03*
D45*
X407543Y420116D03*
D17*
X400812Y420370D03*
D45*
X407543Y420370D03*
D17*
X400812Y420624D03*
D45*
X407543Y420624D03*
D41*
X400939Y420878D03*
D45*
X407797Y420878D03*
D41*
X400939Y421132D03*
D45*
X407797Y421132D03*
D41*
X400939Y421386D03*
D45*
X407797Y421386D03*
D41*
X400939Y421640D03*
D45*
X408051Y421640D03*
D41*
X401193Y421894D03*
D43*
X408178Y421894D03*
D41*
X401193Y422148D03*
D45*
X408305Y422148D03*
D41*
X401193Y422402D03*
D45*
X408559Y422402D03*
D38*
X401320Y422656D03*
D45*
X408813Y422656D03*
D41*
X401447Y422910D03*
D45*
X409067Y422910D03*
D38*
X401574Y423164D03*
D43*
X409448Y423164D03*
D38*
X401574Y423418D03*
D43*
X409702Y423418D03*
D38*
X401828Y423672D03*
D43*
X410210Y423672D03*
D38*
X401828Y423926D03*
D17*
X410972Y423926D03*
D18*
X401955Y424180D03*
D45*
X411353Y424180D03*
D15*
X415036Y424180D03*
D18*
X402209Y424434D03*
D15*
X415036Y424434D03*
D47*
X402336Y424688D03*
D15*
X415036Y424688D03*
D47*
X402590Y424942D03*
D15*
X415036Y424942D03*
D20*
X402717Y425196D03*
D15*
X415036Y425196D03*
D20*
X402971Y425450D03*
D15*
X415036Y425450D03*
D20*
X403225Y425704D03*
D15*
X415036Y425704D03*
D44*
X403352Y425958D03*
D15*
X415036Y425958D03*
D22*
X403733Y426212D03*
D15*
X415036Y426212D03*
D22*
X403987Y426466D03*
D15*
X415036Y426466D03*
D42*
X404241Y426720D03*
D15*
X415036Y426720D03*
D58*
X404749Y426974D03*
D15*
X415036Y426974D03*
D37*
X405257Y427228D03*
D15*
X415036Y427228D03*
D68*
X405892Y427482D03*
D15*
X415036Y427482D03*
D21*
X406781Y427736D03*
D15*
X415036Y427736D03*
D35*
X406908Y427990D03*
D15*
X415036Y427990D03*
D36*
X407035Y428244D03*
D15*
X415036Y428244D03*
D49*
X407162Y428498D03*
D15*
X415036Y428498D03*
D60*
X407289Y428752D03*
D15*
X415036Y428752D03*
D69*
X407543Y429006D03*
D15*
X415036Y429006D03*
D19*
X407670Y429260D03*
D15*
X415036Y429260D03*
D39*
X407924Y429514D03*
D15*
X415036Y429514D03*
D58*
X408051Y429768D03*
D15*
X415036Y429768D03*
D42*
X408305Y430022D03*
D15*
X415036Y430022D03*
D22*
X408559Y430276D03*
D15*
X415036Y430276D03*
D20*
X408813Y430530D03*
D15*
X415036Y430530D03*
D38*
X409194Y430784D03*
D15*
X415036Y430784D03*
D16*
X409575Y431038D03*
D15*
X415036Y431038D03*
D46*
X410083Y431292D03*
D15*
X415036Y431292D03*
D11*
X545338Y442810D02*
X547033Y444504D01*
X547033Y439420D01*
X545338Y439420D02*
X548728Y439420D01*
X550951Y439420D02*
X554341Y439420D01*
X550951Y439420D02*
X554341Y442810D01*
X554341Y443657D01*
X553493Y444504D01*
X551798Y444504D01*
X550951Y443657D01*
X556564Y444504D02*
X556564Y441115D01*
X558259Y439420D01*
X559954Y441115D01*
X559954Y444504D01*
X562177Y444504D02*
X562177Y439420D01*
X564719Y439420D01*
X565567Y440267D01*
X565567Y443657D01*
X564719Y444504D01*
X562177Y444504D01*
X570333Y444504D02*
X571180Y443657D01*
X570333Y444504D02*
X568638Y444504D01*
X567790Y443657D01*
X567790Y440267D01*
X568638Y439420D01*
X570333Y439420D01*
X571180Y440267D01*
X516978Y443657D02*
X516130Y444504D01*
X514435Y444504D01*
X513588Y443657D01*
X513588Y440267D01*
X514435Y439420D01*
X516130Y439420D01*
X516978Y440267D01*
X516978Y441962D01*
X515283Y441962D01*
X519201Y439420D02*
X519201Y444504D01*
X522591Y439420D01*
X522591Y444504D01*
X524814Y444504D02*
X524814Y439420D01*
X527356Y439420D01*
X528204Y440267D01*
X528204Y443657D01*
X527356Y444504D01*
X524814Y444504D01*
X684819Y444504D02*
X686514Y444504D01*
X684819Y444504D02*
X683972Y443657D01*
X683972Y440267D01*
X684819Y439420D01*
X686514Y439420D01*
X687361Y440267D01*
X687361Y443657D01*
X686514Y444504D01*
X689585Y444504D02*
X689585Y440267D01*
X690432Y439420D01*
X692127Y439420D01*
X692974Y440267D01*
X692974Y444504D01*
X696893Y444504D02*
X696893Y439420D01*
X695198Y444504D02*
X698588Y444504D01*
X700811Y443657D02*
X701658Y444504D01*
X703353Y444504D01*
X704201Y443657D01*
X704201Y442810D01*
X703353Y441962D01*
X702506Y441962D01*
X703353Y441962D02*
X704201Y441115D01*
X704201Y440267D01*
X703353Y439420D01*
X701658Y439420D01*
X700811Y440267D01*
X749944Y439420D02*
X751639Y439420D01*
X750791Y439420D02*
X750791Y444504D01*
X749944Y444504D02*
X751639Y444504D01*
X753686Y444504D02*
X753686Y439420D01*
X757075Y439420D02*
X753686Y444504D01*
X757075Y444504D02*
X757075Y439420D01*
X759299Y442810D02*
X760994Y444504D01*
X760994Y439420D01*
X759299Y439420D02*
X762689Y439420D01*
X788044Y439420D02*
X789739Y439420D01*
X788891Y439420D02*
X788891Y444504D01*
X788044Y444504D02*
X789739Y444504D01*
X791786Y444504D02*
X791786Y439420D01*
X795175Y439420D02*
X791786Y444504D01*
X795175Y444504D02*
X795175Y439420D01*
X797399Y439420D02*
X800789Y439420D01*
X797399Y439420D02*
X800789Y442810D01*
X800789Y443657D01*
X799941Y444504D01*
X798246Y444504D01*
X797399Y443657D01*
X826144Y439420D02*
X827839Y439420D01*
X826991Y439420D02*
X826991Y444504D01*
X826144Y444504D02*
X827839Y444504D01*
X829886Y444504D02*
X829886Y439420D01*
X833275Y439420D02*
X829886Y444504D01*
X833275Y444504D02*
X833275Y439420D01*
X835499Y443657D02*
X836346Y444504D01*
X838041Y444504D01*
X838889Y443657D01*
X838889Y442810D01*
X838041Y441962D01*
X837194Y441962D01*
X838041Y441962D02*
X838889Y441115D01*
X838889Y440267D01*
X838041Y439420D01*
X836346Y439420D01*
X835499Y440267D01*
X648414Y444504D02*
X646719Y444504D01*
X645872Y443657D01*
X645872Y440267D01*
X646719Y439420D01*
X648414Y439420D01*
X649261Y440267D01*
X649261Y443657D01*
X648414Y444504D01*
X651485Y444504D02*
X651485Y440267D01*
X652332Y439420D01*
X654027Y439420D01*
X654874Y440267D01*
X654874Y444504D01*
X658793Y444504D02*
X658793Y439420D01*
X657098Y444504D02*
X660488Y444504D01*
X662711Y439420D02*
X666101Y439420D01*
X662711Y439420D02*
X666101Y442810D01*
X666101Y443657D01*
X665253Y444504D01*
X663558Y444504D01*
X662711Y443657D01*
X610314Y444504D02*
X608619Y444504D01*
X607772Y443657D01*
X607772Y440267D01*
X608619Y439420D01*
X610314Y439420D01*
X611161Y440267D01*
X611161Y443657D01*
X610314Y444504D01*
X613385Y444504D02*
X613385Y440267D01*
X614232Y439420D01*
X615927Y439420D01*
X616774Y440267D01*
X616774Y444504D01*
X620693Y444504D02*
X620693Y439420D01*
X618998Y444504D02*
X622388Y444504D01*
X624611Y442810D02*
X626306Y444504D01*
X626306Y439420D01*
X624611Y439420D02*
X628001Y439420D01*
X379303Y435185D02*
X378456Y436032D01*
X378456Y437727D01*
X379303Y438575D01*
X380150Y438575D01*
X380998Y437727D01*
X380998Y436880D01*
X380998Y437727D02*
X381845Y438575D01*
X382693Y438575D01*
X383540Y437727D01*
X383540Y436032D01*
X382693Y435185D01*
X382693Y440798D02*
X383540Y440798D01*
X382693Y440798D02*
X382693Y441646D01*
X383540Y441646D01*
X383540Y440798D01*
X379303Y443605D02*
X378456Y444452D01*
X378456Y446147D01*
X379303Y446994D01*
X380150Y446994D01*
X380998Y446147D01*
X380998Y445299D01*
X380998Y446147D02*
X381845Y446994D01*
X382693Y446994D01*
X383540Y446147D01*
X383540Y444452D01*
X382693Y443605D01*
X381845Y449218D02*
X378456Y449218D01*
X381845Y449218D02*
X383540Y450913D01*
X381845Y452607D01*
X378456Y452607D01*
X398776Y439130D02*
X399623Y439978D01*
X398776Y439130D02*
X398776Y437436D01*
X399623Y436588D01*
X400470Y436588D01*
X401318Y437436D01*
X401318Y439130D01*
X402165Y439978D01*
X403013Y439978D01*
X403860Y439130D01*
X403860Y437436D01*
X403013Y436588D01*
X403860Y442201D02*
X398776Y442201D01*
X403860Y442201D02*
X403860Y444744D01*
X403013Y445591D01*
X399623Y445591D01*
X398776Y444744D01*
X398776Y442201D01*
X400470Y447815D02*
X403860Y447815D01*
X400470Y447815D02*
X398776Y449509D01*
X400470Y451204D01*
X403860Y451204D01*
X401318Y451204D02*
X401318Y447815D01*
X419096Y439130D02*
X419943Y439978D01*
X419096Y439130D02*
X419096Y437436D01*
X419943Y436588D01*
X420790Y436588D01*
X421638Y437436D01*
X421638Y439130D01*
X422485Y439978D01*
X423333Y439978D01*
X424180Y439130D01*
X424180Y437436D01*
X423333Y436588D01*
X419096Y444744D02*
X419943Y445591D01*
X419096Y444744D02*
X419096Y443049D01*
X419943Y442201D01*
X423333Y442201D01*
X424180Y443049D01*
X424180Y444744D01*
X423333Y445591D01*
X424180Y447815D02*
X419096Y447815D01*
X424180Y447815D02*
X424180Y451204D01*
X440400Y439424D02*
X441248Y438577D01*
X440400Y439424D02*
X438706Y439424D01*
X437858Y438577D01*
X437858Y435187D01*
X438706Y434340D01*
X440400Y434340D01*
X441248Y435187D01*
X441248Y436882D01*
X439553Y436882D01*
X443471Y434340D02*
X443471Y439424D01*
X446861Y434340D01*
X446861Y439424D01*
X449085Y439424D02*
X449085Y434340D01*
X451627Y434340D01*
X452474Y435187D01*
X452474Y438577D01*
X451627Y439424D01*
X449085Y439424D01*
D10*
X206127Y437079D02*
X199517Y437079D01*
X199517Y427165D01*
X206127Y427165D01*
X202822Y432122D02*
X199517Y432122D01*
X216168Y437079D02*
X217821Y435427D01*
X216168Y437079D02*
X212863Y437079D01*
X211211Y435427D01*
X211211Y433774D01*
X212863Y432122D01*
X216168Y432122D01*
X217821Y430469D01*
X217821Y428817D01*
X216168Y427165D01*
X212863Y427165D01*
X211211Y428817D01*
X222905Y427165D02*
X222905Y437079D01*
X227862Y437079D01*
X229515Y435427D01*
X229515Y432122D01*
X227862Y430469D01*
X222905Y430469D01*
X234599Y435427D02*
X236251Y437079D01*
X239556Y437079D01*
X241209Y435427D01*
X241209Y433774D01*
X239556Y432122D01*
X237904Y432122D01*
X239556Y432122D02*
X241209Y430469D01*
X241209Y428817D01*
X239556Y427165D01*
X236251Y427165D01*
X234599Y428817D01*
X246293Y427165D02*
X252903Y427165D01*
X252903Y433774D02*
X246293Y427165D01*
X252903Y433774D02*
X252903Y435427D01*
X251250Y437079D01*
X247945Y437079D01*
X246293Y435427D01*
X257987Y425512D02*
X264596Y425512D01*
X269681Y427165D02*
X269681Y437079D01*
X269681Y427165D02*
X276290Y427165D01*
X283027Y437079D02*
X286332Y437079D01*
X283027Y437079D02*
X281375Y435427D01*
X281375Y428817D01*
X283027Y427165D01*
X286332Y427165D01*
X287984Y428817D01*
X287984Y435427D01*
X286332Y437079D01*
X298026Y437079D02*
X299678Y435427D01*
X298026Y437079D02*
X294721Y437079D01*
X293069Y435427D01*
X293069Y428817D01*
X294721Y427165D01*
X298026Y427165D01*
X299678Y428817D01*
X299678Y432122D01*
X296374Y432122D01*
X309720Y437079D02*
X311372Y435427D01*
X309720Y437079D02*
X306415Y437079D01*
X304763Y435427D01*
X304763Y428817D01*
X306415Y427165D01*
X309720Y427165D01*
X311372Y428817D01*
X311372Y432122D01*
X308068Y432122D01*
X316457Y427165D02*
X319762Y427165D01*
X318109Y427165D02*
X318109Y437079D01*
X316457Y437079D02*
X319762Y437079D01*
X324253Y437079D02*
X324253Y427165D01*
X330862Y427165D02*
X324253Y437079D01*
X330862Y437079D02*
X330862Y427165D01*
X340904Y437079D02*
X342556Y435427D01*
X340904Y437079D02*
X337599Y437079D01*
X335947Y435427D01*
X335947Y428817D01*
X337599Y427165D01*
X340904Y427165D01*
X342556Y428817D01*
X342556Y432122D01*
X339251Y432122D01*
X306712Y417899D02*
X310017Y411290D01*
X313322Y417899D01*
X318406Y417899D02*
X321711Y421204D01*
X321711Y411290D01*
X318406Y411290D02*
X325016Y411290D01*
X330100Y411290D02*
X330100Y412942D01*
X331752Y412942D01*
X331752Y411290D01*
X330100Y411290D01*
X335947Y412942D02*
X335947Y419552D01*
X337599Y421204D01*
X340904Y421204D01*
X342556Y419552D01*
X342556Y412942D01*
X340904Y411290D01*
X337599Y411290D01*
X335947Y412942D01*
X342556Y419552D01*
D11*
X431375Y354757D02*
X432222Y355604D01*
X433917Y355604D01*
X434765Y354757D01*
X434765Y353910D01*
X433917Y353062D01*
X433070Y353062D01*
X433917Y353062D02*
X434765Y352215D01*
X434765Y351367D01*
X433917Y350520D01*
X432222Y350520D01*
X431375Y351367D01*
X436988Y351367D02*
X436988Y350520D01*
X436988Y351367D02*
X437836Y351367D01*
X437836Y350520D01*
X436988Y350520D01*
X439795Y354757D02*
X440642Y355604D01*
X442337Y355604D01*
X443184Y354757D01*
X443184Y353910D01*
X442337Y353062D01*
X441489Y353062D01*
X442337Y353062D02*
X443184Y352215D01*
X443184Y351367D01*
X442337Y350520D01*
X440642Y350520D01*
X439795Y351367D01*
X445408Y352215D02*
X445408Y355604D01*
X445408Y352215D02*
X447103Y350520D01*
X448797Y352215D01*
X448797Y355604D01*
X463950Y355604D02*
X463950Y350520D01*
X465644Y355604D02*
X462255Y355604D01*
X467868Y355604D02*
X471258Y350520D01*
X467868Y350520D02*
X471258Y355604D01*
X486385Y355604D02*
X486385Y350520D01*
X486385Y355604D02*
X488927Y355604D01*
X489774Y354757D01*
X489774Y353062D01*
X488927Y352215D01*
X486385Y352215D01*
X488080Y352215D02*
X489774Y350520D01*
X491998Y355604D02*
X495388Y350520D01*
X491998Y350520D02*
X495388Y355604D01*
X511521Y355604D02*
X512368Y354757D01*
X511521Y355604D02*
X509826Y355604D01*
X508978Y354757D01*
X508978Y351367D01*
X509826Y350520D01*
X511521Y350520D01*
X512368Y351367D01*
X512368Y353062D01*
X510673Y353062D01*
X514591Y350520D02*
X514591Y355604D01*
X517981Y350520D01*
X517981Y355604D01*
X520205Y355604D02*
X520205Y350520D01*
X522747Y350520D01*
X523594Y351367D01*
X523594Y354757D01*
X522747Y355604D01*
X520205Y355604D01*
D70*
X638160Y170940D02*
X638160Y138940D01*
X638160Y170940D02*
X652160Y170940D01*
X652160Y138940D01*
X638160Y138940D01*
D11*
X641394Y176325D02*
X642225Y177156D01*
X641394Y176325D02*
X641394Y174662D01*
X642225Y173831D01*
X645551Y173831D01*
X646382Y174662D01*
X646382Y176325D01*
X645551Y177156D01*
X643057Y179356D02*
X641394Y181018D01*
X646382Y181018D01*
X646382Y179356D02*
X646382Y182681D01*
X646382Y187374D02*
X641394Y187374D01*
X643888Y184880D01*
X643888Y188206D01*
D71*
X609430Y291180D02*
X609430Y297680D01*
X584930Y297680D01*
X453930Y297680D02*
X429430Y297680D01*
X429430Y291180D01*
X609430Y107680D02*
X609430Y42680D01*
X429430Y42680D01*
X429430Y107680D01*
D72*
X618430Y117680D02*
X618432Y117743D01*
X618438Y117805D01*
X618448Y117867D01*
X618461Y117929D01*
X618479Y117989D01*
X618500Y118048D01*
X618525Y118106D01*
X618554Y118162D01*
X618586Y118216D01*
X618621Y118268D01*
X618659Y118317D01*
X618701Y118365D01*
X618745Y118409D01*
X618793Y118451D01*
X618842Y118489D01*
X618894Y118524D01*
X618948Y118556D01*
X619004Y118585D01*
X619062Y118610D01*
X619121Y118631D01*
X619181Y118649D01*
X619243Y118662D01*
X619305Y118672D01*
X619367Y118678D01*
X619430Y118680D01*
X619493Y118678D01*
X619555Y118672D01*
X619617Y118662D01*
X619679Y118649D01*
X619739Y118631D01*
X619798Y118610D01*
X619856Y118585D01*
X619912Y118556D01*
X619966Y118524D01*
X620018Y118489D01*
X620067Y118451D01*
X620115Y118409D01*
X620159Y118365D01*
X620201Y118317D01*
X620239Y118268D01*
X620274Y118216D01*
X620306Y118162D01*
X620335Y118106D01*
X620360Y118048D01*
X620381Y117989D01*
X620399Y117929D01*
X620412Y117867D01*
X620422Y117805D01*
X620428Y117743D01*
X620430Y117680D01*
X620428Y117617D01*
X620422Y117555D01*
X620412Y117493D01*
X620399Y117431D01*
X620381Y117371D01*
X620360Y117312D01*
X620335Y117254D01*
X620306Y117198D01*
X620274Y117144D01*
X620239Y117092D01*
X620201Y117043D01*
X620159Y116995D01*
X620115Y116951D01*
X620067Y116909D01*
X620018Y116871D01*
X619966Y116836D01*
X619912Y116804D01*
X619856Y116775D01*
X619798Y116750D01*
X619739Y116729D01*
X619679Y116711D01*
X619617Y116698D01*
X619555Y116688D01*
X619493Y116682D01*
X619430Y116680D01*
X619367Y116682D01*
X619305Y116688D01*
X619243Y116698D01*
X619181Y116711D01*
X619121Y116729D01*
X619062Y116750D01*
X619004Y116775D01*
X618948Y116804D01*
X618894Y116836D01*
X618842Y116871D01*
X618793Y116909D01*
X618745Y116951D01*
X618701Y116995D01*
X618659Y117043D01*
X618621Y117092D01*
X618586Y117144D01*
X618554Y117198D01*
X618525Y117254D01*
X618500Y117312D01*
X618479Y117371D01*
X618461Y117431D01*
X618448Y117493D01*
X618438Y117555D01*
X618432Y117617D01*
X618430Y117680D01*
D11*
X618144Y48350D02*
X618144Y45024D01*
X623132Y45024D01*
X623132Y48350D01*
X620638Y46687D02*
X620638Y45024D01*
X618144Y53043D02*
X618975Y53875D01*
X618144Y53043D02*
X618144Y51381D01*
X618975Y50549D01*
X619807Y50549D01*
X620638Y51381D01*
X620638Y53043D01*
X621469Y53875D01*
X622301Y53875D01*
X623132Y53043D01*
X623132Y51381D01*
X622301Y50549D01*
X623132Y56074D02*
X618144Y56074D01*
X618144Y58568D01*
X618975Y59399D01*
X620638Y59399D01*
X621469Y58568D01*
X621469Y56074D01*
X618975Y61599D02*
X618144Y62430D01*
X618144Y64093D01*
X618975Y64924D01*
X619807Y64924D01*
X620638Y64093D01*
X620638Y63261D01*
X620638Y64093D02*
X621469Y64924D01*
X622301Y64924D01*
X623132Y64093D01*
X623132Y62430D01*
X622301Y61599D01*
X623132Y67123D02*
X623132Y70449D01*
X619807Y70449D02*
X623132Y67123D01*
X619807Y70449D02*
X618975Y70449D01*
X618144Y69617D01*
X618144Y67955D01*
X618975Y67123D01*
D72*
X628190Y153670D02*
X634190Y153670D01*
D11*
X633682Y168751D02*
X628694Y168751D01*
X628694Y171245D01*
X629525Y172076D01*
X631188Y172076D01*
X632019Y171245D01*
X632019Y168751D01*
X632019Y170414D02*
X633682Y172076D01*
X628694Y174276D02*
X628694Y177601D01*
X628694Y174276D02*
X631188Y174276D01*
X630357Y175938D01*
X630357Y176770D01*
X631188Y177601D01*
X632851Y177601D01*
X633682Y176770D01*
X633682Y175107D01*
X632851Y174276D01*
X630357Y179800D02*
X628694Y181463D01*
X633682Y181463D01*
X633682Y179800D02*
X633682Y183126D01*
D73*
X345440Y256300D03*
D74*
X345484Y256302D01*
X345527Y256308D01*
X345569Y256317D01*
X345611Y256330D01*
X345651Y256347D01*
X345690Y256367D01*
X345727Y256390D01*
X345761Y256417D01*
X345794Y256446D01*
X345823Y256479D01*
X345850Y256513D01*
X345873Y256550D01*
X345893Y256589D01*
X345910Y256629D01*
X345923Y256671D01*
X345932Y256713D01*
X345938Y256756D01*
X345940Y256800D01*
X345938Y256844D01*
X345932Y256887D01*
X345923Y256929D01*
X345910Y256971D01*
X345893Y257011D01*
X345873Y257050D01*
X345850Y257087D01*
X345823Y257121D01*
X345794Y257154D01*
X345761Y257183D01*
X345727Y257210D01*
X345690Y257233D01*
X345651Y257253D01*
X345611Y257270D01*
X345569Y257283D01*
X345527Y257292D01*
X345484Y257298D01*
X345440Y257300D01*
D73*
X345440Y257300D03*
D74*
X345396Y257298D01*
X345353Y257292D01*
X345311Y257283D01*
X345269Y257270D01*
X345229Y257253D01*
X345190Y257233D01*
X345153Y257210D01*
X345119Y257183D01*
X345086Y257154D01*
X345057Y257121D01*
X345030Y257087D01*
X345007Y257050D01*
X344987Y257011D01*
X344970Y256971D01*
X344957Y256929D01*
X344948Y256887D01*
X344942Y256844D01*
X344940Y256800D01*
X344942Y256756D01*
X344948Y256713D01*
X344957Y256671D01*
X344970Y256629D01*
X344987Y256589D01*
X345007Y256550D01*
X345030Y256513D01*
X345057Y256479D01*
X345086Y256446D01*
X345119Y256417D01*
X345153Y256390D01*
X345190Y256367D01*
X345229Y256347D01*
X345269Y256330D01*
X345311Y256317D01*
X345353Y256308D01*
X345396Y256302D01*
X345440Y256300D01*
D11*
X337661Y255318D02*
X337661Y260306D01*
X340155Y260306D01*
X340986Y259475D01*
X340986Y257812D01*
X340155Y256981D01*
X337661Y256981D01*
X339324Y256981D02*
X340986Y255318D01*
X343186Y258644D02*
X344848Y260306D01*
X344848Y255318D01*
X343186Y255318D02*
X346511Y255318D01*
X348710Y259475D02*
X349542Y260306D01*
X351205Y260306D01*
X352036Y259475D01*
X352036Y258644D01*
X351205Y257812D01*
X350373Y257812D01*
X351205Y257812D02*
X352036Y256981D01*
X352036Y256149D01*
X351205Y255318D01*
X349542Y255318D01*
X348710Y256149D01*
D72*
X322240Y211430D02*
X322240Y184430D01*
X343240Y184430D01*
X343240Y211430D01*
D11*
X324961Y180296D02*
X324961Y175308D01*
X328286Y175308D01*
X330486Y180296D02*
X333811Y180296D01*
X330486Y180296D02*
X330486Y175308D01*
X333811Y175308D01*
X332148Y177802D02*
X330486Y177802D01*
X336010Y180296D02*
X336010Y175308D01*
X338505Y175308D01*
X339336Y176139D01*
X339336Y179465D01*
X338505Y180296D01*
X336010Y180296D01*
X635044Y97585D02*
X635875Y98416D01*
X635044Y97585D02*
X635044Y95922D01*
X635875Y95091D01*
X639201Y95091D01*
X640032Y95922D01*
X640032Y97585D01*
X639201Y98416D01*
X636707Y100616D02*
X635044Y102278D01*
X640032Y102278D01*
X640032Y100616D02*
X640032Y103941D01*
X635044Y106140D02*
X635044Y109466D01*
X635044Y106140D02*
X637538Y106140D01*
X636707Y107803D01*
X636707Y108634D01*
X637538Y109466D01*
X639201Y109466D01*
X640032Y108634D01*
X640032Y106972D01*
X639201Y106140D01*
X624445Y102449D02*
X623614Y101617D01*
X623614Y99955D01*
X624445Y99123D01*
X627771Y99123D01*
X628602Y99955D01*
X628602Y101617D01*
X627771Y102449D01*
X628602Y107142D02*
X623614Y107142D01*
X626108Y104648D01*
X626108Y107974D01*
D71*
X406710Y44140D02*
X286710Y44140D01*
X286710Y164140D02*
X406710Y164140D01*
D11*
X340823Y169038D02*
X340823Y174026D01*
X340823Y169038D02*
X344149Y169038D01*
X346348Y172364D02*
X348011Y174026D01*
X348011Y169038D01*
X346348Y169038D02*
X349674Y169038D01*
D75*
X110970Y259080D02*
X110984Y260246D01*
X111027Y261411D01*
X111099Y262574D01*
X111199Y263736D01*
X111327Y264895D01*
X111484Y266050D01*
X111669Y267201D01*
X111883Y268347D01*
X112124Y269487D01*
X112394Y270622D01*
X112691Y271749D01*
X113015Y272869D01*
X113367Y273980D01*
X113747Y275082D01*
X114153Y276175D01*
X114586Y277257D01*
X115045Y278329D01*
X115531Y279389D01*
X116042Y280437D01*
X116579Y281471D01*
X117141Y282493D01*
X117728Y283500D01*
X118339Y284492D01*
X118975Y285470D01*
X119635Y286431D01*
X120318Y287376D01*
X121024Y288304D01*
X121752Y289214D01*
X122503Y290106D01*
X123275Y290979D01*
X124068Y291833D01*
X124882Y292668D01*
X125717Y293482D01*
X126571Y294275D01*
X127444Y295047D01*
X128336Y295798D01*
X129246Y296526D01*
X130174Y297232D01*
X131119Y297915D01*
X132080Y298575D01*
X133058Y299211D01*
X134050Y299822D01*
X135057Y300409D01*
X136079Y300971D01*
X137113Y301508D01*
X138161Y302019D01*
X139221Y302505D01*
X140293Y302964D01*
X141375Y303397D01*
X142468Y303803D01*
X143570Y304183D01*
X144681Y304535D01*
X145801Y304859D01*
X146928Y305156D01*
X148063Y305426D01*
X149203Y305667D01*
X150349Y305881D01*
X151500Y306066D01*
X152655Y306223D01*
X153814Y306351D01*
X154976Y306451D01*
X156139Y306523D01*
X157304Y306566D01*
X158470Y306580D01*
X159636Y306566D01*
X160801Y306523D01*
X161964Y306451D01*
X163126Y306351D01*
X164285Y306223D01*
X165440Y306066D01*
X166591Y305881D01*
X167737Y305667D01*
X168877Y305426D01*
X170012Y305156D01*
X171139Y304859D01*
X172259Y304535D01*
X173370Y304183D01*
X174472Y303803D01*
X175565Y303397D01*
X176647Y302964D01*
X177719Y302505D01*
X178779Y302019D01*
X179827Y301508D01*
X180861Y300971D01*
X181883Y300409D01*
X182890Y299822D01*
X183882Y299211D01*
X184860Y298575D01*
X185821Y297915D01*
X186766Y297232D01*
X187694Y296526D01*
X188604Y295798D01*
X189496Y295047D01*
X190369Y294275D01*
X191223Y293482D01*
X192058Y292668D01*
X192872Y291833D01*
X193665Y290979D01*
X194437Y290106D01*
X195188Y289214D01*
X195916Y288304D01*
X196622Y287376D01*
X197305Y286431D01*
X197965Y285470D01*
X198601Y284492D01*
X199212Y283500D01*
X199799Y282493D01*
X200361Y281471D01*
X200898Y280437D01*
X201409Y279389D01*
X201895Y278329D01*
X202354Y277257D01*
X202787Y276175D01*
X203193Y275082D01*
X203573Y273980D01*
X203925Y272869D01*
X204249Y271749D01*
X204546Y270622D01*
X204816Y269487D01*
X205057Y268347D01*
X205271Y267201D01*
X205456Y266050D01*
X205613Y264895D01*
X205741Y263736D01*
X205841Y262574D01*
X205913Y261411D01*
X205956Y260246D01*
X205970Y259080D01*
X205956Y257914D01*
X205913Y256749D01*
X205841Y255586D01*
X205741Y254424D01*
X205613Y253265D01*
X205456Y252110D01*
X205271Y250959D01*
X205057Y249813D01*
X204816Y248673D01*
X204546Y247538D01*
X204249Y246411D01*
X203925Y245291D01*
X203573Y244180D01*
X203193Y243078D01*
X202787Y241985D01*
X202354Y240903D01*
X201895Y239831D01*
X201409Y238771D01*
X200898Y237723D01*
X200361Y236689D01*
X199799Y235667D01*
X199212Y234660D01*
X198601Y233668D01*
X197965Y232690D01*
X197305Y231729D01*
X196622Y230784D01*
X195916Y229856D01*
X195188Y228946D01*
X194437Y228054D01*
X193665Y227181D01*
X192872Y226327D01*
X192058Y225492D01*
X191223Y224678D01*
X190369Y223885D01*
X189496Y223113D01*
X188604Y222362D01*
X187694Y221634D01*
X186766Y220928D01*
X185821Y220245D01*
X184860Y219585D01*
X183882Y218949D01*
X182890Y218338D01*
X181883Y217751D01*
X180861Y217189D01*
X179827Y216652D01*
X178779Y216141D01*
X177719Y215655D01*
X176647Y215196D01*
X175565Y214763D01*
X174472Y214357D01*
X173370Y213977D01*
X172259Y213625D01*
X171139Y213301D01*
X170012Y213004D01*
X168877Y212734D01*
X167737Y212493D01*
X166591Y212279D01*
X165440Y212094D01*
X164285Y211937D01*
X163126Y211809D01*
X161964Y211709D01*
X160801Y211637D01*
X159636Y211594D01*
X158470Y211580D01*
X157304Y211594D01*
X156139Y211637D01*
X154976Y211709D01*
X153814Y211809D01*
X152655Y211937D01*
X151500Y212094D01*
X150349Y212279D01*
X149203Y212493D01*
X148063Y212734D01*
X146928Y213004D01*
X145801Y213301D01*
X144681Y213625D01*
X143570Y213977D01*
X142468Y214357D01*
X141375Y214763D01*
X140293Y215196D01*
X139221Y215655D01*
X138161Y216141D01*
X137113Y216652D01*
X136079Y217189D01*
X135057Y217751D01*
X134050Y218338D01*
X133058Y218949D01*
X132080Y219585D01*
X131119Y220245D01*
X130174Y220928D01*
X129246Y221634D01*
X128336Y222362D01*
X127444Y223113D01*
X126571Y223885D01*
X125717Y224678D01*
X124882Y225492D01*
X124068Y226327D01*
X123275Y227181D01*
X122503Y228054D01*
X121752Y228946D01*
X121024Y229856D01*
X120318Y230784D01*
X119635Y231729D01*
X118975Y232690D01*
X118339Y233668D01*
X117728Y234660D01*
X117141Y235667D01*
X116579Y236689D01*
X116042Y237723D01*
X115531Y238771D01*
X115045Y239831D01*
X114586Y240903D01*
X114153Y241985D01*
X113747Y243078D01*
X113367Y244180D01*
X113015Y245291D01*
X112691Y246411D01*
X112394Y247538D01*
X112124Y248673D01*
X111883Y249813D01*
X111669Y250959D01*
X111484Y252110D01*
X111327Y253265D01*
X111199Y254424D01*
X111099Y255586D01*
X111027Y256749D01*
X110984Y257914D01*
X110970Y259080D01*
D72*
X115970Y259080D02*
X115983Y260123D01*
X116021Y261165D01*
X116085Y262206D01*
X116175Y263246D01*
X116290Y264282D01*
X116430Y265316D01*
X116596Y266346D01*
X116787Y267371D01*
X117003Y268392D01*
X117244Y269407D01*
X117510Y270415D01*
X117800Y271417D01*
X118115Y272411D01*
X118454Y273398D01*
X118818Y274376D01*
X119205Y275344D01*
X119616Y276303D01*
X120050Y277251D01*
X120508Y278188D01*
X120988Y279114D01*
X121491Y280028D01*
X122017Y280929D01*
X122564Y281817D01*
X123133Y282692D01*
X123723Y283552D01*
X124334Y284397D01*
X124965Y285227D01*
X125617Y286042D01*
X126289Y286840D01*
X126980Y287621D01*
X127689Y288385D01*
X128418Y289132D01*
X129165Y289861D01*
X129929Y290570D01*
X130710Y291261D01*
X131508Y291933D01*
X132323Y292585D01*
X133153Y293216D01*
X133998Y293827D01*
X134858Y294417D01*
X135733Y294986D01*
X136621Y295533D01*
X137522Y296059D01*
X138436Y296562D01*
X139362Y297042D01*
X140299Y297500D01*
X141247Y297934D01*
X142206Y298345D01*
X143174Y298732D01*
X144152Y299096D01*
X145139Y299435D01*
X146133Y299750D01*
X147135Y300040D01*
X148143Y300306D01*
X149158Y300547D01*
X150179Y300763D01*
X151204Y300954D01*
X152234Y301120D01*
X153268Y301260D01*
X154304Y301375D01*
X155344Y301465D01*
X156385Y301529D01*
X157427Y301567D01*
X158470Y301580D01*
X159513Y301567D01*
X160555Y301529D01*
X161596Y301465D01*
X162636Y301375D01*
X163672Y301260D01*
X164706Y301120D01*
X165736Y300954D01*
X166761Y300763D01*
X167782Y300547D01*
X168797Y300306D01*
X169805Y300040D01*
X170807Y299750D01*
X171801Y299435D01*
X172788Y299096D01*
X173766Y298732D01*
X174734Y298345D01*
X175693Y297934D01*
X176641Y297500D01*
X177578Y297042D01*
X178504Y296562D01*
X179418Y296059D01*
X180319Y295533D01*
X181207Y294986D01*
X182082Y294417D01*
X182942Y293827D01*
X183787Y293216D01*
X184617Y292585D01*
X185432Y291933D01*
X186230Y291261D01*
X187011Y290570D01*
X187775Y289861D01*
X188522Y289132D01*
X189251Y288385D01*
X189960Y287621D01*
X190651Y286840D01*
X191323Y286042D01*
X191975Y285227D01*
X192606Y284397D01*
X193217Y283552D01*
X193807Y282692D01*
X194376Y281817D01*
X194923Y280929D01*
X195449Y280028D01*
X195952Y279114D01*
X196432Y278188D01*
X196890Y277251D01*
X197324Y276303D01*
X197735Y275344D01*
X198122Y274376D01*
X198486Y273398D01*
X198825Y272411D01*
X199140Y271417D01*
X199430Y270415D01*
X199696Y269407D01*
X199937Y268392D01*
X200153Y267371D01*
X200344Y266346D01*
X200510Y265316D01*
X200650Y264282D01*
X200765Y263246D01*
X200855Y262206D01*
X200919Y261165D01*
X200957Y260123D01*
X200970Y259080D01*
X200957Y258037D01*
X200919Y256995D01*
X200855Y255954D01*
X200765Y254914D01*
X200650Y253878D01*
X200510Y252844D01*
X200344Y251814D01*
X200153Y250789D01*
X199937Y249768D01*
X199696Y248753D01*
X199430Y247745D01*
X199140Y246743D01*
X198825Y245749D01*
X198486Y244762D01*
X198122Y243784D01*
X197735Y242816D01*
X197324Y241857D01*
X196890Y240909D01*
X196432Y239972D01*
X195952Y239046D01*
X195449Y238132D01*
X194923Y237231D01*
X194376Y236343D01*
X193807Y235468D01*
X193217Y234608D01*
X192606Y233763D01*
X191975Y232933D01*
X191323Y232118D01*
X190651Y231320D01*
X189960Y230539D01*
X189251Y229775D01*
X188522Y229028D01*
X187775Y228299D01*
X187011Y227590D01*
X186230Y226899D01*
X185432Y226227D01*
X184617Y225575D01*
X183787Y224944D01*
X182942Y224333D01*
X182082Y223743D01*
X181207Y223174D01*
X180319Y222627D01*
X179418Y222101D01*
X178504Y221598D01*
X177578Y221118D01*
X176641Y220660D01*
X175693Y220226D01*
X174734Y219815D01*
X173766Y219428D01*
X172788Y219064D01*
X171801Y218725D01*
X170807Y218410D01*
X169805Y218120D01*
X168797Y217854D01*
X167782Y217613D01*
X166761Y217397D01*
X165736Y217206D01*
X164706Y217040D01*
X163672Y216900D01*
X162636Y216785D01*
X161596Y216695D01*
X160555Y216631D01*
X159513Y216593D01*
X158470Y216580D01*
X157427Y216593D01*
X156385Y216631D01*
X155344Y216695D01*
X154304Y216785D01*
X153268Y216900D01*
X152234Y217040D01*
X151204Y217206D01*
X150179Y217397D01*
X149158Y217613D01*
X148143Y217854D01*
X147135Y218120D01*
X146133Y218410D01*
X145139Y218725D01*
X144152Y219064D01*
X143174Y219428D01*
X142206Y219815D01*
X141247Y220226D01*
X140299Y220660D01*
X139362Y221118D01*
X138436Y221598D01*
X137522Y222101D01*
X136621Y222627D01*
X135733Y223174D01*
X134858Y223743D01*
X133998Y224333D01*
X133153Y224944D01*
X132323Y225575D01*
X131508Y226227D01*
X130710Y226899D01*
X129929Y227590D01*
X129165Y228299D01*
X128418Y229028D01*
X127689Y229775D01*
X126980Y230539D01*
X126289Y231320D01*
X125617Y232118D01*
X124965Y232933D01*
X124334Y233763D01*
X123723Y234608D01*
X123133Y235468D01*
X122564Y236343D01*
X122017Y237231D01*
X121491Y238132D01*
X120988Y239046D01*
X120508Y239972D01*
X120050Y240909D01*
X119616Y241857D01*
X119205Y242816D01*
X118818Y243784D01*
X118454Y244762D01*
X118115Y245749D01*
X117800Y246743D01*
X117510Y247745D01*
X117244Y248753D01*
X117003Y249768D01*
X116787Y250789D01*
X116596Y251814D01*
X116430Y252844D01*
X116290Y253878D01*
X116175Y254914D01*
X116085Y255954D01*
X116021Y256995D01*
X115983Y258037D01*
X115970Y259080D01*
D11*
X97369Y274715D02*
X96537Y275546D01*
X94875Y275546D01*
X94043Y274715D01*
X94043Y271389D01*
X94875Y270558D01*
X96537Y270558D01*
X97369Y271389D01*
X99568Y274715D02*
X100399Y275546D01*
X102062Y275546D01*
X102894Y274715D01*
X102894Y273884D01*
X102062Y273052D01*
X101231Y273052D01*
X102062Y273052D02*
X102894Y272221D01*
X102894Y271389D01*
X102062Y270558D01*
X100399Y270558D01*
X99568Y271389D01*
D72*
X211770Y272360D02*
X211770Y217130D01*
X237810Y220400D02*
X237810Y272360D01*
D11*
X219773Y284528D02*
X219773Y289516D01*
X219773Y284528D02*
X222267Y284528D01*
X223099Y285359D01*
X223099Y288685D01*
X222267Y289516D01*
X219773Y289516D01*
X225298Y288685D02*
X226129Y289516D01*
X227792Y289516D01*
X228624Y288685D01*
X228624Y287854D01*
X227792Y287022D01*
X228624Y286191D01*
X228624Y285359D01*
X227792Y284528D01*
X226129Y284528D01*
X225298Y285359D01*
X225298Y286191D01*
X226129Y287022D01*
X225298Y287854D01*
X225298Y288685D01*
X226129Y287022D02*
X227792Y287022D01*
X219505Y179026D02*
X220336Y178195D01*
X219505Y179026D02*
X217842Y179026D01*
X217011Y178195D01*
X217011Y174869D01*
X217842Y174038D01*
X219505Y174038D01*
X220336Y174869D01*
X222536Y177364D02*
X224198Y179026D01*
X224198Y174038D01*
X222536Y174038D02*
X225861Y174038D01*
X229723Y178195D02*
X231386Y179026D01*
X229723Y178195D02*
X228060Y176532D01*
X228060Y174869D01*
X228892Y174038D01*
X230554Y174038D01*
X231386Y174869D01*
X231386Y175701D01*
X230554Y176532D01*
X228060Y176532D01*
D76*
X55880Y133450D03*
D75*
X55910Y133452D01*
X55940Y133457D01*
X55969Y133466D01*
X55996Y133479D01*
X56022Y133494D01*
X56046Y133513D01*
X56067Y133534D01*
X56086Y133558D01*
X56101Y133584D01*
X56114Y133611D01*
X56123Y133640D01*
X56128Y133670D01*
X56130Y133700D01*
X56128Y133730D01*
X56123Y133760D01*
X56114Y133789D01*
X56101Y133816D01*
X56086Y133842D01*
X56067Y133866D01*
X56046Y133887D01*
X56022Y133906D01*
X55996Y133921D01*
X55969Y133934D01*
X55940Y133943D01*
X55910Y133948D01*
X55880Y133950D01*
D76*
X55880Y133950D03*
D75*
X55850Y133948D01*
X55820Y133943D01*
X55791Y133934D01*
X55764Y133921D01*
X55738Y133906D01*
X55714Y133887D01*
X55693Y133866D01*
X55674Y133842D01*
X55659Y133816D01*
X55646Y133789D01*
X55637Y133760D01*
X55632Y133730D01*
X55630Y133700D01*
X55632Y133670D01*
X55637Y133640D01*
X55646Y133611D01*
X55659Y133584D01*
X55674Y133558D01*
X55693Y133534D01*
X55714Y133513D01*
X55738Y133494D01*
X55764Y133479D01*
X55791Y133466D01*
X55820Y133457D01*
X55850Y133452D01*
X55880Y133450D01*
D72*
X33380Y151700D02*
X4380Y180700D01*
X4380Y248200D01*
X4380Y254700D01*
X33380Y254700D01*
X107380Y180700D02*
X78380Y151700D01*
X107380Y180700D02*
X107380Y254700D01*
X78380Y254700D01*
D11*
X90675Y265386D02*
X91506Y264555D01*
X90675Y265386D02*
X89012Y265386D01*
X88181Y264555D01*
X88181Y261229D01*
X89012Y260398D01*
X90675Y260398D01*
X91506Y261229D01*
X93706Y263724D02*
X95368Y265386D01*
X95368Y260398D01*
X93706Y260398D02*
X97031Y260398D01*
X99230Y265386D02*
X102556Y265386D01*
X102556Y264555D01*
X99230Y261229D01*
X99230Y260398D01*
D72*
X118110Y153710D02*
X219710Y153710D01*
X118110Y153710D02*
X118110Y74870D01*
X219710Y74870D02*
X219710Y153710D01*
X201400Y212820D02*
X201402Y212891D01*
X201408Y212961D01*
X201418Y213031D01*
X201432Y213100D01*
X201449Y213169D01*
X201471Y213236D01*
X201496Y213302D01*
X201525Y213367D01*
X201557Y213429D01*
X201593Y213490D01*
X201632Y213549D01*
X201675Y213606D01*
X201720Y213660D01*
X201769Y213711D01*
X201820Y213760D01*
X201874Y213805D01*
X201931Y213848D01*
X201990Y213887D01*
X202051Y213923D01*
X202113Y213955D01*
X202178Y213984D01*
X202244Y214009D01*
X202311Y214031D01*
X202380Y214048D01*
X202449Y214062D01*
X202519Y214072D01*
X202589Y214078D01*
X202660Y214080D01*
X202731Y214078D01*
X202801Y214072D01*
X202871Y214062D01*
X202940Y214048D01*
X203009Y214031D01*
X203076Y214009D01*
X203142Y213984D01*
X203207Y213955D01*
X203269Y213923D01*
X203330Y213887D01*
X203389Y213848D01*
X203446Y213805D01*
X203500Y213760D01*
X203551Y213711D01*
X203600Y213660D01*
X203645Y213606D01*
X203688Y213549D01*
X203727Y213490D01*
X203763Y213429D01*
X203795Y213367D01*
X203824Y213302D01*
X203849Y213236D01*
X203871Y213169D01*
X203888Y213100D01*
X203902Y213031D01*
X203912Y212961D01*
X203918Y212891D01*
X203920Y212820D01*
X203918Y212749D01*
X203912Y212679D01*
X203902Y212609D01*
X203888Y212540D01*
X203871Y212471D01*
X203849Y212404D01*
X203824Y212338D01*
X203795Y212273D01*
X203763Y212211D01*
X203727Y212150D01*
X203688Y212091D01*
X203645Y212034D01*
X203600Y211980D01*
X203551Y211929D01*
X203500Y211880D01*
X203446Y211835D01*
X203389Y211792D01*
X203330Y211753D01*
X203269Y211717D01*
X203207Y211685D01*
X203142Y211656D01*
X203076Y211631D01*
X203009Y211609D01*
X202940Y211592D01*
X202871Y211578D01*
X202801Y211568D01*
X202731Y211562D01*
X202660Y211560D01*
X202589Y211562D01*
X202519Y211568D01*
X202449Y211578D01*
X202380Y211592D01*
X202311Y211609D01*
X202244Y211631D01*
X202178Y211656D01*
X202113Y211685D01*
X202051Y211717D01*
X201990Y211753D01*
X201931Y211792D01*
X201874Y211835D01*
X201820Y211880D01*
X201769Y211929D01*
X201720Y211980D01*
X201675Y212034D01*
X201632Y212091D01*
X201593Y212150D01*
X201557Y212211D01*
X201525Y212273D01*
X201496Y212338D01*
X201471Y212404D01*
X201449Y212471D01*
X201432Y212540D01*
X201418Y212609D01*
X201408Y212679D01*
X201402Y212749D01*
X201400Y212820D01*
D11*
X119704Y39988D02*
X118042Y39988D01*
X118873Y39988D02*
X118873Y44976D01*
X118042Y44976D02*
X119704Y44976D01*
X124219Y44976D02*
X125050Y44145D01*
X124219Y44976D02*
X122556Y44976D01*
X121725Y44145D01*
X121725Y40819D01*
X122556Y39988D01*
X124219Y39988D01*
X125050Y40819D01*
X127250Y43314D02*
X128912Y44976D01*
X128912Y39988D01*
X127250Y39988D02*
X130575Y39988D01*
D77*
X153190Y352040D02*
X169390Y352040D01*
X169390Y323600D02*
X153190Y323600D01*
X153190Y332600D02*
X153190Y343040D01*
X169390Y333540D02*
X169390Y332600D01*
X169390Y342100D02*
X169390Y343040D01*
X169390Y324540D02*
X169390Y323600D01*
X169390Y351100D02*
X169390Y352040D01*
X153190Y352040D02*
X153190Y351100D01*
X153190Y324540D02*
X153190Y323600D01*
D71*
X163290Y327820D02*
X163292Y327883D01*
X163298Y327945D01*
X163308Y328007D01*
X163321Y328069D01*
X163339Y328129D01*
X163360Y328188D01*
X163385Y328246D01*
X163414Y328302D01*
X163446Y328356D01*
X163481Y328408D01*
X163519Y328457D01*
X163561Y328505D01*
X163605Y328549D01*
X163653Y328591D01*
X163702Y328629D01*
X163754Y328664D01*
X163808Y328696D01*
X163864Y328725D01*
X163922Y328750D01*
X163981Y328771D01*
X164041Y328789D01*
X164103Y328802D01*
X164165Y328812D01*
X164227Y328818D01*
X164290Y328820D01*
X164353Y328818D01*
X164415Y328812D01*
X164477Y328802D01*
X164539Y328789D01*
X164599Y328771D01*
X164658Y328750D01*
X164716Y328725D01*
X164772Y328696D01*
X164826Y328664D01*
X164878Y328629D01*
X164927Y328591D01*
X164975Y328549D01*
X165019Y328505D01*
X165061Y328457D01*
X165099Y328408D01*
X165134Y328356D01*
X165166Y328302D01*
X165195Y328246D01*
X165220Y328188D01*
X165241Y328129D01*
X165259Y328069D01*
X165272Y328007D01*
X165282Y327945D01*
X165288Y327883D01*
X165290Y327820D01*
X165288Y327757D01*
X165282Y327695D01*
X165272Y327633D01*
X165259Y327571D01*
X165241Y327511D01*
X165220Y327452D01*
X165195Y327394D01*
X165166Y327338D01*
X165134Y327284D01*
X165099Y327232D01*
X165061Y327183D01*
X165019Y327135D01*
X164975Y327091D01*
X164927Y327049D01*
X164878Y327011D01*
X164826Y326976D01*
X164772Y326944D01*
X164716Y326915D01*
X164658Y326890D01*
X164599Y326869D01*
X164539Y326851D01*
X164477Y326838D01*
X164415Y326828D01*
X164353Y326822D01*
X164290Y326820D01*
X164227Y326822D01*
X164165Y326828D01*
X164103Y326838D01*
X164041Y326851D01*
X163981Y326869D01*
X163922Y326890D01*
X163864Y326915D01*
X163808Y326944D01*
X163754Y326976D01*
X163702Y327011D01*
X163653Y327049D01*
X163605Y327091D01*
X163561Y327135D01*
X163519Y327183D01*
X163481Y327232D01*
X163446Y327284D01*
X163414Y327338D01*
X163385Y327394D01*
X163360Y327452D01*
X163339Y327511D01*
X163321Y327571D01*
X163308Y327633D01*
X163298Y327695D01*
X163292Y327757D01*
X163290Y327820D01*
D11*
X183895Y346298D02*
X185558Y346298D01*
X184727Y346298D02*
X184727Y351286D01*
X185558Y351286D02*
X183895Y351286D01*
X190073Y351286D02*
X190904Y350455D01*
X190073Y351286D02*
X188410Y351286D01*
X187579Y350455D01*
X187579Y347129D01*
X188410Y346298D01*
X190073Y346298D01*
X190904Y347129D01*
X194766Y350455D02*
X196429Y351286D01*
X194766Y350455D02*
X193103Y348792D01*
X193103Y347129D01*
X193935Y346298D01*
X195597Y346298D01*
X196429Y347129D01*
X196429Y347961D01*
X195597Y348792D01*
X193103Y348792D01*
D72*
X167960Y384590D02*
X167962Y384653D01*
X167968Y384715D01*
X167978Y384777D01*
X167991Y384839D01*
X168009Y384899D01*
X168030Y384958D01*
X168055Y385016D01*
X168084Y385072D01*
X168116Y385126D01*
X168151Y385178D01*
X168189Y385227D01*
X168231Y385275D01*
X168275Y385319D01*
X168323Y385361D01*
X168372Y385399D01*
X168424Y385434D01*
X168478Y385466D01*
X168534Y385495D01*
X168592Y385520D01*
X168651Y385541D01*
X168711Y385559D01*
X168773Y385572D01*
X168835Y385582D01*
X168897Y385588D01*
X168960Y385590D01*
X169023Y385588D01*
X169085Y385582D01*
X169147Y385572D01*
X169209Y385559D01*
X169269Y385541D01*
X169328Y385520D01*
X169386Y385495D01*
X169442Y385466D01*
X169496Y385434D01*
X169548Y385399D01*
X169597Y385361D01*
X169645Y385319D01*
X169689Y385275D01*
X169731Y385227D01*
X169769Y385178D01*
X169804Y385126D01*
X169836Y385072D01*
X169865Y385016D01*
X169890Y384958D01*
X169911Y384899D01*
X169929Y384839D01*
X169942Y384777D01*
X169952Y384715D01*
X169958Y384653D01*
X169960Y384590D01*
X169958Y384527D01*
X169952Y384465D01*
X169942Y384403D01*
X169929Y384341D01*
X169911Y384281D01*
X169890Y384222D01*
X169865Y384164D01*
X169836Y384108D01*
X169804Y384054D01*
X169769Y384002D01*
X169731Y383953D01*
X169689Y383905D01*
X169645Y383861D01*
X169597Y383819D01*
X169548Y383781D01*
X169496Y383746D01*
X169442Y383714D01*
X169386Y383685D01*
X169328Y383660D01*
X169269Y383639D01*
X169209Y383621D01*
X169147Y383608D01*
X169085Y383598D01*
X169023Y383592D01*
X168960Y383590D01*
X168897Y383592D01*
X168835Y383598D01*
X168773Y383608D01*
X168711Y383621D01*
X168651Y383639D01*
X168592Y383660D01*
X168534Y383685D01*
X168478Y383714D01*
X168424Y383746D01*
X168372Y383781D01*
X168323Y383819D01*
X168275Y383861D01*
X168231Y383905D01*
X168189Y383953D01*
X168151Y384002D01*
X168116Y384054D01*
X168084Y384108D01*
X168055Y384164D01*
X168030Y384222D01*
X168009Y384281D01*
X167991Y384341D01*
X167978Y384403D01*
X167968Y384465D01*
X167962Y384527D01*
X167960Y384590D01*
D71*
X190860Y385990D02*
X235860Y385990D01*
X235860Y355690D02*
X190860Y355690D01*
D11*
X210058Y390369D02*
X210058Y393695D01*
X210889Y394526D01*
X212552Y394526D01*
X213384Y393695D01*
X213384Y390369D01*
X212552Y389538D01*
X210889Y389538D01*
X210058Y390369D01*
X211721Y391201D02*
X213384Y389538D01*
X218077Y389538D02*
X218077Y394526D01*
X215583Y392032D01*
X218908Y392032D01*
D72*
X258080Y360330D02*
X258082Y360393D01*
X258088Y360455D01*
X258098Y360517D01*
X258111Y360579D01*
X258129Y360639D01*
X258150Y360698D01*
X258175Y360756D01*
X258204Y360812D01*
X258236Y360866D01*
X258271Y360918D01*
X258309Y360967D01*
X258351Y361015D01*
X258395Y361059D01*
X258443Y361101D01*
X258492Y361139D01*
X258544Y361174D01*
X258598Y361206D01*
X258654Y361235D01*
X258712Y361260D01*
X258771Y361281D01*
X258831Y361299D01*
X258893Y361312D01*
X258955Y361322D01*
X259017Y361328D01*
X259080Y361330D01*
X259143Y361328D01*
X259205Y361322D01*
X259267Y361312D01*
X259329Y361299D01*
X259389Y361281D01*
X259448Y361260D01*
X259506Y361235D01*
X259562Y361206D01*
X259616Y361174D01*
X259668Y361139D01*
X259717Y361101D01*
X259765Y361059D01*
X259809Y361015D01*
X259851Y360967D01*
X259889Y360918D01*
X259924Y360866D01*
X259956Y360812D01*
X259985Y360756D01*
X260010Y360698D01*
X260031Y360639D01*
X260049Y360579D01*
X260062Y360517D01*
X260072Y360455D01*
X260078Y360393D01*
X260080Y360330D01*
X260078Y360267D01*
X260072Y360205D01*
X260062Y360143D01*
X260049Y360081D01*
X260031Y360021D01*
X260010Y359962D01*
X259985Y359904D01*
X259956Y359848D01*
X259924Y359794D01*
X259889Y359742D01*
X259851Y359693D01*
X259809Y359645D01*
X259765Y359601D01*
X259717Y359559D01*
X259668Y359521D01*
X259616Y359486D01*
X259562Y359454D01*
X259506Y359425D01*
X259448Y359400D01*
X259389Y359379D01*
X259329Y359361D01*
X259267Y359348D01*
X259205Y359338D01*
X259143Y359332D01*
X259080Y359330D01*
X259017Y359332D01*
X258955Y359338D01*
X258893Y359348D01*
X258831Y359361D01*
X258771Y359379D01*
X258712Y359400D01*
X258654Y359425D01*
X258598Y359454D01*
X258544Y359486D01*
X258492Y359521D01*
X258443Y359559D01*
X258395Y359601D01*
X258351Y359645D01*
X258309Y359693D01*
X258271Y359742D01*
X258236Y359794D01*
X258204Y359848D01*
X258175Y359904D01*
X258150Y359962D01*
X258129Y360021D01*
X258111Y360081D01*
X258098Y360143D01*
X258088Y360205D01*
X258082Y360267D01*
X258080Y360330D01*
D71*
X283530Y360780D02*
X323530Y360780D01*
X323530Y309780D02*
X283530Y309780D01*
D11*
X273228Y363889D02*
X273228Y368046D01*
X273228Y363889D02*
X274059Y363058D01*
X275722Y363058D01*
X276554Y363889D01*
X276554Y368046D01*
X278753Y367215D02*
X279584Y368046D01*
X281247Y368046D01*
X282078Y367215D01*
X282078Y366384D01*
X281247Y365552D01*
X280415Y365552D01*
X281247Y365552D02*
X282078Y364721D01*
X282078Y363889D01*
X281247Y363058D01*
X279584Y363058D01*
X278753Y363889D01*
D72*
X310690Y240030D02*
X316690Y240030D01*
D11*
X309943Y255318D02*
X309943Y260306D01*
X312437Y260306D01*
X313269Y259475D01*
X313269Y257812D01*
X312437Y256981D01*
X309943Y256981D01*
X311606Y256981D02*
X313269Y255318D01*
X315468Y259475D02*
X316299Y260306D01*
X317962Y260306D01*
X318794Y259475D01*
X318794Y258644D01*
X317962Y257812D01*
X317131Y257812D01*
X317962Y257812D02*
X318794Y256981D01*
X318794Y256149D01*
X317962Y255318D01*
X316299Y255318D01*
X315468Y256149D01*
D72*
X298110Y211430D02*
X298110Y184430D01*
X319110Y184430D01*
X319110Y211430D01*
D11*
X301833Y180296D02*
X302664Y179465D01*
X301833Y180296D02*
X300170Y180296D01*
X299339Y179465D01*
X299339Y178634D01*
X300170Y177802D01*
X301833Y177802D01*
X302664Y176971D01*
X302664Y176139D01*
X301833Y175308D01*
X300170Y175308D01*
X299339Y176139D01*
X306526Y175308D02*
X306526Y180296D01*
X304863Y180296D02*
X308189Y180296D01*
X310388Y180296D02*
X310388Y175308D01*
X310388Y180296D02*
X312882Y180296D01*
X313714Y179465D01*
X313714Y178634D01*
X312882Y177802D01*
X313714Y176971D01*
X313714Y176139D01*
X312882Y175308D01*
X310388Y175308D01*
X310388Y177802D02*
X312882Y177802D01*
X315913Y179465D02*
X315913Y180296D01*
X315913Y179465D02*
X317575Y177802D01*
X319238Y179465D01*
X319238Y180296D01*
X317575Y177802D02*
X317575Y175308D01*
D72*
X273980Y184430D02*
X273980Y211430D01*
X273980Y184430D02*
X294980Y184430D01*
X294980Y211430D01*
D11*
X276433Y180296D02*
X277264Y179465D01*
X276433Y180296D02*
X274770Y180296D01*
X273939Y179465D01*
X273939Y176139D01*
X274770Y175308D01*
X276433Y175308D01*
X277264Y176139D01*
X279463Y175308D02*
X279463Y180296D01*
X279463Y177802D02*
X282789Y177802D01*
X282789Y180296D02*
X282789Y175308D01*
X284988Y175308D02*
X284988Y180296D01*
X287482Y180296D01*
X288314Y179465D01*
X288314Y177802D01*
X287482Y176971D01*
X284988Y176971D01*
X286651Y176971D02*
X288314Y175308D01*
X293007Y180296D02*
X293838Y179465D01*
X293007Y180296D02*
X291344Y180296D01*
X290513Y179465D01*
X290513Y176139D01*
X291344Y175308D01*
X293007Y175308D01*
X293838Y176139D01*
X293838Y177802D01*
X292175Y177802D01*
D72*
X327200Y240030D02*
X333200Y240030D01*
D11*
X325183Y255318D02*
X325183Y260306D01*
X327677Y260306D01*
X328509Y259475D01*
X328509Y257812D01*
X327677Y256981D01*
X325183Y256981D01*
X326846Y256981D02*
X328509Y255318D01*
X333202Y255318D02*
X333202Y260306D01*
X330708Y257812D01*
X334034Y257812D01*
D72*
X224790Y344980D02*
X224790Y350980D01*
D11*
X242633Y350476D02*
X242633Y345488D01*
X242633Y350476D02*
X245127Y350476D01*
X245959Y349645D01*
X245959Y347982D01*
X245127Y347151D01*
X242633Y347151D01*
X244296Y347151D02*
X245959Y345488D01*
X248158Y350476D02*
X251484Y350476D01*
X248158Y350476D02*
X248158Y347982D01*
X249821Y348814D01*
X250652Y348814D01*
X251484Y347982D01*
X251484Y346319D01*
X250652Y345488D01*
X248989Y345488D01*
X248158Y346319D01*
D71*
X257530Y225180D02*
X286030Y225180D01*
X286030Y242180D02*
X257530Y242180D01*
D72*
X240780Y233680D02*
X240782Y233743D01*
X240788Y233805D01*
X240798Y233867D01*
X240811Y233929D01*
X240829Y233989D01*
X240850Y234048D01*
X240875Y234106D01*
X240904Y234162D01*
X240936Y234216D01*
X240971Y234268D01*
X241009Y234317D01*
X241051Y234365D01*
X241095Y234409D01*
X241143Y234451D01*
X241192Y234489D01*
X241244Y234524D01*
X241298Y234556D01*
X241354Y234585D01*
X241412Y234610D01*
X241471Y234631D01*
X241531Y234649D01*
X241593Y234662D01*
X241655Y234672D01*
X241717Y234678D01*
X241780Y234680D01*
X241843Y234678D01*
X241905Y234672D01*
X241967Y234662D01*
X242029Y234649D01*
X242089Y234631D01*
X242148Y234610D01*
X242206Y234585D01*
X242262Y234556D01*
X242316Y234524D01*
X242368Y234489D01*
X242417Y234451D01*
X242465Y234409D01*
X242509Y234365D01*
X242551Y234317D01*
X242589Y234268D01*
X242624Y234216D01*
X242656Y234162D01*
X242685Y234106D01*
X242710Y234048D01*
X242731Y233989D01*
X242749Y233929D01*
X242762Y233867D01*
X242772Y233805D01*
X242778Y233743D01*
X242780Y233680D01*
X242778Y233617D01*
X242772Y233555D01*
X242762Y233493D01*
X242749Y233431D01*
X242731Y233371D01*
X242710Y233312D01*
X242685Y233254D01*
X242656Y233198D01*
X242624Y233144D01*
X242589Y233092D01*
X242551Y233043D01*
X242509Y232995D01*
X242465Y232951D01*
X242417Y232909D01*
X242368Y232871D01*
X242316Y232836D01*
X242262Y232804D01*
X242206Y232775D01*
X242148Y232750D01*
X242089Y232729D01*
X242029Y232711D01*
X241967Y232698D01*
X241905Y232688D01*
X241843Y232682D01*
X241780Y232680D01*
X241717Y232682D01*
X241655Y232688D01*
X241593Y232698D01*
X241531Y232711D01*
X241471Y232729D01*
X241412Y232750D01*
X241354Y232775D01*
X241298Y232804D01*
X241244Y232836D01*
X241192Y232871D01*
X241143Y232909D01*
X241095Y232951D01*
X241051Y232995D01*
X241009Y233043D01*
X240971Y233092D01*
X240936Y233144D01*
X240904Y233198D01*
X240875Y233254D01*
X240850Y233312D01*
X240829Y233371D01*
X240811Y233431D01*
X240798Y233493D01*
X240788Y233555D01*
X240782Y233617D01*
X240780Y233680D01*
D11*
X268836Y246709D02*
X268836Y251697D01*
X268836Y246709D02*
X271330Y246709D01*
X272162Y247540D01*
X272162Y250866D01*
X271330Y251697D01*
X268836Y251697D01*
X274361Y250034D02*
X276024Y251697D01*
X276024Y246709D01*
X274361Y246709D02*
X277687Y246709D01*
D77*
X266700Y192278D02*
X257302Y192278D01*
X236220Y192278D02*
X236220Y202184D01*
X236220Y192278D02*
X245618Y192278D01*
X266700Y192278D02*
X266700Y196342D01*
X266700Y202184D01*
X254762Y206502D02*
X248158Y206502D01*
X263906Y200406D02*
X263870Y200303D01*
X263838Y200199D01*
X263809Y200094D01*
X263784Y199988D01*
X263763Y199881D01*
X263746Y199773D01*
X263732Y199665D01*
X263723Y199556D01*
X263718Y199447D01*
X263716Y199338D01*
X263719Y199229D01*
X263725Y199120D01*
X263735Y199012D01*
X263750Y198904D01*
X263768Y198796D01*
X263790Y198689D01*
X263816Y198584D01*
X263845Y198479D01*
X263879Y198375D01*
X263916Y198272D01*
X263957Y198171D01*
X264002Y198072D01*
X264050Y197974D01*
X264102Y197878D01*
X264157Y197784D01*
X264215Y197692D01*
X264277Y197602D01*
X264342Y197515D01*
X264410Y197429D01*
X264481Y197347D01*
X264555Y197267D01*
X264632Y197190D01*
X264712Y197115D01*
X264794Y197044D01*
X264879Y196975D01*
X264966Y196910D01*
X265056Y196848D01*
X265148Y196789D01*
X265242Y196733D01*
X265337Y196681D01*
X265435Y196633D01*
X265534Y196588D01*
X265635Y196547D01*
X265738Y196509D01*
X265841Y196475D01*
X265946Y196445D01*
X266052Y196418D01*
X266158Y196396D01*
X266266Y196377D01*
X266374Y196363D01*
X266482Y196352D01*
X266591Y196345D01*
X266700Y196342D01*
D78*
X267565Y210359D02*
X275540Y218334D01*
X267565Y218334D02*
X275540Y210359D01*
X271553Y210359D02*
X271553Y218334D01*
X267565Y214346D02*
X275540Y214346D01*
D11*
X258032Y180780D02*
X258032Y176623D01*
X258864Y175791D01*
X260526Y175791D01*
X261358Y176623D01*
X261358Y180780D01*
X265220Y179948D02*
X266883Y180780D01*
X265220Y179948D02*
X263557Y178285D01*
X263557Y176623D01*
X264388Y175791D01*
X266051Y175791D01*
X266883Y176623D01*
X266883Y177454D01*
X266051Y178285D01*
X263557Y178285D01*
X243196Y326785D02*
X242365Y327616D01*
X240702Y327616D01*
X239871Y326785D01*
X239871Y323459D01*
X240702Y322628D01*
X242365Y322628D01*
X243196Y323459D01*
X245396Y322628D02*
X248721Y322628D01*
X245396Y322628D02*
X248721Y325954D01*
X248721Y326785D01*
X247890Y327616D01*
X246227Y327616D01*
X245396Y326785D01*
X250920Y326785D02*
X250920Y323459D01*
X250920Y326785D02*
X251752Y327616D01*
X253415Y327616D01*
X254246Y326785D01*
X254246Y323459D01*
X253415Y322628D01*
X251752Y322628D01*
X250920Y323459D01*
X254246Y326785D01*
X243196Y338215D02*
X242365Y339046D01*
X240702Y339046D01*
X239871Y338215D01*
X239871Y334889D01*
X240702Y334058D01*
X242365Y334058D01*
X243196Y334889D01*
X245396Y334058D02*
X248721Y334058D01*
X245396Y334058D02*
X248721Y337384D01*
X248721Y338215D01*
X247890Y339046D01*
X246227Y339046D01*
X245396Y338215D01*
X250920Y337384D02*
X252583Y339046D01*
X252583Y334058D01*
X250920Y334058D02*
X254246Y334058D01*
X257415Y276216D02*
X256584Y275385D01*
X256584Y273722D01*
X257415Y272891D01*
X260741Y272891D01*
X261572Y273722D01*
X261572Y275385D01*
X260741Y276216D01*
X261572Y278416D02*
X261572Y281741D01*
X261572Y278416D02*
X258247Y281741D01*
X257415Y281741D01*
X256584Y280910D01*
X256584Y279247D01*
X257415Y278416D01*
X257415Y283940D02*
X256584Y284772D01*
X256584Y286435D01*
X257415Y287266D01*
X258247Y287266D01*
X259078Y286435D01*
X259078Y285603D01*
X259078Y286435D02*
X259909Y287266D01*
X260741Y287266D01*
X261572Y286435D01*
X261572Y284772D01*
X260741Y283940D01*
D72*
X126190Y329946D02*
X120190Y329946D01*
D11*
X120694Y298545D02*
X125682Y298545D01*
X120694Y298545D02*
X120694Y301039D01*
X121525Y301870D01*
X123188Y301870D01*
X124019Y301039D01*
X124019Y298545D01*
X124019Y300208D02*
X125682Y301870D01*
X122357Y304070D02*
X120694Y305732D01*
X125682Y305732D01*
X125682Y304070D02*
X125682Y307395D01*
X121525Y311257D02*
X120694Y312920D01*
X121525Y311257D02*
X123188Y309594D01*
X124851Y309594D01*
X125682Y310426D01*
X125682Y312089D01*
X124851Y312920D01*
X124019Y312920D01*
X123188Y312089D01*
X123188Y309594D01*
X132124Y347775D02*
X132955Y348606D01*
X132124Y347775D02*
X132124Y346112D01*
X132955Y345281D01*
X136281Y345281D01*
X137112Y346112D01*
X137112Y347775D01*
X136281Y348606D01*
X137112Y350806D02*
X137112Y354131D01*
X137112Y350806D02*
X133787Y354131D01*
X132955Y354131D01*
X132124Y353300D01*
X132124Y351637D01*
X132955Y350806D01*
X132124Y358824D02*
X137112Y358824D01*
X134618Y356330D02*
X132124Y358824D01*
X134618Y359656D02*
X134618Y356330D01*
D72*
X196850Y340820D02*
X196850Y334820D01*
D11*
X187801Y328886D02*
X187801Y323898D01*
X187801Y328886D02*
X190295Y328886D01*
X191126Y328055D01*
X191126Y326392D01*
X190295Y325561D01*
X187801Y325561D01*
X189464Y325561D02*
X191126Y323898D01*
X193326Y327224D02*
X194988Y328886D01*
X194988Y323898D01*
X193326Y323898D02*
X196651Y323898D01*
X198850Y328886D02*
X202176Y328886D01*
X202176Y328055D01*
X198850Y324729D01*
X198850Y323898D01*
X110095Y301616D02*
X109264Y300785D01*
X109264Y299122D01*
X110095Y298291D01*
X113421Y298291D01*
X114252Y299122D01*
X114252Y300785D01*
X113421Y301616D01*
X114252Y303816D02*
X114252Y307141D01*
X114252Y303816D02*
X110927Y307141D01*
X110095Y307141D01*
X109264Y306310D01*
X109264Y304647D01*
X110095Y303816D01*
X109264Y309340D02*
X109264Y312666D01*
X109264Y309340D02*
X111758Y309340D01*
X110927Y311003D01*
X110927Y311834D01*
X111758Y312666D01*
X113421Y312666D01*
X114252Y311834D01*
X114252Y310172D01*
X113421Y309340D01*
D71*
X53830Y299530D02*
X53830Y274030D01*
X53830Y299530D02*
X53830Y307530D01*
X53830Y333030D01*
X8830Y333030D02*
X8830Y274030D01*
X8830Y333030D02*
X30830Y333030D01*
X39830Y333030D01*
X53830Y333030D01*
X30830Y274030D02*
X8830Y274030D01*
X30830Y274030D02*
X39830Y274030D01*
X53830Y274030D01*
X14830Y280030D02*
X14830Y327030D01*
X14830Y280030D02*
X30830Y280030D01*
X39830Y280030D01*
X47830Y280030D01*
X47830Y299530D01*
X30830Y327030D02*
X14830Y327030D01*
X30830Y327030D02*
X39830Y327030D01*
X47830Y327030D01*
X39830Y280030D02*
X39830Y274030D01*
X30830Y274030D02*
X30830Y280030D01*
X30830Y327030D02*
X30830Y333030D01*
X39830Y333030D02*
X39830Y327030D01*
X47830Y327030D02*
X47830Y307530D01*
X53830Y307530D01*
X53830Y299530D02*
X47830Y299530D01*
D11*
X63525Y313039D02*
X59627Y316937D01*
X71321Y316937D01*
X71321Y313039D02*
X71321Y320835D01*
X1321Y274038D02*
X-3667Y274038D01*
X-3667Y276532D01*
X-2836Y277364D01*
X-1173Y277364D01*
X-342Y276532D01*
X-342Y274038D01*
X-2005Y279563D02*
X-3667Y281225D01*
X1321Y281225D01*
X1321Y279563D02*
X1321Y282888D01*
D71*
X361980Y459250D02*
X391980Y459250D01*
X430980Y459250D01*
X460980Y459250D01*
X460980Y504250D02*
X361980Y504250D01*
X460980Y504250D02*
X460980Y482250D01*
X460980Y473250D01*
X460980Y459250D01*
X361980Y482250D02*
X361980Y504250D01*
X361980Y482250D02*
X361980Y473250D01*
X361980Y459250D01*
X367980Y498250D02*
X454980Y498250D01*
X367980Y498250D02*
X367980Y482250D01*
X367980Y473250D01*
X367980Y465250D01*
X391980Y465250D01*
X454980Y482250D02*
X454980Y498250D01*
X454980Y482250D02*
X454980Y473250D01*
X454980Y465250D01*
X367980Y473250D02*
X361980Y473250D01*
X361980Y482250D02*
X367980Y482250D01*
X454980Y482250D02*
X460980Y482250D01*
X460980Y473250D02*
X454980Y473250D01*
X391980Y465250D02*
X391980Y459250D01*
X430980Y459250D02*
X430980Y465250D01*
X454980Y465250D01*
D11*
X444887Y453453D02*
X440989Y449555D01*
X444887Y453453D02*
X444887Y441759D01*
X440989Y441759D02*
X448785Y441759D01*
X468668Y464677D02*
X471994Y464677D01*
X468668Y464677D02*
X468668Y459689D01*
X471994Y459689D01*
X470331Y462183D02*
X468668Y462183D01*
X474193Y464677D02*
X477518Y459689D01*
X474193Y459689D02*
X477518Y464677D01*
X481380Y464677D02*
X481380Y459689D01*
X479717Y464677D02*
X483043Y464677D01*
D72*
X275060Y290000D02*
X275060Y281500D01*
X275060Y290000D02*
X304060Y290000D01*
X304060Y281500D01*
X275060Y281500D01*
X274810Y278000D02*
X274810Y267500D01*
D11*
X258964Y293418D02*
X257302Y293418D01*
X258133Y293418D02*
X258133Y298406D01*
X257302Y298406D02*
X258964Y298406D01*
X263479Y298406D02*
X264310Y297575D01*
X263479Y298406D02*
X261816Y298406D01*
X260985Y297575D01*
X260985Y294249D01*
X261816Y293418D01*
X263479Y293418D01*
X264310Y294249D01*
X266510Y298406D02*
X269835Y298406D01*
X266510Y298406D02*
X266510Y295912D01*
X268172Y296744D01*
X269004Y296744D01*
X269835Y295912D01*
X269835Y294249D01*
X269004Y293418D01*
X267341Y293418D01*
X266510Y294249D01*
X245985Y276216D02*
X245154Y275385D01*
X245154Y273722D01*
X245985Y272891D01*
X249311Y272891D01*
X250142Y273722D01*
X250142Y275385D01*
X249311Y276216D01*
X246817Y278416D02*
X245154Y280078D01*
X250142Y280078D01*
X250142Y278416D02*
X250142Y281741D01*
X245985Y283940D02*
X245154Y284772D01*
X245154Y286435D01*
X245985Y287266D01*
X246817Y287266D01*
X247648Y286435D01*
X247648Y285603D01*
X247648Y286435D02*
X248479Y287266D01*
X249311Y287266D01*
X250142Y286435D01*
X250142Y284772D01*
X249311Y283940D01*
D72*
X328930Y279570D02*
X328930Y269070D01*
D11*
X325183Y283258D02*
X325183Y288246D01*
X325183Y283258D02*
X328509Y283258D01*
X330708Y283258D02*
X334034Y283258D01*
X330708Y283258D02*
X334034Y286584D01*
X334034Y287415D01*
X333202Y288246D01*
X331539Y288246D01*
X330708Y287415D01*
D72*
X221440Y304800D02*
X215440Y304800D01*
D11*
X208232Y299783D02*
X203244Y299783D01*
X203244Y302277D01*
X204075Y303109D01*
X205738Y303109D01*
X206569Y302277D01*
X206569Y299783D01*
X206569Y301446D02*
X208232Y303109D01*
X204075Y306971D02*
X203244Y308634D01*
X204075Y306971D02*
X205738Y305308D01*
X207401Y305308D01*
X208232Y306139D01*
X208232Y307802D01*
X207401Y308634D01*
X206569Y308634D01*
X205738Y307802D01*
X205738Y305308D01*
D72*
X227890Y304800D02*
X234390Y304800D01*
D11*
X241344Y297021D02*
X246332Y297021D01*
X241344Y297021D02*
X241344Y299515D01*
X242175Y300346D01*
X243838Y300346D01*
X244669Y299515D01*
X244669Y297021D01*
X244669Y298684D02*
X246332Y300346D01*
X243007Y302546D02*
X241344Y304208D01*
X246332Y304208D01*
X246332Y302546D02*
X246332Y305871D01*
X242175Y308070D02*
X241344Y308902D01*
X241344Y310565D01*
X242175Y311396D01*
X243007Y311396D01*
X243838Y310565D01*
X244669Y311396D01*
X245501Y311396D01*
X246332Y310565D01*
X246332Y308902D01*
X245501Y308070D01*
X244669Y308070D01*
X243838Y308902D01*
X243007Y308070D01*
X242175Y308070D01*
X243838Y308902D02*
X243838Y310565D01*
D71*
X684610Y262910D02*
X844610Y262910D01*
X844610Y102910D02*
X684610Y102910D01*
X711704Y247910D02*
X711706Y248104D01*
X711714Y248298D01*
X711725Y248492D01*
X711742Y248685D01*
X711763Y248878D01*
X711790Y249070D01*
X711820Y249262D01*
X711856Y249452D01*
X711896Y249642D01*
X711941Y249831D01*
X711990Y250019D01*
X712044Y250205D01*
X712103Y250390D01*
X712166Y250573D01*
X712234Y250755D01*
X712306Y250935D01*
X712382Y251114D01*
X712463Y251290D01*
X712548Y251465D01*
X712638Y251637D01*
X712731Y251807D01*
X712829Y251974D01*
X712931Y252140D01*
X713036Y252302D01*
X713146Y252462D01*
X713260Y252620D01*
X713377Y252774D01*
X713499Y252926D01*
X713624Y253074D01*
X713752Y253219D01*
X713884Y253362D01*
X714020Y253500D01*
X714158Y253636D01*
X714301Y253768D01*
X714446Y253896D01*
X714594Y254021D01*
X714746Y254143D01*
X714900Y254260D01*
X715058Y254374D01*
X715218Y254484D01*
X715380Y254589D01*
X715546Y254691D01*
X715713Y254789D01*
X715883Y254882D01*
X716055Y254972D01*
X716230Y255057D01*
X716406Y255138D01*
X716585Y255214D01*
X716765Y255286D01*
X716947Y255354D01*
X717130Y255417D01*
X717315Y255476D01*
X717501Y255530D01*
X717689Y255579D01*
X717878Y255624D01*
X718068Y255664D01*
X718258Y255700D01*
X718450Y255730D01*
X718642Y255757D01*
X718835Y255778D01*
X719028Y255795D01*
X719222Y255806D01*
X719416Y255814D01*
X719610Y255816D01*
X719804Y255814D01*
X719998Y255806D01*
X720192Y255795D01*
X720385Y255778D01*
X720578Y255757D01*
X720770Y255730D01*
X720962Y255700D01*
X721152Y255664D01*
X721342Y255624D01*
X721531Y255579D01*
X721719Y255530D01*
X721905Y255476D01*
X722090Y255417D01*
X722273Y255354D01*
X722455Y255286D01*
X722635Y255214D01*
X722814Y255138D01*
X722990Y255057D01*
X723165Y254972D01*
X723337Y254882D01*
X723507Y254789D01*
X723674Y254691D01*
X723840Y254589D01*
X724002Y254484D01*
X724162Y254374D01*
X724320Y254260D01*
X724474Y254143D01*
X724626Y254021D01*
X724774Y253896D01*
X724919Y253768D01*
X725062Y253636D01*
X725200Y253500D01*
X725336Y253362D01*
X725468Y253219D01*
X725596Y253074D01*
X725721Y252926D01*
X725843Y252774D01*
X725960Y252620D01*
X726074Y252462D01*
X726184Y252302D01*
X726289Y252140D01*
X726391Y251974D01*
X726489Y251807D01*
X726582Y251637D01*
X726672Y251465D01*
X726757Y251290D01*
X726838Y251114D01*
X726914Y250935D01*
X726986Y250755D01*
X727054Y250573D01*
X727117Y250390D01*
X727176Y250205D01*
X727230Y250019D01*
X727279Y249831D01*
X727324Y249642D01*
X727364Y249452D01*
X727400Y249262D01*
X727430Y249070D01*
X727457Y248878D01*
X727478Y248685D01*
X727495Y248492D01*
X727506Y248298D01*
X727514Y248104D01*
X727516Y247910D01*
X727514Y247716D01*
X727506Y247522D01*
X727495Y247328D01*
X727478Y247135D01*
X727457Y246942D01*
X727430Y246750D01*
X727400Y246558D01*
X727364Y246368D01*
X727324Y246178D01*
X727279Y245989D01*
X727230Y245801D01*
X727176Y245615D01*
X727117Y245430D01*
X727054Y245247D01*
X726986Y245065D01*
X726914Y244885D01*
X726838Y244706D01*
X726757Y244530D01*
X726672Y244355D01*
X726582Y244183D01*
X726489Y244013D01*
X726391Y243846D01*
X726289Y243680D01*
X726184Y243518D01*
X726074Y243358D01*
X725960Y243200D01*
X725843Y243046D01*
X725721Y242894D01*
X725596Y242746D01*
X725468Y242601D01*
X725336Y242458D01*
X725200Y242320D01*
X725062Y242184D01*
X724919Y242052D01*
X724774Y241924D01*
X724626Y241799D01*
X724474Y241677D01*
X724320Y241560D01*
X724162Y241446D01*
X724002Y241336D01*
X723840Y241231D01*
X723674Y241129D01*
X723507Y241031D01*
X723337Y240938D01*
X723165Y240848D01*
X722990Y240763D01*
X722814Y240682D01*
X722635Y240606D01*
X722455Y240534D01*
X722273Y240466D01*
X722090Y240403D01*
X721905Y240344D01*
X721719Y240290D01*
X721531Y240241D01*
X721342Y240196D01*
X721152Y240156D01*
X720962Y240120D01*
X720770Y240090D01*
X720578Y240063D01*
X720385Y240042D01*
X720192Y240025D01*
X719998Y240014D01*
X719804Y240006D01*
X719610Y240004D01*
X719416Y240006D01*
X719222Y240014D01*
X719028Y240025D01*
X718835Y240042D01*
X718642Y240063D01*
X718450Y240090D01*
X718258Y240120D01*
X718068Y240156D01*
X717878Y240196D01*
X717689Y240241D01*
X717501Y240290D01*
X717315Y240344D01*
X717130Y240403D01*
X716947Y240466D01*
X716765Y240534D01*
X716585Y240606D01*
X716406Y240682D01*
X716230Y240763D01*
X716055Y240848D01*
X715883Y240938D01*
X715713Y241031D01*
X715546Y241129D01*
X715380Y241231D01*
X715218Y241336D01*
X715058Y241446D01*
X714900Y241560D01*
X714746Y241677D01*
X714594Y241799D01*
X714446Y241924D01*
X714301Y242052D01*
X714158Y242184D01*
X714020Y242320D01*
X713884Y242458D01*
X713752Y242601D01*
X713624Y242746D01*
X713499Y242894D01*
X713377Y243046D01*
X713260Y243200D01*
X713146Y243358D01*
X713036Y243518D01*
X712931Y243680D01*
X712829Y243846D01*
X712731Y244013D01*
X712638Y244183D01*
X712548Y244355D01*
X712463Y244530D01*
X712382Y244706D01*
X712306Y244885D01*
X712234Y245065D01*
X712166Y245247D01*
X712103Y245430D01*
X712044Y245615D01*
X711990Y245801D01*
X711941Y245989D01*
X711896Y246178D01*
X711856Y246368D01*
X711820Y246558D01*
X711790Y246750D01*
X711763Y246942D01*
X711742Y247135D01*
X711725Y247328D01*
X711714Y247522D01*
X711706Y247716D01*
X711704Y247910D01*
D70*
X823910Y30220D02*
X850410Y30220D01*
X823910Y30220D02*
X823910Y8720D01*
X831410Y1220D01*
X831410Y-36780D01*
X822910Y-36780D01*
X822910Y-48530D01*
X784910Y-48530D01*
X784910Y-36780D01*
X776410Y-36780D01*
X776410Y1220D01*
X783910Y8720D01*
X783910Y30220D01*
X757410Y30220D01*
X765410Y44720D02*
X842410Y44720D01*
X757410Y44720D02*
X757410Y30220D01*
X850410Y30220D02*
X850410Y44720D01*
D11*
X734464Y55468D02*
X731139Y60456D01*
X734464Y60456D02*
X731139Y55468D01*
X736663Y55468D02*
X739989Y55468D01*
X736663Y55468D02*
X739989Y58794D01*
X739989Y59625D01*
X739157Y60456D01*
X737495Y60456D01*
X736663Y59625D01*
X647305Y103719D02*
X646474Y102887D01*
X646474Y101225D01*
X647305Y100393D01*
X650631Y100393D01*
X651462Y101225D01*
X651462Y102887D01*
X650631Y103719D01*
X648137Y105918D02*
X646474Y107581D01*
X651462Y107581D01*
X651462Y105918D02*
X651462Y109244D01*
D72*
X381460Y201930D02*
X375460Y201930D01*
D11*
X375964Y175323D02*
X380952Y175323D01*
X375964Y175323D02*
X375964Y177817D01*
X376795Y178649D01*
X378458Y178649D01*
X379289Y177817D01*
X379289Y175323D01*
X379289Y176986D02*
X380952Y178649D01*
X377627Y180848D02*
X375964Y182511D01*
X380952Y182511D01*
X380952Y180848D02*
X380952Y184174D01*
D72*
X370030Y201930D02*
X364030Y201930D01*
D11*
X364534Y174053D02*
X369522Y174053D01*
X364534Y174053D02*
X364534Y176547D01*
X365365Y177379D01*
X367028Y177379D01*
X367859Y176547D01*
X367859Y174053D01*
X367859Y175716D02*
X369522Y177379D01*
X369522Y179578D02*
X369522Y182904D01*
X366197Y182904D02*
X369522Y179578D01*
X366197Y182904D02*
X365365Y182904D01*
X364534Y182072D01*
X364534Y180409D01*
X365365Y179578D01*
D72*
X331380Y486570D02*
X331382Y486633D01*
X331388Y486695D01*
X331398Y486757D01*
X331411Y486819D01*
X331429Y486879D01*
X331450Y486938D01*
X331475Y486996D01*
X331504Y487052D01*
X331536Y487106D01*
X331571Y487158D01*
X331609Y487207D01*
X331651Y487255D01*
X331695Y487299D01*
X331743Y487341D01*
X331792Y487379D01*
X331844Y487414D01*
X331898Y487446D01*
X331954Y487475D01*
X332012Y487500D01*
X332071Y487521D01*
X332131Y487539D01*
X332193Y487552D01*
X332255Y487562D01*
X332317Y487568D01*
X332380Y487570D01*
X332443Y487568D01*
X332505Y487562D01*
X332567Y487552D01*
X332629Y487539D01*
X332689Y487521D01*
X332748Y487500D01*
X332806Y487475D01*
X332862Y487446D01*
X332916Y487414D01*
X332968Y487379D01*
X333017Y487341D01*
X333065Y487299D01*
X333109Y487255D01*
X333151Y487207D01*
X333189Y487158D01*
X333224Y487106D01*
X333256Y487052D01*
X333285Y486996D01*
X333310Y486938D01*
X333331Y486879D01*
X333349Y486819D01*
X333362Y486757D01*
X333372Y486695D01*
X333378Y486633D01*
X333380Y486570D01*
X333378Y486507D01*
X333372Y486445D01*
X333362Y486383D01*
X333349Y486321D01*
X333331Y486261D01*
X333310Y486202D01*
X333285Y486144D01*
X333256Y486088D01*
X333224Y486034D01*
X333189Y485982D01*
X333151Y485933D01*
X333109Y485885D01*
X333065Y485841D01*
X333017Y485799D01*
X332968Y485761D01*
X332916Y485726D01*
X332862Y485694D01*
X332806Y485665D01*
X332748Y485640D01*
X332689Y485619D01*
X332629Y485601D01*
X332567Y485588D01*
X332505Y485578D01*
X332443Y485572D01*
X332380Y485570D01*
X332317Y485572D01*
X332255Y485578D01*
X332193Y485588D01*
X332131Y485601D01*
X332071Y485619D01*
X332012Y485640D01*
X331954Y485665D01*
X331898Y485694D01*
X331844Y485726D01*
X331792Y485761D01*
X331743Y485799D01*
X331695Y485841D01*
X331651Y485885D01*
X331609Y485933D01*
X331571Y485982D01*
X331536Y486034D01*
X331504Y486088D01*
X331475Y486144D01*
X331450Y486202D01*
X331429Y486261D01*
X331411Y486321D01*
X331398Y486383D01*
X331388Y486445D01*
X331382Y486507D01*
X331380Y486570D01*
D71*
X324880Y481370D02*
X294880Y481370D01*
X294880Y511770D02*
X324880Y511770D01*
D11*
X299229Y477016D02*
X300060Y476185D01*
X299229Y477016D02*
X297566Y477016D01*
X296734Y476185D01*
X296734Y475354D01*
X297566Y474522D01*
X299229Y474522D01*
X300060Y473691D01*
X300060Y472859D01*
X299229Y472028D01*
X297566Y472028D01*
X296734Y472859D01*
X302259Y472028D02*
X302259Y477016D01*
X302259Y474522D02*
X305585Y474522D01*
X305585Y477016D02*
X305585Y472028D01*
X309447Y472028D02*
X309447Y477016D01*
X311109Y477016D02*
X307784Y477016D01*
X313309Y472028D02*
X316634Y472028D01*
X313309Y472028D02*
X316634Y475354D01*
X316634Y476185D01*
X315803Y477016D01*
X314140Y477016D01*
X313309Y476185D01*
X318833Y475354D02*
X320496Y477016D01*
X320496Y472028D01*
X318833Y472028D02*
X322159Y472028D01*
D72*
X305260Y240030D02*
X299260Y240030D01*
D11*
X297243Y255318D02*
X297243Y260306D01*
X299737Y260306D01*
X300569Y259475D01*
X300569Y257812D01*
X299737Y256981D01*
X297243Y256981D01*
X298906Y256981D02*
X300569Y255318D01*
X302768Y256149D02*
X303599Y255318D01*
X305262Y255318D01*
X306094Y256149D01*
X306094Y259475D01*
X305262Y260306D01*
X303599Y260306D01*
X302768Y259475D01*
X302768Y258644D01*
X303599Y257812D01*
X306094Y257812D01*
D72*
X107054Y82332D02*
X92554Y82332D01*
D11*
X112574Y76417D02*
X117562Y76417D01*
X112574Y76417D02*
X112574Y79743D01*
X115068Y78080D02*
X115068Y76417D01*
X117562Y81942D02*
X117562Y85268D01*
X114237Y85268D02*
X117562Y81942D01*
X114237Y85268D02*
X113406Y85268D01*
X112574Y84436D01*
X112574Y82773D01*
X113406Y81942D01*
D71*
X124460Y351610D02*
X124460Y499110D01*
X-20540Y499110D01*
X-20540Y351610D02*
X124460Y351610D01*
X-20540Y351610D02*
X-20540Y499110D01*
D11*
X60198Y344386D02*
X60198Y339398D01*
X61861Y342724D02*
X60198Y344386D01*
X61861Y342724D02*
X63524Y344386D01*
X63524Y339398D01*
X65723Y339398D02*
X67385Y339398D01*
X66554Y339398D02*
X66554Y344386D01*
X65723Y344386D02*
X67385Y344386D01*
X71900Y344386D02*
X72731Y343555D01*
X71900Y344386D02*
X70237Y344386D01*
X69406Y343555D01*
X69406Y340229D01*
X70237Y339398D01*
X71900Y339398D01*
X72731Y340229D01*
X74931Y339398D02*
X74931Y344386D01*
X77425Y344386D01*
X78256Y343555D01*
X78256Y341892D01*
X77425Y341061D01*
X74931Y341061D01*
X76593Y341061D02*
X78256Y339398D01*
X81287Y344386D02*
X82949Y344386D01*
X81287Y344386D02*
X80455Y343555D01*
X80455Y340229D01*
X81287Y339398D01*
X82949Y339398D01*
X83781Y340229D01*
X83781Y343555D01*
X82949Y344386D01*
X88474Y344386D02*
X89306Y343555D01*
X88474Y344386D02*
X86811Y344386D01*
X85980Y343555D01*
X85980Y342724D01*
X86811Y341892D01*
X88474Y341892D01*
X89306Y341061D01*
X89306Y340229D01*
X88474Y339398D01*
X86811Y339398D01*
X85980Y340229D01*
X91505Y339398D02*
X91505Y344386D01*
X91505Y339398D02*
X93999Y339398D01*
X94830Y340229D01*
X94830Y343555D01*
X93999Y344386D01*
X91505Y344386D01*
D72*
X148590Y380540D02*
X148590Y386540D01*
D11*
X133302Y375761D02*
X128314Y375761D01*
X128314Y378255D01*
X129145Y379086D01*
X130808Y379086D01*
X131639Y378255D01*
X131639Y375761D01*
X131639Y377424D02*
X133302Y379086D01*
X133302Y381286D02*
X133302Y384611D01*
X133302Y381286D02*
X129977Y384611D01*
X129145Y384611D01*
X128314Y383780D01*
X128314Y382117D01*
X129145Y381286D01*
X128314Y389305D02*
X133302Y389305D01*
X130808Y386810D02*
X128314Y389305D01*
X130808Y390136D02*
X130808Y386810D01*
D72*
X160020Y405940D02*
X160020Y411940D01*
D11*
X176371Y411436D02*
X176371Y406448D01*
X176371Y411436D02*
X178865Y411436D01*
X179696Y410605D01*
X179696Y408942D01*
X178865Y408111D01*
X176371Y408111D01*
X178034Y408111D02*
X179696Y406448D01*
X181896Y406448D02*
X185221Y406448D01*
X181896Y406448D02*
X185221Y409774D01*
X185221Y410605D01*
X184390Y411436D01*
X182727Y411436D01*
X181896Y410605D01*
X187420Y411436D02*
X190746Y411436D01*
X187420Y411436D02*
X187420Y408942D01*
X189083Y409774D01*
X189915Y409774D01*
X190746Y408942D01*
X190746Y407279D01*
X189915Y406448D01*
X188252Y406448D01*
X187420Y407279D01*
D72*
X160020Y440230D02*
X160020Y446230D01*
D11*
X176371Y445726D02*
X176371Y440738D01*
X176371Y445726D02*
X178865Y445726D01*
X179696Y444895D01*
X179696Y443232D01*
X178865Y442401D01*
X176371Y442401D01*
X178034Y442401D02*
X179696Y440738D01*
X181896Y440738D02*
X185221Y440738D01*
X181896Y440738D02*
X185221Y444064D01*
X185221Y444895D01*
X184390Y445726D01*
X182727Y445726D01*
X181896Y444895D01*
X189083Y444895D02*
X190746Y445726D01*
X189083Y444895D02*
X187420Y443232D01*
X187420Y441569D01*
X188252Y440738D01*
X189915Y440738D01*
X190746Y441569D01*
X190746Y442401D01*
X189915Y443232D01*
X187420Y443232D01*
D72*
X158750Y464360D02*
X158750Y470360D01*
D11*
X176371Y469856D02*
X176371Y464868D01*
X176371Y469856D02*
X178865Y469856D01*
X179696Y469025D01*
X179696Y467362D01*
X178865Y466531D01*
X176371Y466531D01*
X178034Y466531D02*
X179696Y464868D01*
X181896Y464868D02*
X185221Y464868D01*
X181896Y464868D02*
X185221Y468194D01*
X185221Y469025D01*
X184390Y469856D01*
X182727Y469856D01*
X181896Y469025D01*
X187420Y469856D02*
X190746Y469856D01*
X190746Y469025D01*
X187420Y465699D01*
X187420Y464868D01*
D72*
X158750Y475790D02*
X158750Y481790D01*
D11*
X176371Y481286D02*
X176371Y476298D01*
X176371Y481286D02*
X178865Y481286D01*
X179696Y480455D01*
X179696Y478792D01*
X178865Y477961D01*
X176371Y477961D01*
X178034Y477961D02*
X179696Y476298D01*
X181896Y480455D02*
X182727Y481286D01*
X184390Y481286D01*
X185221Y480455D01*
X185221Y479624D01*
X184390Y478792D01*
X183558Y478792D01*
X184390Y478792D02*
X185221Y477961D01*
X185221Y477129D01*
X184390Y476298D01*
X182727Y476298D01*
X181896Y477129D01*
X187420Y477129D02*
X187420Y480455D01*
X188252Y481286D01*
X189915Y481286D01*
X190746Y480455D01*
X190746Y477129D01*
X189915Y476298D01*
X188252Y476298D01*
X187420Y477129D01*
X190746Y480455D01*
D72*
X158750Y457660D02*
X158750Y451660D01*
D11*
X176371Y452168D02*
X176371Y457156D01*
X178865Y457156D01*
X179696Y456325D01*
X179696Y454662D01*
X178865Y453831D01*
X176371Y453831D01*
X178034Y453831D02*
X179696Y452168D01*
X181896Y456325D02*
X182727Y457156D01*
X184390Y457156D01*
X185221Y456325D01*
X185221Y455494D01*
X184390Y454662D01*
X183558Y454662D01*
X184390Y454662D02*
X185221Y453831D01*
X185221Y452999D01*
X184390Y452168D01*
X182727Y452168D01*
X181896Y452999D01*
X187420Y455494D02*
X189083Y457156D01*
X189083Y452168D01*
X187420Y452168D02*
X190746Y452168D01*
D72*
X160020Y434800D02*
X160020Y428800D01*
D11*
X176371Y429308D02*
X176371Y434296D01*
X178865Y434296D01*
X179696Y433465D01*
X179696Y431802D01*
X178865Y430971D01*
X176371Y430971D01*
X178034Y430971D02*
X179696Y429308D01*
X181896Y433465D02*
X182727Y434296D01*
X184390Y434296D01*
X185221Y433465D01*
X185221Y432634D01*
X184390Y431802D01*
X183558Y431802D01*
X184390Y431802D02*
X185221Y430971D01*
X185221Y430139D01*
X184390Y429308D01*
X182727Y429308D01*
X181896Y430139D01*
X187420Y429308D02*
X190746Y429308D01*
X187420Y429308D02*
X190746Y432634D01*
X190746Y433465D01*
X189915Y434296D01*
X188252Y434296D01*
X187420Y433465D01*
D72*
X160020Y423370D02*
X160020Y417370D01*
D11*
X176371Y417878D02*
X176371Y422866D01*
X178865Y422866D01*
X179696Y422035D01*
X179696Y420372D01*
X178865Y419541D01*
X176371Y419541D01*
X178034Y419541D02*
X179696Y417878D01*
X181896Y422035D02*
X182727Y422866D01*
X184390Y422866D01*
X185221Y422035D01*
X185221Y421204D01*
X184390Y420372D01*
X183558Y420372D01*
X184390Y420372D02*
X185221Y419541D01*
X185221Y418709D01*
X184390Y417878D01*
X182727Y417878D01*
X181896Y418709D01*
X187420Y422035D02*
X188252Y422866D01*
X189915Y422866D01*
X190746Y422035D01*
X190746Y421204D01*
X189915Y420372D01*
X189083Y420372D01*
X189915Y420372D02*
X190746Y419541D01*
X190746Y418709D01*
X189915Y417878D01*
X188252Y417878D01*
X187420Y418709D01*
D72*
X160020Y400510D02*
X160020Y394510D01*
D11*
X176371Y395018D02*
X176371Y400006D01*
X178865Y400006D01*
X179696Y399175D01*
X179696Y397512D01*
X178865Y396681D01*
X176371Y396681D01*
X178034Y396681D02*
X179696Y395018D01*
X181896Y399175D02*
X182727Y400006D01*
X184390Y400006D01*
X185221Y399175D01*
X185221Y398344D01*
X184390Y397512D01*
X183558Y397512D01*
X184390Y397512D02*
X185221Y396681D01*
X185221Y395849D01*
X184390Y395018D01*
X182727Y395018D01*
X181896Y395849D01*
X189915Y395018D02*
X189915Y400006D01*
X187420Y397512D01*
X190746Y397512D01*
X350537Y318726D02*
X351369Y317895D01*
X350537Y318726D02*
X348875Y318726D01*
X348043Y317895D01*
X348043Y314569D01*
X348875Y313738D01*
X350537Y313738D01*
X351369Y314569D01*
X353568Y318726D02*
X356894Y318726D01*
X356894Y317895D01*
X353568Y314569D01*
X353568Y313738D01*
D71*
X399770Y330990D02*
X399770Y270990D01*
X364770Y270990D01*
X364770Y330990D01*
X399770Y330990D01*
D72*
X381270Y361950D02*
X381272Y362013D01*
X381278Y362075D01*
X381288Y362137D01*
X381301Y362199D01*
X381319Y362259D01*
X381340Y362318D01*
X381365Y362376D01*
X381394Y362432D01*
X381426Y362486D01*
X381461Y362538D01*
X381499Y362587D01*
X381541Y362635D01*
X381585Y362679D01*
X381633Y362721D01*
X381682Y362759D01*
X381734Y362794D01*
X381788Y362826D01*
X381844Y362855D01*
X381902Y362880D01*
X381961Y362901D01*
X382021Y362919D01*
X382083Y362932D01*
X382145Y362942D01*
X382207Y362948D01*
X382270Y362950D01*
X382333Y362948D01*
X382395Y362942D01*
X382457Y362932D01*
X382519Y362919D01*
X382579Y362901D01*
X382638Y362880D01*
X382696Y362855D01*
X382752Y362826D01*
X382806Y362794D01*
X382858Y362759D01*
X382907Y362721D01*
X382955Y362679D01*
X382999Y362635D01*
X383041Y362587D01*
X383079Y362538D01*
X383114Y362486D01*
X383146Y362432D01*
X383175Y362376D01*
X383200Y362318D01*
X383221Y362259D01*
X383239Y362199D01*
X383252Y362137D01*
X383262Y362075D01*
X383268Y362013D01*
X383270Y361950D01*
X383268Y361887D01*
X383262Y361825D01*
X383252Y361763D01*
X383239Y361701D01*
X383221Y361641D01*
X383200Y361582D01*
X383175Y361524D01*
X383146Y361468D01*
X383114Y361414D01*
X383079Y361362D01*
X383041Y361313D01*
X382999Y361265D01*
X382955Y361221D01*
X382907Y361179D01*
X382858Y361141D01*
X382806Y361106D01*
X382752Y361074D01*
X382696Y361045D01*
X382638Y361020D01*
X382579Y360999D01*
X382519Y360981D01*
X382457Y360968D01*
X382395Y360958D01*
X382333Y360952D01*
X382270Y360950D01*
X382207Y360952D01*
X382145Y360958D01*
X382083Y360968D01*
X382021Y360981D01*
X381961Y360999D01*
X381902Y361020D01*
X381844Y361045D01*
X381788Y361074D01*
X381734Y361106D01*
X381682Y361141D01*
X381633Y361179D01*
X381585Y361221D01*
X381541Y361265D01*
X381499Y361313D01*
X381461Y361362D01*
X381426Y361414D01*
X381394Y361468D01*
X381365Y361524D01*
X381340Y361582D01*
X381319Y361641D01*
X381301Y361701D01*
X381288Y361763D01*
X381278Y361825D01*
X381272Y361887D01*
X381270Y361950D01*
D11*
X405921Y296395D02*
X405089Y295563D01*
X405089Y293900D01*
X405921Y293069D01*
X406752Y293069D01*
X407583Y293900D01*
X407583Y295563D01*
X408415Y296395D01*
X409246Y296395D01*
X410078Y295563D01*
X410078Y293900D01*
X409246Y293069D01*
X410078Y298594D02*
X405089Y298594D01*
X408415Y300256D02*
X410078Y298594D01*
X408415Y300256D02*
X410078Y301919D01*
X405089Y301919D01*
X406752Y304118D02*
X405089Y305781D01*
X410078Y305781D01*
X410078Y304118D02*
X410078Y307444D01*
D74*
X70420Y41310D02*
X-21580Y41310D01*
X-21580Y131410D01*
X70420Y131410D01*
D76*
X58420Y137610D03*
D75*
X58390Y137608D01*
X58360Y137603D01*
X58331Y137594D01*
X58304Y137581D01*
X58278Y137566D01*
X58254Y137547D01*
X58233Y137526D01*
X58214Y137502D01*
X58199Y137476D01*
X58186Y137449D01*
X58177Y137420D01*
X58172Y137390D01*
X58170Y137360D01*
X58172Y137330D01*
X58177Y137300D01*
X58186Y137271D01*
X58199Y137244D01*
X58214Y137218D01*
X58233Y137194D01*
X58254Y137173D01*
X58278Y137154D01*
X58304Y137139D01*
X58331Y137126D01*
X58360Y137117D01*
X58390Y137112D01*
X58420Y137110D01*
D76*
X58420Y137110D03*
D75*
X58450Y137112D01*
X58480Y137117D01*
X58509Y137126D01*
X58536Y137139D01*
X58562Y137154D01*
X58586Y137173D01*
X58607Y137194D01*
X58626Y137218D01*
X58641Y137244D01*
X58654Y137271D01*
X58663Y137300D01*
X58668Y137330D01*
X58670Y137360D01*
X58668Y137390D01*
X58663Y137420D01*
X58654Y137449D01*
X58641Y137476D01*
X58626Y137502D01*
X58607Y137526D01*
X58586Y137547D01*
X58562Y137566D01*
X58536Y137581D01*
X58509Y137594D01*
X58480Y137603D01*
X58450Y137608D01*
X58420Y137610D01*
D11*
X26912Y84655D02*
X26081Y83823D01*
X26912Y84655D02*
X26912Y85486D01*
X26081Y86317D01*
X21924Y86317D01*
X21924Y85486D02*
X21924Y87149D01*
X26912Y89348D02*
X26912Y92674D01*
X23587Y92674D02*
X26912Y89348D01*
X23587Y92674D02*
X22755Y92674D01*
X21924Y91842D01*
X21924Y90179D01*
X22755Y89348D01*
D74*
X494700Y456630D02*
X494700Y548630D01*
X584800Y548630D01*
X584800Y456630D01*
D76*
X591000Y468630D03*
D75*
X590998Y468660D01*
X590993Y468690D01*
X590984Y468719D01*
X590971Y468746D01*
X590956Y468772D01*
X590937Y468796D01*
X590916Y468817D01*
X590892Y468836D01*
X590866Y468851D01*
X590839Y468864D01*
X590810Y468873D01*
X590780Y468878D01*
X590750Y468880D01*
X590720Y468878D01*
X590690Y468873D01*
X590661Y468864D01*
X590634Y468851D01*
X590608Y468836D01*
X590584Y468817D01*
X590563Y468796D01*
X590544Y468772D01*
X590529Y468746D01*
X590516Y468719D01*
X590507Y468690D01*
X590502Y468660D01*
X590500Y468630D01*
D76*
X590500Y468630D03*
D75*
X590502Y468600D01*
X590507Y468570D01*
X590516Y468541D01*
X590529Y468514D01*
X590544Y468488D01*
X590563Y468464D01*
X590584Y468443D01*
X590608Y468424D01*
X590634Y468409D01*
X590661Y468396D01*
X590690Y468387D01*
X590720Y468382D01*
X590750Y468380D01*
X590780Y468382D01*
X590810Y468387D01*
X590839Y468396D01*
X590866Y468409D01*
X590892Y468424D01*
X590916Y468443D01*
X590937Y468464D01*
X590956Y468488D01*
X590971Y468514D01*
X590984Y468541D01*
X590993Y468570D01*
X590998Y468600D01*
X591000Y468630D01*
D11*
X538045Y500138D02*
X537213Y500969D01*
X538045Y500138D02*
X538876Y500138D01*
X539707Y500969D01*
X539707Y505126D01*
X538876Y505126D02*
X540539Y505126D01*
X542738Y505126D02*
X546064Y505126D01*
X542738Y505126D02*
X542738Y502632D01*
X544401Y503464D01*
X545232Y503464D01*
X546064Y502632D01*
X546064Y500969D01*
X545232Y500138D01*
X543569Y500138D01*
X542738Y500969D01*
D73*
X775970Y386900D03*
D74*
X776014Y386902D01*
X776057Y386908D01*
X776099Y386917D01*
X776141Y386930D01*
X776181Y386947D01*
X776220Y386967D01*
X776257Y386990D01*
X776291Y387017D01*
X776324Y387046D01*
X776353Y387079D01*
X776380Y387113D01*
X776403Y387150D01*
X776423Y387189D01*
X776440Y387229D01*
X776453Y387271D01*
X776462Y387313D01*
X776468Y387356D01*
X776470Y387400D01*
X776468Y387444D01*
X776462Y387487D01*
X776453Y387529D01*
X776440Y387571D01*
X776423Y387611D01*
X776403Y387650D01*
X776380Y387687D01*
X776353Y387721D01*
X776324Y387754D01*
X776291Y387783D01*
X776257Y387810D01*
X776220Y387833D01*
X776181Y387853D01*
X776141Y387870D01*
X776099Y387883D01*
X776057Y387892D01*
X776014Y387898D01*
X775970Y387900D01*
D73*
X775970Y387900D03*
D74*
X775926Y387898D01*
X775883Y387892D01*
X775841Y387883D01*
X775799Y387870D01*
X775759Y387853D01*
X775720Y387833D01*
X775683Y387810D01*
X775649Y387783D01*
X775616Y387754D01*
X775587Y387721D01*
X775560Y387687D01*
X775537Y387650D01*
X775517Y387611D01*
X775500Y387571D01*
X775487Y387529D01*
X775478Y387487D01*
X775472Y387444D01*
X775470Y387400D01*
X775472Y387356D01*
X775478Y387313D01*
X775487Y387271D01*
X775500Y387229D01*
X775517Y387189D01*
X775537Y387150D01*
X775560Y387113D01*
X775587Y387079D01*
X775616Y387046D01*
X775649Y387017D01*
X775683Y386990D01*
X775720Y386967D01*
X775759Y386947D01*
X775799Y386930D01*
X775841Y386917D01*
X775883Y386908D01*
X775926Y386902D01*
X775970Y386900D01*
D72*
X783770Y364900D02*
X783770Y320900D01*
X742770Y320900D02*
X742770Y364900D01*
D11*
X765762Y300652D02*
X765762Y298989D01*
X765762Y299821D02*
X760774Y299821D01*
X760774Y300652D02*
X760774Y298989D01*
X760774Y305167D02*
X761605Y305998D01*
X760774Y305167D02*
X760774Y303504D01*
X761605Y302672D01*
X764931Y302672D01*
X765762Y303504D01*
X765762Y305167D01*
X764931Y305998D01*
X762437Y308197D02*
X760774Y309860D01*
X765762Y309860D01*
X765762Y308197D02*
X765762Y311523D01*
X765762Y313722D02*
X765762Y317047D01*
X765762Y313722D02*
X762437Y317047D01*
X761605Y317047D01*
X760774Y316216D01*
X760774Y314553D01*
X761605Y313722D01*
D72*
X770720Y411480D02*
X781220Y411480D01*
D11*
X770953Y428038D02*
X770953Y433026D01*
X773447Y433026D01*
X774279Y432195D01*
X774279Y430532D01*
X773447Y429701D01*
X770953Y429701D01*
X772616Y429701D02*
X774279Y428038D01*
X776478Y433026D02*
X779804Y433026D01*
X779804Y432195D01*
X776478Y428869D01*
X776478Y428038D01*
D72*
X896160Y411480D02*
X902160Y411480D01*
D11*
X894143Y428038D02*
X894143Y433026D01*
X896637Y433026D01*
X897469Y432195D01*
X897469Y430532D01*
X896637Y429701D01*
X894143Y429701D01*
X895806Y429701D02*
X897469Y428038D01*
X899668Y432195D02*
X900499Y433026D01*
X902162Y433026D01*
X902994Y432195D01*
X902994Y431364D01*
X902162Y430532D01*
X902994Y429701D01*
X902994Y428869D01*
X902162Y428038D01*
X900499Y428038D01*
X899668Y428869D01*
X899668Y429701D01*
X900499Y430532D01*
X899668Y431364D01*
X899668Y432195D01*
X900499Y430532D02*
X902162Y430532D01*
D74*
X756920Y437720D02*
X756876Y437722D01*
X756833Y437728D01*
X756791Y437737D01*
X756749Y437750D01*
X756709Y437767D01*
X756670Y437787D01*
X756633Y437810D01*
X756599Y437837D01*
X756566Y437866D01*
X756537Y437899D01*
X756510Y437933D01*
X756487Y437970D01*
X756467Y438009D01*
X756450Y438049D01*
X756437Y438091D01*
X756428Y438133D01*
X756422Y438176D01*
X756420Y438220D01*
X756422Y438264D01*
X756428Y438307D01*
X756437Y438349D01*
X756450Y438391D01*
X756467Y438431D01*
X756487Y438470D01*
X756510Y438507D01*
X756537Y438541D01*
X756566Y438574D01*
X756599Y438603D01*
X756633Y438630D01*
X756670Y438653D01*
X756709Y438673D01*
X756749Y438690D01*
X756791Y438703D01*
X756833Y438712D01*
X756876Y438718D01*
X756920Y438720D01*
X756964Y438718D01*
X757007Y438712D01*
X757049Y438703D01*
X757091Y438690D01*
X757131Y438673D01*
X757170Y438653D01*
X757207Y438630D01*
X757241Y438603D01*
X757274Y438574D01*
X757303Y438541D01*
X757330Y438507D01*
X757353Y438470D01*
X757373Y438431D01*
X757390Y438391D01*
X757403Y438349D01*
X757412Y438307D01*
X757418Y438264D01*
X757420Y438220D01*
X757418Y438176D01*
X757412Y438133D01*
X757403Y438091D01*
X757390Y438049D01*
X757373Y438009D01*
X757353Y437970D01*
X757330Y437933D01*
X757303Y437899D01*
X757274Y437866D01*
X757241Y437837D01*
X757207Y437810D01*
X757170Y437787D01*
X757131Y437767D01*
X757091Y437750D01*
X757049Y437737D01*
X757007Y437728D01*
X756964Y437722D01*
X756920Y437720D01*
D71*
X749300Y408940D02*
X764540Y408940D01*
X760730Y414020D01*
X756920Y419100D01*
X749300Y408940D01*
X750570Y410210D02*
X763270Y410210D01*
X751840Y411480D02*
X750570Y410210D01*
X751840Y411480D02*
X762000Y411480D01*
X760730Y412750D01*
X753110Y412750D01*
X754380Y414020D01*
X759460Y414020D02*
X760730Y414020D01*
X756920Y417830D02*
X751840Y411480D01*
X759460Y414020D02*
X756920Y417830D01*
X758190Y414020D02*
X759460Y414020D01*
X758190Y414020D02*
X754380Y414020D01*
X755650Y415290D01*
X756920Y416560D01*
X758190Y414020D01*
X756920Y415290D01*
X755650Y415290D01*
D11*
X746379Y391116D02*
X746379Y386128D01*
X749704Y386128D01*
X751903Y391116D02*
X755229Y391116D01*
X751903Y391116D02*
X751903Y386128D01*
X755229Y386128D01*
X753566Y388622D02*
X751903Y388622D01*
X757428Y391116D02*
X757428Y386128D01*
X759922Y386128D01*
X760754Y386959D01*
X760754Y390285D01*
X759922Y391116D01*
X757428Y391116D01*
X762953Y386959D02*
X763784Y386128D01*
X765447Y386128D01*
X766278Y386959D01*
X766278Y390285D01*
X765447Y391116D01*
X763784Y391116D01*
X762953Y390285D01*
X762953Y389454D01*
X763784Y388622D01*
X766278Y388622D01*
D73*
X775470Y276560D03*
D74*
X775472Y276516D01*
X775478Y276473D01*
X775487Y276431D01*
X775500Y276389D01*
X775517Y276349D01*
X775537Y276310D01*
X775560Y276273D01*
X775587Y276239D01*
X775616Y276206D01*
X775649Y276177D01*
X775683Y276150D01*
X775720Y276127D01*
X775759Y276107D01*
X775799Y276090D01*
X775841Y276077D01*
X775883Y276068D01*
X775926Y276062D01*
X775970Y276060D01*
X776014Y276062D01*
X776057Y276068D01*
X776099Y276077D01*
X776141Y276090D01*
X776181Y276107D01*
X776220Y276127D01*
X776257Y276150D01*
X776291Y276177D01*
X776324Y276206D01*
X776353Y276239D01*
X776380Y276273D01*
X776403Y276310D01*
X776423Y276349D01*
X776440Y276389D01*
X776453Y276431D01*
X776462Y276473D01*
X776468Y276516D01*
X776470Y276560D01*
D73*
X776470Y276560D03*
D74*
X776468Y276604D01*
X776462Y276647D01*
X776453Y276689D01*
X776440Y276731D01*
X776423Y276771D01*
X776403Y276810D01*
X776380Y276847D01*
X776353Y276881D01*
X776324Y276914D01*
X776291Y276943D01*
X776257Y276970D01*
X776220Y276993D01*
X776181Y277013D01*
X776141Y277030D01*
X776099Y277043D01*
X776057Y277052D01*
X776014Y277058D01*
X775970Y277060D01*
X775926Y277058D01*
X775883Y277052D01*
X775841Y277043D01*
X775799Y277030D01*
X775759Y277013D01*
X775720Y276993D01*
X775683Y276970D01*
X775649Y276943D01*
X775616Y276914D01*
X775587Y276881D01*
X775560Y276847D01*
X775537Y276810D01*
X775517Y276771D01*
X775500Y276731D01*
X775487Y276689D01*
X775478Y276647D01*
X775472Y276604D01*
X775470Y276560D01*
D11*
X783634Y281781D02*
X788622Y281781D01*
X783634Y281781D02*
X783634Y284275D01*
X784465Y285106D01*
X786128Y285106D01*
X786959Y284275D01*
X786959Y281781D01*
X786959Y283444D02*
X788622Y285106D01*
X785297Y287306D02*
X783634Y288968D01*
X788622Y288968D01*
X788622Y287306D02*
X788622Y290631D01*
X787791Y292830D02*
X784465Y292830D01*
X783634Y293662D01*
X783634Y295325D01*
X784465Y296156D01*
X787791Y296156D01*
X788622Y295325D01*
X788622Y293662D01*
X787791Y292830D01*
X784465Y296156D01*
D73*
X824230Y386900D03*
D74*
X824274Y386902D01*
X824317Y386908D01*
X824359Y386917D01*
X824401Y386930D01*
X824441Y386947D01*
X824480Y386967D01*
X824517Y386990D01*
X824551Y387017D01*
X824584Y387046D01*
X824613Y387079D01*
X824640Y387113D01*
X824663Y387150D01*
X824683Y387189D01*
X824700Y387229D01*
X824713Y387271D01*
X824722Y387313D01*
X824728Y387356D01*
X824730Y387400D01*
X824728Y387444D01*
X824722Y387487D01*
X824713Y387529D01*
X824700Y387571D01*
X824683Y387611D01*
X824663Y387650D01*
X824640Y387687D01*
X824613Y387721D01*
X824584Y387754D01*
X824551Y387783D01*
X824517Y387810D01*
X824480Y387833D01*
X824441Y387853D01*
X824401Y387870D01*
X824359Y387883D01*
X824317Y387892D01*
X824274Y387898D01*
X824230Y387900D01*
D73*
X824230Y387900D03*
D74*
X824186Y387898D01*
X824143Y387892D01*
X824101Y387883D01*
X824059Y387870D01*
X824019Y387853D01*
X823980Y387833D01*
X823943Y387810D01*
X823909Y387783D01*
X823876Y387754D01*
X823847Y387721D01*
X823820Y387687D01*
X823797Y387650D01*
X823777Y387611D01*
X823760Y387571D01*
X823747Y387529D01*
X823738Y387487D01*
X823732Y387444D01*
X823730Y387400D01*
X823732Y387356D01*
X823738Y387313D01*
X823747Y387271D01*
X823760Y387229D01*
X823777Y387189D01*
X823797Y387150D01*
X823820Y387113D01*
X823847Y387079D01*
X823876Y387046D01*
X823909Y387017D01*
X823943Y386990D01*
X823980Y386967D01*
X824019Y386947D01*
X824059Y386930D01*
X824101Y386917D01*
X824143Y386908D01*
X824186Y386902D01*
X824230Y386900D01*
D72*
X832030Y364900D02*
X832030Y320900D01*
X791030Y320900D02*
X791030Y364900D01*
D11*
X814022Y305954D02*
X814022Y304292D01*
X814022Y305123D02*
X809034Y305123D01*
X809034Y304292D02*
X809034Y305954D01*
X809034Y310469D02*
X809865Y311300D01*
X809034Y310469D02*
X809034Y308806D01*
X809865Y307975D01*
X813191Y307975D01*
X814022Y308806D01*
X814022Y310469D01*
X813191Y311300D01*
X814022Y313500D02*
X814022Y316825D01*
X814022Y313500D02*
X810697Y316825D01*
X809865Y316825D01*
X809034Y315994D01*
X809034Y314331D01*
X809865Y313500D01*
D72*
X808820Y411480D02*
X819320Y411480D01*
D11*
X806291Y428038D02*
X806291Y433026D01*
X808785Y433026D01*
X809616Y432195D01*
X809616Y430532D01*
X808785Y429701D01*
X806291Y429701D01*
X807954Y429701D02*
X809616Y428038D01*
X811816Y431364D02*
X813478Y433026D01*
X813478Y428038D01*
X811816Y428038D02*
X815141Y428038D01*
X817340Y431364D02*
X819003Y433026D01*
X819003Y428038D01*
X817340Y428038D02*
X820666Y428038D01*
D72*
X880920Y411480D02*
X886920Y411480D01*
D11*
X876141Y396196D02*
X876141Y391208D01*
X876141Y396196D02*
X878635Y396196D01*
X879466Y395365D01*
X879466Y393702D01*
X878635Y392871D01*
X876141Y392871D01*
X877804Y392871D02*
X879466Y391208D01*
X881666Y394534D02*
X883328Y396196D01*
X883328Y391208D01*
X881666Y391208D02*
X884991Y391208D01*
X887190Y391208D02*
X890516Y391208D01*
X887190Y391208D02*
X890516Y394534D01*
X890516Y395365D01*
X889685Y396196D01*
X888022Y396196D01*
X887190Y395365D01*
D74*
X795020Y437720D02*
X794976Y437722D01*
X794933Y437728D01*
X794891Y437737D01*
X794849Y437750D01*
X794809Y437767D01*
X794770Y437787D01*
X794733Y437810D01*
X794699Y437837D01*
X794666Y437866D01*
X794637Y437899D01*
X794610Y437933D01*
X794587Y437970D01*
X794567Y438009D01*
X794550Y438049D01*
X794537Y438091D01*
X794528Y438133D01*
X794522Y438176D01*
X794520Y438220D01*
X794522Y438264D01*
X794528Y438307D01*
X794537Y438349D01*
X794550Y438391D01*
X794567Y438431D01*
X794587Y438470D01*
X794610Y438507D01*
X794637Y438541D01*
X794666Y438574D01*
X794699Y438603D01*
X794733Y438630D01*
X794770Y438653D01*
X794809Y438673D01*
X794849Y438690D01*
X794891Y438703D01*
X794933Y438712D01*
X794976Y438718D01*
X795020Y438720D01*
X795064Y438718D01*
X795107Y438712D01*
X795149Y438703D01*
X795191Y438690D01*
X795231Y438673D01*
X795270Y438653D01*
X795307Y438630D01*
X795341Y438603D01*
X795374Y438574D01*
X795403Y438541D01*
X795430Y438507D01*
X795453Y438470D01*
X795473Y438431D01*
X795490Y438391D01*
X795503Y438349D01*
X795512Y438307D01*
X795518Y438264D01*
X795520Y438220D01*
X795518Y438176D01*
X795512Y438133D01*
X795503Y438091D01*
X795490Y438049D01*
X795473Y438009D01*
X795453Y437970D01*
X795430Y437933D01*
X795403Y437899D01*
X795374Y437866D01*
X795341Y437837D01*
X795307Y437810D01*
X795270Y437787D01*
X795231Y437767D01*
X795191Y437750D01*
X795149Y437737D01*
X795107Y437728D01*
X795064Y437722D01*
X795020Y437720D01*
D71*
X787400Y408940D02*
X802640Y408940D01*
X798830Y414020D01*
X795020Y419100D01*
X787400Y408940D01*
X788670Y410210D02*
X801370Y410210D01*
X789940Y411480D02*
X788670Y410210D01*
X789940Y411480D02*
X800100Y411480D01*
X798830Y412750D01*
X791210Y412750D01*
X792480Y414020D01*
X797560Y414020D02*
X798830Y414020D01*
X795020Y417830D02*
X789940Y411480D01*
X797560Y414020D02*
X795020Y417830D01*
X796290Y414020D02*
X797560Y414020D01*
X796290Y414020D02*
X792480Y414020D01*
X793750Y415290D01*
X795020Y416560D01*
X796290Y414020D01*
X795020Y415290D01*
X793750Y415290D01*
D11*
X784479Y391116D02*
X784479Y386128D01*
X787804Y386128D01*
X790003Y391116D02*
X793329Y391116D01*
X790003Y391116D02*
X790003Y386128D01*
X793329Y386128D01*
X791666Y388622D02*
X790003Y388622D01*
X795528Y391116D02*
X795528Y386128D01*
X798022Y386128D01*
X798854Y386959D01*
X798854Y390285D01*
X798022Y391116D01*
X795528Y391116D01*
X801053Y389454D02*
X802715Y391116D01*
X802715Y386128D01*
X801053Y386128D02*
X804378Y386128D01*
D73*
X823730Y276560D03*
D74*
X823732Y276516D01*
X823738Y276473D01*
X823747Y276431D01*
X823760Y276389D01*
X823777Y276349D01*
X823797Y276310D01*
X823820Y276273D01*
X823847Y276239D01*
X823876Y276206D01*
X823909Y276177D01*
X823943Y276150D01*
X823980Y276127D01*
X824019Y276107D01*
X824059Y276090D01*
X824101Y276077D01*
X824143Y276068D01*
X824186Y276062D01*
X824230Y276060D01*
X824274Y276062D01*
X824317Y276068D01*
X824359Y276077D01*
X824401Y276090D01*
X824441Y276107D01*
X824480Y276127D01*
X824517Y276150D01*
X824551Y276177D01*
X824584Y276206D01*
X824613Y276239D01*
X824640Y276273D01*
X824663Y276310D01*
X824683Y276349D01*
X824700Y276389D01*
X824713Y276431D01*
X824722Y276473D01*
X824728Y276516D01*
X824730Y276560D01*
D73*
X824730Y276560D03*
D74*
X824728Y276604D01*
X824722Y276647D01*
X824713Y276689D01*
X824700Y276731D01*
X824683Y276771D01*
X824663Y276810D01*
X824640Y276847D01*
X824613Y276881D01*
X824584Y276914D01*
X824551Y276943D01*
X824517Y276970D01*
X824480Y276993D01*
X824441Y277013D01*
X824401Y277030D01*
X824359Y277043D01*
X824317Y277052D01*
X824274Y277058D01*
X824230Y277060D01*
X824186Y277058D01*
X824143Y277052D01*
X824101Y277043D01*
X824059Y277030D01*
X824019Y277013D01*
X823980Y276993D01*
X823943Y276970D01*
X823909Y276943D01*
X823876Y276914D01*
X823847Y276881D01*
X823820Y276847D01*
X823797Y276810D01*
X823777Y276771D01*
X823760Y276731D01*
X823747Y276689D01*
X823738Y276647D01*
X823732Y276604D01*
X823730Y276560D01*
D11*
X816562Y281781D02*
X811574Y281781D01*
X811574Y284275D01*
X812405Y285106D01*
X814068Y285106D01*
X814899Y284275D01*
X814899Y281781D01*
X814899Y283444D02*
X816562Y285106D01*
X816562Y287306D02*
X816562Y290631D01*
X816562Y287306D02*
X813237Y290631D01*
X812405Y290631D01*
X811574Y289800D01*
X811574Y288137D01*
X812405Y287306D01*
X816562Y292830D02*
X816562Y296156D01*
X813237Y296156D02*
X816562Y292830D01*
X813237Y296156D02*
X812405Y296156D01*
X811574Y295325D01*
X811574Y293662D01*
X812405Y292830D01*
D76*
X728440Y468630D03*
D75*
X728438Y468660D01*
X728433Y468690D01*
X728424Y468719D01*
X728411Y468746D01*
X728396Y468772D01*
X728377Y468796D01*
X728356Y468817D01*
X728332Y468836D01*
X728306Y468851D01*
X728279Y468864D01*
X728250Y468873D01*
X728220Y468878D01*
X728190Y468880D01*
X728160Y468878D01*
X728130Y468873D01*
X728101Y468864D01*
X728074Y468851D01*
X728048Y468836D01*
X728024Y468817D01*
X728003Y468796D01*
X727984Y468772D01*
X727969Y468746D01*
X727956Y468719D01*
X727947Y468690D01*
X727942Y468660D01*
X727940Y468630D01*
D76*
X727940Y468630D03*
D75*
X727942Y468600D01*
X727947Y468570D01*
X727956Y468541D01*
X727969Y468514D01*
X727984Y468488D01*
X728003Y468464D01*
X728024Y468443D01*
X728048Y468424D01*
X728074Y468409D01*
X728101Y468396D01*
X728130Y468387D01*
X728160Y468382D01*
X728190Y468380D01*
X728220Y468382D01*
X728250Y468387D01*
X728279Y468396D01*
X728306Y468409D01*
X728332Y468424D01*
X728356Y468443D01*
X728377Y468464D01*
X728396Y468488D01*
X728411Y468514D01*
X728424Y468541D01*
X728433Y468570D01*
X728438Y468600D01*
X728440Y468630D01*
D72*
X720690Y456630D02*
X720690Y548630D01*
X593690Y548630D01*
X592490Y548630D01*
X592490Y456630D01*
D11*
X655443Y500969D02*
X656275Y500138D01*
X657106Y500138D01*
X657937Y500969D01*
X657937Y505126D01*
X657106Y505126D02*
X658769Y505126D01*
X660968Y504295D02*
X661799Y505126D01*
X663462Y505126D01*
X664294Y504295D01*
X664294Y503464D01*
X663462Y502632D01*
X662631Y502632D01*
X663462Y502632D02*
X664294Y501801D01*
X664294Y500969D01*
X663462Y500138D01*
X661799Y500138D01*
X660968Y500969D01*
D76*
X866870Y468630D03*
D75*
X866868Y468660D01*
X866863Y468690D01*
X866854Y468719D01*
X866841Y468746D01*
X866826Y468772D01*
X866807Y468796D01*
X866786Y468817D01*
X866762Y468836D01*
X866736Y468851D01*
X866709Y468864D01*
X866680Y468873D01*
X866650Y468878D01*
X866620Y468880D01*
X866590Y468878D01*
X866560Y468873D01*
X866531Y468864D01*
X866504Y468851D01*
X866478Y468836D01*
X866454Y468817D01*
X866433Y468796D01*
X866414Y468772D01*
X866399Y468746D01*
X866386Y468719D01*
X866377Y468690D01*
X866372Y468660D01*
X866370Y468630D01*
D76*
X866370Y468630D03*
D75*
X866372Y468600D01*
X866377Y468570D01*
X866386Y468541D01*
X866399Y468514D01*
X866414Y468488D01*
X866433Y468464D01*
X866454Y468443D01*
X866478Y468424D01*
X866504Y468409D01*
X866531Y468396D01*
X866560Y468387D01*
X866590Y468382D01*
X866620Y468380D01*
X866650Y468382D01*
X866680Y468387D01*
X866709Y468396D01*
X866736Y468409D01*
X866762Y468424D01*
X866786Y468443D01*
X866807Y468464D01*
X866826Y468488D01*
X866841Y468514D01*
X866854Y468541D01*
X866863Y468570D01*
X866868Y468600D01*
X866870Y468630D01*
D72*
X859120Y456630D02*
X859120Y548630D01*
X732120Y548630D01*
X730920Y548630D01*
X730920Y456630D01*
D11*
X793873Y500969D02*
X794705Y500138D01*
X795536Y500138D01*
X796367Y500969D01*
X796367Y505126D01*
X795536Y505126D02*
X797199Y505126D01*
X801892Y505126D02*
X801892Y500138D01*
X799398Y502632D02*
X801892Y505126D01*
X802724Y502632D02*
X799398Y502632D01*
D73*
X873760Y388170D03*
D74*
X873804Y388172D01*
X873847Y388178D01*
X873889Y388187D01*
X873931Y388200D01*
X873971Y388217D01*
X874010Y388237D01*
X874047Y388260D01*
X874081Y388287D01*
X874114Y388316D01*
X874143Y388349D01*
X874170Y388383D01*
X874193Y388420D01*
X874213Y388459D01*
X874230Y388499D01*
X874243Y388541D01*
X874252Y388583D01*
X874258Y388626D01*
X874260Y388670D01*
X874258Y388714D01*
X874252Y388757D01*
X874243Y388799D01*
X874230Y388841D01*
X874213Y388881D01*
X874193Y388920D01*
X874170Y388957D01*
X874143Y388991D01*
X874114Y389024D01*
X874081Y389053D01*
X874047Y389080D01*
X874010Y389103D01*
X873971Y389123D01*
X873931Y389140D01*
X873889Y389153D01*
X873847Y389162D01*
X873804Y389168D01*
X873760Y389170D01*
D73*
X873760Y389170D03*
D74*
X873716Y389168D01*
X873673Y389162D01*
X873631Y389153D01*
X873589Y389140D01*
X873549Y389123D01*
X873510Y389103D01*
X873473Y389080D01*
X873439Y389053D01*
X873406Y389024D01*
X873377Y388991D01*
X873350Y388957D01*
X873327Y388920D01*
X873307Y388881D01*
X873290Y388841D01*
X873277Y388799D01*
X873268Y388757D01*
X873262Y388714D01*
X873260Y388670D01*
X873262Y388626D01*
X873268Y388583D01*
X873277Y388541D01*
X873290Y388499D01*
X873307Y388459D01*
X873327Y388420D01*
X873350Y388383D01*
X873377Y388349D01*
X873406Y388316D01*
X873439Y388287D01*
X873473Y388260D01*
X873510Y388237D01*
X873549Y388217D01*
X873589Y388200D01*
X873631Y388187D01*
X873673Y388178D01*
X873716Y388172D01*
X873760Y388170D01*
D72*
X881560Y366170D02*
X881560Y322170D01*
X840560Y322170D02*
X840560Y366170D01*
D11*
X863552Y305954D02*
X863552Y304292D01*
X863552Y305123D02*
X858564Y305123D01*
X858564Y304292D02*
X858564Y305954D01*
X858564Y310469D02*
X859395Y311300D01*
X858564Y310469D02*
X858564Y308806D01*
X859395Y307975D01*
X862721Y307975D01*
X863552Y308806D01*
X863552Y310469D01*
X862721Y311300D01*
X859395Y313500D02*
X858564Y314331D01*
X858564Y315994D01*
X859395Y316825D01*
X860227Y316825D01*
X861058Y315994D01*
X861058Y315162D01*
X861058Y315994D02*
X861889Y316825D01*
X862721Y316825D01*
X863552Y315994D01*
X863552Y314331D01*
X862721Y313500D01*
D72*
X857420Y411480D02*
X846920Y411480D01*
D11*
X845661Y428038D02*
X845661Y433026D01*
X848155Y433026D01*
X848986Y432195D01*
X848986Y430532D01*
X848155Y429701D01*
X845661Y429701D01*
X847324Y429701D02*
X848986Y428038D01*
X851186Y431364D02*
X852848Y433026D01*
X852848Y428038D01*
X851186Y428038D02*
X854511Y428038D01*
X856710Y433026D02*
X860036Y433026D01*
X856710Y433026D02*
X856710Y430532D01*
X858373Y431364D01*
X859204Y431364D01*
X860036Y430532D01*
X860036Y428869D01*
X859204Y428038D01*
X857542Y428038D01*
X856710Y428869D01*
D72*
X866950Y411480D02*
X872950Y411480D01*
D11*
X863441Y428038D02*
X863441Y433026D01*
X865935Y433026D01*
X866766Y432195D01*
X866766Y430532D01*
X865935Y429701D01*
X863441Y429701D01*
X865104Y429701D02*
X866766Y428038D01*
X868966Y431364D02*
X870628Y433026D01*
X870628Y428038D01*
X868966Y428038D02*
X872291Y428038D01*
X874490Y428869D02*
X875322Y428038D01*
X876985Y428038D01*
X877816Y428869D01*
X877816Y432195D01*
X876985Y433026D01*
X875322Y433026D01*
X874490Y432195D01*
X874490Y431364D01*
X875322Y430532D01*
X877816Y430532D01*
D74*
X833120Y437720D02*
X833076Y437722D01*
X833033Y437728D01*
X832991Y437737D01*
X832949Y437750D01*
X832909Y437767D01*
X832870Y437787D01*
X832833Y437810D01*
X832799Y437837D01*
X832766Y437866D01*
X832737Y437899D01*
X832710Y437933D01*
X832687Y437970D01*
X832667Y438009D01*
X832650Y438049D01*
X832637Y438091D01*
X832628Y438133D01*
X832622Y438176D01*
X832620Y438220D01*
X832622Y438264D01*
X832628Y438307D01*
X832637Y438349D01*
X832650Y438391D01*
X832667Y438431D01*
X832687Y438470D01*
X832710Y438507D01*
X832737Y438541D01*
X832766Y438574D01*
X832799Y438603D01*
X832833Y438630D01*
X832870Y438653D01*
X832909Y438673D01*
X832949Y438690D01*
X832991Y438703D01*
X833033Y438712D01*
X833076Y438718D01*
X833120Y438720D01*
X833164Y438718D01*
X833207Y438712D01*
X833249Y438703D01*
X833291Y438690D01*
X833331Y438673D01*
X833370Y438653D01*
X833407Y438630D01*
X833441Y438603D01*
X833474Y438574D01*
X833503Y438541D01*
X833530Y438507D01*
X833553Y438470D01*
X833573Y438431D01*
X833590Y438391D01*
X833603Y438349D01*
X833612Y438307D01*
X833618Y438264D01*
X833620Y438220D01*
X833618Y438176D01*
X833612Y438133D01*
X833603Y438091D01*
X833590Y438049D01*
X833573Y438009D01*
X833553Y437970D01*
X833530Y437933D01*
X833503Y437899D01*
X833474Y437866D01*
X833441Y437837D01*
X833407Y437810D01*
X833370Y437787D01*
X833331Y437767D01*
X833291Y437750D01*
X833249Y437737D01*
X833207Y437728D01*
X833164Y437722D01*
X833120Y437720D01*
D71*
X825500Y408940D02*
X840740Y408940D01*
X836930Y414020D01*
X833120Y419100D01*
X825500Y408940D01*
X826770Y410210D02*
X839470Y410210D01*
X828040Y411480D02*
X826770Y410210D01*
X828040Y411480D02*
X838200Y411480D01*
X836930Y412750D01*
X829310Y412750D01*
X830580Y414020D01*
X835660Y414020D02*
X836930Y414020D01*
X833120Y417830D02*
X828040Y411480D01*
X835660Y414020D02*
X833120Y417830D01*
X834390Y414020D02*
X835660Y414020D01*
X834390Y414020D02*
X830580Y414020D01*
X831850Y415290D01*
X833120Y416560D01*
X834390Y414020D01*
X833120Y415290D01*
X831850Y415290D01*
D11*
X823849Y391116D02*
X823849Y386128D01*
X827174Y386128D01*
X829373Y391116D02*
X832699Y391116D01*
X829373Y391116D02*
X829373Y386128D01*
X832699Y386128D01*
X831036Y388622D02*
X829373Y388622D01*
X834898Y391116D02*
X834898Y386128D01*
X837392Y386128D01*
X838224Y386959D01*
X838224Y390285D01*
X837392Y391116D01*
X834898Y391116D01*
X840423Y386128D02*
X843748Y386128D01*
X840423Y386128D02*
X843748Y389454D01*
X843748Y390285D01*
X842917Y391116D01*
X841254Y391116D01*
X840423Y390285D01*
D73*
X873260Y276560D03*
D74*
X873262Y276516D01*
X873268Y276473D01*
X873277Y276431D01*
X873290Y276389D01*
X873307Y276349D01*
X873327Y276310D01*
X873350Y276273D01*
X873377Y276239D01*
X873406Y276206D01*
X873439Y276177D01*
X873473Y276150D01*
X873510Y276127D01*
X873549Y276107D01*
X873589Y276090D01*
X873631Y276077D01*
X873673Y276068D01*
X873716Y276062D01*
X873760Y276060D01*
X873804Y276062D01*
X873847Y276068D01*
X873889Y276077D01*
X873931Y276090D01*
X873971Y276107D01*
X874010Y276127D01*
X874047Y276150D01*
X874081Y276177D01*
X874114Y276206D01*
X874143Y276239D01*
X874170Y276273D01*
X874193Y276310D01*
X874213Y276349D01*
X874230Y276389D01*
X874243Y276431D01*
X874252Y276473D01*
X874258Y276516D01*
X874260Y276560D01*
D73*
X874260Y276560D03*
D74*
X874258Y276604D01*
X874252Y276647D01*
X874243Y276689D01*
X874230Y276731D01*
X874213Y276771D01*
X874193Y276810D01*
X874170Y276847D01*
X874143Y276881D01*
X874114Y276914D01*
X874081Y276943D01*
X874047Y276970D01*
X874010Y276993D01*
X873971Y277013D01*
X873931Y277030D01*
X873889Y277043D01*
X873847Y277052D01*
X873804Y277058D01*
X873760Y277060D01*
X873716Y277058D01*
X873673Y277052D01*
X873631Y277043D01*
X873589Y277030D01*
X873549Y277013D01*
X873510Y276993D01*
X873473Y276970D01*
X873439Y276943D01*
X873406Y276914D01*
X873377Y276881D01*
X873350Y276847D01*
X873327Y276810D01*
X873307Y276771D01*
X873290Y276731D01*
X873277Y276689D01*
X873268Y276647D01*
X873262Y276604D01*
X873260Y276560D01*
D11*
X881424Y281781D02*
X886412Y281781D01*
X881424Y281781D02*
X881424Y284275D01*
X882255Y285106D01*
X883918Y285106D01*
X884749Y284275D01*
X884749Y281781D01*
X884749Y283444D02*
X886412Y285106D01*
X886412Y287306D02*
X886412Y290631D01*
X886412Y287306D02*
X883087Y290631D01*
X882255Y290631D01*
X881424Y289800D01*
X881424Y288137D01*
X882255Y287306D01*
X882255Y292830D02*
X885581Y292830D01*
X882255Y292830D02*
X881424Y293662D01*
X881424Y295325D01*
X882255Y296156D01*
X885581Y296156D01*
X886412Y295325D01*
X886412Y293662D01*
X885581Y292830D01*
X882255Y296156D01*
D70*
X632714Y322051D02*
X632714Y363749D01*
X596646Y363749D01*
X596646Y322051D01*
X632714Y322051D01*
D11*
X601441Y330050D02*
X601443Y330166D01*
X601449Y330281D01*
X601459Y330396D01*
X601473Y330511D01*
X601491Y330625D01*
X601513Y330739D01*
X601538Y330851D01*
X601568Y330963D01*
X601601Y331074D01*
X601639Y331183D01*
X601680Y331291D01*
X601724Y331398D01*
X601773Y331503D01*
X601825Y331606D01*
X601880Y331708D01*
X601939Y331807D01*
X602001Y331905D01*
X602067Y332000D01*
X602136Y332093D01*
X602208Y332183D01*
X602283Y332271D01*
X602361Y332356D01*
X602442Y332438D01*
X602526Y332518D01*
X602613Y332595D01*
X602702Y332668D01*
X602794Y332739D01*
X602888Y332806D01*
X602984Y332870D01*
X603082Y332931D01*
X603183Y332988D01*
X603285Y333042D01*
X603389Y333092D01*
X603495Y333139D01*
X603602Y333181D01*
X603711Y333220D01*
X603821Y333256D01*
X603933Y333287D01*
X604045Y333315D01*
X604158Y333339D01*
X604272Y333359D01*
X604386Y333375D01*
X604501Y333387D01*
X604617Y333395D01*
X604732Y333399D01*
X604848Y333399D01*
X604963Y333395D01*
X605079Y333387D01*
X605194Y333375D01*
X605308Y333359D01*
X605422Y333339D01*
X605535Y333315D01*
X605647Y333287D01*
X605759Y333256D01*
X605869Y333220D01*
X605978Y333181D01*
X606085Y333139D01*
X606191Y333092D01*
X606295Y333042D01*
X606397Y332988D01*
X606498Y332931D01*
X606596Y332870D01*
X606692Y332806D01*
X606786Y332739D01*
X606878Y332668D01*
X606967Y332595D01*
X607054Y332518D01*
X607138Y332438D01*
X607219Y332356D01*
X607297Y332271D01*
X607372Y332183D01*
X607444Y332093D01*
X607513Y332000D01*
X607579Y331905D01*
X607641Y331807D01*
X607700Y331708D01*
X607755Y331606D01*
X607807Y331503D01*
X607856Y331398D01*
X607900Y331291D01*
X607941Y331183D01*
X607979Y331074D01*
X608012Y330963D01*
X608042Y330851D01*
X608067Y330739D01*
X608089Y330625D01*
X608107Y330511D01*
X608121Y330396D01*
X608131Y330281D01*
X608137Y330166D01*
X608139Y330050D01*
X608137Y329934D01*
X608131Y329819D01*
X608121Y329704D01*
X608107Y329589D01*
X608089Y329475D01*
X608067Y329361D01*
X608042Y329249D01*
X608012Y329137D01*
X607979Y329026D01*
X607941Y328917D01*
X607900Y328809D01*
X607856Y328702D01*
X607807Y328597D01*
X607755Y328494D01*
X607700Y328392D01*
X607641Y328293D01*
X607579Y328195D01*
X607513Y328100D01*
X607444Y328007D01*
X607372Y327917D01*
X607297Y327829D01*
X607219Y327744D01*
X607138Y327662D01*
X607054Y327582D01*
X606967Y327505D01*
X606878Y327432D01*
X606786Y327361D01*
X606692Y327294D01*
X606596Y327230D01*
X606498Y327169D01*
X606397Y327112D01*
X606295Y327058D01*
X606191Y327008D01*
X606085Y326961D01*
X605978Y326919D01*
X605869Y326880D01*
X605759Y326844D01*
X605647Y326813D01*
X605535Y326785D01*
X605422Y326761D01*
X605308Y326741D01*
X605194Y326725D01*
X605079Y326713D01*
X604963Y326705D01*
X604848Y326701D01*
X604732Y326701D01*
X604617Y326705D01*
X604501Y326713D01*
X604386Y326725D01*
X604272Y326741D01*
X604158Y326761D01*
X604045Y326785D01*
X603933Y326813D01*
X603821Y326844D01*
X603711Y326880D01*
X603602Y326919D01*
X603495Y326961D01*
X603389Y327008D01*
X603285Y327058D01*
X603183Y327112D01*
X603082Y327169D01*
X602984Y327230D01*
X602888Y327294D01*
X602794Y327361D01*
X602702Y327432D01*
X602613Y327505D01*
X602526Y327582D01*
X602442Y327662D01*
X602361Y327744D01*
X602283Y327829D01*
X602208Y327917D01*
X602136Y328007D01*
X602067Y328100D01*
X602001Y328195D01*
X601939Y328293D01*
X601880Y328392D01*
X601825Y328494D01*
X601773Y328597D01*
X601724Y328702D01*
X601680Y328809D01*
X601639Y328917D01*
X601601Y329026D01*
X601568Y329137D01*
X601538Y329249D01*
X601513Y329361D01*
X601491Y329475D01*
X601473Y329589D01*
X601459Y329704D01*
X601449Y329819D01*
X601443Y329934D01*
X601441Y330050D01*
X585046Y326844D02*
X585046Y325181D01*
X585877Y324350D01*
X589203Y324350D01*
X590034Y325181D01*
X590034Y326844D01*
X589203Y327676D01*
X585877Y327676D01*
X585046Y326844D01*
X585046Y332369D02*
X585877Y333200D01*
X585046Y332369D02*
X585046Y330706D01*
X585877Y329875D01*
X589203Y329875D01*
X590034Y330706D01*
X590034Y332369D01*
X589203Y333200D01*
X586709Y335400D02*
X585046Y337062D01*
X590034Y337062D01*
X590034Y335400D02*
X590034Y338725D01*
D72*
X624380Y287020D02*
X630380Y287020D01*
D11*
X635044Y279241D02*
X640032Y279241D01*
X635044Y279241D02*
X635044Y281735D01*
X635875Y282566D01*
X637538Y282566D01*
X638369Y281735D01*
X638369Y279241D01*
X638369Y280904D02*
X640032Y282566D01*
X635875Y286428D02*
X635044Y288091D01*
X635875Y286428D02*
X637538Y284766D01*
X639201Y284766D01*
X640032Y285597D01*
X640032Y287260D01*
X639201Y288091D01*
X638369Y288091D01*
X637538Y287260D01*
X637538Y284766D01*
X640032Y290290D02*
X640032Y293616D01*
X636707Y293616D02*
X640032Y290290D01*
X636707Y293616D02*
X635875Y293616D01*
X635044Y292785D01*
X635044Y291122D01*
X635875Y290290D01*
D73*
X564850Y376420D03*
D74*
X564806Y376418D01*
X564763Y376412D01*
X564721Y376403D01*
X564679Y376390D01*
X564639Y376373D01*
X564600Y376353D01*
X564563Y376330D01*
X564529Y376303D01*
X564496Y376274D01*
X564467Y376241D01*
X564440Y376207D01*
X564417Y376170D01*
X564397Y376131D01*
X564380Y376091D01*
X564367Y376049D01*
X564358Y376007D01*
X564352Y375964D01*
X564350Y375920D01*
X564352Y375876D01*
X564358Y375833D01*
X564367Y375791D01*
X564380Y375749D01*
X564397Y375709D01*
X564417Y375670D01*
X564440Y375633D01*
X564467Y375599D01*
X564496Y375566D01*
X564529Y375537D01*
X564563Y375510D01*
X564600Y375487D01*
X564639Y375467D01*
X564679Y375450D01*
X564721Y375437D01*
X564763Y375428D01*
X564806Y375422D01*
X564850Y375420D01*
D73*
X564850Y375420D03*
D74*
X564894Y375422D01*
X564937Y375428D01*
X564979Y375437D01*
X565021Y375450D01*
X565061Y375467D01*
X565100Y375487D01*
X565137Y375510D01*
X565171Y375537D01*
X565204Y375566D01*
X565233Y375599D01*
X565260Y375633D01*
X565283Y375670D01*
X565303Y375709D01*
X565320Y375749D01*
X565333Y375791D01*
X565342Y375833D01*
X565348Y375876D01*
X565350Y375920D01*
X565348Y375964D01*
X565342Y376007D01*
X565333Y376049D01*
X565320Y376091D01*
X565303Y376131D01*
X565283Y376170D01*
X565260Y376207D01*
X565233Y376241D01*
X565204Y376274D01*
X565171Y376303D01*
X565137Y376330D01*
X565100Y376353D01*
X565061Y376373D01*
X565021Y376390D01*
X564979Y376403D01*
X564937Y376412D01*
X564894Y376418D01*
X564850Y376420D01*
D11*
X570071Y382318D02*
X570071Y387306D01*
X572565Y387306D01*
X573396Y386475D01*
X573396Y384812D01*
X572565Y383981D01*
X570071Y383981D01*
X571734Y383981D02*
X573396Y382318D01*
X577258Y386475D02*
X578921Y387306D01*
X577258Y386475D02*
X575596Y384812D01*
X575596Y383149D01*
X576427Y382318D01*
X578090Y382318D01*
X578921Y383149D01*
X578921Y383981D01*
X578090Y384812D01*
X575596Y384812D01*
X581120Y386475D02*
X581952Y387306D01*
X583615Y387306D01*
X584446Y386475D01*
X584446Y385644D01*
X583615Y384812D01*
X582783Y384812D01*
X583615Y384812D02*
X584446Y383981D01*
X584446Y383149D01*
X583615Y382318D01*
X581952Y382318D01*
X581120Y383149D01*
D72*
X554990Y392990D02*
X554990Y399490D01*
D11*
X547211Y389846D02*
X547211Y384858D01*
X547211Y389846D02*
X549705Y389846D01*
X550536Y389015D01*
X550536Y387352D01*
X549705Y386521D01*
X547211Y386521D01*
X548874Y386521D02*
X550536Y384858D01*
X554398Y389015D02*
X556061Y389846D01*
X554398Y389015D02*
X552736Y387352D01*
X552736Y385689D01*
X553567Y384858D01*
X555230Y384858D01*
X556061Y385689D01*
X556061Y386521D01*
X555230Y387352D01*
X552736Y387352D01*
X560755Y384858D02*
X560755Y389846D01*
X558260Y387352D01*
X561586Y387352D01*
D72*
X544990Y415350D02*
X544990Y422850D01*
X564990Y422850D01*
X564990Y415350D01*
X544990Y415350D01*
X543490Y411850D02*
X543490Y404350D01*
D11*
X538543Y428869D02*
X538543Y432195D01*
X539375Y433026D01*
X541037Y433026D01*
X541869Y432195D01*
X541869Y428869D01*
X541037Y428038D01*
X539375Y428038D01*
X538543Y428869D01*
X540206Y429701D02*
X541869Y428038D01*
X544068Y431364D02*
X545731Y433026D01*
X545731Y428038D01*
X544068Y428038D02*
X547394Y428038D01*
D73*
X637040Y397210D03*
D74*
X637042Y397166D01*
X637048Y397123D01*
X637057Y397081D01*
X637070Y397039D01*
X637087Y396999D01*
X637107Y396960D01*
X637130Y396923D01*
X637157Y396889D01*
X637186Y396856D01*
X637219Y396827D01*
X637253Y396800D01*
X637290Y396777D01*
X637329Y396757D01*
X637369Y396740D01*
X637411Y396727D01*
X637453Y396718D01*
X637496Y396712D01*
X637540Y396710D01*
X637584Y396712D01*
X637627Y396718D01*
X637669Y396727D01*
X637711Y396740D01*
X637751Y396757D01*
X637790Y396777D01*
X637827Y396800D01*
X637861Y396827D01*
X637894Y396856D01*
X637923Y396889D01*
X637950Y396923D01*
X637973Y396960D01*
X637993Y396999D01*
X638010Y397039D01*
X638023Y397081D01*
X638032Y397123D01*
X638038Y397166D01*
X638040Y397210D01*
D73*
X638040Y397210D03*
D74*
X638038Y397254D01*
X638032Y397297D01*
X638023Y397339D01*
X638010Y397381D01*
X637993Y397421D01*
X637973Y397460D01*
X637950Y397497D01*
X637923Y397531D01*
X637894Y397564D01*
X637861Y397593D01*
X637827Y397620D01*
X637790Y397643D01*
X637751Y397663D01*
X637711Y397680D01*
X637669Y397693D01*
X637627Y397702D01*
X637584Y397708D01*
X637540Y397710D01*
X637496Y397708D01*
X637453Y397702D01*
X637411Y397693D01*
X637369Y397680D01*
X637329Y397663D01*
X637290Y397643D01*
X637253Y397620D01*
X637219Y397593D01*
X637186Y397564D01*
X637157Y397531D01*
X637130Y397497D01*
X637107Y397460D01*
X637087Y397421D01*
X637070Y397381D01*
X637057Y397339D01*
X637048Y397297D01*
X637042Y397254D01*
X637040Y397210D01*
D11*
X629761Y424228D02*
X629761Y429216D01*
X632255Y429216D01*
X633086Y428385D01*
X633086Y426722D01*
X632255Y425891D01*
X629761Y425891D01*
X631424Y425891D02*
X633086Y424228D01*
X636948Y428385D02*
X638611Y429216D01*
X636948Y428385D02*
X635286Y426722D01*
X635286Y425059D01*
X636117Y424228D01*
X637780Y424228D01*
X638611Y425059D01*
X638611Y425891D01*
X637780Y426722D01*
X635286Y426722D01*
X640810Y429216D02*
X644136Y429216D01*
X640810Y429216D02*
X640810Y426722D01*
X642473Y427554D01*
X643304Y427554D01*
X644136Y426722D01*
X644136Y425059D01*
X643304Y424228D01*
X641642Y424228D01*
X640810Y425059D01*
D74*
X618490Y437720D02*
X618446Y437722D01*
X618403Y437728D01*
X618361Y437737D01*
X618319Y437750D01*
X618279Y437767D01*
X618240Y437787D01*
X618203Y437810D01*
X618169Y437837D01*
X618136Y437866D01*
X618107Y437899D01*
X618080Y437933D01*
X618057Y437970D01*
X618037Y438009D01*
X618020Y438049D01*
X618007Y438091D01*
X617998Y438133D01*
X617992Y438176D01*
X617990Y438220D01*
X617992Y438264D01*
X617998Y438307D01*
X618007Y438349D01*
X618020Y438391D01*
X618037Y438431D01*
X618057Y438470D01*
X618080Y438507D01*
X618107Y438541D01*
X618136Y438574D01*
X618169Y438603D01*
X618203Y438630D01*
X618240Y438653D01*
X618279Y438673D01*
X618319Y438690D01*
X618361Y438703D01*
X618403Y438712D01*
X618446Y438718D01*
X618490Y438720D01*
X618534Y438718D01*
X618577Y438712D01*
X618619Y438703D01*
X618661Y438690D01*
X618701Y438673D01*
X618740Y438653D01*
X618777Y438630D01*
X618811Y438603D01*
X618844Y438574D01*
X618873Y438541D01*
X618900Y438507D01*
X618923Y438470D01*
X618943Y438431D01*
X618960Y438391D01*
X618973Y438349D01*
X618982Y438307D01*
X618988Y438264D01*
X618990Y438220D01*
X618988Y438176D01*
X618982Y438133D01*
X618973Y438091D01*
X618960Y438049D01*
X618943Y438009D01*
X618923Y437970D01*
X618900Y437933D01*
X618873Y437899D01*
X618844Y437866D01*
X618811Y437837D01*
X618777Y437810D01*
X618740Y437787D01*
X618701Y437767D01*
X618661Y437750D01*
X618619Y437737D01*
X618577Y437728D01*
X618534Y437722D01*
X618490Y437720D01*
D71*
X610870Y408940D02*
X626110Y408940D01*
X622300Y414020D01*
X618490Y419100D01*
X610870Y408940D01*
X612140Y410210D02*
X624840Y410210D01*
X613410Y411480D02*
X612140Y410210D01*
X613410Y411480D02*
X623570Y411480D01*
X622300Y412750D01*
X614680Y412750D01*
X615950Y414020D01*
X621030Y414020D02*
X622300Y414020D01*
X618490Y417830D02*
X613410Y411480D01*
X621030Y414020D02*
X618490Y417830D01*
X619760Y414020D02*
X621030Y414020D01*
X619760Y414020D02*
X615950Y414020D01*
X617220Y415290D01*
X618490Y416560D01*
X619760Y414020D01*
X618490Y415290D01*
X617220Y415290D01*
D11*
X607012Y403256D02*
X602024Y403256D01*
X607012Y403256D02*
X607012Y406582D01*
X602024Y408781D02*
X602024Y412106D01*
X602024Y408781D02*
X607012Y408781D01*
X607012Y412106D01*
X604518Y410444D02*
X604518Y408781D01*
X602024Y414306D02*
X607012Y414306D01*
X607012Y416800D01*
X606181Y417631D01*
X602855Y417631D01*
X602024Y416800D01*
X602024Y414306D01*
X603687Y419830D02*
X602024Y421493D01*
X607012Y421493D01*
X607012Y419830D02*
X607012Y423156D01*
X602024Y425355D02*
X602024Y428681D01*
X602855Y428681D01*
X606181Y425355D01*
X607012Y425355D01*
D70*
X680974Y363749D02*
X680974Y322051D01*
X680974Y363749D02*
X644906Y363749D01*
X644906Y322051D01*
X680974Y322051D01*
D11*
X649701Y330050D02*
X649703Y330166D01*
X649709Y330281D01*
X649719Y330396D01*
X649733Y330511D01*
X649751Y330625D01*
X649773Y330739D01*
X649798Y330851D01*
X649828Y330963D01*
X649861Y331074D01*
X649899Y331183D01*
X649940Y331291D01*
X649984Y331398D01*
X650033Y331503D01*
X650085Y331606D01*
X650140Y331708D01*
X650199Y331807D01*
X650261Y331905D01*
X650327Y332000D01*
X650396Y332093D01*
X650468Y332183D01*
X650543Y332271D01*
X650621Y332356D01*
X650702Y332438D01*
X650786Y332518D01*
X650873Y332595D01*
X650962Y332668D01*
X651054Y332739D01*
X651148Y332806D01*
X651244Y332870D01*
X651342Y332931D01*
X651443Y332988D01*
X651545Y333042D01*
X651649Y333092D01*
X651755Y333139D01*
X651862Y333181D01*
X651971Y333220D01*
X652081Y333256D01*
X652193Y333287D01*
X652305Y333315D01*
X652418Y333339D01*
X652532Y333359D01*
X652646Y333375D01*
X652761Y333387D01*
X652877Y333395D01*
X652992Y333399D01*
X653108Y333399D01*
X653223Y333395D01*
X653339Y333387D01*
X653454Y333375D01*
X653568Y333359D01*
X653682Y333339D01*
X653795Y333315D01*
X653907Y333287D01*
X654019Y333256D01*
X654129Y333220D01*
X654238Y333181D01*
X654345Y333139D01*
X654451Y333092D01*
X654555Y333042D01*
X654657Y332988D01*
X654758Y332931D01*
X654856Y332870D01*
X654952Y332806D01*
X655046Y332739D01*
X655138Y332668D01*
X655227Y332595D01*
X655314Y332518D01*
X655398Y332438D01*
X655479Y332356D01*
X655557Y332271D01*
X655632Y332183D01*
X655704Y332093D01*
X655773Y332000D01*
X655839Y331905D01*
X655901Y331807D01*
X655960Y331708D01*
X656015Y331606D01*
X656067Y331503D01*
X656116Y331398D01*
X656160Y331291D01*
X656201Y331183D01*
X656239Y331074D01*
X656272Y330963D01*
X656302Y330851D01*
X656327Y330739D01*
X656349Y330625D01*
X656367Y330511D01*
X656381Y330396D01*
X656391Y330281D01*
X656397Y330166D01*
X656399Y330050D01*
X656397Y329934D01*
X656391Y329819D01*
X656381Y329704D01*
X656367Y329589D01*
X656349Y329475D01*
X656327Y329361D01*
X656302Y329249D01*
X656272Y329137D01*
X656239Y329026D01*
X656201Y328917D01*
X656160Y328809D01*
X656116Y328702D01*
X656067Y328597D01*
X656015Y328494D01*
X655960Y328392D01*
X655901Y328293D01*
X655839Y328195D01*
X655773Y328100D01*
X655704Y328007D01*
X655632Y327917D01*
X655557Y327829D01*
X655479Y327744D01*
X655398Y327662D01*
X655314Y327582D01*
X655227Y327505D01*
X655138Y327432D01*
X655046Y327361D01*
X654952Y327294D01*
X654856Y327230D01*
X654758Y327169D01*
X654657Y327112D01*
X654555Y327058D01*
X654451Y327008D01*
X654345Y326961D01*
X654238Y326919D01*
X654129Y326880D01*
X654019Y326844D01*
X653907Y326813D01*
X653795Y326785D01*
X653682Y326761D01*
X653568Y326741D01*
X653454Y326725D01*
X653339Y326713D01*
X653223Y326705D01*
X653108Y326701D01*
X652992Y326701D01*
X652877Y326705D01*
X652761Y326713D01*
X652646Y326725D01*
X652532Y326741D01*
X652418Y326761D01*
X652305Y326785D01*
X652193Y326813D01*
X652081Y326844D01*
X651971Y326880D01*
X651862Y326919D01*
X651755Y326961D01*
X651649Y327008D01*
X651545Y327058D01*
X651443Y327112D01*
X651342Y327169D01*
X651244Y327230D01*
X651148Y327294D01*
X651054Y327361D01*
X650962Y327432D01*
X650873Y327505D01*
X650786Y327582D01*
X650702Y327662D01*
X650621Y327744D01*
X650543Y327829D01*
X650468Y327917D01*
X650396Y328007D01*
X650327Y328100D01*
X650261Y328195D01*
X650199Y328293D01*
X650140Y328392D01*
X650085Y328494D01*
X650033Y328597D01*
X649984Y328702D01*
X649940Y328809D01*
X649899Y328917D01*
X649861Y329026D01*
X649828Y329137D01*
X649798Y329249D01*
X649773Y329361D01*
X649751Y329475D01*
X649733Y329589D01*
X649719Y329704D01*
X649709Y329819D01*
X649703Y329934D01*
X649701Y330050D01*
X659642Y302666D02*
X659642Y301003D01*
X660473Y300172D01*
X663799Y300172D01*
X664630Y301003D01*
X664630Y302666D01*
X663799Y303497D01*
X660473Y303497D01*
X659642Y302666D01*
X659642Y308191D02*
X660473Y309022D01*
X659642Y308191D02*
X659642Y306528D01*
X660473Y305696D01*
X663799Y305696D01*
X664630Y306528D01*
X664630Y308191D01*
X663799Y309022D01*
X664630Y311221D02*
X664630Y314547D01*
X664630Y311221D02*
X661304Y314547D01*
X660473Y314547D01*
X659642Y313715D01*
X659642Y312053D01*
X660473Y311221D01*
D72*
X672640Y285750D02*
X678640Y285750D01*
D11*
X683304Y277971D02*
X688292Y277971D01*
X683304Y277971D02*
X683304Y280465D01*
X684135Y281296D01*
X685798Y281296D01*
X686629Y280465D01*
X686629Y277971D01*
X686629Y279634D02*
X688292Y281296D01*
X684135Y285158D02*
X683304Y286821D01*
X684135Y285158D02*
X685798Y283496D01*
X687461Y283496D01*
X688292Y284327D01*
X688292Y285990D01*
X687461Y286821D01*
X686629Y286821D01*
X685798Y285990D01*
X685798Y283496D01*
X684135Y290683D02*
X683304Y292346D01*
X684135Y290683D02*
X685798Y289020D01*
X687461Y289020D01*
X688292Y289852D01*
X688292Y291515D01*
X687461Y292346D01*
X686629Y292346D01*
X685798Y291515D01*
X685798Y289020D01*
D73*
X639310Y392730D03*
D74*
X639308Y392774D01*
X639302Y392817D01*
X639293Y392859D01*
X639280Y392901D01*
X639263Y392941D01*
X639243Y392980D01*
X639220Y393017D01*
X639193Y393051D01*
X639164Y393084D01*
X639131Y393113D01*
X639097Y393140D01*
X639060Y393163D01*
X639021Y393183D01*
X638981Y393200D01*
X638939Y393213D01*
X638897Y393222D01*
X638854Y393228D01*
X638810Y393230D01*
X638766Y393228D01*
X638723Y393222D01*
X638681Y393213D01*
X638639Y393200D01*
X638599Y393183D01*
X638560Y393163D01*
X638523Y393140D01*
X638489Y393113D01*
X638456Y393084D01*
X638427Y393051D01*
X638400Y393017D01*
X638377Y392980D01*
X638357Y392941D01*
X638340Y392901D01*
X638327Y392859D01*
X638318Y392817D01*
X638312Y392774D01*
X638310Y392730D01*
D73*
X638310Y392730D03*
D74*
X638312Y392686D01*
X638318Y392643D01*
X638327Y392601D01*
X638340Y392559D01*
X638357Y392519D01*
X638377Y392480D01*
X638400Y392443D01*
X638427Y392409D01*
X638456Y392376D01*
X638489Y392347D01*
X638523Y392320D01*
X638560Y392297D01*
X638599Y392277D01*
X638639Y392260D01*
X638681Y392247D01*
X638723Y392238D01*
X638766Y392232D01*
X638810Y392230D01*
X638854Y392232D01*
X638897Y392238D01*
X638939Y392247D01*
X638981Y392260D01*
X639021Y392277D01*
X639060Y392297D01*
X639097Y392320D01*
X639131Y392347D01*
X639164Y392376D01*
X639193Y392409D01*
X639220Y392443D01*
X639243Y392480D01*
X639263Y392519D01*
X639280Y392559D01*
X639293Y392601D01*
X639302Y392643D01*
X639308Y392686D01*
X639310Y392730D01*
D11*
X617061Y389846D02*
X617061Y384858D01*
X617061Y389846D02*
X619555Y389846D01*
X620386Y389015D01*
X620386Y387352D01*
X619555Y386521D01*
X617061Y386521D01*
X618724Y386521D02*
X620386Y384858D01*
X624248Y389015D02*
X625911Y389846D01*
X624248Y389015D02*
X622586Y387352D01*
X622586Y385689D01*
X623417Y384858D01*
X625080Y384858D01*
X625911Y385689D01*
X625911Y386521D01*
X625080Y387352D01*
X622586Y387352D01*
X628110Y389846D02*
X631436Y389846D01*
X631436Y389015D01*
X628110Y385689D01*
X628110Y384858D01*
D72*
X585470Y392990D02*
X585470Y399490D01*
D11*
X577691Y389846D02*
X577691Y384858D01*
X577691Y389846D02*
X580185Y389846D01*
X581016Y389015D01*
X581016Y387352D01*
X580185Y386521D01*
X577691Y386521D01*
X579354Y386521D02*
X581016Y384858D01*
X584878Y389015D02*
X586541Y389846D01*
X584878Y389015D02*
X583216Y387352D01*
X583216Y385689D01*
X584047Y384858D01*
X585710Y384858D01*
X586541Y385689D01*
X586541Y386521D01*
X585710Y387352D01*
X583216Y387352D01*
X588740Y389015D02*
X589572Y389846D01*
X591235Y389846D01*
X592066Y389015D01*
X592066Y388184D01*
X591235Y387352D01*
X592066Y386521D01*
X592066Y385689D01*
X591235Y384858D01*
X589572Y384858D01*
X588740Y385689D01*
X588740Y386521D01*
X589572Y387352D01*
X588740Y388184D01*
X588740Y389015D01*
X589572Y387352D02*
X591235Y387352D01*
D72*
X575470Y415350D02*
X575470Y422850D01*
X595470Y422850D01*
X595470Y415350D01*
X575470Y415350D01*
X573970Y411850D02*
X573970Y404350D01*
D11*
X567753Y428869D02*
X567753Y432195D01*
X568585Y433026D01*
X570247Y433026D01*
X571079Y432195D01*
X571079Y428869D01*
X570247Y428038D01*
X568585Y428038D01*
X567753Y428869D01*
X569416Y429701D02*
X571079Y428038D01*
X573278Y428038D02*
X576604Y428038D01*
X573278Y428038D02*
X576604Y431364D01*
X576604Y432195D01*
X575772Y433026D01*
X574109Y433026D01*
X573278Y432195D01*
D73*
X675140Y397210D03*
D74*
X675142Y397166D01*
X675148Y397123D01*
X675157Y397081D01*
X675170Y397039D01*
X675187Y396999D01*
X675207Y396960D01*
X675230Y396923D01*
X675257Y396889D01*
X675286Y396856D01*
X675319Y396827D01*
X675353Y396800D01*
X675390Y396777D01*
X675429Y396757D01*
X675469Y396740D01*
X675511Y396727D01*
X675553Y396718D01*
X675596Y396712D01*
X675640Y396710D01*
X675684Y396712D01*
X675727Y396718D01*
X675769Y396727D01*
X675811Y396740D01*
X675851Y396757D01*
X675890Y396777D01*
X675927Y396800D01*
X675961Y396827D01*
X675994Y396856D01*
X676023Y396889D01*
X676050Y396923D01*
X676073Y396960D01*
X676093Y396999D01*
X676110Y397039D01*
X676123Y397081D01*
X676132Y397123D01*
X676138Y397166D01*
X676140Y397210D01*
D73*
X676140Y397210D03*
D74*
X676138Y397254D01*
X676132Y397297D01*
X676123Y397339D01*
X676110Y397381D01*
X676093Y397421D01*
X676073Y397460D01*
X676050Y397497D01*
X676023Y397531D01*
X675994Y397564D01*
X675961Y397593D01*
X675927Y397620D01*
X675890Y397643D01*
X675851Y397663D01*
X675811Y397680D01*
X675769Y397693D01*
X675727Y397702D01*
X675684Y397708D01*
X675640Y397710D01*
X675596Y397708D01*
X675553Y397702D01*
X675511Y397693D01*
X675469Y397680D01*
X675429Y397663D01*
X675390Y397643D01*
X675353Y397620D01*
X675319Y397593D01*
X675286Y397564D01*
X675257Y397531D01*
X675230Y397497D01*
X675207Y397460D01*
X675187Y397421D01*
X675170Y397381D01*
X675157Y397339D01*
X675148Y397297D01*
X675142Y397254D01*
X675140Y397210D01*
D11*
X667861Y424228D02*
X667861Y429216D01*
X670355Y429216D01*
X671186Y428385D01*
X671186Y426722D01*
X670355Y425891D01*
X667861Y425891D01*
X669524Y425891D02*
X671186Y424228D01*
X675048Y428385D02*
X676711Y429216D01*
X675048Y428385D02*
X673386Y426722D01*
X673386Y425059D01*
X674217Y424228D01*
X675880Y424228D01*
X676711Y425059D01*
X676711Y425891D01*
X675880Y426722D01*
X673386Y426722D01*
X678910Y425059D02*
X679742Y424228D01*
X681404Y424228D01*
X682236Y425059D01*
X682236Y428385D01*
X681404Y429216D01*
X679742Y429216D01*
X678910Y428385D01*
X678910Y427554D01*
X679742Y426722D01*
X682236Y426722D01*
D74*
X656590Y437720D02*
X656546Y437722D01*
X656503Y437728D01*
X656461Y437737D01*
X656419Y437750D01*
X656379Y437767D01*
X656340Y437787D01*
X656303Y437810D01*
X656269Y437837D01*
X656236Y437866D01*
X656207Y437899D01*
X656180Y437933D01*
X656157Y437970D01*
X656137Y438009D01*
X656120Y438049D01*
X656107Y438091D01*
X656098Y438133D01*
X656092Y438176D01*
X656090Y438220D01*
X656092Y438264D01*
X656098Y438307D01*
X656107Y438349D01*
X656120Y438391D01*
X656137Y438431D01*
X656157Y438470D01*
X656180Y438507D01*
X656207Y438541D01*
X656236Y438574D01*
X656269Y438603D01*
X656303Y438630D01*
X656340Y438653D01*
X656379Y438673D01*
X656419Y438690D01*
X656461Y438703D01*
X656503Y438712D01*
X656546Y438718D01*
X656590Y438720D01*
X656634Y438718D01*
X656677Y438712D01*
X656719Y438703D01*
X656761Y438690D01*
X656801Y438673D01*
X656840Y438653D01*
X656877Y438630D01*
X656911Y438603D01*
X656944Y438574D01*
X656973Y438541D01*
X657000Y438507D01*
X657023Y438470D01*
X657043Y438431D01*
X657060Y438391D01*
X657073Y438349D01*
X657082Y438307D01*
X657088Y438264D01*
X657090Y438220D01*
X657088Y438176D01*
X657082Y438133D01*
X657073Y438091D01*
X657060Y438049D01*
X657043Y438009D01*
X657023Y437970D01*
X657000Y437933D01*
X656973Y437899D01*
X656944Y437866D01*
X656911Y437837D01*
X656877Y437810D01*
X656840Y437787D01*
X656801Y437767D01*
X656761Y437750D01*
X656719Y437737D01*
X656677Y437728D01*
X656634Y437722D01*
X656590Y437720D01*
D71*
X648970Y408940D02*
X664210Y408940D01*
X660400Y414020D01*
X656590Y419100D01*
X648970Y408940D01*
X650240Y410210D02*
X662940Y410210D01*
X651510Y411480D02*
X650240Y410210D01*
X651510Y411480D02*
X661670Y411480D01*
X660400Y412750D01*
X652780Y412750D01*
X654050Y414020D01*
X659130Y414020D02*
X660400Y414020D01*
X656590Y417830D02*
X651510Y411480D01*
X659130Y414020D02*
X656590Y417830D01*
X657860Y414020D02*
X659130Y414020D01*
X657860Y414020D02*
X654050Y414020D01*
X655320Y415290D01*
X656590Y416560D01*
X657860Y414020D01*
X656590Y415290D01*
X655320Y415290D01*
D11*
X647096Y391116D02*
X647096Y386128D01*
X650422Y386128D01*
X652621Y391116D02*
X655946Y391116D01*
X652621Y391116D02*
X652621Y386128D01*
X655946Y386128D01*
X654284Y388622D02*
X652621Y388622D01*
X658146Y391116D02*
X658146Y386128D01*
X660640Y386128D01*
X661471Y386959D01*
X661471Y390285D01*
X660640Y391116D01*
X658146Y391116D01*
X663670Y389454D02*
X665333Y391116D01*
X665333Y386128D01*
X663670Y386128D02*
X666996Y386128D01*
X669195Y390285D02*
X670026Y391116D01*
X671689Y391116D01*
X672521Y390285D01*
X672521Y389454D01*
X671689Y388622D01*
X672521Y387791D01*
X672521Y386959D01*
X671689Y386128D01*
X670026Y386128D01*
X669195Y386959D01*
X669195Y387791D01*
X670026Y388622D01*
X669195Y389454D01*
X669195Y390285D01*
X670026Y388622D02*
X671689Y388622D01*
D70*
X730504Y363749D02*
X730504Y322051D01*
X730504Y363749D02*
X694436Y363749D01*
X694436Y322051D01*
X730504Y322051D01*
D11*
X699231Y330050D02*
X699233Y330166D01*
X699239Y330281D01*
X699249Y330396D01*
X699263Y330511D01*
X699281Y330625D01*
X699303Y330739D01*
X699328Y330851D01*
X699358Y330963D01*
X699391Y331074D01*
X699429Y331183D01*
X699470Y331291D01*
X699514Y331398D01*
X699563Y331503D01*
X699615Y331606D01*
X699670Y331708D01*
X699729Y331807D01*
X699791Y331905D01*
X699857Y332000D01*
X699926Y332093D01*
X699998Y332183D01*
X700073Y332271D01*
X700151Y332356D01*
X700232Y332438D01*
X700316Y332518D01*
X700403Y332595D01*
X700492Y332668D01*
X700584Y332739D01*
X700678Y332806D01*
X700774Y332870D01*
X700872Y332931D01*
X700973Y332988D01*
X701075Y333042D01*
X701179Y333092D01*
X701285Y333139D01*
X701392Y333181D01*
X701501Y333220D01*
X701611Y333256D01*
X701723Y333287D01*
X701835Y333315D01*
X701948Y333339D01*
X702062Y333359D01*
X702176Y333375D01*
X702291Y333387D01*
X702407Y333395D01*
X702522Y333399D01*
X702638Y333399D01*
X702753Y333395D01*
X702869Y333387D01*
X702984Y333375D01*
X703098Y333359D01*
X703212Y333339D01*
X703325Y333315D01*
X703437Y333287D01*
X703549Y333256D01*
X703659Y333220D01*
X703768Y333181D01*
X703875Y333139D01*
X703981Y333092D01*
X704085Y333042D01*
X704187Y332988D01*
X704288Y332931D01*
X704386Y332870D01*
X704482Y332806D01*
X704576Y332739D01*
X704668Y332668D01*
X704757Y332595D01*
X704844Y332518D01*
X704928Y332438D01*
X705009Y332356D01*
X705087Y332271D01*
X705162Y332183D01*
X705234Y332093D01*
X705303Y332000D01*
X705369Y331905D01*
X705431Y331807D01*
X705490Y331708D01*
X705545Y331606D01*
X705597Y331503D01*
X705646Y331398D01*
X705690Y331291D01*
X705731Y331183D01*
X705769Y331074D01*
X705802Y330963D01*
X705832Y330851D01*
X705857Y330739D01*
X705879Y330625D01*
X705897Y330511D01*
X705911Y330396D01*
X705921Y330281D01*
X705927Y330166D01*
X705929Y330050D01*
X705927Y329934D01*
X705921Y329819D01*
X705911Y329704D01*
X705897Y329589D01*
X705879Y329475D01*
X705857Y329361D01*
X705832Y329249D01*
X705802Y329137D01*
X705769Y329026D01*
X705731Y328917D01*
X705690Y328809D01*
X705646Y328702D01*
X705597Y328597D01*
X705545Y328494D01*
X705490Y328392D01*
X705431Y328293D01*
X705369Y328195D01*
X705303Y328100D01*
X705234Y328007D01*
X705162Y327917D01*
X705087Y327829D01*
X705009Y327744D01*
X704928Y327662D01*
X704844Y327582D01*
X704757Y327505D01*
X704668Y327432D01*
X704576Y327361D01*
X704482Y327294D01*
X704386Y327230D01*
X704288Y327169D01*
X704187Y327112D01*
X704085Y327058D01*
X703981Y327008D01*
X703875Y326961D01*
X703768Y326919D01*
X703659Y326880D01*
X703549Y326844D01*
X703437Y326813D01*
X703325Y326785D01*
X703212Y326761D01*
X703098Y326741D01*
X702984Y326725D01*
X702869Y326713D01*
X702753Y326705D01*
X702638Y326701D01*
X702522Y326701D01*
X702407Y326705D01*
X702291Y326713D01*
X702176Y326725D01*
X702062Y326741D01*
X701948Y326761D01*
X701835Y326785D01*
X701723Y326813D01*
X701611Y326844D01*
X701501Y326880D01*
X701392Y326919D01*
X701285Y326961D01*
X701179Y327008D01*
X701075Y327058D01*
X700973Y327112D01*
X700872Y327169D01*
X700774Y327230D01*
X700678Y327294D01*
X700584Y327361D01*
X700492Y327432D01*
X700403Y327505D01*
X700316Y327582D01*
X700232Y327662D01*
X700151Y327744D01*
X700073Y327829D01*
X699998Y327917D01*
X699926Y328007D01*
X699857Y328100D01*
X699791Y328195D01*
X699729Y328293D01*
X699670Y328392D01*
X699615Y328494D01*
X699563Y328597D01*
X699514Y328702D01*
X699470Y328809D01*
X699429Y328917D01*
X699391Y329026D01*
X699358Y329137D01*
X699328Y329249D01*
X699303Y329361D01*
X699281Y329475D01*
X699263Y329589D01*
X699249Y329704D01*
X699239Y329819D01*
X699233Y329934D01*
X699231Y330050D01*
X709506Y301444D02*
X709506Y299781D01*
X710337Y298950D01*
X713663Y298950D01*
X714494Y299781D01*
X714494Y301444D01*
X713663Y302276D01*
X710337Y302276D01*
X709506Y301444D01*
X709506Y306969D02*
X710337Y307800D01*
X709506Y306969D02*
X709506Y305306D01*
X710337Y304475D01*
X713663Y304475D01*
X714494Y305306D01*
X714494Y306969D01*
X713663Y307800D01*
X710337Y310000D02*
X709506Y310831D01*
X709506Y312494D01*
X710337Y313325D01*
X711169Y313325D01*
X712000Y312494D01*
X712000Y311662D01*
X712000Y312494D02*
X712831Y313325D01*
X713663Y313325D01*
X714494Y312494D01*
X714494Y310831D01*
X713663Y310000D01*
D72*
X722170Y287020D02*
X728170Y287020D01*
D11*
X732834Y279241D02*
X737822Y279241D01*
X732834Y279241D02*
X732834Y281735D01*
X733665Y282566D01*
X735328Y282566D01*
X736159Y281735D01*
X736159Y279241D01*
X736159Y280904D02*
X737822Y282566D01*
X732834Y284766D02*
X732834Y288091D01*
X733665Y288091D01*
X736991Y284766D01*
X737822Y284766D01*
X736991Y290290D02*
X733665Y290290D01*
X732834Y291122D01*
X732834Y292785D01*
X733665Y293616D01*
X736991Y293616D01*
X737822Y292785D01*
X737822Y291122D01*
X736991Y290290D01*
X733665Y293616D01*
D73*
X688840Y394000D03*
D74*
X688838Y394044D01*
X688832Y394087D01*
X688823Y394129D01*
X688810Y394171D01*
X688793Y394211D01*
X688773Y394250D01*
X688750Y394287D01*
X688723Y394321D01*
X688694Y394354D01*
X688661Y394383D01*
X688627Y394410D01*
X688590Y394433D01*
X688551Y394453D01*
X688511Y394470D01*
X688469Y394483D01*
X688427Y394492D01*
X688384Y394498D01*
X688340Y394500D01*
X688296Y394498D01*
X688253Y394492D01*
X688211Y394483D01*
X688169Y394470D01*
X688129Y394453D01*
X688090Y394433D01*
X688053Y394410D01*
X688019Y394383D01*
X687986Y394354D01*
X687957Y394321D01*
X687930Y394287D01*
X687907Y394250D01*
X687887Y394211D01*
X687870Y394171D01*
X687857Y394129D01*
X687848Y394087D01*
X687842Y394044D01*
X687840Y394000D01*
D73*
X687840Y394000D03*
D74*
X687842Y393956D01*
X687848Y393913D01*
X687857Y393871D01*
X687870Y393829D01*
X687887Y393789D01*
X687907Y393750D01*
X687930Y393713D01*
X687957Y393679D01*
X687986Y393646D01*
X688019Y393617D01*
X688053Y393590D01*
X688090Y393567D01*
X688129Y393547D01*
X688169Y393530D01*
X688211Y393517D01*
X688253Y393508D01*
X688296Y393502D01*
X688340Y393500D01*
X688384Y393502D01*
X688427Y393508D01*
X688469Y393517D01*
X688511Y393530D01*
X688551Y393547D01*
X688590Y393567D01*
X688627Y393590D01*
X688661Y393617D01*
X688694Y393646D01*
X688723Y393679D01*
X688750Y393713D01*
X688773Y393750D01*
X688793Y393789D01*
X688810Y393829D01*
X688823Y393871D01*
X688832Y393913D01*
X688838Y393956D01*
X688840Y394000D01*
D11*
X701084Y382111D02*
X706072Y382111D01*
X701084Y382111D02*
X701084Y384605D01*
X701915Y385436D01*
X703578Y385436D01*
X704409Y384605D01*
X704409Y382111D01*
X704409Y383774D02*
X706072Y385436D01*
X701084Y387636D02*
X701084Y390961D01*
X701915Y390961D01*
X705241Y387636D01*
X706072Y387636D01*
X702747Y393160D02*
X701084Y394823D01*
X706072Y394823D01*
X706072Y393160D02*
X706072Y396486D01*
D72*
X727710Y396950D02*
X727710Y390450D01*
D11*
X734104Y370681D02*
X739092Y370681D01*
X734104Y370681D02*
X734104Y373175D01*
X734935Y374006D01*
X736598Y374006D01*
X737429Y373175D01*
X737429Y370681D01*
X737429Y372344D02*
X739092Y374006D01*
X734104Y376206D02*
X734104Y379531D01*
X734935Y379531D01*
X738261Y376206D01*
X739092Y376206D01*
X739092Y381730D02*
X739092Y385056D01*
X735767Y385056D02*
X739092Y381730D01*
X735767Y385056D02*
X734935Y385056D01*
X734104Y384225D01*
X734104Y382562D01*
X734935Y381730D01*
D72*
X722790Y416620D02*
X722790Y424120D01*
X742790Y424120D01*
X742790Y416620D01*
X722790Y416620D01*
X721290Y413120D02*
X721290Y405620D01*
D11*
X727773Y441569D02*
X727773Y444895D01*
X728605Y445726D01*
X730267Y445726D01*
X731099Y444895D01*
X731099Y441569D01*
X730267Y440738D01*
X728605Y440738D01*
X727773Y441569D01*
X729436Y442401D02*
X731099Y440738D01*
X733298Y444895D02*
X734129Y445726D01*
X735792Y445726D01*
X736624Y444895D01*
X736624Y444064D01*
X735792Y443232D01*
X734961Y443232D01*
X735792Y443232D02*
X736624Y442401D01*
X736624Y441569D01*
X735792Y440738D01*
X734129Y440738D01*
X733298Y441569D01*
D73*
X710700Y403560D03*
D74*
X710702Y403516D01*
X710708Y403473D01*
X710717Y403431D01*
X710730Y403389D01*
X710747Y403349D01*
X710767Y403310D01*
X710790Y403273D01*
X710817Y403239D01*
X710846Y403206D01*
X710879Y403177D01*
X710913Y403150D01*
X710950Y403127D01*
X710989Y403107D01*
X711029Y403090D01*
X711071Y403077D01*
X711113Y403068D01*
X711156Y403062D01*
X711200Y403060D01*
X711244Y403062D01*
X711287Y403068D01*
X711329Y403077D01*
X711371Y403090D01*
X711411Y403107D01*
X711450Y403127D01*
X711487Y403150D01*
X711521Y403177D01*
X711554Y403206D01*
X711583Y403239D01*
X711610Y403273D01*
X711633Y403310D01*
X711653Y403349D01*
X711670Y403389D01*
X711683Y403431D01*
X711692Y403473D01*
X711698Y403516D01*
X711700Y403560D01*
D73*
X711700Y403560D03*
D74*
X711698Y403604D01*
X711692Y403647D01*
X711683Y403689D01*
X711670Y403731D01*
X711653Y403771D01*
X711633Y403810D01*
X711610Y403847D01*
X711583Y403881D01*
X711554Y403914D01*
X711521Y403943D01*
X711487Y403970D01*
X711450Y403993D01*
X711411Y404013D01*
X711371Y404030D01*
X711329Y404043D01*
X711287Y404052D01*
X711244Y404058D01*
X711200Y404060D01*
X711156Y404058D01*
X711113Y404052D01*
X711071Y404043D01*
X711029Y404030D01*
X710989Y404013D01*
X710950Y403993D01*
X710913Y403970D01*
X710879Y403943D01*
X710846Y403914D01*
X710817Y403881D01*
X710790Y403847D01*
X710767Y403810D01*
X710747Y403771D01*
X710730Y403731D01*
X710717Y403689D01*
X710708Y403647D01*
X710702Y403604D01*
X710700Y403560D01*
D11*
X703421Y429308D02*
X703421Y434296D01*
X705915Y434296D01*
X706746Y433465D01*
X706746Y431802D01*
X705915Y430971D01*
X703421Y430971D01*
X705084Y430971D02*
X706746Y429308D01*
X708946Y434296D02*
X712271Y434296D01*
X712271Y433465D01*
X708946Y430139D01*
X708946Y429308D01*
X714470Y433465D02*
X715302Y434296D01*
X716964Y434296D01*
X717796Y433465D01*
X717796Y432634D01*
X716964Y431802D01*
X716133Y431802D01*
X716964Y431802D02*
X717796Y430971D01*
X717796Y430139D01*
X716964Y429308D01*
X715302Y429308D01*
X714470Y430139D01*
D74*
X694690Y437720D02*
X694646Y437722D01*
X694603Y437728D01*
X694561Y437737D01*
X694519Y437750D01*
X694479Y437767D01*
X694440Y437787D01*
X694403Y437810D01*
X694369Y437837D01*
X694336Y437866D01*
X694307Y437899D01*
X694280Y437933D01*
X694257Y437970D01*
X694237Y438009D01*
X694220Y438049D01*
X694207Y438091D01*
X694198Y438133D01*
X694192Y438176D01*
X694190Y438220D01*
X694192Y438264D01*
X694198Y438307D01*
X694207Y438349D01*
X694220Y438391D01*
X694237Y438431D01*
X694257Y438470D01*
X694280Y438507D01*
X694307Y438541D01*
X694336Y438574D01*
X694369Y438603D01*
X694403Y438630D01*
X694440Y438653D01*
X694479Y438673D01*
X694519Y438690D01*
X694561Y438703D01*
X694603Y438712D01*
X694646Y438718D01*
X694690Y438720D01*
X694734Y438718D01*
X694777Y438712D01*
X694819Y438703D01*
X694861Y438690D01*
X694901Y438673D01*
X694940Y438653D01*
X694977Y438630D01*
X695011Y438603D01*
X695044Y438574D01*
X695073Y438541D01*
X695100Y438507D01*
X695123Y438470D01*
X695143Y438431D01*
X695160Y438391D01*
X695173Y438349D01*
X695182Y438307D01*
X695188Y438264D01*
X695190Y438220D01*
X695188Y438176D01*
X695182Y438133D01*
X695173Y438091D01*
X695160Y438049D01*
X695143Y438009D01*
X695123Y437970D01*
X695100Y437933D01*
X695073Y437899D01*
X695044Y437866D01*
X695011Y437837D01*
X694977Y437810D01*
X694940Y437787D01*
X694901Y437767D01*
X694861Y437750D01*
X694819Y437737D01*
X694777Y437728D01*
X694734Y437722D01*
X694690Y437720D01*
D71*
X687070Y408940D02*
X702310Y408940D01*
X698500Y414020D01*
X694690Y419100D01*
X687070Y408940D01*
X688340Y410210D02*
X701040Y410210D01*
X689610Y411480D02*
X688340Y410210D01*
X689610Y411480D02*
X699770Y411480D01*
X698500Y412750D01*
X690880Y412750D01*
X692150Y414020D01*
X697230Y414020D02*
X698500Y414020D01*
X694690Y417830D02*
X689610Y411480D01*
X697230Y414020D02*
X694690Y417830D01*
X695960Y414020D02*
X697230Y414020D01*
X695960Y414020D02*
X692150Y414020D01*
X693420Y415290D01*
X694690Y416560D01*
X695960Y414020D01*
X694690Y415290D01*
X693420Y415290D01*
D11*
X708704Y376586D02*
X713692Y376586D01*
X713692Y379912D01*
X708704Y382111D02*
X708704Y385436D01*
X708704Y382111D02*
X713692Y382111D01*
X713692Y385436D01*
X711198Y383774D02*
X711198Y382111D01*
X708704Y387636D02*
X713692Y387636D01*
X713692Y390130D01*
X712861Y390961D01*
X709535Y390961D01*
X708704Y390130D01*
X708704Y387636D01*
X710367Y393160D02*
X708704Y394823D01*
X713692Y394823D01*
X713692Y393160D02*
X713692Y396486D01*
X712861Y398685D02*
X713692Y399516D01*
X713692Y401179D01*
X712861Y402011D01*
X709535Y402011D01*
X708704Y401179D01*
X708704Y399516D01*
X709535Y398685D01*
X710367Y398685D01*
X711198Y399516D01*
X711198Y402011D01*
D72*
X158750Y498650D02*
X158750Y504650D01*
D11*
X176371Y504146D02*
X176371Y499158D01*
X176371Y504146D02*
X178865Y504146D01*
X179696Y503315D01*
X179696Y501652D01*
X178865Y500821D01*
X176371Y500821D01*
X178034Y500821D02*
X179696Y499158D01*
X181896Y502484D02*
X183558Y504146D01*
X183558Y499158D01*
X181896Y499158D02*
X185221Y499158D01*
X189915Y499158D02*
X189915Y504146D01*
X187420Y501652D01*
X190746Y501652D01*
D72*
X158750Y493220D02*
X158750Y487220D01*
D11*
X176371Y487728D02*
X176371Y492716D01*
X178865Y492716D01*
X179696Y491885D01*
X179696Y490222D01*
X178865Y489391D01*
X176371Y489391D01*
X178034Y489391D02*
X179696Y487728D01*
X181896Y487728D02*
X185221Y487728D01*
X181896Y487728D02*
X185221Y491054D01*
X185221Y491885D01*
X184390Y492716D01*
X182727Y492716D01*
X181896Y491885D01*
X187420Y491054D02*
X189083Y492716D01*
X189083Y487728D01*
X187420Y487728D02*
X190746Y487728D01*
D77*
X472440Y317500D02*
X478790Y323850D01*
X472440Y317500D02*
X459740Y317500D01*
X453390Y323850D01*
X453390Y336550D01*
X459740Y342900D01*
X472440Y342900D01*
X478790Y336550D01*
X510540Y317500D02*
X523240Y317500D01*
X510540Y317500D02*
X504190Y323850D01*
X504190Y336550D01*
X510540Y342900D01*
X504190Y323850D02*
X497840Y317500D01*
X485140Y317500D01*
X478790Y323850D01*
X478790Y336550D01*
X485140Y342900D01*
X497840Y342900D01*
X504190Y336550D01*
X529590Y336550D02*
X529590Y323850D01*
X523240Y317500D01*
X529590Y336550D02*
X523240Y342900D01*
X510540Y342900D01*
X447040Y317500D02*
X434340Y317500D01*
X427990Y323850D01*
X427990Y336550D01*
X434340Y342900D01*
X453390Y323850D02*
X447040Y317500D01*
X453390Y336550D02*
X447040Y342900D01*
X434340Y342900D01*
D79*
X430684Y312933D02*
X430684Y307340D01*
X430684Y312933D02*
X433480Y312933D01*
X434412Y312001D01*
X434412Y310136D01*
X433480Y309204D01*
X430684Y309204D01*
X436297Y307340D02*
X436297Y312933D01*
X439093Y312933D01*
X440025Y312001D01*
X440025Y310136D01*
X439093Y309204D01*
X436297Y309204D01*
X438161Y309204D02*
X440025Y307340D01*
X442842Y312933D02*
X444706Y312933D01*
X442842Y312933D02*
X441910Y312001D01*
X441910Y308272D01*
X442842Y307340D01*
X444706Y307340D01*
X445638Y308272D01*
X445638Y312001D01*
X444706Y312933D01*
X450319Y312933D02*
X451251Y312001D01*
X450319Y312933D02*
X448455Y312933D01*
X447523Y312001D01*
X447523Y308272D01*
X448455Y307340D01*
X450319Y307340D01*
X451251Y308272D01*
X451251Y310136D01*
X449387Y310136D01*
M02*
