G04 EAGLE Gerber RS-274X export*
G75*
%MOMM*%
%FSLAX34Y34*%
%LPD*%
%INSilkscreen Bottom*%
%IPPOS*%
%AMOC8*
5,1,8,0,0,1.08239X$1,22.5*%
G01*
%ADD10C,0.101600*%


D10*
X82502Y310524D02*
X82502Y307199D01*
X80839Y305536D01*
X79176Y307199D01*
X79176Y310524D01*
X76977Y310524D02*
X76977Y305536D01*
X76977Y310524D02*
X74483Y310524D01*
X73651Y309693D01*
X73651Y308862D01*
X74483Y308030D01*
X73651Y307199D01*
X73651Y306367D01*
X74483Y305536D01*
X76977Y305536D01*
X76977Y308030D02*
X74483Y308030D01*
X71452Y308862D02*
X71452Y305536D01*
X71452Y308862D02*
X69789Y310524D01*
X68127Y308862D01*
X68127Y305536D01*
X68127Y308030D02*
X71452Y308030D01*
X64265Y305536D02*
X64265Y310524D01*
X65927Y310524D02*
X62602Y310524D01*
X60403Y308030D02*
X57077Y308030D01*
X85042Y286394D02*
X85042Y283069D01*
X83379Y281406D01*
X81716Y283069D01*
X81716Y286394D01*
X79517Y286394D02*
X79517Y281406D01*
X79517Y286394D02*
X77023Y286394D01*
X76191Y285563D01*
X76191Y284732D01*
X77023Y283900D01*
X76191Y283069D01*
X76191Y282237D01*
X77023Y281406D01*
X79517Y281406D01*
X79517Y283900D02*
X77023Y283900D01*
X73992Y284732D02*
X73992Y281406D01*
X73992Y284732D02*
X72329Y286394D01*
X70667Y284732D01*
X70667Y281406D01*
X70667Y283900D02*
X73992Y283900D01*
X66805Y281406D02*
X66805Y286394D01*
X68467Y286394D02*
X65142Y286394D01*
X62943Y283900D02*
X59617Y283900D01*
X61280Y285563D02*
X61280Y282237D01*
X81139Y53387D02*
X84464Y53387D01*
X81139Y53387D02*
X79476Y55050D01*
X81139Y56712D01*
X84464Y56712D01*
X79476Y58912D02*
X79476Y60574D01*
X79476Y59743D02*
X84464Y59743D01*
X84464Y58912D02*
X84464Y60574D01*
X84464Y62595D02*
X79476Y62595D01*
X79476Y65920D02*
X84464Y62595D01*
X84464Y65920D02*
X79476Y65920D01*
X84464Y73644D02*
X84464Y76970D01*
X84464Y73644D02*
X81970Y73644D01*
X82802Y75307D01*
X82802Y76138D01*
X81970Y76970D01*
X80307Y76970D01*
X79476Y76138D01*
X79476Y74476D01*
X80307Y73644D01*
X81970Y79169D02*
X81970Y82494D01*
X83633Y84694D02*
X84464Y85525D01*
X84464Y87188D01*
X83633Y88019D01*
X82802Y88019D01*
X81970Y87188D01*
X81970Y86356D01*
X81970Y87188D02*
X81139Y88019D01*
X80307Y88019D01*
X79476Y87188D01*
X79476Y85525D01*
X80307Y84694D01*
X80307Y90218D02*
X83633Y90218D01*
X84464Y91050D01*
X84464Y92713D01*
X83633Y93544D01*
X80307Y93544D01*
X79476Y92713D01*
X79476Y91050D01*
X80307Y90218D01*
X83633Y93544D01*
X84464Y101268D02*
X81139Y101268D01*
X79476Y102931D01*
X81139Y104593D01*
X84464Y104593D01*
X84464Y106793D02*
X79476Y106793D01*
X79476Y109287D01*
X80307Y110118D01*
X83633Y110118D01*
X84464Y109287D01*
X84464Y106793D01*
X84464Y114811D02*
X83633Y115643D01*
X84464Y114811D02*
X84464Y113149D01*
X83633Y112317D01*
X80307Y112317D01*
X79476Y113149D01*
X79476Y114811D01*
X80307Y115643D01*
M02*
