G04 EAGLE Gerber RS-274X export*
G75*
%MOMM*%
%FSLAX34Y34*%
%LPD*%
%INSoldermask Top*%
%IPPOS*%
%AMOC8*
5,1,8,0,0,1.08239X$1,22.5*%
G01*
%ADD10C,3.403200*%
%ADD11R,1.203200X1.303200*%
%ADD12R,2.203200X1.103200*%
%ADD13R,1.103200X2.203200*%
%ADD14R,1.533200X1.533200*%
%ADD15C,0.911200*%
%ADD16R,1.153200X1.103200*%
%ADD17R,1.103200X0.853200*%
%ADD18R,1.603200X1.103200*%
%ADD19R,1.143200X1.003200*%
%ADD20R,3.103200X5.603200*%
%ADD21R,1.511200X1.511200*%
%ADD22C,1.511200*%
%ADD23R,1.753200X2.553200*%
%ADD24R,1.673200X1.223200*%
%ADD25R,2.203200X4.303200*%
%ADD26R,1.223200X2.363200*%
%ADD27R,8.533200X7.193200*%
%ADD28R,1.438200X2.113200*%
%ADD29R,1.403200X0.753200*%
%ADD30C,0.301600*%
%ADD31C,0.353406*%
%ADD32R,2.616200X3.505200*%
%ADD33R,1.103200X1.153200*%
%ADD34R,1.413200X0.933200*%
%ADD35R,0.762000X1.524000*%
%ADD36R,0.711200X1.524000*%
%ADD37R,1.003200X1.143200*%
%ADD38P,2.034460X8X112.500000*%
%ADD39P,2.034460X8X22.500000*%
%ADD40R,0.753200X1.253200*%
%ADD41R,1.403200X1.653200*%
%ADD42R,1.203200X1.103200*%
%ADD43C,1.219200*%
%ADD44R,2.489200X5.283200*%
%ADD45R,2.023200X1.813200*%
%ADD46R,0.953200X0.703200*%
%ADD47R,2.003200X1.403200*%
%ADD48R,2.403200X1.403200*%
%ADD49R,1.703200X1.803200*%
%ADD50R,1.003200X1.153200*%
%ADD51R,1.803200X2.383200*%
%ADD52R,2.003200X2.003200*%
%ADD53C,2.003200*%
%ADD54R,0.803200X1.703200*%
%ADD55R,1.653200X1.203200*%
%ADD56R,0.803200X1.203200*%
%ADD57R,0.853200X1.103200*%
%ADD58R,1.103200X1.203200*%
%ADD59R,0.703200X0.953200*%
%ADD60C,1.727200*%

G36*
X315115Y483537D02*
X315115Y483537D01*
X315129Y483535D01*
X318415Y486821D01*
X318419Y486848D01*
X318429Y486856D01*
X318429Y509570D01*
X318393Y509617D01*
X318386Y509612D01*
X318380Y509619D01*
X301380Y509619D01*
X301333Y509583D01*
X301338Y509576D01*
X301331Y509570D01*
X301331Y483570D01*
X301367Y483523D01*
X301374Y483528D01*
X301380Y483521D01*
X315094Y483521D01*
X315115Y483537D01*
G37*
G36*
X298815Y503537D02*
X298815Y503537D01*
X298829Y503535D01*
X300415Y505121D01*
X300416Y505132D01*
X300417Y505133D01*
X300417Y505134D01*
X300419Y505148D01*
X300429Y505156D01*
X300429Y507984D01*
X300413Y508005D01*
X300415Y508019D01*
X298829Y509605D01*
X298802Y509609D01*
X298794Y509619D01*
X292380Y509619D01*
X292333Y509583D01*
X292338Y509576D01*
X292331Y509570D01*
X292331Y503570D01*
X292367Y503523D01*
X292374Y503528D01*
X292380Y503521D01*
X298794Y503521D01*
X298815Y503537D01*
G37*
G36*
X298815Y483537D02*
X298815Y483537D01*
X298829Y483535D01*
X300415Y485121D01*
X300416Y485132D01*
X300417Y485133D01*
X300417Y485134D01*
X300419Y485148D01*
X300429Y485156D01*
X300429Y487984D01*
X300413Y488005D01*
X300415Y488019D01*
X298829Y489605D01*
X298802Y489609D01*
X298794Y489619D01*
X292380Y489619D01*
X292333Y489583D01*
X292338Y489576D01*
X292331Y489570D01*
X292331Y483570D01*
X292367Y483523D01*
X292374Y483528D01*
X292380Y483521D01*
X298794Y483521D01*
X298815Y483537D01*
G37*
G36*
X298815Y493537D02*
X298815Y493537D01*
X298829Y493535D01*
X300415Y495121D01*
X300416Y495132D01*
X300417Y495133D01*
X300417Y495134D01*
X300419Y495148D01*
X300429Y495156D01*
X300429Y497984D01*
X300413Y498005D01*
X300415Y498019D01*
X298829Y499605D01*
X298802Y499609D01*
X298794Y499619D01*
X292380Y499619D01*
X292333Y499583D01*
X292338Y499576D01*
X292331Y499570D01*
X292331Y493570D01*
X292367Y493523D01*
X292374Y493528D01*
X292380Y493521D01*
X298794Y493521D01*
X298815Y493537D01*
G37*
G36*
X327427Y503557D02*
X327427Y503557D01*
X327422Y503564D01*
X327429Y503570D01*
X327429Y509570D01*
X327393Y509617D01*
X327386Y509612D01*
X327380Y509619D01*
X320966Y509619D01*
X320945Y509603D01*
X320931Y509605D01*
X319345Y508019D01*
X319342Y507992D01*
X319331Y507984D01*
X319331Y505156D01*
X319347Y505135D01*
X319345Y505121D01*
X320931Y503535D01*
X320958Y503532D01*
X320966Y503521D01*
X327380Y503521D01*
X327427Y503557D01*
G37*
G36*
X327427Y493557D02*
X327427Y493557D01*
X327422Y493564D01*
X327429Y493570D01*
X327429Y499570D01*
X327393Y499617D01*
X327386Y499612D01*
X327380Y499619D01*
X320966Y499619D01*
X320945Y499603D01*
X320931Y499605D01*
X319345Y498019D01*
X319342Y497992D01*
X319331Y497984D01*
X319331Y495156D01*
X319347Y495135D01*
X319345Y495121D01*
X320931Y493535D01*
X320958Y493532D01*
X320966Y493521D01*
X327380Y493521D01*
X327427Y493557D01*
G37*
G36*
X327427Y483557D02*
X327427Y483557D01*
X327422Y483564D01*
X327429Y483570D01*
X327429Y489570D01*
X327393Y489617D01*
X327386Y489612D01*
X327380Y489619D01*
X320966Y489619D01*
X320945Y489603D01*
X320931Y489605D01*
X319345Y488019D01*
X319342Y487992D01*
X319331Y487984D01*
X319331Y485156D01*
X319347Y485135D01*
X319345Y485121D01*
X320931Y483535D01*
X320958Y483532D01*
X320966Y483521D01*
X327380Y483521D01*
X327427Y483557D01*
G37*
D10*
X252730Y110490D03*
X894080Y109220D03*
X894080Y459740D03*
X252730Y459740D03*
D11*
X645160Y146440D03*
X645160Y163440D03*
D12*
X604430Y117580D03*
X604430Y130280D03*
X604430Y142980D03*
X604430Y155680D03*
X604430Y168380D03*
X604430Y181080D03*
X604430Y193780D03*
X604430Y206480D03*
X604430Y219180D03*
X604430Y231880D03*
X604430Y244580D03*
X604430Y257280D03*
X604430Y269980D03*
X604430Y282680D03*
D13*
X576580Y292680D03*
X563880Y292680D03*
X551180Y292680D03*
X538480Y292680D03*
X525780Y292680D03*
X513080Y292680D03*
X500380Y292680D03*
X487680Y292680D03*
X474980Y292680D03*
X462280Y292680D03*
D12*
X434430Y282680D03*
X434430Y269980D03*
X434430Y257280D03*
X434430Y244580D03*
X434430Y231880D03*
X434430Y219180D03*
X434430Y206480D03*
X434430Y193780D03*
X434430Y181080D03*
X434430Y168380D03*
X434430Y155680D03*
X434430Y142980D03*
X434430Y130280D03*
X434430Y117580D03*
D14*
X547780Y174230D03*
X529430Y174230D03*
X511080Y174230D03*
X547780Y192580D03*
X529430Y192580D03*
X511080Y192580D03*
X547780Y210930D03*
X529430Y210930D03*
X511080Y210930D03*
D15*
X538605Y174230D03*
X520255Y174230D03*
X547780Y183405D03*
X529430Y183405D03*
X511080Y183405D03*
X538605Y192580D03*
X520255Y192580D03*
X547780Y201755D03*
X529430Y201755D03*
X511080Y201755D03*
X538605Y210930D03*
X520255Y210930D03*
D16*
X631190Y161670D03*
X631190Y145670D03*
D17*
X345440Y248550D03*
X345440Y234050D03*
D18*
X332740Y192430D03*
X332740Y211430D03*
D19*
X637540Y116490D03*
X637540Y129890D03*
X626110Y116490D03*
X626110Y129890D03*
D20*
X297210Y104140D03*
X396210Y104140D03*
D21*
X140970Y259080D03*
D22*
X175970Y259080D03*
D23*
X224790Y224880D03*
X224790Y267880D03*
D24*
X224790Y187480D03*
X224790Y203680D03*
D25*
X55880Y159700D03*
X55880Y246700D03*
D26*
X202910Y191920D03*
X185910Y191920D03*
X168910Y191920D03*
X151910Y191920D03*
X134910Y191920D03*
D27*
X168910Y85170D03*
D28*
X121085Y59770D03*
X216735Y59770D03*
D29*
X174290Y328320D03*
X174290Y337820D03*
X174290Y347320D03*
X148290Y347320D03*
X148290Y328320D03*
X148290Y337820D03*
D30*
X177252Y379082D02*
X191868Y379082D01*
X177252Y379082D02*
X177252Y382098D01*
X191868Y382098D01*
X191868Y379082D01*
X191868Y381947D02*
X177252Y381947D01*
X177252Y372582D02*
X191868Y372582D01*
X177252Y372582D02*
X177252Y375598D01*
X191868Y375598D01*
X191868Y372582D01*
X191868Y375447D02*
X177252Y375447D01*
X177252Y366082D02*
X191868Y366082D01*
X177252Y366082D02*
X177252Y369098D01*
X191868Y369098D01*
X191868Y366082D01*
X191868Y368947D02*
X177252Y368947D01*
X177252Y359582D02*
X191868Y359582D01*
X177252Y359582D02*
X177252Y362598D01*
X191868Y362598D01*
X191868Y359582D01*
X191868Y362447D02*
X177252Y362447D01*
X234852Y359582D02*
X249468Y359582D01*
X234852Y359582D02*
X234852Y362598D01*
X249468Y362598D01*
X249468Y359582D01*
X249468Y362447D02*
X234852Y362447D01*
X234852Y366082D02*
X249468Y366082D01*
X234852Y366082D02*
X234852Y369098D01*
X249468Y369098D01*
X249468Y366082D01*
X249468Y368947D02*
X234852Y368947D01*
X234852Y372582D02*
X249468Y372582D01*
X234852Y372582D02*
X234852Y375598D01*
X249468Y375598D01*
X249468Y372582D01*
X249468Y375447D02*
X234852Y375447D01*
X234852Y379082D02*
X249468Y379082D01*
X234852Y379082D02*
X234852Y382098D01*
X249468Y382098D01*
X249468Y379082D01*
X249468Y381947D02*
X234852Y381947D01*
D31*
X269681Y352081D02*
X287879Y352081D01*
X269681Y352081D02*
X269681Y356579D01*
X287879Y356579D01*
X287879Y352081D01*
X287879Y355438D02*
X269681Y355438D01*
X269681Y339381D02*
X287879Y339381D01*
X269681Y339381D02*
X269681Y343879D01*
X287879Y343879D01*
X287879Y339381D01*
X287879Y342738D02*
X269681Y342738D01*
X269681Y326681D02*
X287879Y326681D01*
X269681Y326681D02*
X269681Y331179D01*
X287879Y331179D01*
X287879Y326681D01*
X287879Y330038D02*
X269681Y330038D01*
X269681Y313981D02*
X287879Y313981D01*
X269681Y313981D02*
X269681Y318479D01*
X287879Y318479D01*
X287879Y313981D01*
X287879Y317338D02*
X269681Y317338D01*
X319181Y313981D02*
X337379Y313981D01*
X319181Y313981D02*
X319181Y318479D01*
X337379Y318479D01*
X337379Y313981D01*
X337379Y317338D02*
X319181Y317338D01*
X319181Y326681D02*
X337379Y326681D01*
X319181Y326681D02*
X319181Y331179D01*
X337379Y331179D01*
X337379Y326681D01*
X337379Y330038D02*
X319181Y330038D01*
X319181Y339381D02*
X337379Y339381D01*
X319181Y339381D02*
X319181Y343879D01*
X337379Y343879D01*
X337379Y339381D01*
X337379Y342738D02*
X319181Y342738D01*
X319181Y352081D02*
X337379Y352081D01*
X319181Y352081D02*
X319181Y356579D01*
X337379Y356579D01*
X337379Y352081D01*
X337379Y355438D02*
X319181Y355438D01*
D32*
X303530Y335280D03*
D16*
X313690Y248030D03*
X313690Y232030D03*
D18*
X308610Y192430D03*
X308610Y211430D03*
X284480Y192430D03*
X284480Y211430D03*
D16*
X330200Y248030D03*
X330200Y232030D03*
D33*
X216790Y347980D03*
X232790Y347980D03*
D34*
X254980Y233680D03*
X288580Y233680D03*
D35*
X260858Y210312D03*
X242062Y210312D03*
D36*
X251460Y188468D03*
D37*
X218090Y325120D03*
X231490Y325120D03*
X218090Y336550D03*
X231490Y336550D03*
D19*
X259080Y264510D03*
X259080Y251110D03*
D16*
X123190Y337946D03*
X123190Y321946D03*
D19*
X134620Y323500D03*
X134620Y336900D03*
D33*
X204850Y337820D03*
X188850Y337820D03*
D19*
X111760Y336900D03*
X111760Y323500D03*
D38*
X36830Y293530D03*
X36830Y313530D03*
D39*
X381480Y476250D03*
X401480Y476250D03*
X421480Y476250D03*
X441480Y476250D03*
D40*
X280060Y272750D03*
X289560Y272750D03*
X299060Y272750D03*
X299060Y298750D03*
X280060Y298750D03*
D19*
X247650Y264510D03*
X247650Y251110D03*
D41*
X320430Y274320D03*
X337430Y274320D03*
D16*
X218440Y296800D03*
X218440Y312800D03*
D42*
X231140Y296800D03*
X231140Y312800D03*
D43*
X669370Y252910D02*
X699850Y252910D01*
X829370Y252910D02*
X859850Y252910D01*
X699850Y232910D02*
X669370Y232910D01*
X669370Y212910D02*
X699850Y212910D01*
X699850Y192910D02*
X669370Y192910D01*
X669370Y172910D02*
X699850Y172910D01*
X699850Y152910D02*
X669370Y152910D01*
X669370Y132910D02*
X699850Y132910D01*
X699850Y112910D02*
X669370Y112910D01*
X829370Y232910D02*
X859850Y232910D01*
X859850Y212910D02*
X829370Y212910D01*
X829370Y192910D02*
X859850Y192910D01*
X859850Y172910D02*
X829370Y172910D01*
X829370Y152910D02*
X859850Y152910D01*
X859850Y132910D02*
X829370Y132910D01*
X829370Y112910D02*
X859850Y112910D01*
D44*
X803910Y71374D03*
X759714Y71374D03*
X848106Y71374D03*
D19*
X648970Y116490D03*
X648970Y129890D03*
D16*
X378460Y209930D03*
X378460Y193930D03*
X367030Y209930D03*
X367030Y193930D03*
X302260Y232030D03*
X302260Y248030D03*
D45*
X99804Y69332D03*
X99804Y95332D03*
D46*
X126710Y490860D03*
X126710Y479860D03*
X126710Y468860D03*
X126710Y457860D03*
X126710Y446860D03*
X126710Y435860D03*
X126710Y424860D03*
X126710Y413860D03*
X126710Y402860D03*
D47*
X116460Y502860D03*
D48*
X23460Y502860D03*
D49*
X118960Y359610D03*
D48*
X23460Y347860D03*
D33*
X140590Y383540D03*
X156590Y383540D03*
X152020Y408940D03*
X168020Y408940D03*
X152020Y443230D03*
X168020Y443230D03*
X150750Y467360D03*
X166750Y467360D03*
D50*
X150750Y478790D03*
X166750Y478790D03*
X150750Y454660D03*
X166750Y454660D03*
X152020Y431800D03*
X168020Y431800D03*
X152020Y420370D03*
X168020Y420370D03*
X152020Y397510D03*
X168020Y397510D03*
D19*
X353060Y306420D03*
X353060Y293020D03*
D51*
X382270Y346990D03*
X382270Y254990D03*
D52*
X58420Y105410D03*
D53*
X58420Y67310D03*
D52*
X558800Y468630D03*
D53*
X520700Y468630D03*
D54*
X775970Y374650D03*
X750570Y374650D03*
X750570Y311150D03*
X775970Y311150D03*
D55*
X775970Y401980D03*
X775970Y420980D03*
D16*
X899160Y419480D03*
X899160Y403480D03*
D21*
X756920Y426720D03*
D22*
X756920Y401320D03*
D17*
X775970Y282310D03*
X775970Y296810D03*
D54*
X824230Y374650D03*
X798830Y374650D03*
X798830Y311150D03*
X824230Y311150D03*
D55*
X814070Y401980D03*
X814070Y420980D03*
D16*
X883920Y419480D03*
X883920Y403480D03*
D21*
X795020Y426720D03*
D22*
X795020Y401320D03*
D17*
X824230Y282310D03*
X824230Y296810D03*
D52*
X694690Y468630D03*
D53*
X656590Y468630D03*
X618490Y468630D03*
D52*
X833120Y468630D03*
D53*
X795020Y468630D03*
X756920Y468630D03*
D54*
X873760Y375920D03*
X848360Y375920D03*
X848360Y312420D03*
X873760Y312420D03*
D55*
X852170Y401980D03*
X852170Y420980D03*
D16*
X869950Y419480D03*
X869950Y403480D03*
D21*
X833120Y426720D03*
D22*
X833120Y401320D03*
D17*
X873760Y282310D03*
X873760Y296810D03*
D56*
X601980Y310500D03*
X627380Y310500D03*
X627380Y375300D03*
X601980Y375300D03*
D16*
X627380Y279020D03*
X627380Y295020D03*
D57*
X570600Y375920D03*
X585100Y375920D03*
D58*
X546990Y396240D03*
X562990Y396240D03*
D59*
X548490Y408100D03*
X561490Y408100D03*
X554990Y430100D03*
D17*
X637540Y402960D03*
X637540Y417460D03*
D21*
X618490Y426720D03*
D22*
X618490Y401320D03*
D56*
X650240Y310500D03*
X675640Y310500D03*
X675640Y375300D03*
X650240Y375300D03*
D16*
X675640Y277750D03*
X675640Y293750D03*
D17*
X638810Y386980D03*
X638810Y372480D03*
D58*
X577470Y396240D03*
X593470Y396240D03*
D59*
X578970Y408100D03*
X591970Y408100D03*
X585470Y430100D03*
D17*
X675640Y402960D03*
X675640Y417460D03*
D21*
X656590Y426720D03*
D22*
X656590Y401320D03*
D56*
X699770Y310500D03*
X725170Y310500D03*
X725170Y375300D03*
X699770Y375300D03*
D16*
X725170Y279020D03*
X725170Y295020D03*
D17*
X688340Y388250D03*
X688340Y373750D03*
D58*
X719710Y393700D03*
X735710Y393700D03*
D59*
X726290Y409370D03*
X739290Y409370D03*
X732790Y431370D03*
D17*
X711200Y409310D03*
X711200Y423810D03*
D21*
X694690Y426720D03*
D22*
X694690Y401320D03*
D33*
X150750Y501650D03*
X166750Y501650D03*
D50*
X150750Y490220D03*
X166750Y490220D03*
D60*
X516890Y337820D02*
X516890Y322580D01*
X491490Y322580D02*
X491490Y337820D01*
X466090Y337820D02*
X466090Y322580D01*
X440690Y322580D02*
X440690Y337820D01*
M02*
