G04 EAGLE Gerber RS-274X export*
G75*
%MOMM*%
%FSLAX34Y34*%
%LPD*%
%INSoldermask Bottom*%
%IPPOS*%
%AMOC8*
5,1,8,0,0,1.08239X$1,22.5*%
G01*
%ADD10C,3.403200*%
%ADD11C,0.911200*%
%ADD12R,1.511200X1.511200*%
%ADD13C,1.511200*%
%ADD14P,2.034460X8X112.500000*%
%ADD15P,2.034460X8X22.500000*%
%ADD16R,2.489200X5.283200*%
%ADD17R,2.003200X2.003200*%
%ADD18C,2.003200*%
%ADD19C,1.727200*%


D10*
X252730Y110490D03*
X894080Y109220D03*
X894080Y459740D03*
X252730Y459740D03*
D11*
X538605Y174230D03*
X520255Y174230D03*
X547780Y183405D03*
X529430Y183405D03*
X511080Y183405D03*
X538605Y192580D03*
X520255Y192580D03*
X547780Y201755D03*
X529430Y201755D03*
X511080Y201755D03*
X538605Y210930D03*
X520255Y210930D03*
D12*
X140970Y259080D03*
D13*
X175970Y259080D03*
D14*
X36830Y293530D03*
X36830Y313530D03*
D15*
X381480Y476250D03*
X401480Y476250D03*
X421480Y476250D03*
X441480Y476250D03*
D16*
X848106Y71374D03*
X759714Y71374D03*
D17*
X58420Y105410D03*
D18*
X58420Y67310D03*
D17*
X558800Y468630D03*
D18*
X520700Y468630D03*
D12*
X756920Y426720D03*
D13*
X756920Y401320D03*
D12*
X795020Y426720D03*
D13*
X795020Y401320D03*
D17*
X694690Y468630D03*
D18*
X656590Y468630D03*
X618490Y468630D03*
D17*
X833120Y468630D03*
D18*
X795020Y468630D03*
X756920Y468630D03*
D12*
X833120Y426720D03*
D13*
X833120Y401320D03*
D12*
X618490Y426720D03*
D13*
X618490Y401320D03*
D12*
X656590Y426720D03*
D13*
X656590Y401320D03*
D12*
X694690Y426720D03*
D13*
X694690Y401320D03*
D19*
X516890Y337820D02*
X516890Y322580D01*
X491490Y322580D02*
X491490Y337820D01*
X466090Y337820D02*
X466090Y322580D01*
X440690Y322580D02*
X440690Y337820D01*
M02*
